<?xml version="1.0" encoding="utf-8"?>
<!-- Generator: Adobe Illustrator 26.3.1, SVG Export Plug-In . SVG Version: 6.00 Build 0)  -->
<svg version="1.1" id="Layer_1" xmlns="http://www.w3.org/2000/svg" xmlns:xlink="http://www.w3.org/1999/xlink" x="0px" y="0px"
	 viewBox="0 0 421 334" style="enable-background:new 0 0 421 334;" xml:space="preserve">
<style type="text/css">
	
		.st0{opacity:0.75;clip-path:url(#SVGID_00000060751959177626622470000001277297650521352366_);fill:#FFFFFF;fill-opacity:0.7;enable-background:new    ;}
	.st1{clip-path:url(#SVGID_00000060751959177626622470000001277297650521352366_);fill:#FFFFFF;fill-opacity:0.2;}
	.st2{clip-path:url(#SVGID_00000060751959177626622470000001277297650521352366_);fill:#F7F7F7;}
</style>
<g>
	<defs>
		<rect id="SVGID_1_" width="421" height="334"/>
	</defs>
	<clipPath id="SVGID_00000030488430393537249950000011914508315689027477_">
		<use xlink:href="#SVGID_1_"  style="overflow:visible;"/>
	</clipPath>
	
		<path style="opacity:0.75;clip-path:url(#SVGID_00000030488430393537249950000011914508315689027477_);fill:#FFFFFF;fill-opacity:0.7;enable-background:new    ;" d="
		M-32,355.5c12.1,14.3,45.3,52.6,105.1,67.4c72.2,17.8,167.9-2.5,185.6-47.2c18.1-45.7-62.6-72.8-92.3-178.8
		C141.3,107.2,180,58.8,146,37.8C106.2,13,12.6,54.7-35,113.3c-5.1,6.2-22.8,28.9-33.2,63.4C-71.4,187.1-97,278.3-32,355.5z"/>
	<path style="clip-path:url(#SVGID_00000030488430393537249950000011914508315689027477_);fill:#FFFFFF;fill-opacity:0.2;" d="
		M125.4,453.4c21.4,4,79.2,14.1,140.1-12.3c73.5-31.9,136-110.2,114.9-158.4c-21.5-49.2-109.5-19.5-218.6-87.5
		C69.7,137.7,62.9,73.1,18.2,77.6C-34.3,83-78,177.5-70.4,256.3c0.8,8.4,4.3,38.5,23.3,73.5C-41.4,340.4,10.3,431.8,125.4,453.4
		L125.4,453.4z"/>
	<path style="clip-path:url(#SVGID_00000030488430393537249950000011914508315689027477_);fill:#F7F7F7;" d="M272.7,385.3
		c22-0.9,106.4,22.4,157.7-8.9c62-37.8,63.2-47.5,28.4-80.4c-74.3-3.6-138.3,6.1-242.8-20.1c-106.6-26.8-128.1-81-170.2-69.3
		C-3.7,220.4-26.1,302.6,11,359.6c3.3,6.2,27.2,2.3,56.1,25.5C75.9,392.2,154.5,390.1,272.7,385.3z"/>
</g>
</svg>
