<svg width="286" height="257" viewBox="0 0 286 257" fill="none" xmlns="http://www.w3.org/2000/svg">
<g clip-path="url(#clip0_207_3558)">
<path d="M225.811 104.9C248.566 135.684 197.366 186.699 155.794 199.229C114.222 211.759 57.6683 192.05 46.6935 155.265C35.7186 118.48 52.373 77.5798 93.9452 65.05C112.888 59.3416 141.363 63.4444 161.979 77.6406C188.731 96.0611 208.585 81.5981 225.811 104.902V104.9Z" fill="#73D5A4"/>
<path d="M168.867 129.294H194.083V142.312C194.083 143.635 193.014 144.709 191.698 144.709H171.255C169.938 144.709 168.869 143.635 168.869 142.312V129.294H168.867Z" fill="#5F8199"/>
<path d="M184.698 151.329H178.253C176.877 151.329 175.595 150.631 174.844 149.47L171.766 144.709H191.187L188.109 149.47C187.36 150.628 186.078 151.329 184.701 151.329H184.698Z" fill="#3B4F66"/>
<path d="M194.082 142.08H168.866C168.508 142.08 168.219 141.789 168.219 141.429C168.219 141.069 168.508 140.778 168.866 140.778H194.082C194.44 140.778 194.73 141.069 194.73 141.429C194.73 141.789 194.44 142.08 194.082 142.08Z" fill="white"/>
<path d="M194.082 138.459H168.866C168.508 138.459 168.219 138.168 168.219 137.808C168.219 137.447 168.508 137.157 168.866 137.157H194.082C194.44 137.157 194.73 137.447 194.73 137.808C194.73 138.168 194.44 138.459 194.082 138.459Z" fill="white"/>
<path d="M194.082 134.837H168.866C168.508 134.837 168.219 134.547 168.219 134.187C168.219 133.826 168.508 133.536 168.866 133.536H194.082C194.44 133.536 194.73 133.826 194.73 134.187C194.73 134.547 194.44 134.837 194.082 134.837Z" fill="white"/>
<path d="M182.398 77.0528C184.6 80.8866 179.41 82.7677 173.461 86.2218C167.512 89.6737 163.054 93.3904 160.852 89.5566C158.65 85.7228 161.303 78.3698 167.255 74.9156C173.204 71.4637 180.196 73.219 182.4 77.0528H182.398Z" fill="white"/>
<path d="M198.157 97.5732C201.602 89.387 200.712 71.0837 182.836 67.4321C196.045 68.1264 206.58 79.1267 206.804 92.4181C206.893 97.6491 205.41 102.524 202.798 106.603C198.949 112.616 196.909 119.617 196.909 126.766C196.909 128.161 195.782 129.294 194.394 129.294H168.567C167.171 129.294 166.037 128.155 166.037 126.751C166.037 123.533 165.64 120.337 164.846 117.25C166.594 123.746 169.597 127.085 175.829 127.085C181.206 127.085 185.071 123.991 187.367 118.281C190.189 111.268 194.657 105.885 198.157 97.5732Z" fill="#B4CCC6"/>
<path d="M169.084 91.0752C167.996 94.3839 168.777 98.9055 171.458 102.902C174.139 106.899 178.016 109.324 181.477 109.55C182.565 106.241 181.783 101.72 179.102 97.7231C176.421 93.7265 172.544 91.3008 169.084 91.0752Z" fill="#88BFB1"/>
<path d="M181.476 129.945C181.117 129.945 180.828 129.654 180.828 129.294V109.548C180.828 109.188 181.117 108.897 181.476 108.897C181.834 108.897 182.123 109.188 182.123 109.548V129.294C182.123 129.654 181.834 129.945 181.476 129.945Z" fill="#509993"/>
<path d="M197.544 85.5991C198.955 89.8886 197.941 95.751 194.465 100.932C190.99 106.113 185.964 109.257 181.479 109.55C180.067 105.261 181.081 99.3982 184.557 94.2171C188.032 89.0359 193.058 85.892 197.544 85.5991Z" fill="#509993"/>
<path d="M194.396 129.945H168.569C166.816 129.945 165.392 128.513 165.392 126.751C165.392 119.611 163.431 112.828 159.723 107.135C156.958 102.889 155.496 97.9531 155.496 92.8587C155.496 89.2136 156.23 85.6858 157.674 82.3748C159.071 79.1767 161.063 76.3301 163.593 73.9153C166.121 71.5048 169.048 69.6562 172.293 68.4238C175.665 67.1437 179.225 66.5905 182.871 66.7814C196.425 67.4952 207.223 78.7493 207.452 92.4074C207.538 97.5886 206.118 102.62 203.344 106.955C199.559 112.87 197.558 119.719 197.558 126.766C197.558 128.519 196.14 129.945 194.396 129.945ZM181.461 68.0463C175.104 68.0463 169.12 70.4373 164.485 74.8591C159.522 79.5933 156.789 85.9852 156.789 92.8587C156.789 97.6992 158.177 102.388 160.804 106.421C164.651 112.327 166.687 119.357 166.687 126.751C166.687 127.795 167.531 128.643 168.569 128.643H194.396C195.426 128.643 196.263 127.801 196.263 126.766C196.263 119.47 198.335 112.375 202.253 106.25C204.889 102.132 206.238 97.3521 206.156 92.4291C205.938 79.4545 195.68 68.7601 182.801 68.081C182.352 68.0572 181.906 68.0463 181.461 68.0463Z" fill="#5F8199"/>
<path fill-rule="evenodd" clip-rule="evenodd" d="M108.74 89.4609C104.112 87.3455 94.3308 83.1667 92.8996 82.7827C91.5785 82.4268 88.3728 83.4791 86.4537 83.5941L85.7738 83.4119C85.8061 83.2491 85.8234 83.0799 85.8234 82.9085C85.8234 81.8041 85.1456 80.8603 84.1849 80.4741C83.8849 80.3526 82.6609 79.8927 82.3565 79.756C81.927 79.5629 81.452 79.4544 80.9512 79.4544C80.908 79.4544 80.867 79.4587 80.8239 79.4609L74.1859 54.5704C74.0758 54.1604 73.657 53.9174 73.249 54.0258C72.8151 54.143 72.623 54.642 72.7007 55.4383C73.1907 60.524 74.3715 71.1294 74.7558 72.5678C75.1098 73.8957 77.7304 76.1586 78.7882 77.7707L79.343 79.8514C78.2528 80.4307 77.5103 81.5807 77.5103 82.9063C77.5103 83.5811 77.7067 84.2103 78.0391 84.7419L59.9125 102.961C59.6125 103.26 59.6125 103.746 59.9125 104.048C60.2299 104.367 60.7566 104.284 61.4042 103.818C65.5403 100.847 74.093 94.6659 75.1422 93.6137C76.1093 92.6416 76.7439 89.079 77.6031 87.352L79.1185 85.8289C79.2912 85.9374 79.4725 86.0328 79.6646 86.1109L77.8146 185.601H84.0792L82.2292 86.1109C82.3479 86.0632 83.9108 85.4557 84.2195 85.3255C84.5174 85.1997 84.7894 85.0196 85.0182 84.7983L108.747 91.188C109.155 91.2986 109.573 91.0556 109.683 90.6455C109.8 90.2094 109.465 89.7929 108.74 89.4609Z" fill="#8FA7B8"/>
<path d="M80.0335 85.6099C78.5505 85.6099 77.3438 84.3971 77.3438 82.9065C77.3438 81.416 78.5505 80.2031 80.0335 80.2031C81.5165 80.2031 82.7232 81.416 82.7232 82.9065C82.7232 84.3971 81.5165 85.6099 80.0335 85.6099ZM80.0335 80.7737C78.8635 80.7737 77.9115 81.7306 77.9115 82.9065C77.9115 84.0825 78.8635 85.0393 80.0335 85.0393C81.2035 85.0393 82.1555 84.0825 82.1555 82.9065C82.1555 81.7306 81.2035 80.7737 80.0335 80.7737Z" fill="white"/>
<path d="M26.0703 134.673C26.9446 144.946 34.3165 156.326 46.2433 164.056C58.1702 171.785 71.5239 173.839 81.197 170.401C80.3227 160.127 72.9508 148.747 61.024 141.017C49.0971 133.288 35.7434 131.234 26.0703 134.673Z" fill="#88BFB1"/>
<path d="M81.1962 170.672C81.1466 170.672 81.0948 170.659 81.0494 170.628L28.7507 136.734C28.6255 136.653 28.5888 136.484 28.6708 136.358C28.7507 136.232 28.919 136.196 29.0443 136.278L81.343 170.173C81.4682 170.253 81.5049 170.422 81.4229 170.548C81.3711 170.628 81.2848 170.672 81.1962 170.672Z" fill="#C5E0D6"/>
<path d="M42.5521 160.487C42.4399 160.487 42.3341 160.416 42.2952 160.301C42.2477 160.158 42.3254 160.006 42.4658 159.958L57.6285 154.922C57.7688 154.875 57.922 154.953 57.9695 155.094C58.017 155.235 57.9393 155.389 57.799 155.436L42.6363 160.472C42.6082 160.481 42.5802 160.485 42.5521 160.485V160.487Z" fill="#C5E0D6"/>
<path d="M35.9404 152.525C35.8217 152.525 35.7116 152.444 35.6792 152.323C35.6404 152.177 35.7267 152.03 35.8714 151.991L48.0896 148.728C48.2342 148.689 48.381 148.775 48.4199 148.921C48.4587 149.066 48.3724 149.214 48.2277 149.253L36.0095 152.516C35.9858 152.522 35.962 152.525 35.9404 152.525Z" fill="#C5E0D6"/>
<path d="M30.3586 144.34C30.2356 144.34 30.1255 144.256 30.0952 144.132C30.0607 143.987 30.1514 143.839 30.296 143.805L37.7565 142.021C37.9011 141.986 38.0479 142.077 38.0824 142.223C38.117 142.368 38.0263 142.516 37.8817 142.55L30.4212 144.334C30.3996 144.338 30.3802 144.34 30.3586 144.34Z" fill="#C5E0D6"/>
<path d="M47.161 148.61C47.0314 148.61 46.917 148.517 46.8955 148.385L44.8101 135.851C44.7864 135.703 44.8857 135.562 45.0325 135.538C45.1793 135.514 45.3174 135.614 45.3433 135.762L47.4287 148.296C47.4524 148.443 47.3531 148.584 47.2063 148.608C47.1912 148.61 47.1761 148.613 47.161 148.613V148.61Z" fill="#C5E0D6"/>
<path d="M36.8178 141.908C36.6904 141.908 36.5782 141.82 36.5523 141.689L35.0908 134.124C35.0628 133.976 35.1578 133.835 35.3046 133.805C35.4514 133.777 35.5917 133.872 35.6219 134.02L37.0833 141.585C37.1114 141.733 37.0164 141.874 36.8696 141.904C36.8523 141.908 36.8351 141.908 36.8178 141.908Z" fill="#C5E0D6"/>
<path d="M42.5458 102.759C37.9305 113.876 39.3552 130.196 47.3877 145.616C55.4202 161.036 67.9558 171.511 79.6754 174.03C84.2907 162.913 82.8659 146.593 74.8334 131.173C66.8009 115.753 54.2653 105.278 42.5458 102.759Z" fill="#C5E0D6"/>
<path d="M79.675 174.304C79.5778 174.304 79.485 174.252 79.4354 174.159L45.4056 108.838C45.3366 108.706 45.3884 108.541 45.52 108.472C45.6517 108.402 45.8158 108.454 45.8849 108.587L79.9146 173.907C79.9837 174.039 79.9319 174.204 79.8002 174.274C79.7613 174.295 79.7182 174.304 79.675 174.304Z" fill="white"/>
<path d="M53.6355 124.317C53.6204 124.317 53.6053 124.317 53.5902 124.312L43.8825 122.633C43.7357 122.607 43.6364 122.468 43.6623 122.321C43.6882 122.173 43.8264 122.073 43.9732 122.099L53.6808 123.779C53.8276 123.805 53.9269 123.944 53.901 124.091C53.8794 124.223 53.765 124.317 53.6355 124.317Z" fill="white"/>
<path d="M65.1846 146.486C65.1846 146.486 65.1652 146.486 65.1565 146.486L48.7547 144.725C48.6058 144.709 48.5 144.575 48.5151 144.425C48.5302 144.276 48.6641 144.167 48.813 144.184L65.2148 145.946C65.3638 145.961 65.4695 146.096 65.4544 146.246C65.4393 146.384 65.3227 146.489 65.1867 146.489L65.1846 146.486Z" fill="white"/>
<path d="M59.1708 134.944C59.16 134.944 59.147 134.944 59.1362 134.942L45.4933 133.195C45.3465 133.176 45.2407 133.041 45.2601 132.891C45.2795 132.742 45.4134 132.638 45.5623 132.657L59.2053 134.404C59.3521 134.423 59.4579 134.558 59.4384 134.707C59.4212 134.844 59.3046 134.944 59.1708 134.944Z" fill="white"/>
<path d="M52.6794 122.54C52.6406 122.54 52.6017 122.531 52.565 122.514C52.429 122.451 52.3707 122.291 52.4333 122.154L56.591 113.18C56.6536 113.043 56.8155 112.985 56.9493 113.048C57.0853 113.111 57.1436 113.271 57.081 113.408L52.9233 122.382C52.878 122.481 52.7809 122.538 52.6794 122.538V122.54Z" fill="white"/>
<path d="M64.2275 144.708C64.1844 144.708 64.139 144.697 64.098 144.675C63.9663 144.603 63.9189 144.439 63.9901 144.306L71.8931 129.752C71.9643 129.62 72.1284 129.572 72.2601 129.644C72.3917 129.715 72.4392 129.88 72.368 130.012L64.465 144.567C64.4154 144.658 64.3225 144.708 64.2275 144.708Z" fill="white"/>
<path d="M58.2156 133.167C58.1745 133.167 58.1314 133.156 58.0904 133.137C57.9587 133.067 57.9069 132.904 57.976 132.77L64.3204 120.505C64.3894 120.372 64.5513 120.32 64.6852 120.39C64.8169 120.459 64.8687 120.622 64.7996 120.756L58.4552 133.022C58.4077 133.115 58.3127 133.167 58.2156 133.167Z" fill="white"/>
<path d="M116.344 133.547H62.5664V185.602H116.344V133.547Z" fill="white"/>
<path d="M140.029 102.729H86.2516L62.5664 133.547H116.344L140.029 102.729Z" fill="#3B4F66"/>
<path d="M140.029 102.729H86.2516L62.5664 133.547H116.344L117.326 132.269L140.029 102.729ZM137.775 104.006L127.405 117.5H115.549L125.92 104.006H137.775ZM124.648 104.006L114.278 117.5H102.422L112.793 104.006H124.648ZM111.521 104.006L101.151 117.5H89.2954L99.6658 104.006H111.521ZM98.3943 104.006L88.0239 117.5H76.1684L86.5387 104.006H98.3943ZM64.8158 132.269L75.1862 118.775H87.0417L76.6713 132.269H64.8158ZM77.9428 132.269L88.3132 118.775H100.169L89.7984 132.269H77.9428ZM91.0699 132.269L101.44 118.775H113.296L102.925 132.269H91.0699ZM104.197 132.269L114.567 118.775H126.423L116.052 132.269H104.197Z" fill="#8FA7B8"/>
<path d="M91.7697 185.599H93.8809V162.368H91.7697V185.599Z" fill="#C6C6C6"/>
<path d="M102.58 162.371H93.8809V185.601H102.58V162.371Z" fill="#5F8199"/>
<path d="M82.5312 185.599H88.9922V158.376H82.5312V185.599Z" fill="#F6CD7D"/>
<path d="M98.8925 158.378H105.354V154.119H98.8925V158.378Z" fill="#F6CD7D"/>
<path d="M82.5303 154.12H78.2949V185.602H82.5303V158.379H98.8954V154.12H82.5303Z" fill="#DEA364"/>
<path d="M140.029 102.729L116.344 133.547V185.601H120.579V134.998L140.029 109.693V102.729Z" fill="#F6CD7D"/>
<path d="M140.029 102.729L163.715 133.547V185.601H159.479V134.998L140.029 109.693V102.729Z" fill="#F6CD7D"/>
<path d="M140.029 109.693L135.926 115.035L151.27 134.998V185.601H159.479V134.998L140.029 109.693Z" fill="#DEA364"/>
<path d="M151.268 134.998L135.924 115.035L120.578 134.998V185.602H151.268V134.998Z" fill="#3B4F66"/>
<path d="M145.112 145.157V185.602H120.578V137.148L129.768 125.191L145.112 145.157Z" fill="#5F8199"/>
<path d="M91.7697 149.11H93.8809V138.554H91.7697V149.11Z" fill="#C6C6C6"/>
<path d="M102.58 138.556H93.8809V149.112H102.58V138.556Z" fill="#5F8199"/>
<path d="M102.58 138.556H93.8809V141.355H102.58V138.556Z" fill="#3B4F66"/>
<path d="M102.58 162.371H93.8809V165.169H102.58V162.371Z" fill="#3B4F66"/>
<path d="M125.336 185.873C125.187 185.873 125.066 185.751 125.066 185.601V128.81C125.066 128.661 125.187 128.539 125.336 128.539C125.485 128.539 125.606 128.661 125.606 128.81V185.601C125.606 185.751 125.485 185.873 125.336 185.873Z" fill="white"/>
<path d="M138.301 185.872C138.152 185.872 138.031 185.751 138.031 185.601V118.137C138.031 117.988 138.152 117.866 138.301 117.866C138.45 117.866 138.571 117.988 138.571 118.137V185.601C138.571 185.751 138.45 185.872 138.301 185.872Z" fill="white"/>
<path d="M151.27 185.872C151.121 185.872 151 185.751 151 185.601V135C151 134.851 151.121 134.729 151.27 134.729C151.419 134.729 151.54 134.851 151.54 135V185.601C151.54 185.751 151.419 185.872 151.27 185.872Z" fill="white"/>
<path d="M151.268 162.642H120.58C120.431 162.642 120.311 162.521 120.311 162.371C120.311 162.221 120.431 162.1 120.58 162.1H151.268C151.417 162.1 151.538 162.221 151.538 162.371C151.538 162.521 151.417 162.642 151.268 162.642Z" fill="white"/>
<path d="M151.268 150.049H120.58C120.431 150.049 120.311 149.928 120.311 149.778C120.311 149.628 120.431 149.507 120.58 149.507H151.268C151.417 149.507 151.538 149.628 151.538 149.778C151.538 149.928 151.417 150.049 151.268 150.049Z" fill="white"/>
<path d="M81.7422 114.896H82.7935C86.2215 114.896 89.4574 113.299 91.5535 110.572L93.6302 107.871C94.3879 106.884 93.6885 105.452 92.4472 105.452H88.8206C87.7931 105.452 86.8216 105.931 86.1935 106.749L81.0385 113.456C80.5873 114.044 81.004 114.896 81.7422 114.896Z" fill="#5F8199"/>
<path d="M97.8226 112.108H98.9689C101.451 112.108 103.796 110.958 105.322 108.99L106.488 107.513C107.137 106.675 106.544 105.452 105.486 105.452H101.961C100.925 105.452 99.9446 105.931 99.3078 106.753L96.7864 109.978C96.1129 110.845 96.7281 112.11 97.8226 112.11V112.108Z" fill="#5F8199"/>
<path d="M111.804 110.173H112.205C114.349 110.173 116.378 109.21 117.74 107.548L117.904 107.348C118.524 106.591 117.989 105.452 117.013 105.452H115.1C114.051 105.452 113.056 105.922 112.391 106.738L110.992 108.446C110.427 109.136 110.915 110.175 111.804 110.175V110.173Z" fill="#5F8199"/>
<path d="M73.8668 125.183H74.21C76.8803 125.183 79.3974 123.939 81.0293 121.817L81.161 121.633C81.6036 121.058 81.1956 120.223 80.4724 120.223H77.189C76.3363 120.223 75.5333 120.62 75.0109 121.297L73.1544 123.727C72.6968 124.321 73.1199 125.183 73.8668 125.183Z" fill="#5F8199"/>
<path d="M146.933 78.6633C148.904 70.27 143.732 61.8599 135.381 59.8788C127.03 57.8978 118.663 63.0961 116.692 71.4894C114.721 79.8828 119.893 88.2929 128.244 90.274C136.595 92.255 144.962 87.0567 146.933 78.6633Z" fill="#88BFB1"/>
<path d="M131.928 73.295L135.936 64.0132H130.652L126.842 75.5862H132.431L128.135 86.146L139.405 73.295H131.928Z" fill="white"/>
<path d="M180.922 151.633L188.589 152.265C189.226 152.317 189.77 151.811 189.77 151.169V149.969C189.77 149.598 189.585 149.253 189.278 149.051L186.368 147.131C186.189 147.014 185.982 146.951 185.768 146.951H181.01C180.406 146.951 179.918 147.444 179.918 148.049V150.538C179.918 151.11 180.354 151.586 180.922 151.631V151.633Z" fill="#DEA364"/>
<path d="M179.918 148.049V148.971C179.918 149.544 180.354 150.019 180.922 150.065L188.589 150.696C189.162 150.744 189.662 150.338 189.755 149.787C189.706 149.488 189.535 149.221 189.278 149.051L186.368 147.131C186.189 147.014 185.98 146.951 185.768 146.951H181.01C180.408 146.951 179.918 147.444 179.918 148.049Z" fill="#F6CD7D"/>
<path d="M234.21 134.714C234.322 133.343 242.913 132.935 253.396 133.805C263.881 134.675 272.44 136.342 272.175 137.867C271.89 139.496 270.638 141.171 263.032 140.618C252.539 139.852 234.095 136.088 234.21 134.714Z" fill="#DEA364"/>
<path d="M178.075 165.606C174.783 165.606 172.115 170.082 172.115 175.604C172.115 181.126 174.783 185.602 178.075 185.602H184.625V165.606H178.075Z" fill="#2D374D"/>
<path d="M265.029 165.606C261.737 165.606 259.068 170.082 259.068 175.604C259.068 181.126 261.737 185.602 265.029 185.602H271.578V165.606H265.029Z" fill="#2D374D"/>
<path d="M219.861 165.606C216.569 165.606 213.9 170.082 213.9 175.604C213.9 181.126 216.569 185.602 219.861 185.602H226.41V165.606H219.861Z" fill="#2D374D"/>
<path d="M184.626 185.602C187.918 185.602 190.586 181.125 190.586 175.604C190.586 170.082 187.918 165.606 184.626 165.606C181.334 165.606 178.666 170.082 178.666 175.604C178.666 181.125 181.334 185.602 184.626 185.602Z" fill="#3B4F66"/>
<path d="M282.733 171.709C283.052 163.469 282.372 159.362 281.168 151.987C280.874 150.869 280.399 149.628 279.488 148.474C276.699 144.938 273.338 141.622 271.343 139.828C268.002 136.821 264.522 135.239 259.883 134.597C248.681 133.046 235.054 132.694 224.472 133.15C215.662 133.529 208.074 133.842 203.152 136.654C198.654 139.225 188.596 147.708 184.847 151.447C181.55 152.154 177.414 153.74 172.52 159.084C169.058 162.868 169.718 170.101 169.718 173.497C169.718 178.29 173.192 179.95 177.334 179.95H276.222C281.053 179.95 282.532 176.83 282.731 171.709H282.733Z" fill="#F6CD7D"/>
<path d="M205.996 136.094C199.483 139.11 189.497 148.211 186.947 151.329H224.85C228.157 146.686 234.419 139.739 238.527 136.094H205.996Z" fill="#3B4F66"/>
<path d="M235.842 141.457C232.304 145.643 229.144 150.557 227.82 153.304C227.82 153.304 257.487 151.184 266.038 150.266C270.325 149.806 271.199 147.589 270.496 145.38C269.343 141.768 266.824 137.734 264.115 136.968C260.728 136.009 251.365 135.803 246.545 136.181C243.292 136.437 238.942 137.791 235.844 141.455L235.842 141.457Z" fill="#3B4F66"/>
<path d="M210.673 179.952H172.473C171.452 179.952 170.826 179.284 170.418 178.344C169.787 176.895 168.488 173.723 168.518 172.226C168.542 171.043 169.071 167.066 169.772 167.008C170.349 166.958 176.622 169.42 180.058 169.42H201.175C204.281 169.42 213.797 166.107 214.481 167.3C214.956 168.129 212.439 170.24 212.474 172.223C212.504 173.864 212.685 177.659 212.685 177.659C212.84 178.876 211.895 179.954 210.675 179.954L210.673 179.952Z" fill="#DEA364"/>
<path d="M206.48 177.969H172.783L174.523 173.757C174.843 172.985 175.594 172.481 176.427 172.481H201.278C201.919 172.481 202.524 172.781 202.914 173.293L206.483 177.969H206.48Z" fill="#2D374D"/>
<path d="M197.438 161.494H185.512L177.185 160.099L176.182 164.007L183.936 167.637H195.862L205.479 164.007L206.481 160.099L197.438 161.494Z" fill="#DEA364"/>
<path d="M177.186 160.099L176.182 164.009L170.96 161.566C170.641 159.735 171.591 158.426 172.314 157.589C172.944 156.866 176.078 154.82 178.313 154.104C178.382 154.176 174.388 156.324 175.133 157.383L177.186 160.097V160.099Z" fill="#6C8CA6"/>
<path d="M233.481 179.952C233.915 178.444 234.157 176.751 234.157 174.966C234.157 168.617 231.087 163.469 227.303 163.469C223.519 163.469 220.449 168.615 220.449 174.966C220.449 176.751 220.693 178.444 221.125 179.952H233.481Z" fill="#2D374D"/>
<path d="M226.409 185.602C229.701 185.602 232.37 181.125 232.37 175.604C232.37 170.082 229.701 165.606 226.409 165.606C223.118 165.606 220.449 170.082 220.449 175.604C220.449 181.125 223.118 185.602 226.409 185.602Z" fill="#3B4F66"/>
<path d="M226.41 182.102C228.55 182.102 230.285 179.192 230.285 175.604C230.285 172.015 228.55 169.105 226.41 169.105C224.27 169.105 222.535 172.015 222.535 175.604C222.535 179.192 224.27 182.102 226.41 182.102Z" fill="white"/>
<path d="M276.654 179.952C277.2 179.952 278.711 179.752 278.785 179.464C279.135 178.081 279.329 176.563 279.329 174.966C279.329 168.617 276.259 163.469 272.475 163.469C268.691 163.469 265.621 168.615 265.621 174.966C265.621 176.751 265.865 178.444 266.297 179.952H276.656H276.654Z" fill="#2D374D"/>
<path d="M271.579 185.602C274.871 185.602 277.539 181.125 277.539 175.604C277.539 170.082 274.871 165.606 271.579 165.606C268.288 165.606 265.619 170.082 265.619 175.604C265.619 181.125 268.288 185.602 271.579 185.602Z" fill="#3B4F66"/>
<path d="M271.578 182.102C273.718 182.102 275.453 179.192 275.453 175.604C275.453 172.015 273.718 169.105 271.578 169.105C269.438 169.105 267.703 172.015 267.703 175.604C267.703 179.192 269.438 182.102 271.578 182.102Z" fill="white"/>
<path d="M204.772 137.678C198.974 141.355 192.803 146.307 190.508 149.112C190.508 149.112 215.164 148.172 223.516 144.998C227.618 143.438 227.404 140.084 227.221 137.678H204.772Z" fill="#8FA7B8"/>
<path d="M184.597 156.057C184.474 157.982 184.934 160.729 184.383 160.724C183.019 160.716 177.242 157.667 177.242 156.769C177.242 155.871 183.699 152.074 185.512 152.074C186.227 152.074 184.8 152.9 184.597 156.057Z" fill="#F6CD7D"/>
<path d="M217.358 159.524L205.479 164.007L206.482 160.099L210.623 156.836C211.773 155.929 213.06 155.348 214.318 155.168L221.673 154.107C222.301 154.016 222.541 154.753 222.075 155.341L220.812 156.93C219.862 158.125 218.644 159.041 217.358 159.527V159.524Z" fill="#6C8CA6"/>
<path d="M214.966 160.427L205.479 164.007L206.279 160.885L209.587 158.279C210.506 157.554 211.534 157.09 212.537 156.945L218.411 156.096C218.912 156.025 219.104 156.613 218.733 157.081L217.725 158.351C216.967 159.305 215.994 160.036 214.966 160.425V160.427Z" fill="white"/>
<path d="M176.978 160.885L176.182 164.007L172.087 162.154C171.085 159.626 173.19 156.997 175.018 156.092C175.254 156.315 174.209 156.743 174.904 157.877L176.976 160.885H176.978Z" fill="white"/>
<path d="M211.169 175.261H204.41L206.483 177.968H211.052C211.773 177.968 212.33 177.333 212.238 176.615L212.179 176.152C212.115 175.643 211.683 175.261 211.171 175.261H211.169Z" fill="white"/>
<path d="M173.911 175.261L172.784 177.966H170.256C169.946 177.239 169.546 176.252 169.205 175.261H173.909H173.911Z" fill="white"/>
<path d="M251.589 154.243L247.633 154.5C247.306 154.521 247.058 154.805 247.079 155.134L247.102 155.489C247.123 155.818 247.406 156.067 247.733 156.046L251.688 155.789C252.015 155.768 252.263 155.484 252.242 155.155L252.219 154.8C252.198 154.471 251.916 154.222 251.589 154.243Z" fill="#DEA364"/>
<path d="M269.289 152.733L265.345 153.125C265.018 153.157 264.78 153.449 264.812 153.777L264.847 154.131C264.879 154.459 265.17 154.699 265.496 154.667L269.44 154.275C269.767 154.243 270.005 153.951 269.973 153.623L269.938 153.269C269.906 152.941 269.615 152.701 269.289 152.733Z" fill="#DEA364"/>
<path d="M282.074 157.782H277.355C277.017 157.782 276.775 157.452 276.874 157.127L278.156 152.982C278.379 152.266 279.007 151.752 279.752 151.676L281.045 151.548C281.088 151.696 281.129 151.841 281.168 151.984C281.517 154.132 281.826 156.005 282.074 157.782Z" fill="#DEA364"/>
<path d="M260.812 137.678C261.844 137.678 262.983 138.116 263.374 139.086C263.927 140.455 264.358 141.533 264.563 142.872C264.728 143.946 263.955 144.699 261.971 144.699C256.708 144.699 250.91 144.499 247.216 143.872C246.044 143.673 244.047 143.037 243.158 142.171C242.467 141.499 242.493 140.019 242.672 139.166C242.864 138.255 243.128 137.678 245.269 137.678H260.812Z" fill="#6C8CA6"/>
<path d="M271.578 170.047C271.166 170.047 270.771 170.175 270.406 170.408C271.656 171.202 272.546 173.228 272.546 175.604C272.546 177.98 271.656 180.006 270.406 180.8C270.771 181.032 271.166 181.16 271.578 181.16C273.409 181.16 274.892 178.674 274.892 175.604C274.892 172.534 273.409 170.047 271.578 170.047Z" fill="#8FA7B8"/>
<path d="M226.41 170.047C225.998 170.047 225.603 170.175 225.238 170.408C226.488 171.202 227.378 173.228 227.378 175.604C227.378 177.98 226.488 180.006 225.238 180.8C225.603 181.032 225.998 181.16 226.41 181.16C228.241 181.16 229.724 178.674 229.724 175.604C229.724 172.534 228.241 170.047 226.41 170.047Z" fill="#8FA7B8"/>
<path d="M260.436 175.478H235.257L235.041 152.751L235.473 152.746L235.684 175.044H260.436C262.267 175.044 263.812 173.736 264.114 171.933C264.673 168.585 266.159 164.196 270.042 162.306C271.728 161.486 272.747 159.659 272.579 157.76C272.225 153.773 271.322 149.633 269.891 145.454L270.299 145.313C271.741 149.524 272.652 153.699 273.008 157.721C273.192 159.8 272.076 161.798 270.23 162.696C266.511 164.506 265.081 168.756 264.54 172.004C264.203 174.018 262.476 175.478 260.436 175.478Z" fill="#3B4F66"/>
<path d="M253.023 175.287L252.596 175.233C253.77 165.688 254.435 159.318 253.787 151.345L254.217 151.31C254.869 159.325 254.2 165.715 253.023 175.287Z" fill="#3B4F66"/>
<path d="M191.893 167.188C193.334 167.188 194.503 166.013 194.503 164.565C194.503 163.116 193.334 161.941 191.893 161.941C190.452 161.941 189.283 163.116 189.283 164.565C189.283 166.013 190.452 167.188 191.893 167.188Z" fill="#536982"/>
<path d="M190.586 167.166C189.159 167.166 187.998 165.998 187.998 164.564C187.998 163.13 189.159 161.963 190.586 161.963C192.013 161.963 193.175 163.13 193.175 164.564C193.175 165.998 192.013 167.166 190.586 167.166ZM190.586 162.397C189.397 162.397 188.43 163.369 188.43 164.564C188.43 165.76 189.397 166.732 190.586 166.732C191.776 166.732 192.743 165.76 192.743 164.564C192.743 163.369 191.776 162.397 190.586 162.397Z" fill="#3B4F66"/>
<path d="M240.772 151.633L233.105 152.265C232.468 152.317 231.924 151.811 231.924 151.169V149.969C231.924 149.598 232.109 149.253 232.416 149.051L235.326 147.131C235.505 147.014 235.712 146.951 235.926 146.951H240.684C241.288 146.951 241.776 147.444 241.776 148.049V150.538C241.776 151.11 241.34 151.586 240.772 151.631V151.633Z" fill="#DEA364"/>
<path d="M241.773 148.049V148.971C241.773 149.544 241.337 150.019 240.769 150.065L233.101 150.696C232.529 150.744 232.028 150.338 231.936 149.787C231.985 149.488 232.156 149.221 232.413 149.051L235.323 147.131C235.5 147.014 235.711 146.951 235.923 146.951H240.68C241.283 146.951 241.773 147.444 241.773 148.049Z" fill="#F6CD7D"/>
<path d="M192.648 164.567C192.648 164.985 192.311 165.326 191.892 165.326H135.216C131.598 165.326 128.653 168.283 128.653 171.922V192.92C128.653 197.394 125.031 201.034 120.58 201.034C116.129 201.034 112.506 197.396 112.506 192.92V183.31C112.506 179.813 109.674 176.966 106.194 176.966H93.8789V175.447H106.194C110.507 175.447 114.017 178.975 114.017 183.31V192.92C114.017 196.556 116.96 199.516 120.58 199.516C124.2 199.516 127.142 196.556 127.142 192.92V171.922C127.142 167.448 130.765 163.807 135.216 163.807H191.892C192.311 163.807 192.648 164.146 192.648 164.567Z" fill="#2D374D"/>
<path d="M285.77 185.785H43.8896C43.7629 185.785 43.6602 185.652 43.6602 185.488C43.6602 185.324 43.7629 185.191 43.8896 185.191H285.77C285.896 185.191 285.999 185.324 285.999 185.488C285.999 185.652 285.896 185.785 285.77 185.785Z" fill="#343959"/>
</g>
<defs>
<clipPath id="clip0_207_3558">
<rect width="285" height="149" fill="white" transform="translate(1 54)"/>
</clipPath>
</defs>
</svg>
