<svg width="354" height="397" viewBox="0 0 354 397" fill="none" xmlns="http://www.w3.org/2000/svg">
<mask id="mask0_1_722" style="mask-type:alpha" maskUnits="userSpaceOnUse" x="0" y="0" width="354" height="397">
<rect width="353.827" height="396.888" fill="#19B86D"/>
</mask>
<g mask="url(#mask0_1_722)">
<path opacity="0.75" d="M-31.9743 395.691C-19.9051 411.648 13.328 454.29 73.0808 470.688C145.244 490.498 240.94 467.89 258.7 418.105C276.847 367.229 196.079 337.106 166.377 219.055C141.294 119.33 179.983 65.5056 146.049 42.055C106.209 14.5231 12.6325 60.8758 -35.0295 126.073C-40.0803 132.984 -57.8687 158.233 -68.2423 196.646C-71.3935 208.321 -96.9846 309.77 -31.9743 395.691Z" fill="white" fill-opacity="0.7"/>
<path d="M125.359 504.672C146.714 509.129 204.604 520.339 265.477 490.967C338.995 455.497 401.458 368.27 380.363 314.625C358.814 259.804 270.821 292.97 161.797 217.265C69.6901 153.312 62.9135 81.3277 18.2169 86.3943C-34.2619 92.3457 -77.9618 197.55 -70.4093 285.302C-69.6073 294.605 -66.1381 328.114 -47.1277 367.115C-41.3505 378.971 10.3327 480.693 125.365 504.681L125.359 504.672Z" fill="white" fill-opacity="0.2"/>
</g>
</svg>
