<svg width="179" height="38" viewBox="0 0 179 38" fill="none" xmlns="http://www.w3.org/2000/svg">
<path d="M0 0V37.3221L40.4199 0H0Z" fill="#43C8F5"/>
<path d="M0 0V18.6635L20.2051 0H0Z" fill="#231F20"/>
<path d="M140.641 8.04553H150.148L144.902 29.3491H135.39L140.641 8.04553Z" fill="#00A1E4"/>
<path d="M106.889 29.3487H115.529L117.092 22.91L121.869 29.3487H132.434L124.82 18.5332L136.662 8.04761H126.665L119.094 14.5707L120.71 8.04761H111.697L106.889 29.3487Z" fill="#00A1E4"/>
<path d="M92.1768 29.3487L97.428 8.04761H106.94L101.687 29.3487H92.1768Z" fill="#00A1E4"/>
<path d="M149.425 29.3485H156.013L159.07 17.196L162.921 29.3485H173.564L178.892 8.04736H171.868L168.874 19.7903L164.75 8.04736H154.727L149.425 29.3485Z" fill="#00A1E4"/>
<path d="M35.0879 29.3487L40.4138 8.04761H54.7052C54.7052 8.04761 64.5404 8.82806 63.5191 18.7933C63.4854 19.08 63.0132 27.665 52.5229 29.3487H35.0879ZM49.5287 24.3914C49.5287 24.3914 53.6189 24.0903 54.7847 19.2462C54.7847 19.2462 55.3966 15.5607 53.9971 14.2093C53.9971 14.2093 53.0841 13.3349 51.6846 13.3855H48.0401L45.4145 24.3914H49.5287Z" fill="#00A1E4"/>
<path d="M71.4771 25.295L68.9093 29.3491H62.6367L74.5073 8.04553H85.3687L89.1433 29.3491H79.6718L78.9492 25.295H71.4771ZM78.0917 20.4148L77.1161 14.9612L74.1243 20.4148H78.0917Z" fill="#00A1E4"/>
</svg>
