<svg width="274" height="197" viewBox="0 0 274 197" fill="none" xmlns="http://www.w3.org/2000/svg">
<path d="M11.3726 36.741C-19.4274 56.741 18.3915 110.741 52.8828 138.241C118.383 180.241 185.535 178.077 209.373 165.241C241.873 147.741 266.873 56.2409 235.873 17.7409C204.873 -20.7591 176.373 11.741 116.873 36.741C57.3729 61.741 49.8726 11.741 11.3726 36.741Z" fill="#53E7AA"/>
<path d="M51.4768 122.247L48.0977 118.669L53.8107 117.438L51.4768 122.247ZM48.7867 118.882L51.3825 121.631L53.1759 117.935L48.7867 118.882Z" fill="#A1B2AA"/>
<path d="M218.027 102.208L217.746 101.994L217.888 102.1L217.746 101.994C217.892 101.791 218.211 99.8982 218.43 98.1874L218.463 97.9326L222.098 99.903L223.289 96.6606H226.501V97.0146H223.535L222.289 100.408L218.749 98.4895C218.61 99.5348 218.275 101.885 218.029 102.208H218.027Z" fill="#A1B2AA"/>
<path d="M216.255 26.3159L214.648 22.9132L218.051 21.3062L219.658 24.7089L216.255 26.3159ZM215.118 23.0831L216.423 25.8463L219.186 24.5414L217.881 21.7781L215.118 23.0831Z" fill="#A1B2AA"/>
<path d="M167.5 195.665H167.146V192.276H219.602V195.466H219.248V192.63H167.5V195.665Z" fill="#270014"/>
<path d="M167.5 191.833H167.146V188.445H219.602V191.635H219.248V188.799H167.5V191.833Z" fill="#270014"/>
<path d="M167.5 188.004H167.146V184.615H219.602V187.806H219.248V184.969H167.5V188.004Z" fill="#270014"/>
<path d="M219.602 183.976H219.248V181.14H215.166V180.786H219.602V183.976Z" fill="#270014"/>
<path d="M213.84 181.14H213.273V180.786H213.84V181.14ZM211.574 181.14H211.008V180.786H211.574V181.14ZM209.309 181.14H208.742V180.786H209.309V181.14ZM207.043 181.14H206.477V180.786H207.043V181.14ZM204.778 181.14H204.212V180.786H204.778V181.14ZM202.513 181.14H201.946V180.786H202.513V181.14ZM200.247 181.14H199.681V180.786H200.247V181.14ZM197.982 181.14H197.416V180.786H197.982V181.14ZM195.716 181.14H195.15V180.786H195.716V181.14ZM193.451 181.14H192.885V180.786H193.451V181.14ZM191.186 181.14H190.619V180.786H191.186V181.14ZM188.92 181.14H188.354V180.786H188.92V181.14ZM186.655 181.14H186.089V180.786H186.655V181.14ZM184.39 181.14H183.823V180.786H184.39V181.14ZM182.124 181.14H181.558V180.786H182.124V181.14ZM179.859 181.14H179.292V180.786H179.859V181.14ZM177.593 181.14H177.027V180.786H177.593V181.14ZM175.328 181.14H174.762V180.786H175.328V181.14Z" fill="#270014"/>
<path d="M167.5 184.174H167.146V180.786H174.752V181.14H167.5V184.174Z" fill="#270014"/>
<path d="M167.5 180.345H167.146V176.956H219.602V180.146H219.248V177.31H167.5V180.345Z" fill="#270014"/>
<path d="M129.845 183.537H129.491V175.825L144.952 180.042L144.858 180.384L129.845 176.29V183.537Z" fill="#270014"/>
<path d="M124.24 194.121L121.39 185.855H144.907V186.209H121.885L124.575 194.006L124.24 194.121Z" fill="#270014"/>
<path d="M152.114 195.418C151.975 195.34 148.702 193.448 147.593 186.428C146.481 179.395 161.242 166.233 161.87 165.676L161.919 165.631H166.082L169.171 174.336L168.838 174.454L165.832 165.985H162.054C161.093 166.846 146.892 179.728 147.94 186.371C149.023 193.224 152.251 195.09 152.284 195.109L152.112 195.418H152.114Z" fill="#270014"/>
<path d="M162.032 165.882L158.709 158.529L161.394 157.632L162.291 158.599L162.657 157.66H163.967L164.927 159.213L165.885 158.104L168.224 159.763L166.119 165.865L165.784 165.752L167.801 159.897L165.942 158.578L164.88 159.808L163.768 158.014H162.898L162.414 159.253L161.291 158.04L159.193 158.739L162.355 165.735L162.032 165.882Z" fill="#270014"/>
<path d="M164.72 159.496L164.393 164.902L164.746 164.923L165.074 159.518L164.72 159.496Z" fill="#270014"/>
<path d="M101.278 127.468C101.207 127.294 101.136 127.117 101.068 126.94L101.398 126.81C101.467 126.984 101.538 127.159 101.606 127.334L101.278 127.466V127.468ZM100.476 125.34C100.414 125.16 100.353 124.981 100.292 124.802L100.627 124.688C100.686 124.868 100.747 125.045 100.808 125.222L100.473 125.337L100.476 125.34ZM99.7795 123.176C99.7252 122.994 99.6733 122.812 99.6214 122.631L99.9612 122.534C100.013 122.716 100.065 122.895 100.117 123.077L99.7771 123.176H99.7795ZM99.1919 120.979C99.1471 120.795 99.1046 120.611 99.0621 120.427L99.4067 120.349C99.4491 120.533 99.4916 120.715 99.5364 120.899L99.1919 120.981V120.979ZM98.7152 118.756C98.6799 118.57 98.6468 118.383 98.6138 118.197L98.963 118.135C98.9961 118.322 99.0291 118.506 99.0645 118.69L98.7176 118.756H98.7152ZM98.3471 116.512C98.3212 116.325 98.2976 116.137 98.2716 115.948L98.6232 115.903C98.6468 116.089 98.6704 116.276 98.6964 116.462L98.3448 116.512H98.3471ZM98.0899 114.253C98.0734 114.065 98.0569 113.876 98.0427 113.687L98.3967 113.661C98.4108 113.848 98.4273 114.036 98.4439 114.223L98.0923 114.253H98.0899ZM97.9436 111.986C97.9365 111.797 97.9294 111.608 97.9247 111.417L98.2787 111.408C98.2834 111.596 98.2905 111.783 98.2976 111.972L97.9436 111.986ZM98.2622 109.716H97.9082C97.9082 109.522 97.9129 109.333 97.9176 109.145L98.2716 109.152C98.2669 109.34 98.2645 109.527 98.2622 109.716ZM98.3377 107.46L97.9837 107.438C97.9955 107.25 98.0073 107.061 98.0191 106.872L98.3731 106.896C98.3589 107.082 98.3471 107.271 98.3377 107.46ZM98.5217 105.211L98.1701 105.173C98.1914 104.984 98.2126 104.796 98.2339 104.609L98.5855 104.652C98.5642 104.838 98.543 105.024 98.5217 105.213V105.211ZM98.8167 102.974L98.4675 102.92C98.4958 102.733 98.5265 102.544 98.5595 102.358L98.9087 102.417C98.8781 102.603 98.8474 102.787 98.8167 102.974ZM99.2202 100.753L98.8733 100.68C98.9111 100.494 98.9512 100.31 98.9937 100.123L99.3382 100.199C99.2981 100.383 99.258 100.567 99.2202 100.751V100.753ZM99.7347 98.5563L99.3925 98.4666C99.4397 98.2826 99.4892 98.1009 99.5388 97.9168L99.881 98.0112C99.8314 98.1929 99.7819 98.3746 99.7347 98.5563ZM188.311 98.2118C188.261 98.0301 188.212 97.8484 188.162 97.669L188.502 97.5723C188.554 97.754 188.604 97.938 188.653 98.1197L188.311 98.2118ZM100.355 96.3877L100.018 96.2815C100.074 96.0998 100.133 95.9181 100.192 95.7387L100.53 95.8496C100.471 96.029 100.414 96.2083 100.358 96.39L100.355 96.3877ZM187.672 96.0479C187.615 95.8685 187.556 95.6915 187.495 95.5146L187.83 95.4013C187.891 95.5806 187.95 95.76 188.007 95.9393L187.669 96.0479H187.672ZM101.087 94.245L100.754 94.1223C100.82 93.943 100.886 93.766 100.955 93.589L101.285 93.7164C101.217 93.8934 101.151 94.0704 101.084 94.2474L101.087 94.245ZM186.928 93.9241C186.862 93.7495 186.794 93.5748 186.725 93.4002L187.056 93.2704C187.124 93.445 187.192 93.622 187.259 93.799L186.928 93.9241ZM101.925 92.1425L101.599 92.0032C101.674 91.8286 101.75 91.654 101.825 91.4794L102.149 91.6233C102.073 91.7956 101.998 91.9678 101.922 92.1425H101.925ZM186.079 91.838C186.003 91.6658 185.928 91.4959 185.85 91.3236L186.173 91.1773C186.251 91.3496 186.326 91.5218 186.402 91.6965L186.076 91.838H186.079ZM102.864 90.0847L102.545 89.929C102.628 89.7591 102.713 89.5868 102.798 89.4169L103.114 89.575C103.029 89.7426 102.946 89.9125 102.864 90.0824V90.0847ZM185.128 89.7968C185.045 89.6293 184.96 89.4618 184.875 89.2942L185.191 89.1337C185.276 89.3013 185.364 89.4712 185.446 89.6411L185.13 89.7992L185.128 89.7968ZM103.904 88.0766L103.595 87.9067C103.687 87.7391 103.779 87.5739 103.874 87.4088L104.183 87.5834C104.091 87.7462 103.999 87.9114 103.907 88.0766H103.904ZM184.078 87.8028C183.986 87.64 183.894 87.4748 183.799 87.312L184.106 87.135C184.2 87.2978 184.295 87.463 184.387 87.6282L184.078 87.8005V87.8028ZM105.042 86.1227L104.74 85.9363C104.839 85.7758 104.94 85.613 105.042 85.4525L105.341 85.6413C105.24 85.7994 105.141 85.9599 105.042 86.1203V86.1227ZM182.928 85.8631C182.829 85.705 182.728 85.5445 182.626 85.3864L182.924 85.1953C183.025 85.3534 183.127 85.5139 183.228 85.6743L182.928 85.8631ZM106.274 84.2301L105.981 84.0296C106.09 83.8738 106.196 83.7181 106.307 83.5623L106.597 83.7653C106.488 83.9187 106.38 84.0744 106.274 84.2278V84.2301ZM181.687 83.9824C181.581 83.829 181.472 83.6756 181.361 83.5222L181.649 83.3169C181.76 83.4703 181.869 83.626 181.977 83.7818L181.687 83.9847V83.9824ZM107.597 82.399L107.317 82.1842C107.432 82.0332 107.548 81.8822 107.663 81.7335L107.942 81.9506C107.826 82.0993 107.711 82.2479 107.597 82.3966V82.399ZM180.354 82.163C180.238 82.0143 180.123 81.8656 180.007 81.7193L180.285 81.4999C180.403 81.6486 180.519 81.7972 180.635 81.9482L180.354 82.1653V82.163ZM109.009 80.6362L108.737 80.4073C108.86 80.2634 108.983 80.1171 109.105 79.9755L109.374 80.2067C109.252 80.3483 109.129 80.4923 109.009 80.6362ZM178.931 80.412C178.808 80.2681 178.685 80.1265 178.563 79.9849L178.829 79.7513C178.955 79.8929 179.077 80.0368 179.2 80.1808L178.931 80.4097V80.412ZM110.505 78.9466L110.245 78.7059C110.375 78.5667 110.505 78.4298 110.634 78.293L110.892 78.536C110.762 78.6729 110.632 78.8097 110.505 78.9466ZM177.425 78.7319C177.296 78.595 177.166 78.4581 177.036 78.3236L177.291 78.0782C177.423 78.2151 177.553 78.3519 177.683 78.4888L177.425 78.7319ZM112.081 77.3302L111.833 77.0777C111.968 76.9455 112.105 76.8134 112.241 76.6836L112.484 76.9408C112.348 77.0706 112.213 77.2004 112.079 77.3325L112.081 77.3302ZM175.84 77.1249C175.705 76.9951 175.568 76.8653 175.431 76.7355L175.674 76.4783C175.814 76.6081 175.951 76.7379 176.087 76.87L175.842 77.1249H175.84ZM113.733 75.794L113.499 75.5297C113.641 75.4046 113.785 75.2795 113.926 75.1568L114.158 75.4258C114.016 75.5485 113.874 75.6713 113.733 75.7963V75.794ZM174.176 75.6005C174.034 75.4778 173.893 75.3527 173.749 75.2323L173.978 74.9633C174.122 75.086 174.266 75.2111 174.41 75.3338L174.176 75.6005ZM115.46 74.3427L115.238 74.0666C115.387 73.9486 115.536 73.8306 115.684 73.715L115.901 73.9935C115.753 74.1091 115.606 74.2247 115.46 74.3427ZM172.442 74.1586C172.293 74.043 172.147 73.9274 171.996 73.8118L172.213 73.5309C172.364 73.6466 172.512 73.7646 172.661 73.8802L172.442 74.1586ZM117.256 72.9788L117.048 72.6909C117.202 72.58 117.355 72.4691 117.511 72.3605L117.714 72.6507C117.56 72.7593 117.407 72.8679 117.256 72.9788ZM170.636 72.8041C170.483 72.6956 170.33 72.587 170.174 72.4785L170.377 72.1882C170.532 72.2968 170.688 72.4053 170.842 72.5162L170.636 72.8041ZM119.113 71.7045L118.92 71.4072C119.078 71.3033 119.238 71.2018 119.396 71.1004L119.585 71.4001C119.427 71.5015 119.269 71.603 119.111 71.7045H119.113ZM168.765 71.5393C168.607 71.4378 168.446 71.3364 168.288 71.2372L168.475 70.9376C168.635 71.039 168.796 71.1405 168.956 71.242L168.765 71.5393ZM121.032 70.5222L120.852 70.2155C121.015 70.1211 121.18 70.0267 121.343 69.9323L121.518 70.2391C121.355 70.3311 121.192 70.4255 121.029 70.5199L121.032 70.5222ZM166.835 70.3665C166.672 70.2721 166.507 70.1801 166.342 70.088L166.514 69.7789C166.679 69.8709 166.844 69.9653 167.009 70.0597L166.832 70.3665H166.835ZM123.004 69.4367L122.842 69.1229C123.009 69.0356 123.177 68.9506 123.347 68.8657L123.505 69.1819C123.337 69.2668 123.17 69.3518 123.004 69.4367ZM164.848 69.2904C164.68 69.2055 164.51 69.1205 164.343 69.0356L164.499 68.7194C164.668 68.8043 164.838 68.8893 165.008 68.9742L164.848 69.2904ZM125.027 68.4504L124.88 68.1294C125.053 68.0516 125.225 67.9737 125.397 67.8958L125.541 68.2191C125.369 68.2946 125.199 68.3725 125.029 68.4504H125.027ZM162.809 68.3135C162.637 68.2356 162.464 68.1601 162.292 68.0846L162.434 67.7589C162.608 67.8345 162.783 67.9123 162.955 67.9902L162.811 68.3135H162.809ZM127.096 67.5654L126.964 67.2374C127.141 67.1666 127.316 67.0982 127.493 67.0298L127.62 67.3601C127.445 67.4286 127.268 67.497 127.094 67.5654H127.096ZM160.725 67.4404C160.551 67.3719 160.374 67.3035 160.197 67.2374L160.322 66.9071C160.499 66.9731 160.678 67.0416 160.855 67.1124L160.725 67.4427V67.4404ZM129.213 66.782L129.097 66.4469C129.277 66.3856 129.456 66.3242 129.635 66.2652L129.746 66.6003C129.567 66.6593 129.39 66.7183 129.211 66.7796L129.213 66.782ZM158.599 66.6711C158.42 66.6121 158.24 66.5531 158.061 66.4941L158.17 66.1567C158.351 66.2157 158.531 66.2747 158.712 66.3336L158.599 66.6687V66.6711ZM131.365 66.1047L131.268 65.7649C131.45 65.713 131.632 65.6611 131.816 65.6116L131.91 65.9537C131.728 66.0033 131.547 66.0552 131.367 66.1071L131.365 66.1047ZM156.435 66.008C156.254 65.9561 156.072 65.9065 155.888 65.8593L155.98 65.5172C156.164 65.5667 156.348 65.6163 156.53 65.6682L156.435 66.008ZM133.548 65.5337L133.468 65.1892C133.652 65.1467 133.836 65.1042 134.022 65.0617L134.098 65.4063C133.914 65.4464 133.73 65.4888 133.548 65.5313V65.5337ZM154.245 65.4534C154.061 65.411 153.877 65.3709 153.693 65.3331L153.766 64.9862C153.953 65.0263 154.137 65.0664 154.321 65.1089L154.243 65.4534H154.245ZM135.757 65.0712L135.693 64.7219C135.879 64.6889 136.066 64.6558 136.252 64.6228L136.311 64.9721C136.125 65.0027 135.941 65.0358 135.757 65.0712ZM152.032 65.0075C151.848 64.9744 151.661 64.9437 151.475 64.9131L151.532 64.5638C151.718 64.5945 151.907 64.6252 152.093 64.6582L152.032 65.0075ZM137.984 64.7172L137.937 64.3656C138.126 64.342 138.312 64.316 138.501 64.2948L138.543 64.6464C138.357 64.67 138.171 64.6936 137.984 64.7172ZM149.8 64.6724C149.613 64.6488 149.427 64.6275 149.238 64.6063L149.278 64.2547C149.467 64.2759 149.656 64.2972 149.842 64.3208L149.797 64.6724H149.8ZM140.228 64.4765L140.2 64.1225C140.389 64.106 140.578 64.0919 140.766 64.0801L140.792 64.434C140.604 64.4482 140.417 64.4623 140.231 64.4765H140.228ZM147.555 64.4482C147.369 64.434 147.18 64.4222 146.991 64.4081L147.013 64.0541C147.201 64.0659 147.39 64.0801 147.579 64.0942L147.553 64.4482H147.555ZM142.482 64.3444L142.47 63.9904C142.659 63.9833 142.848 63.9786 143.036 63.9739L143.044 64.3278C142.855 64.3326 142.668 64.3373 142.482 64.3444ZM145.302 64.3326C145.113 64.3278 144.927 64.3231 144.738 64.3208L144.743 63.9668C144.931 63.9692 145.122 63.9739 145.311 63.9786L145.302 64.3326Z" fill="#270014"/>
<path d="M144.145 156.289V155.935C144.334 155.935 144.52 155.935 144.709 155.93L144.714 156.284C144.525 156.286 144.336 156.289 144.145 156.289ZM142.439 156.26C142.248 156.253 142.059 156.246 141.868 156.237L141.884 155.883C142.073 155.892 142.262 155.899 142.451 155.906L142.439 156.26ZM146.418 156.23L146.399 155.876C146.588 155.866 146.774 155.857 146.963 155.845L146.984 156.199C146.795 156.211 146.606 156.223 146.415 156.232L146.418 156.23ZM140.167 156.126C139.978 156.109 139.787 156.093 139.598 156.074L139.631 155.722C139.817 155.741 140.006 155.758 140.195 155.772L140.167 156.126ZM148.685 156.062L148.65 155.711C148.836 155.692 149.025 155.673 149.212 155.652L149.252 156.003C149.063 156.024 148.874 156.043 148.685 156.062ZM137.904 155.88C137.715 155.855 137.526 155.829 137.34 155.803L137.391 155.453C137.578 155.482 137.764 155.508 137.951 155.531L137.904 155.883V155.88ZM150.941 155.781L150.889 155.432C151.076 155.404 151.262 155.375 151.446 155.345L151.503 155.694C151.316 155.725 151.128 155.753 150.941 155.781ZM135.655 155.524C135.468 155.489 135.282 155.453 135.095 155.418L135.164 155.071C135.348 155.106 135.534 155.142 135.718 155.177L135.655 155.527V155.524ZM153.181 155.39L153.112 155.043C153.296 155.005 153.48 154.967 153.664 154.93L153.738 155.276C153.554 155.317 153.367 155.354 153.181 155.392V155.39ZM133.427 155.055C133.243 155.012 133.057 154.967 132.873 154.92L132.957 154.576C133.139 154.62 133.323 154.665 133.507 154.708L133.427 155.052V155.055ZM155.397 154.887L155.309 154.545C155.491 154.5 155.673 154.453 155.854 154.403L155.944 154.745C155.762 154.793 155.578 154.842 155.397 154.887ZM131.228 154.476C131.046 154.425 130.864 154.37 130.683 154.316L130.784 153.976C130.963 154.03 131.145 154.085 131.327 154.137L131.228 154.476ZM157.584 154.278L157.48 153.941C157.66 153.886 157.839 153.83 158.018 153.773L158.127 154.111C157.947 154.167 157.766 154.224 157.586 154.281L157.584 154.278ZM129.059 153.79C128.88 153.728 128.7 153.665 128.521 153.601L128.639 153.268C128.816 153.332 128.993 153.393 129.172 153.455L129.057 153.79H129.059ZM159.736 153.561L159.616 153.228C159.793 153.164 159.967 153.101 160.144 153.035L160.269 153.365C160.092 153.431 159.915 153.497 159.736 153.561ZM126.926 152.997C126.749 152.926 126.574 152.855 126.4 152.782L126.534 152.454C126.709 152.527 126.883 152.598 127.058 152.666L126.926 152.995V152.997ZM161.853 152.737L161.716 152.412C161.888 152.338 162.063 152.265 162.235 152.192L162.374 152.518C162.2 152.593 162.027 152.666 161.853 152.74V152.737ZM124.835 152.1C124.663 152.02 124.491 151.94 124.318 151.859L124.469 151.539C124.639 151.619 124.809 151.699 124.981 151.777L124.833 152.098L124.835 152.1ZM163.925 151.812L163.771 151.494C163.941 151.413 164.109 151.331 164.279 151.248L164.434 151.567C164.265 151.649 164.095 151.732 163.925 151.815V151.812ZM122.792 151.102C122.624 151.015 122.457 150.925 122.289 150.835L122.457 150.524C122.622 150.613 122.789 150.701 122.957 150.788L122.794 151.102H122.792ZM165.952 150.783L165.784 150.472C165.949 150.382 166.115 150.293 166.277 150.201L166.45 150.51C166.285 150.602 166.119 150.691 165.952 150.781V150.783ZM120.8 150.002C120.637 149.906 120.472 149.809 120.311 149.712L120.493 149.408C120.654 149.504 120.816 149.601 120.979 149.696L120.8 150V150.002ZM167.922 149.658L167.738 149.356C167.899 149.259 168.059 149.16 168.22 149.061L168.406 149.36C168.245 149.46 168.085 149.559 167.922 149.658ZM118.865 148.806C118.707 148.702 118.549 148.598 118.391 148.492L118.589 148.197C118.745 148.301 118.903 148.405 119.058 148.509L118.865 148.806ZM169.838 148.433L169.64 148.14C169.796 148.034 169.952 147.928 170.105 147.822L170.306 148.112C170.15 148.221 169.994 148.327 169.836 148.433H169.838ZM171.691 147.116L171.478 146.833C171.629 146.72 171.778 146.607 171.927 146.493L172.141 146.774C171.99 146.89 171.839 147.003 171.688 147.116H171.691ZM173.477 145.71L173.251 145.436C173.395 145.316 173.538 145.195 173.682 145.075L173.911 145.344C173.767 145.467 173.621 145.587 173.475 145.71H173.477ZM175.193 144.219L174.954 143.957C175.094 143.829 175.23 143.702 175.37 143.574L175.613 143.832C175.473 143.961 175.334 144.089 175.195 144.219H175.193ZM176.833 142.645L176.583 142.394C176.715 142.26 176.847 142.128 176.977 141.991L177.231 142.236C177.099 142.373 176.967 142.508 176.833 142.642V142.645ZM178.395 140.993L178.131 140.757C178.256 140.617 178.381 140.476 178.506 140.334L178.772 140.568C178.647 140.71 178.522 140.851 178.395 140.993ZM179.874 139.265L179.601 139.041C179.719 138.895 179.837 138.749 179.955 138.602L180.231 138.822C180.113 138.97 179.995 139.119 179.874 139.265ZM181.267 137.467L180.981 137.257C181.092 137.106 181.203 136.953 181.314 136.799L181.602 137.005C181.491 137.158 181.38 137.311 181.267 137.465V137.467ZM182.569 135.603L182.274 135.407C182.378 135.251 182.482 135.093 182.583 134.935L182.881 135.126C182.777 135.287 182.673 135.445 182.569 135.603ZM183.78 133.675L183.475 133.493C183.572 133.331 183.667 133.17 183.761 133.005L184.068 133.182C183.973 133.347 183.877 133.51 183.78 133.673V133.675Z" fill="#270014"/>
<path d="M191.947 158.783L190.675 176.355L191.028 176.381L192.3 158.808L191.947 158.783Z" fill="#270014"/>
<path d="M274 195.884H189.447V196.238H274V195.884Z" fill="#270014"/>
<path d="M93.5945 195.884H14.1953V196.238H93.5945V195.884Z" fill="#270014"/>
<path d="M253.336 71.3578L247.398 157.128L247.752 157.153L253.689 71.3823L253.336 71.3578Z" fill="#A1B2AA"/>
<path d="M233.735 159.92L233.381 159.897L233.414 159.425L233.768 159.448L233.735 159.92ZM233.865 158.037L233.511 158.014L233.544 157.542L233.898 157.565L233.865 158.037ZM233.994 156.154L233.64 156.131L233.673 155.659L234.027 155.682L233.994 156.154ZM234.124 154.271L233.77 154.248L233.803 153.776L234.157 153.799L234.124 154.271ZM234.254 152.388L233.9 152.364L233.933 151.893L234.287 151.916L234.254 152.388ZM234.384 150.505L234.03 150.481L234.063 150.009L234.417 150.033L234.384 150.505ZM234.514 148.622L234.16 148.598L234.193 148.126L234.547 148.15L234.514 148.622ZM234.643 146.739L234.289 146.715L234.322 146.243L234.676 146.267L234.643 146.739ZM234.773 144.856L234.419 144.832L234.452 144.36L234.806 144.384L234.773 144.856ZM234.903 142.973L234.549 142.949L234.582 142.477L234.936 142.501L234.903 142.973ZM235.033 141.089L234.679 141.066L234.712 140.594L235.066 140.618L235.033 141.089ZM235.162 139.206L234.809 139.183L234.842 138.711L235.196 138.734L235.162 139.206ZM235.292 137.323L234.938 137.3L234.971 136.828L235.325 136.851L235.292 137.323ZM235.422 135.44L235.068 135.417L235.101 134.945L235.455 134.968L235.422 135.44ZM235.552 133.557L235.198 133.533L235.231 133.062L235.585 133.085L235.552 133.557ZM235.682 131.674L235.328 131.65L235.361 131.178L235.715 131.202L235.682 131.674ZM235.811 129.791L235.457 129.767L235.49 129.295L235.844 129.319L235.811 129.791ZM235.941 127.908L235.587 127.884L235.62 127.412L235.974 127.436L235.941 127.908ZM236.071 126.025L235.717 126.001L235.75 125.529L236.104 125.553L236.071 126.025ZM236.201 124.142L235.847 124.118L235.88 123.646L236.234 123.67L236.201 124.142ZM236.331 122.259L235.977 122.235L236.01 121.763L236.364 121.787L236.331 122.259ZM236.46 120.375L236.106 120.352L236.139 119.88L236.493 119.903L236.46 120.375ZM236.59 118.492L236.236 118.469L236.269 117.997L236.623 118.02L236.59 118.492ZM236.72 116.609L236.366 116.586L236.399 116.114L236.753 116.137L236.72 116.609ZM236.85 114.726L236.496 114.703L236.529 114.231L236.883 114.254L236.85 114.726ZM236.98 112.843L236.626 112.819L236.659 112.347L237.013 112.371L236.98 112.843ZM237.109 110.96L236.755 110.936L236.788 110.464L237.142 110.488L237.109 110.96ZM237.239 109.077L236.885 109.053L236.918 108.581L237.272 108.605L237.239 109.077ZM237.369 107.194L237.015 107.17L237.048 106.698L237.402 106.722L237.369 107.194ZM237.499 105.311L237.145 105.287L237.178 104.815L237.532 104.839L237.499 105.311ZM237.628 103.428L237.274 103.404L237.308 102.932L237.661 102.956L237.628 103.428ZM237.758 101.544L237.404 101.521L237.437 101.049L237.791 101.073L237.758 101.544ZM237.888 99.6614L237.534 99.6378L237.567 99.1658L237.921 99.1894L237.888 99.6614ZM238.018 97.7783L237.664 97.7547L237.697 97.2827L238.051 97.3063L238.018 97.7783ZM238.148 95.8952L237.794 95.8716L237.827 95.3996L238.181 95.4232L238.148 95.8952ZM238.277 94.0121L237.923 93.9885L237.956 93.5165L238.31 93.5401L238.277 94.0121ZM238.407 92.129L238.053 92.1054L238.086 91.6334L238.44 91.657L238.407 92.129ZM238.537 90.2459L238.183 90.2223L238.216 89.7503L238.57 89.7739L238.537 90.2459ZM238.667 88.3628L238.313 88.3392L238.346 87.8672L238.7 87.8908L238.667 88.3628ZM238.797 86.4797L238.443 86.4561L238.476 85.9841L238.83 86.0077L238.797 86.4797ZM238.926 84.5966L238.572 84.573L238.605 84.101L238.959 84.1246L238.926 84.5966ZM239.056 82.7135L238.702 82.6899L238.735 82.2179L239.089 82.2415L239.056 82.7135ZM239.186 80.8304L238.832 80.8068L238.865 80.3348L239.219 80.3584L239.186 80.8304ZM239.316 78.9473L238.962 78.9237L238.995 78.4517L239.349 78.4753L239.316 78.9473ZM239.445 77.0642L239.092 77.0406L239.125 76.5686L239.478 76.5922L239.445 77.0642ZM239.575 75.1811L239.221 75.1575L239.254 74.6855L239.608 74.7091L239.575 75.1811Z" fill="#A1B2AA"/>
<path d="M256.777 70.2068H201.594V69.8528H256.423V63.9345H202.188V63.5806H256.777V70.2068Z" fill="#A1B2AA"/>
<path d="M253.932 61.7523H253.578V60.8769C253.578 59.8173 252.716 58.956 251.657 58.956H201.892V58.6021H251.657C252.912 58.6021 253.932 59.6215 253.932 60.8769V61.7523Z" fill="#A1B2AA"/>
<path d="M165.046 89.0927L164.099 87.4503L160.742 89.3853L156.074 81.2441H131.419L121.541 98.369L135.152 106.281L142.847 92.9486V92.7693L142.873 92.9014L143.555 91.7215L146.84 97.4086L143.367 99.4144L144.261 100.974H158.174L165.048 89.088L165.046 89.0927ZM154.984 99.0014H148.044L149.488 98.1684L144.653 89.8195L149.736 86.5159L154.936 83.1556L160.074 92.0472L161.539 91.2047L158.063 97.2245C157.428 98.3265 156.253 99.0038 154.981 99.0038L154.984 99.0014Z" fill="url(#paint0_linear_207_3174)"/>
<path d="M189.446 196.238H93.427L93.4152 196.073L88.7051 128.067L89.0567 128.043L93.7573 195.884H189.446V196.238Z" fill="#270014"/>
<mask id="path-28-inside-1_207_3174" fill="white">
<path d="M200.16 45.0866L196.317 98.1724L196.67 98.1979L200.513 45.1122L200.16 45.0866Z"/>
</mask>
<path d="M200.16 45.0866L196.317 98.1724L196.67 98.1979L200.513 45.1122L200.16 45.0866Z" fill="#270014"/>
<path d="M196.317 98.1724L181.357 97.0895L180.274 112.05L195.234 113.133L196.317 98.1724ZM200.16 45.0866L201.243 30.1258L186.282 29.0429L185.199 44.0037L200.16 45.0866ZM200.513 45.1122L215.474 46.1951L216.557 31.2342L201.596 30.1513L200.513 45.1122ZM196.67 98.1979L195.588 113.159L210.548 114.242L211.631 99.2808L196.67 98.1979ZM211.278 99.2553L215.121 46.1695L185.199 44.0037L181.357 97.0895L211.278 99.2553ZM199.077 60.0475L199.43 60.073L201.596 30.1513L201.243 30.1258L199.077 60.0475ZM185.552 44.0293L181.71 97.115L211.631 99.2808L215.474 46.1951L185.552 44.0293ZM197.753 83.2371L197.4 83.2115L195.234 113.133L195.588 113.159L197.753 83.2371Z" fill="black" mask="url(#path-28-inside-1_207_3174)"/>
<path d="M204.294 43.6593H78.0557V35.6738H204.294V43.6593ZM78.4096 43.3053H203.94V36.0278H78.4096V43.3053Z" fill="#270014"/>
<path d="M82.4624 34.0053H82.1084V29.701C82.1084 28.1955 83.3331 26.9731 84.8363 26.9731H198.101C199.606 26.9731 200.828 28.1979 200.828 29.701V33.4106H200.474V29.701C200.474 28.3914 199.41 27.3271 198.101 27.3271H84.8387C83.529 27.3271 82.4647 28.3914 82.4647 29.701V34.0053H82.4624Z" fill="#270014"/>
<path d="M97.1563 49.6765L78.5146 196.008L78.8658 196.053L97.5074 49.7212L97.1563 49.6765Z" fill="#270014"/>
<path d="M79.05 48.0673L60.1152 196.7L60.4664 196.744L79.4011 48.1121L79.05 48.0673Z" fill="#270014"/>
<path d="M80.0691 185.1H61.7549V185.454H80.0691V185.1Z" fill="#270014"/>
<path d="M81.5544 173.312H63.2402V173.666H81.5544V173.312Z" fill="#270014"/>
<path d="M83.0378 161.525H64.7236V161.879H83.0378V161.525Z" fill="#270014"/>
<path d="M84.5202 149.736H66.2061V150.09H84.5202V149.736Z" fill="#270014"/>
<path d="M86.0036 137.949H67.6895V138.303H86.0036V137.949Z" fill="#270014"/>
<path d="M87.4831 126.163H69.1689V126.517H87.4831V126.163Z" fill="#270014"/>
<path d="M88.9694 114.373H70.6553V114.727H88.9694V114.373Z" fill="#270014"/>
<path d="M90.4489 102.585H72.1348V102.939H90.4489V102.585Z" fill="#270014"/>
<path d="M91.9353 90.7993H73.6211V91.1533H91.9353V90.7993Z" fill="#270014"/>
<path d="M93.4148 79.0088H75.1006V79.3628H93.4148V79.0088Z" fill="#270014"/>
<path d="M94.8982 67.2217H76.584V67.5756H94.8982V67.2217Z" fill="#270014"/>
<path d="M96.3806 55.4355H78.0664V55.7895H96.3806V55.4355Z" fill="#270014"/>
<path d="M262.745 195.22L262.457 195.012C263.924 192.973 265.751 190.434 265.855 187.603C265.911 186.045 265.192 184.365 264.021 183.324C263.155 182.553 262.122 182.215 261.109 182.371C260.121 182.524 259.288 183.081 258.405 183.669C257.975 183.954 257.534 184.252 257.072 184.495C256.088 185.014 254.872 185.16 253.978 184.863C253.398 184.672 252.963 184.301 252.72 183.794C252.482 183.296 252.468 182.734 252.473 182.203C252.489 180.585 252.654 178.949 252.815 177.368C252.999 175.563 253.188 173.697 253.152 171.858C253.107 169.51 252.569 165.194 249.466 162.669C247.286 160.897 244.076 160.38 241.287 161.353C238.632 162.278 236.393 164.486 235.293 167.261C234.427 169.449 234.272 171.879 234.121 174.23C233.96 176.719 233.795 179.296 232.79 181.614C232.483 182.324 231.598 183.964 230.074 183.924C228.818 183.888 227.912 182.609 227.763 181.394C227.655 180.509 227.827 179.627 227.995 178.772C228.051 178.484 228.108 178.19 228.155 177.899C228.667 174.65 227.473 170.504 224.198 168.866C222.584 168.059 220.429 168.182 218.711 169.18C217.265 170.02 216.389 171.33 216.309 172.774L215.955 172.755C216.042 171.19 216.982 169.775 218.532 168.873C220.351 167.816 222.636 167.689 224.356 168.547C227.782 170.261 229.038 174.574 228.504 177.951C228.457 178.248 228.398 178.548 228.342 178.838C228.181 179.664 228.014 180.519 228.115 181.349C228.245 182.416 229.016 183.537 230.083 183.567C231.433 183.6 232.247 181.972 232.464 181.47C233.446 179.207 233.609 176.663 233.767 174.204C233.92 171.828 234.078 169.369 234.965 167.127C236.1 164.257 238.422 161.973 241.172 161.015C244.072 160.003 247.416 160.543 249.69 162.391C252.907 165.005 253.461 169.437 253.508 171.846C253.544 173.706 253.353 175.584 253.169 177.399C253.008 178.973 252.843 180.599 252.826 182.201C252.822 182.69 252.834 183.204 253.039 183.633C253.242 184.058 253.596 184.356 254.089 184.518C254.898 184.785 256.003 184.651 256.907 184.172C257.35 183.936 257.787 183.645 258.207 183.364C259.082 182.779 259.988 182.175 261.055 182.01C262.171 181.838 263.309 182.206 264.255 183.048C265.501 184.157 266.268 185.946 266.206 187.605C266.098 190.545 264.236 193.132 262.742 195.211L262.745 195.22Z" fill="#A1B2AA"/>
<path d="M239.683 194.666L239.379 194.484C244.639 185.717 244.115 165.954 244.108 165.756L244.462 165.747C244.469 165.947 244.995 185.809 239.683 194.666Z" fill="#A1B2AA"/>
<path d="M243.816 181.626L243.565 181.376C243.61 181.331 248.007 176.888 249.462 171.646L249.805 171.741C248.323 177.074 243.86 181.579 243.816 181.624V181.626Z" fill="#A1B2AA"/>
<path d="M20.9796 194.616C13.7068 188.467 10.6863 178.067 12.5269 172.581C13.072 170.955 14.2 169.454 15.7881 168.243C17.4989 166.938 19.7903 166.332 21.7701 166.662C24.8307 167.172 26.61 169.65 27.6837 171.469C28.3539 172.607 28.7692 174.525 29.1727 176.382C29.6164 178.433 30.0765 180.554 30.775 180.753C30.9685 180.809 31.2021 180.696 31.4688 180.422C33.2858 178.558 37.5334 165.006 37.5759 164.869C38.2602 162.875 39.0318 160.621 40.7096 158.811C42.5644 156.813 45.4292 155.694 48.0131 155.961C51.3947 156.31 53.6105 158.75 54.309 161.015C55.0169 163.316 54.5756 165.707 54.1462 168.019L54.0919 168.312C53.6365 170.78 53.3061 173.18 54.2571 175.401C54.578 176.153 54.9933 176.606 55.5597 176.833C56.808 177.329 57.7 176.616 58.7336 175.792C59.661 175.054 60.7134 174.216 62.1434 174.325L62.1151 174.679C60.8243 174.579 59.871 175.337 58.953 176.071C57.9265 176.887 56.867 177.732 55.4275 177.163C54.7762 176.904 54.2854 176.375 53.9291 175.542C52.9403 173.23 53.2754 170.773 53.7403 168.248L53.7946 167.956C54.2146 165.685 54.6488 163.337 53.9668 161.122C53.325 159.038 51.1752 156.648 47.973 156.315C45.4976 156.06 42.7485 157.134 40.9669 159.055C39.3386 160.808 38.6118 162.929 37.9086 164.982C37.734 165.539 33.5949 178.749 31.7189 180.672C31.3532 181.048 31.0015 181.192 30.6735 181.097C29.7721 180.838 29.3332 178.811 28.8235 176.46C28.427 174.631 28.0164 172.739 27.3746 171.653C26.249 169.747 24.5877 167.495 21.7064 167.014C19.821 166.7 17.6311 167.281 15.9981 168.527C14.4666 169.695 13.3811 171.137 12.8596 172.696C11.0544 178.077 14.0395 188.292 21.2038 194.35L20.9749 194.621L20.9796 194.616Z" fill="#A1B2AA"/>
<path d="M38.7563 194.598L38.4307 194.461C40.4837 189.607 45.8899 171.055 47.0651 161.84L47.4167 161.885C46.2368 171.126 40.8164 189.73 38.7563 194.598Z" fill="#A1B2AA"/>
<path d="M25.4924 191.73C20.3575 182.086 19.5788 177.17 19.8455 170.41L20.1994 170.424C19.9375 177.121 20.7091 181.991 25.8062 191.565L25.4947 191.733L25.4924 191.73Z" fill="#A1B2AA"/>
<path d="M39.7597 190.742C36.9586 182.594 38.5963 173.702 38.6128 173.612L38.9597 173.678C38.9432 173.766 37.3244 182.568 40.0924 190.626L39.7573 190.742H39.7597Z" fill="#A1B2AA"/>
<path d="M56.0618 194.99C53.0767 191.705 53.3292 182.764 53.341 182.384L53.6949 182.396C53.6926 182.488 53.4354 191.573 56.3237 194.752L56.0618 194.99Z" fill="#A1B2AA"/>
<path d="M224.951 58.3178C223.094 45.24 229.89 31.8129 242.27 24.1059C242.31 24.0799 242.359 24.0728 242.406 24.0846C242.454 24.0964 242.494 24.1271 242.517 24.1696C242.541 24.2121 244.905 28.488 246.078 34.7626C247.161 40.5558 247.421 49.2917 242.517 58.0087L242.208 57.8341C247.06 49.2115 246.8 40.5629 245.729 34.8287C244.695 29.2974 242.735 25.3447 242.296 24.5094C230.138 32.1574 223.472 45.3886 225.301 58.2706L224.951 58.3202V58.3178Z" fill="#A1B2AA"/>
<path d="M235.34 58.3094C234.295 47.563 241.393 25.7776 241.466 25.5605L241.804 25.6715C241.733 25.8886 234.656 47.6032 235.694 58.2764L235.343 58.3118L235.34 58.3094Z" fill="#A1B2AA"/>
<path d="M235.333 48.2441C231.437 44.7257 231.281 35.5108 231.276 35.1214L231.63 35.1167C231.63 35.2111 231.788 44.5676 235.569 47.9822L235.33 48.2441H235.333Z" fill="#A1B2AA"/>
<path d="M219.021 57.3768C208.895 55.463 207.623 42.3922 207.611 42.2601L207.595 42.069H207.786C213.926 42.0052 220.151 42.6495 224.085 47.7489L223.804 47.966C220.005 43.0435 213.971 42.3734 207.984 42.4206C208.182 44.0323 209.886 55.2907 219.084 57.0299L219.018 57.3768H219.021Z" fill="#A1B2AA"/>
<path d="M26.4693 71.3537L26.1162 71.3784L33.0246 169.926L33.3777 169.901L26.4693 71.3537Z" fill="#A1B2AA"/>
<path d="M63.4249 70.2068H23.0186V63.5806H65.754V63.9345H23.3725V69.8528H63.4249V70.2068Z" fill="#A1B2AA"/>
<path d="M26.2172 61.7523H25.8633V60.8769C25.8633 59.6238 26.8827 58.6021 28.1381 58.6021H70.2576V58.956H28.1381C27.0786 58.956 26.2172 59.8173 26.2172 60.8769V61.7523Z" fill="#A1B2AA"/>
<path d="M51.5524 74.291H51.0804V73.937H51.5524V74.291ZM49.6646 74.291H49.1926V73.937H49.6646V74.291ZM47.7768 74.291H47.3048V73.937H47.7768V74.291ZM45.8889 74.291H45.417V73.937H45.8889V74.291ZM44.0011 74.291H43.5292V73.937H44.0011V74.291ZM42.1133 74.291H41.6413V73.937H42.1133V74.291ZM40.2255 74.291H39.7535V73.937H40.2255V74.291ZM38.3377 74.291H37.8657V73.937H38.3377V74.291ZM36.4499 74.291H35.9779V73.937H36.4499V74.291ZM34.562 74.291H34.0901V73.937H34.562V74.291ZM32.6742 74.291H32.2023V73.937H32.6742V74.291ZM30.7864 74.291H30.3145V73.937H30.7864V74.291Z" fill="#A1B2AA"/>
<path d="M53.7832 41.0144C46.6614 41.0144 38.3385 40.8893 30.9689 40.4575C29.5271 40.3726 27.9579 40.1224 27.257 38.9189C26.8346 38.1945 26.8511 37.411 27.3066 36.6583C28.0782 35.3769 29.9967 34.4283 31.6722 34.4991C32.3046 34.525 32.9606 34.6076 33.5977 34.6879C35.3982 34.9121 37.2601 35.1457 38.6618 34.1215C39.306 33.6519 39.7449 32.9888 40.2122 32.288C40.4788 31.8868 40.7549 31.4715 41.0711 31.0987C42.3902 29.5436 44.6391 28.8451 46.9446 29.2746C49.1014 29.6757 50.8571 30.983 51.6217 32.7269C53.3915 29.4586 55.8976 26.4782 60.8318 28.097C61.6884 28.3778 62.2737 28.779 62.7432 29.0999C63.581 29.6734 64.086 30.0202 65.3815 29.3996C66.4174 28.9041 67.0404 27.9295 67.7011 26.8959C68.1849 26.1384 68.6875 25.355 69.3695 24.7627C71.8024 22.653 74.3108 25.06 76.5385 27.2994C76.1066 25.3904 74.9079 19.5311 75.6347 16.3194C76.4795 12.5815 79.769 8.82243 83.8113 9.0065C88.2358 9.20472 95.721 12.9096 96.9693 22.0135L96.6177 22.0607C95.2514 12.1002 86.6878 9.48789 83.7948 9.36046C79.9342 9.19056 76.791 12.8034 75.9792 16.3997C75.1415 20.1116 77.0057 27.7501 77.0246 27.828C77.0435 27.9059 77.0081 27.9861 76.9396 28.0239C76.8712 28.064 76.7839 28.0498 76.7272 27.9956L76.4606 27.7289C74.2967 25.5508 71.8472 23.0849 69.6007 25.0341C68.9565 25.5933 68.4704 26.3532 67.9985 27.0894C67.3401 28.1183 66.6581 29.1849 65.5325 29.7229C64.0529 30.4308 63.3851 29.9754 62.5403 29.3973C62.066 29.0716 61.5256 28.7035 60.7186 28.4392C56.8061 27.1578 54.208 28.5478 51.7514 33.239C51.7184 33.3027 51.6523 33.3404 51.5815 33.3334C51.5107 33.3286 51.4517 33.2815 51.4281 33.2154C50.8004 31.4102 49.0566 30.0368 46.8762 29.6309C44.6957 29.225 42.5743 29.8763 41.3378 31.3346C41.0334 31.6933 40.7643 32.0992 40.5024 32.4909C40.0399 33.1871 39.5609 33.9068 38.8671 34.4141C37.3521 35.5185 35.4195 35.2778 33.5505 35.0442C32.9205 34.9663 32.2715 34.8837 31.6533 34.8578C30.1194 34.7917 28.3048 35.6861 27.6063 36.8471C27.3373 37.2907 27.1131 37.9821 27.5591 38.7467C28.1773 39.8062 29.638 40.0304 30.9855 40.1106C48.1599 41.1206 70.521 40.4504 70.7452 40.4434L70.757 40.7973C70.6296 40.802 63.2718 41.0215 53.7808 41.0215L53.7832 41.0144Z" fill="#A1B2AA"/>
<path d="M123.694 124.39L122.778 125.043L123.55 125.846L124.517 124.833L123.694 124.39Z" fill="#FFD0A4"/>
<path d="M124.272 125.108C124.305 125.072 125.565 123.706 125.565 123.706L125.45 123.151L123.888 124.482L124.275 125.105L124.272 125.108Z" fill="#FFD0A4"/>
<path d="M125.318 123.658L125.566 123.707L126.196 122.32L126.026 122.164L125.451 123.153L125.318 123.658Z" fill="#FFD0A4"/>
<path d="M124.511 123.954L124.681 123.406L125.037 123.019C125.037 123.019 124.886 122.722 124.82 122.819C124.754 122.915 124.374 123.302 124.374 123.302L123.859 123.921L123.888 124.487L124.511 123.956V123.954Z" fill="#FFD0A4"/>
<path d="M105.45 134.66L105.698 130.757C105.698 130.757 109.851 130.979 116.124 130.313C119.335 127.505 123.024 124.444 123.024 124.444L124.458 125.299C124.458 125.299 120.574 130.877 117.778 133.624C114.982 136.371 102.803 139.601 102.803 139.601L105.45 134.66Z" fill="url(#paint1_linear_207_3174)"/>
<path d="M129.319 114.476L132.802 116.482L133.697 114.932L126.74 102.88L113.016 102.869L112.069 104.502L115.418 106.446L110.698 114.557L123.03 135.915L142.808 135.903L142.85 120.161H126.037L129.322 114.474L129.319 114.476ZM117.756 117.207L112.921 114.59L118.058 105.689L116.593 104.846H123.545C124.817 104.846 125.99 105.523 126.627 106.623L130.1 112.633L128.654 111.8L123.84 120.161L117.756 117.204V117.207Z" fill="url(#paint2_linear_207_3174)"/>
<path d="M112.145 191.518L112.277 192.379L112.07 195.591L111.55 195.806L111.314 195.171L111.442 192.08L112.145 191.518Z" fill="#FFD0A4"/>
<path d="M111.741 195.239L112.166 195.213C112.166 195.213 113.704 195.366 114.511 195.803C114.66 195.883 114.599 196.107 114.431 196.107H111.312V195.074L111.741 195.239Z" fill="url(#paint3_linear_207_3174)"/>
<path d="M105.245 191.518L105.379 192.379L105.172 195.591L104.65 195.806L104.414 195.171L104.544 192.08L105.245 191.518Z" fill="#FFD0A4"/>
<path d="M104.844 195.239L105.268 195.213C105.268 195.213 106.807 195.366 107.614 195.803C107.763 195.883 107.701 196.107 107.534 196.107H104.414V195.074L104.844 195.239Z" fill="url(#paint4_linear_207_3174)"/>
<path d="M112.898 153.347L113.625 175.265C113.625 175.265 112.481 190.096 112.481 192.519H111.181C111.181 192.519 110.22 181.837 110.869 176.036C109.779 168.915 108.297 154.78 108.297 154.78L112.896 153.347H112.898Z" fill="url(#paint5_linear_207_3174)"/>
<path d="M106.863 154.137V175.264C106.863 175.264 105.719 190.095 105.719 192.519H104.419C104.419 192.519 103.458 181.836 104.107 176.036C103.017 168.914 101.938 152.54 101.938 152.54L106.861 154.137H106.863Z" fill="url(#paint6_linear_207_3174)"/>
<path d="M110.588 156.919C110.588 156.919 109.309 158.038 106.237 158.946C103.167 159.855 104.991 150.871 104.991 150.871L111.551 151.612L110.588 156.919Z" fill="url(#paint7_linear_207_3174)"/>
<path d="M109.497 132.258L106.45 132.31C106.601 130.913 106.906 128.452 107.366 126.245L108.876 126.219C108.841 127.213 108.829 129.773 109.499 132.258H109.497Z" fill="url(#paint8_linear_207_3174)"/>
<path d="M117.401 135.836C117.401 135.836 115.091 130.416 108.009 130.416C98.648 130.416 96.798 132.337 96.0051 134.716C95.5025 136.221 95.7691 153.016 102.622 154.941C109.472 156.864 113.397 154.172 114.244 153.171C115.006 152.27 118.326 140.528 117.401 135.839V135.836Z" fill="url(#paint9_linear_207_3174)"/>
<path d="M108.685 130.406C109.308 130.42 109.9 130.441 110.467 130.47C110.467 130.479 111.033 133.417 108.912 133.445C106.788 133.474 105.261 130.467 105.259 130.463C106.281 130.404 107.418 130.38 108.685 130.408V130.406Z" fill="#FFD0A4"/>
<path d="M111.271 117.655C111.271 117.655 111.115 116.055 109.97 116.15C108.826 116.244 108.731 117.275 108.812 118.266C108.892 119.257 109.772 121.157 108.13 121.291C106.487 121.426 105.222 122.58 105.383 124.539C105.543 126.497 115.136 125.761 114.664 120.012C114.487 117.851 113.42 116.402 112.479 116.48C111.537 116.558 111.268 117.655 111.268 117.655H111.271Z" fill="url(#paint10_linear_207_3174)"/>
<path d="M106.104 124.659C106.151 124.654 106.196 124.663 106.238 124.682C106.262 124.352 106.335 124.047 106.451 123.792C107.555 124.684 108.643 124.633 109.242 124.5C109.313 124.668 109.374 124.847 109.422 125.034C109.757 126.358 109.339 127.604 108.489 127.818C107.64 128.033 106.68 127.136 106.344 125.812C106.333 125.763 106.323 125.716 106.314 125.669C106.276 125.692 106.236 125.706 106.191 125.711C105.983 125.727 105.795 125.506 105.771 125.215C105.747 124.925 105.896 124.675 106.106 124.659H106.104Z" fill="url(#paint11_linear_207_3174)"/>
<path d="M108.881 133.624C107.31 133.624 106.073 132.09 105.474 131.172L105.771 130.979C106.335 131.842 107.489 133.279 108.909 133.27C109.443 133.263 109.818 133.062 110.061 132.656L110.365 132.838C110.059 133.352 109.573 133.617 108.914 133.626C108.902 133.626 108.893 133.626 108.881 133.626V133.624Z" fill="#C40000"/>
<path d="M125.37 136.805C125.42 136.8 127.265 136.59 127.265 136.59L127.539 136.097L125.486 136.081L125.37 136.805Z" fill="#FFD0A4"/>
<path d="M127.114 136.392L127.268 136.59L128.65 135.953L128.625 135.724L127.544 136.095L127.114 136.392Z" fill="#FFD0A4"/>
<path d="M126.309 136.085L126.796 135.783L127.317 135.724C127.317 135.724 127.397 135.401 127.284 135.429C127.171 135.457 126.63 135.502 126.63 135.502L125.715 135.606L125.488 136.078L126.307 136.085H126.309Z" fill="#FFD0A4"/>
<path d="M97.6742 137.052L98.3043 142.355C98.3043 142.355 101.256 145.897 113.22 143.089C116.64 143.048 125.722 136.859 125.722 136.859L125.732 135.431C125.732 135.431 117.131 137.996 113.574 139.027C109.612 137.8 102.587 135.327 102.644 135.521C102.701 135.714 97.6719 137.052 97.6719 137.052H97.6742Z" fill="url(#paint12_linear_207_3174)"/>
<path d="M106.547 144.099C102.702 144.099 99.7882 143.554 99.748 143.544L99.8141 143.198C99.8637 143.207 104.937 144.156 110.513 143.533C112.04 143.363 113.819 142.761 115.389 142.232C116.023 142.018 116.625 141.815 117.173 141.652L117.274 141.992C116.734 142.152 116.134 142.355 115.502 142.567C113.916 143.103 112.12 143.71 110.553 143.884C109.164 144.04 107.804 144.099 106.544 144.099H106.547Z" fill="#C40000"/>
<path d="M60.764 77.3486L57.4131 76.315L58.3216 75.8785L58.265 74.6679L59.4118 74.3753L59.6266 74.0308L61.2477 76.5368L60.764 77.3486Z" fill="url(#paint13_linear_207_3174)"/>
<path d="M63.1831 95.3948L61.5926 95.4514C60.0092 95.5081 58.5225 94.6869 57.7296 93.3135L56.5285 91.2322C55.9008 90.1467 55.7805 88.8417 56.1981 87.6618L60.5283 76.7998L61.8097 77.2033L67.9875 86.8477C68.6908 88.1291 68.6908 89.6794 67.9923 90.9608L66.7888 93.1648C66.0643 94.491 64.6957 95.3382 63.1831 95.3924V95.3948Z" fill="url(#paint14_linear_207_3174)"/>
<path d="M61.5641 76.9986C61.5641 76.9986 61.2691 76.8264 61.4013 75.9438C61.5358 75.0613 60.809 75.4483 60.809 75.4483C60.809 75.4483 60.5352 76.3804 60.514 76.8594C60.4927 77.3384 61.5641 77.001 61.5641 77.001V76.9986Z" fill="#FFD0A4"/>
<path d="M61.7489 77.1195C61.553 77.5821 61.0174 77.7992 60.5548 77.6009C60.0923 77.4051 59.8752 76.8694 60.0735 76.4069C60.2717 75.9444 60.805 75.7273 61.2675 75.9255C61.73 76.1237 61.9471 76.657 61.7489 77.1195Z" fill="#FFD0A4"/>
<path d="M106.712 47.589C106.75 47.5442 108.184 45.8711 108.184 45.8711L108.843 45.9254L107.486 47.9501L106.712 47.589Z" fill="#FFD0A4"/>
<path d="M108.236 46.157L108.184 45.8715L109.684 44.937L109.887 45.1116L108.842 45.9281L108.236 46.157Z" fill="#FFD0A4"/>
<path d="M107.928 47.0877L108.544 46.8093L108.95 46.335C108.95 46.335 109.314 46.4695 109.21 46.5615C109.106 46.6535 108.702 47.1538 108.702 47.1538L107.992 47.9844L107.386 47.8971L107.928 47.0901V47.0877Z" fill="#FFD0A4"/>
<path d="M107.993 47.9829C107.993 47.9829 107.58 47.905 106.972 48.7805C106.363 49.6559 106.065 48.7333 106.065 48.7333C106.065 48.7333 106.342 48.023 106.712 47.5888C107.082 47.1546 107.993 47.9829 107.993 47.9829Z" fill="#FFD0A4"/>
<path d="M87.2643 57.3598L87.085 54.6531C87.085 54.6531 93.8481 55.2761 96.9842 55.8873C98.813 53.2231 105.932 48.1685 105.932 48.1685L108.299 49.4144C108.299 49.4144 102.195 58.8535 100.418 60.536C98.6431 62.2185 90.7332 64.4697 90.7332 64.4697L87.2619 57.3598H87.2643Z" fill="url(#paint15_linear_207_3174)"/>
<path d="M85.4339 110.099L85.6133 110.951L85.5684 114.155L85.054 114.4L84.7826 113.785L84.752 110.7L85.4339 110.099Z" fill="#FFD0A4"/>
<path d="M85.2171 113.826L85.6466 113.776C85.6466 113.776 87.2111 113.838 88.0512 114.222C88.2045 114.293 88.155 114.522 87.9851 114.531L84.8277 114.718L84.7734 113.689L85.2147 113.828L85.2171 113.826Z" fill="url(#paint16_linear_207_3174)"/>
<path d="M73.9031 110.205L74.0565 111.061L73.9101 114.261L73.3863 114.485L73.1338 113.86L73.2022 110.78L73.9031 110.205Z" fill="#FFD0A4"/>
<path d="M73.5698 113.917L73.9993 113.882C73.9993 113.882 75.5638 114.002 76.3921 114.418C76.5431 114.493 76.4865 114.72 76.3165 114.725L73.1521 114.791L73.1309 113.762L73.5698 113.917Z" fill="url(#paint17_linear_207_3174)"/>
<path d="M86.5436 79.9004C86.5436 79.9004 88.5022 94.413 88.5565 95.5929C87.9878 103.696 85.6729 112.866 85.6729 112.866L84.6039 112.916C84.6039 112.916 82.322 104.322 83.3957 96.9639C80.4814 90.3117 78.2207 80.9363 78.2207 80.9363L86.5436 79.9028V79.9004Z" fill="url(#paint18_linear_207_3174)"/>
<path d="M79.6857 80.5754L78.6757 96.9947L74.2465 112.892L72.9108 112.824C72.9108 112.824 71.9551 102.167 73.8665 96.7469C70.4425 87.8813 70.1074 80.54 70.1074 80.54L79.6834 80.5778L79.6857 80.5754Z" fill="url(#paint19_linear_207_3174)"/>
<path d="M61.4427 76.9894C61.4427 76.9894 61.228 76.5812 62.0185 75.6915C62.809 74.8019 61.6999 74.7075 61.6999 74.7075C61.6999 74.7075 60.7136 75.5523 60.3431 76.0715C59.9726 76.5906 61.4427 76.9894 61.4427 76.9894Z" fill="#FFD0A4"/>
<path d="M90.2153 55.0211C91.256 55.9037 90.8265 81.3538 90.8383 82.2128C90.8477 83.0741 85.3754 84.3554 77.567 83.067C69.7561 81.7786 66.9268 79.2843 66.9268 79.2843C66.9268 79.2843 74.091 58.8204 76.1204 53.8365C76.3824 53.197 77.0289 52.7864 77.7298 52.8242C84.7312 53.2112 90.2177 55.0188 90.2177 55.0188L90.2153 55.0211Z" fill="url(#paint20_linear_207_3174)"/>
<path d="M77.7346 55.7794L76.7269 53.1011C76.7269 53.1011 66.1906 61.9337 65.1924 62.998C64.1942 64.0622 59.9277 74.6434 59.9277 74.6434L62.3347 76.9654C62.3347 76.9654 67.8731 70.1575 68.7037 69.0319C70.5396 69.0649 75.3182 65.8368 75.3182 65.8368L77.7369 55.7794H77.7346Z" fill="url(#paint21_linear_207_3174)"/>
<path d="M85.2863 55.9984L81.8906 54.3254C82.4003 52.6712 82.969 50.8117 84.0475 48.2466L85.914 48.5534C85.6403 49.7474 85.0362 52.8411 85.2863 55.9984Z" fill="url(#paint22_linear_207_3174)"/>
<path d="M83.1504 47.8016C83.1457 49.5832 84.0896 51.0274 85.2553 51.0274C86.421 51.0274 87.3697 49.5832 87.3744 47.8039C87.3791 46.0223 86.4352 44.5781 85.2695 44.5781C84.1038 44.5781 83.1551 46.0223 83.1504 47.8016Z" fill="url(#paint23_linear_207_3174)"/>
<path d="M91.1509 41.5493C90.7238 44.0176 88.5835 47.1491 86.1718 46.7503C83.7601 46.3515 84.0433 47.9797 84.0433 47.9797C84.0433 47.9797 83.4864 47.9372 83.5737 47.1986C83.661 46.46 83.2645 46.6016 83.2645 46.6016L83.1182 47.4464C83.1182 47.4464 81.6623 47.0358 82.1956 43.9634C82.7265 40.8909 84.7654 41.6579 85.3577 41.757C85.95 41.8561 87.3469 41.3369 87.5381 40.2373C87.7292 39.1376 88.6401 38.4816 89.7846 38.6704C90.9314 38.8592 91.3869 40.1901 91.1533 41.5493H91.1509Z" fill="url(#paint24_linear_207_3174)"/>
<path d="M87.2117 49.0333C87.2117 49.0333 86.0885 49.5996 85.0667 48.9224C84.0261 50.4232 84.6396 51.393 84.6396 51.393C84.6396 51.393 86.6737 52.167 87.41 51.6597C87.7946 50.3665 87.2117 49.0333 87.2117 49.0333Z" fill="url(#paint25_linear_207_3174)"/>
<path d="M82.7592 46.7307C82.6978 47.0847 82.8583 47.4056 83.1178 47.4505C83.3774 47.4929 83.637 47.2404 83.6984 46.8865C83.7597 46.5325 83.5992 46.2116 83.3397 46.1667C83.0801 46.1219 82.8205 46.3768 82.7592 46.7307Z" fill="url(#paint26_linear_207_3174)"/>
<path d="M80.6172 53.0708C83.0478 53.3422 85.1833 53.7504 86.821 54.1209C86.703 55.2607 86.2098 57.8659 84.1498 57.526C82.1298 57.1933 81.0231 54.3616 80.6172 53.0708Z" fill="url(#paint27_linear_207_3174)"/>
<path d="M70.5262 68.8507L70.3799 68.5274C70.4058 68.5156 73.0063 67.3334 75.208 65.6934L75.4204 65.9765C73.1856 67.6402 70.5521 68.8366 70.5262 68.8484V68.8507Z" fill="white"/>
<path d="M176.216 119.207L176.264 118.301L175.036 118.481L174.933 119.368L176.216 119.207Z" fill="#FFD0A4"/>
<path d="M175.271 118.552L175.037 118.481C175.037 118.481 172.161 118.299 171.925 118.193C171.689 118.085 171.637 118.453 171.903 118.524C172.17 118.594 173.822 118.918 174.001 119.177C174.181 119.437 173.671 119.602 173.569 119.687C173.468 119.772 173.548 119.902 173.935 119.803C174.322 119.701 174.933 119.368 174.933 119.368L175.271 118.552Z" fill="#FFD0A4"/>
<path d="M190.667 108.913C186.946 111.029 185.006 115.407 183.465 117.53C181.259 117.53 175.846 118.238 175.846 118.238L176.053 120.07C176.053 120.07 180.981 120.867 183.602 120.872C183.949 120.872 184.291 120.796 184.61 120.655C187.748 119.255 190.125 117.03 190.125 117.03C190.125 117.03 191.953 111.22 190.665 108.913H190.667Z" fill="url(#paint28_linear_207_3174)"/>
<path d="M178.795 105.889L163.582 109.924L167.936 126.16L161.588 124.461L162.626 120.583L160.899 120.121L151.063 129.966L154.613 143.218L156.441 143.707L157.442 139.969L166.503 142.425L183.933 124.992L178.795 105.889ZM156.024 137.621L155.59 139.247L153.796 132.533C153.468 131.306 153.817 129.999 154.716 129.1L159.62 124.189L159.191 125.796L168.514 128.279L167.108 135.164L165.963 140.266L156.026 137.619L156.024 137.621Z" fill="url(#paint29_linear_207_3174)"/>
<path d="M196.587 173.827L196.16 174.612V176.503L196.587 176.562L197.024 176.444L197.069 174.612L196.587 173.827Z" fill="#FFD0A4"/>
<path d="M196.16 176.066C196.326 176.219 196.385 176.356 196.571 176.356C196.798 176.356 196.897 176.248 197.071 176.066C197.178 176.203 197.38 176.37 197.463 176.58C197.515 176.712 197.494 177.092 197.435 177.092H195.797C195.738 177.092 195.717 176.715 195.769 176.58C195.842 176.394 196.066 176.196 196.16 176.066Z" fill="url(#paint30_linear_207_3174)"/>
<path d="M183.291 172.22L182.864 173.006L181.953 176.175L182.38 176.562L182.829 176.034L183.772 173.006L183.291 172.22Z" fill="#FFD0A4"/>
<path d="M182.388 176.201L181.954 176.175C181.954 176.175 180.378 176.333 179.55 176.779C179.399 176.861 179.46 177.093 179.632 177.093H182.83V176.033L182.391 176.203L182.388 176.201Z" fill="url(#paint31_linear_207_3174)"/>
<path d="M185.28 124.099L185.775 124.859L184.624 125.321L184.088 124.606L185.28 124.099Z" fill="#FFD0A4"/>
<path d="M184.794 125.143L184.627 125.323C184.627 125.323 182.232 126.927 182.083 127.14C181.932 127.352 181.705 127.062 181.899 126.866C182.092 126.67 183.357 125.558 183.383 125.245C183.409 124.931 182.885 125.044 182.753 125.02C182.623 124.997 182.626 124.846 183.013 124.737C183.4 124.629 184.093 124.61 184.093 124.61L184.797 125.146L184.794 125.143Z" fill="#FFD0A4"/>
<path d="M196.265 99.3223C198.851 99.3223 202.91 103.726 202.91 108.74C202.91 121.358 209.269 121.565 209.269 124.718C209.269 127.871 206.478 128.338 204.564 128.338C202.65 128.338 198.773 122.908 198.773 122.908L198.617 109.929L196.265 99.3223Z" fill="url(#paint32_linear_207_3174)"/>
<path d="M193.115 102.207C196.369 102.207 197.37 103.866 197.37 107.337C197.37 110.997 193.665 114.193 193.665 120.545C193.665 128.141 197.091 136.674 206.132 136.674C210.12 136.674 211.677 135.079 211.677 133.142C211.677 128.736 201.079 128.089 201.079 116.807C201.079 112.933 201.726 110.389 201.726 107.274C201.726 104.159 200.093 99.1821 195.345 99.1821C190.597 99.1821 193.118 102.207 193.118 102.207H193.115Z" fill="url(#paint33_linear_207_3174)"/>
<path d="M188.717 124.179C185.123 133.973 185.305 143.657 184.951 152.532C184.597 161.407 182.306 175 182.306 175L183.106 175.099C183.106 175.099 192.146 164.366 188.771 153.124C188.771 153.124 195.124 143.692 195.124 132.351C195.124 121.01 190.272 122.103 188.717 124.179Z" fill="url(#paint34_linear_207_3174)"/>
<path d="M191.632 125.18L192.444 154.246L196.163 174.613H197.073C197.073 174.613 200.03 157.882 196.753 151.954C203.001 139.292 199.804 125.98 196.224 122.95C192.644 119.92 191.632 125.18 191.632 125.18Z" fill="url(#paint35_linear_207_3174)"/>
<path d="M195.86 123.095C195.86 123.095 192.771 123.992 189.161 124.183C187.752 122.267 186.716 118.845 187.311 115.237C188.226 109.689 190.678 107.445 193.814 107.742C196.868 108.032 199.365 112.707 198.222 117.781C197.75 119.874 196.903 121.707 195.86 123.095Z" fill="url(#paint36_linear_207_3174)"/>
<path d="M194.539 103.044C195.66 103.044 196.569 102.153 196.569 101.054C196.569 99.9556 195.66 99.0649 194.539 99.0649C193.418 99.0649 192.51 99.9556 192.51 101.054C192.51 102.153 193.418 103.044 194.539 103.044Z" fill="url(#paint37_linear_207_3174)"/>
<path d="M192.675 105.447C192.675 105.447 192.954 108.4 191.918 110.5C193.525 112.633 194.221 109.82 194.221 109.82C194.221 109.82 193.943 107.146 193.433 105.169C192.923 103.192 192.675 105.447 192.675 105.447Z" fill="url(#paint38_linear_207_3174)"/>
<path d="M191.264 103.593C191.441 104.655 192.139 105.422 192.819 105.306C193.499 105.191 193.909 104.24 193.73 103.178C193.553 102.116 192.854 101.349 192.175 101.465C191.493 101.578 191.085 102.531 191.264 103.593Z" fill="url(#paint39_linear_207_3174)"/>
<path d="M193.046 102.729C192.949 102.262 192.536 101.922 192.06 101.92H192.038C190.951 101.92 191.13 104.02 189.395 104.02C187.661 104.02 187.106 102.854 187.106 102.257C187.106 101.66 187.496 101.091 187.954 101.091C188.411 101.091 188.605 101.495 189.398 101.495C190.191 101.495 190.42 99.501 192.39 99.501C194.36 99.501 195.495 100.65 195.495 102.104C195.495 102.861 194.995 103.999 194.198 103.999C193.914 103.999 193.28 103.85 193.048 102.732L193.046 102.729Z" fill="url(#paint40_linear_207_3174)"/>
<path d="M197.884 128.266C196.605 127.131 195.911 125.125 195.883 125.041L196.218 124.927C196.225 124.946 196.909 126.928 198.118 128.002L197.882 128.266H197.884Z" fill="#FF9700"/>
<path d="M195.791 110.491C195.791 110.491 198.823 114.472 196.768 119.566C196.603 119.975 196.546 120.421 196.176 120.661C190.05 124.654 185.023 125.246 185.023 125.246L185.038 124.066C185.038 124.066 190.444 119.824 192.634 119.215C192.634 119.215 193.04 115.307 193.821 113.301C194.479 111.612 195.789 110.491 195.789 110.491H195.791Z" fill="url(#paint41_linear_207_3174)"/>
<path d="M185.449 123.741L185.228 123.465C188.139 121.107 191.884 119.366 192.526 119.076C192.564 118.679 192.72 117.197 193.041 115.335L193.39 115.394C193.019 117.549 192.871 119.191 192.871 119.208L192.861 119.312L192.765 119.354C192.722 119.373 188.593 121.192 185.452 123.739L185.449 123.741Z" fill="white"/>
<path d="M192.052 146.333C191.875 144.95 191.667 131.872 191.644 130.376C191.49 130.308 191.207 130.152 190.82 129.814L191.054 129.548C191.564 129.994 191.863 130.084 191.866 130.084L191.991 130.119L191.995 130.251C191.995 130.397 192.22 144.875 192.401 146.288L192.05 146.333H192.052Z" fill="#F78C00"/>
<path d="M187.071 119.446C186.74 116.313 187.76 112.712 187.769 112.676L188.109 112.773C188.1 112.808 187.099 116.343 187.422 119.409L187.071 119.446Z" fill="#C40000"/>
<path d="M193.062 103.112C193.062 103.353 193.247 103.549 193.473 103.549C193.7 103.549 193.884 103.353 193.884 103.112C193.884 102.872 193.7 102.676 193.473 102.676C193.247 102.676 193.062 102.872 193.062 103.112Z" fill="url(#paint42_linear_207_3174)"/>
<path d="M190.383 110.209C189.835 112.022 190.383 112.923 191.629 113.301C192.875 113.678 194.35 113.386 194.897 111.573C195.445 109.761 194.878 107.986 193.632 107.611C192.386 107.234 190.933 108.397 190.385 110.209H190.383Z" fill="url(#paint43_linear_207_3174)"/>
<path d="M192.45 113.612C192.271 113.612 192.084 113.598 191.891 113.57L191.943 113.221C192.717 113.334 193.363 113.197 193.868 112.81C194.77 112.119 194.925 110.858 194.928 110.844L195.279 110.884C195.272 110.941 195.102 112.307 194.083 113.088C193.63 113.438 193.082 113.612 192.45 113.612Z" fill="#C40000"/>
<path d="M195.307 110.629L194.953 110.61C194.96 110.485 194.953 110.16 194.953 110.155L195.307 110.148C195.307 110.162 195.314 110.492 195.307 110.629Z" fill="#C40000"/>
<defs>
<linearGradient id="paint0_linear_207_3174" x1="136.849" y1="69.273" x2="169.666" y2="193.826" gradientUnits="userSpaceOnUse">
<stop stop-color="#48BA26"/>
<stop offset="0.2" stop-color="#45B423"/>
<stop offset="0.46" stop-color="#3FA41D"/>
<stop offset="0.75" stop-color="#358A12"/>
<stop offset="1" stop-color="#2B6E07"/>
</linearGradient>
<linearGradient id="paint1_linear_207_3174" x1="117.641" y1="115.522" x2="113.209" y2="134.235" gradientUnits="userSpaceOnUse">
<stop stop-color="#FD1C1E"/>
<stop offset="1" stop-color="#CE0008"/>
</linearGradient>
<linearGradient id="paint2_linear_207_3174" x1="115.578" y1="74.8771" x2="148.393" y2="199.43" gradientUnits="userSpaceOnUse">
<stop stop-color="#48BA26"/>
<stop offset="0.2" stop-color="#45B423"/>
<stop offset="0.46" stop-color="#3FA41D"/>
<stop offset="0.75" stop-color="#358A12"/>
<stop offset="1" stop-color="#2B6E07"/>
</linearGradient>
<linearGradient id="paint3_linear_207_3174" x1="111.314" y1="195.591" x2="114.596" y2="195.591" gradientUnits="userSpaceOnUse">
<stop/>
<stop offset="1" stop-color="#2F2F25"/>
</linearGradient>
<linearGradient id="paint4_linear_207_3174" x1="104.414" y1="8.96789" x2="107.699" y2="8.96789" gradientUnits="userSpaceOnUse">
<stop/>
<stop offset="1" stop-color="#2F2F25"/>
</linearGradient>
<linearGradient id="paint5_linear_207_3174" x1="110.963" y1="159.034" x2="110.963" y2="188.276" gradientUnits="userSpaceOnUse">
<stop stop-color="#48BA26"/>
<stop offset="0.2" stop-color="#45B423"/>
<stop offset="0.46" stop-color="#3FA41D"/>
<stop offset="0.75" stop-color="#358A12"/>
<stop offset="1" stop-color="#2B6E07"/>
</linearGradient>
<linearGradient id="paint6_linear_207_3174" x1="104.404" y1="159.017" x2="104.404" y2="188.274" gradientUnits="userSpaceOnUse">
<stop stop-color="#48BA26"/>
<stop offset="0.2" stop-color="#45B423"/>
<stop offset="0.46" stop-color="#3FA41D"/>
<stop offset="0.75" stop-color="#358A12"/>
<stop offset="1" stop-color="#2B6E07"/>
</linearGradient>
<linearGradient id="paint7_linear_207_3174" x1="108.004" y1="159.454" x2="108.004" y2="189.434" gradientUnits="userSpaceOnUse">
<stop stop-color="#48BA26"/>
<stop offset="0.2" stop-color="#45B423"/>
<stop offset="0.46" stop-color="#3FA41D"/>
<stop offset="0.75" stop-color="#358A12"/>
<stop offset="1" stop-color="#2B6E07"/>
</linearGradient>
<linearGradient id="paint8_linear_207_3174" x1="108.111" y1="129.414" x2="108.296" y2="125.568" gradientUnits="userSpaceOnUse">
<stop stop-color="#FFD0A4"/>
<stop offset="1" stop-color="#FFB14D"/>
</linearGradient>
<linearGradient id="paint9_linear_207_3174" x1="118.458" y1="124.248" x2="102.847" y2="147.532" gradientUnits="userSpaceOnUse">
<stop stop-color="#FD1C1E"/>
<stop offset="1" stop-color="#CE0008"/>
</linearGradient>
<linearGradient id="paint10_linear_207_3174" x1="111.537" y1="119.021" x2="109.556" y2="123.904" gradientUnits="userSpaceOnUse">
<stop/>
<stop offset="1" stop-color="#2F2F25"/>
</linearGradient>
<linearGradient id="paint11_linear_207_3174" x1="107.892" y1="127.285" x2="107.215" y2="122.143" gradientUnits="userSpaceOnUse">
<stop stop-color="#FFD0A4"/>
<stop offset="1" stop-color="#FFB14D"/>
</linearGradient>
<linearGradient id="paint12_linear_207_3174" x1="121.48" y1="135.764" x2="93.1175" y2="143.303" gradientUnits="userSpaceOnUse">
<stop stop-color="#FD1C1E"/>
<stop offset="1" stop-color="#CE0008"/>
</linearGradient>
<linearGradient id="paint13_linear_207_3174" x1="61.1226" y1="69.1578" x2="54.3525" y2="96.6114" gradientUnits="userSpaceOnUse">
<stop stop-color="#48BA26"/>
<stop offset="0.2" stop-color="#45B423"/>
<stop offset="0.46" stop-color="#3FA41D"/>
<stop offset="0.75" stop-color="#358A12"/>
<stop offset="1" stop-color="#2B6E07"/>
</linearGradient>
<linearGradient id="paint14_linear_207_3174" x1="66.7841" y1="70.5511" x2="60.0139" y2="98.0071" gradientUnits="userSpaceOnUse">
<stop stop-color="#48BA26"/>
<stop offset="0.2" stop-color="#45B423"/>
<stop offset="0.46" stop-color="#3FA41D"/>
<stop offset="0.75" stop-color="#358A12"/>
<stop offset="1" stop-color="#2B6E07"/>
</linearGradient>
<linearGradient id="paint15_linear_207_3174" x1="127.783" y1="79.1417" x2="98.5789" y2="56.2108" gradientUnits="userSpaceOnUse">
<stop stop-color="#FFD000"/>
<stop offset="1" stop-color="#FF9E00"/>
</linearGradient>
<linearGradient id="paint16_linear_207_3174" x1="84.7961" y1="114.455" x2="88.0484" y2="113.787" gradientUnits="userSpaceOnUse">
<stop/>
<stop offset="1" stop-color="#2F2F25"/>
</linearGradient>
<linearGradient id="paint17_linear_207_3174" x1="73.1309" y1="114.279" x2="76.4794" y2="114.279" gradientUnits="userSpaceOnUse">
<stop/>
<stop offset="1" stop-color="#2F2F25"/>
</linearGradient>
<linearGradient id="paint18_linear_207_3174" x1="88.1719" y1="70.9993" x2="82.9332" y2="92.8013" gradientUnits="userSpaceOnUse">
<stop/>
<stop offset="1" stop-color="#2F2F25"/>
</linearGradient>
<linearGradient id="paint19_linear_207_3174" x1="79.202" y1="68.7435" x2="73.9066" y2="90.7814" gradientUnits="userSpaceOnUse">
<stop/>
<stop offset="1" stop-color="#2F2F25"/>
</linearGradient>
<linearGradient id="paint20_linear_207_3174" x1="81.0051" y1="103.224" x2="78.6289" y2="65.9823" gradientUnits="userSpaceOnUse">
<stop stop-color="#FFD000"/>
<stop offset="1" stop-color="#FF9E00"/>
</linearGradient>
<linearGradient id="paint21_linear_207_3174" x1="71.2971" y1="103.846" x2="68.9185" y2="66.6037" gradientUnits="userSpaceOnUse">
<stop stop-color="#FFD000"/>
<stop offset="1" stop-color="#FF9E00"/>
</linearGradient>
<linearGradient id="paint22_linear_207_3174" x1="84.3569" y1="52.6126" x2="85.1929" y2="50.0017" gradientUnits="userSpaceOnUse">
<stop stop-color="#FFD0A4"/>
<stop offset="1" stop-color="#FFB14D"/>
</linearGradient>
<linearGradient id="paint23_linear_207_3174" x1="85.2232" y1="48.122" x2="85.1792" y2="46.0731" gradientUnits="userSpaceOnUse">
<stop stop-color="#FFD0A4"/>
<stop offset="1" stop-color="#FFB14D"/>
</linearGradient>
<linearGradient id="paint24_linear_207_3174" x1="86.6846" y1="42.4172" x2="87.6646" y2="36.6165" gradientUnits="userSpaceOnUse">
<stop/>
<stop offset="1" stop-color="#2F2F25"/>
</linearGradient>
<linearGradient id="paint25_linear_207_3174" x1="85.9793" y1="49.9368" x2="85.8957" y2="52.6414" gradientUnits="userSpaceOnUse">
<stop/>
<stop offset="1" stop-color="#2F2F25"/>
</linearGradient>
<linearGradient id="paint26_linear_207_3174" x1="83.2109" y1="48.1653" x2="83.167" y2="46.1165" gradientUnits="userSpaceOnUse">
<stop stop-color="#FFD0A4"/>
<stop offset="1" stop-color="#FFB14D"/>
</linearGradient>
<linearGradient id="paint27_linear_207_3174" x1="83.7793" y1="56.3131" x2="83.9633" y2="64.8083" gradientUnits="userSpaceOnUse">
<stop stop-color="#FFD0A4"/>
<stop offset="1" stop-color="#FFB14D"/>
</linearGradient>
<linearGradient id="paint28_linear_207_3174" x1="179.05" y1="117.49" x2="188.079" y2="114.656" gradientUnits="userSpaceOnUse">
<stop stop-color="#FD1C1E"/>
<stop offset="1" stop-color="#CE0008"/>
</linearGradient>
<linearGradient id="paint29_linear_207_3174" x1="167.671" y1="70.4129" x2="167.178" y2="199.218" gradientUnits="userSpaceOnUse">
<stop stop-color="#48BA26"/>
<stop offset="0.2" stop-color="#45B423"/>
<stop offset="0.46" stop-color="#3FA41D"/>
<stop offset="0.75" stop-color="#358A12"/>
<stop offset="1" stop-color="#2B6E07"/>
</linearGradient>
<linearGradient id="paint30_linear_207_3174" x1="195.738" y1="176.578" x2="197.491" y2="176.578" gradientUnits="userSpaceOnUse">
<stop/>
<stop offset="1" stop-color="#2F2F25"/>
</linearGradient>
<linearGradient id="paint31_linear_207_3174" x1="179.465" y1="176.562" x2="182.83" y2="176.562" gradientUnits="userSpaceOnUse">
<stop/>
<stop offset="1" stop-color="#2F2F25"/>
</linearGradient>
<linearGradient id="paint32_linear_207_3174" x1="210.874" y1="102.156" x2="221.401" y2="88.4909" gradientUnits="userSpaceOnUse">
<stop/>
<stop offset="1" stop-color="#2F2F25"/>
</linearGradient>
<linearGradient id="paint33_linear_207_3174" x1="201.57" y1="103.401" x2="202.122" y2="118.546" gradientUnits="userSpaceOnUse">
<stop/>
<stop offset="1" stop-color="#2F2F25"/>
</linearGradient>
<linearGradient id="paint34_linear_207_3174" x1="186.926" y1="150.028" x2="193.406" y2="128.274" gradientUnits="userSpaceOnUse">
<stop stop-color="#FFD000"/>
<stop offset="1" stop-color="#FF9E00"/>
</linearGradient>
<linearGradient id="paint35_linear_207_3174" x1="201.387" y1="158.538" x2="189.06" y2="134.107" gradientUnits="userSpaceOnUse">
<stop stop-color="#FFD000"/>
<stop offset="1" stop-color="#FF9E00"/>
</linearGradient>
<linearGradient id="paint36_linear_207_3174" x1="192.554" y1="114.781" x2="193.944" y2="123.126" gradientUnits="userSpaceOnUse">
<stop stop-color="#FD1C1E"/>
<stop offset="1" stop-color="#CE0008"/>
</linearGradient>
<linearGradient id="paint37_linear_207_3174" x1="194.334" y1="99.8484" x2="194.601" y2="101.415" gradientUnits="userSpaceOnUse">
<stop stop-color="#FD1C1E"/>
<stop offset="1" stop-color="#CE0008"/>
</linearGradient>
<linearGradient id="paint38_linear_207_3174" x1="193.07" y1="107.13" x2="193.07" y2="105.112" gradientUnits="userSpaceOnUse">
<stop stop-color="#FFD0A4"/>
<stop offset="1" stop-color="#FFB14D"/>
</linearGradient>
<linearGradient id="paint39_linear_207_3174" x1="192.323" y1="104.934" x2="192.814" y2="100.561" gradientUnits="userSpaceOnUse">
<stop stop-color="#FFD0A4"/>
<stop offset="1" stop-color="#FFB14D"/>
</linearGradient>
<linearGradient id="paint40_linear_207_3174" x1="188.567" y1="100.251" x2="194.098" y2="103.626" gradientUnits="userSpaceOnUse">
<stop/>
<stop offset="1" stop-color="#2F2F25"/>
</linearGradient>
<linearGradient id="paint41_linear_207_3174" x1="191.107" y1="116.749" x2="191.362" y2="122.124" gradientUnits="userSpaceOnUse">
<stop stop-color="#FD1C1E"/>
<stop offset="1" stop-color="#CE0008"/>
</linearGradient>
<linearGradient id="paint42_linear_207_3174" x1="193.256" y1="105.038" x2="193.747" y2="100.668" gradientUnits="userSpaceOnUse">
<stop stop-color="#FFD0A4"/>
<stop offset="1" stop-color="#FFB14D"/>
</linearGradient>
<linearGradient id="paint43_linear_207_3174" x1="192.731" y1="111.422" x2="193.84" y2="119.087" gradientUnits="userSpaceOnUse">
<stop stop-color="#FFD0A4"/>
<stop offset="1" stop-color="#FFB14D"/>
</linearGradient>
</defs>
</svg>
