<svg width="263" height="223" viewBox="0 0 263 223" fill="none" xmlns="http://www.w3.org/2000/svg">
<g clip-path="url(#clip0_53_1498)">
<path d="M252.406 221.915C252.406 218.397 249.558 215.541 246.043 215.541C244.534 215.541 243.15 216.068 242.062 216.945C240.462 214.551 237.734 212.971 234.642 212.971C229.712 212.971 225.717 216.973 225.717 221.912H252.406V221.915Z" fill="#FFB947"/>
<path d="M35.6571 222.564H40.8374C41.0364 211.849 42.0281 197.322 42.0281 197.322L39.6695 188.144C39.6695 188.144 37.3479 162.862 37.0921 162.373C36.5238 161.291 35.245 161.601 35.1541 162.247C34.8415 164.493 34.7278 195.267 34.7733 201.843C34.7989 205.518 34.8898 207.004 35.6599 222.567L35.6571 222.564Z" fill="#00E7B1"/>
<path d="M27.7916 222.564H33.654C31.5086 217.617 30.1076 213.244 25.6433 206.398C24.1202 204.063 22.9068 201.538 21.3695 199.215C21.1563 198.894 20.767 198.737 20.4033 198.899C20.0737 199.044 19.8236 199.443 19.9543 199.813C24.4754 212.524 25.9446 217.819 27.7916 222.564Z" fill="#00E7B1"/>
<path d="M50.9084 222.564C53.7472 211.32 53.9092 193.639 57.3221 181.358C57.5039 180.709 56.7679 180.139 56.1854 180.484C53.6932 181.95 53.2329 184.119 49.067 198.111C45.3217 210.691 42.8665 218.126 41.2979 222.564H50.9084Z" fill="#00E7B1"/>
<path d="M39.8577 222.564C37.07 207.181 33.2423 192.696 28.1358 176.416C28.0847 176.04 27.6215 175.809 27.2861 175.861C26.8826 175.92 26.5928 176.225 26.6155 176.621C27.1384 185.206 30.1591 209.925 31.9152 222.564H39.8549H39.8577Z" fill="#00E7B1"/>
<path d="M45.4212 222.564C48.5555 196.596 45.981 176.31 45.3586 174.318C45.1654 173.703 44.276 173.526 43.9435 174.133C43.1194 175.641 42.6647 177.301 42.3209 178.978C40.022 190.177 39.9168 193.123 38.5244 222.564H45.4183H45.4212Z" fill="#00E7B1"/>
<path d="M245.941 181.677C245.302 184.356 246.274 187.276 248.635 188.996C250.996 190.715 254.071 190.744 256.416 189.309L245.941 181.677Z" fill="#DAE6F2"/>
<path d="M11.1768 163.013C13.487 164.505 16.5589 164.553 18.963 162.894C21.367 161.231 22.4099 158.336 21.8359 155.643L11.1768 163.013Z" fill="#DAE6F2"/>
<path d="M188.874 222.573H152.549L143.916 160.853H197.507L188.874 222.573Z" fill="#FFB947"/>
<path d="M188.875 223H152.55C152.337 223 152.158 222.843 152.126 222.632L143.493 160.912C143.476 160.79 143.513 160.664 143.593 160.573C143.675 160.479 143.792 160.425 143.914 160.425H197.505C197.627 160.425 197.747 160.479 197.826 160.573C197.909 160.667 197.943 160.79 197.926 160.912L189.293 222.632C189.264 222.843 189.082 223 188.869 223H188.875ZM152.919 222.146H188.503L197.016 161.279H144.406L152.919 222.146Z" fill="#18171E"/>
<path d="M178.309 183.877L176.291 184.99L173.1 179.396C172.529 178.394 171.082 178.394 170.511 179.396L168.604 182.738L170.676 184.196L171.804 182.214L174.08 186.205L171.909 187.401L175.183 189.294L178.457 191.187L178.306 183.874L178.309 183.877Z" fill="white"/>
<path d="M178.459 191.333C178.434 191.333 178.411 191.327 178.388 191.313L171.841 187.527C171.796 187.501 171.77 187.453 171.77 187.401C171.77 187.35 171.798 187.302 171.844 187.279L173.89 186.152L171.807 182.502L170.801 184.267C170.781 184.301 170.747 184.327 170.707 184.335C170.67 184.344 170.628 184.335 170.594 184.313L168.522 182.855C168.462 182.812 168.445 182.733 168.479 182.667L170.386 179.325C170.682 178.81 171.21 178.5 171.804 178.5C172.398 178.5 172.927 178.807 173.222 179.325L176.345 184.797L178.24 183.752C178.283 183.729 178.337 183.729 178.38 183.752C178.422 183.777 178.451 183.823 178.451 183.871L178.601 191.185C178.601 191.236 178.576 191.284 178.53 191.31C178.508 191.324 178.482 191.33 178.459 191.33V191.333ZM172.199 187.407L178.311 190.943L178.172 184.116L176.359 185.115C176.291 185.152 176.206 185.13 176.166 185.061L172.975 179.467C172.73 179.04 172.293 178.787 171.804 178.787C171.315 178.787 170.875 179.04 170.633 179.467L168.792 182.696L170.628 183.991L171.679 182.146C171.73 182.058 171.875 182.058 171.926 182.146L174.202 186.137C174.222 186.171 174.225 186.208 174.217 186.246C174.205 186.283 174.183 186.314 174.148 186.331L172.199 187.407Z" fill="white"/>
<path d="M183.201 197.103L180.897 193.063L178.717 194.33L180.132 196.812H175.333V194.287L169.084 198.073L175.333 201.859V199.334H181.906C183.051 199.334 183.767 198.096 183.201 197.1V197.103Z" fill="white"/>
<path d="M175.333 202.005C175.308 202.005 175.282 201.999 175.259 201.985L169.011 198.199C168.968 198.173 168.942 198.128 168.942 198.076C168.942 198.025 168.968 197.98 169.011 197.954L175.259 194.168C175.302 194.142 175.359 194.139 175.402 194.168C175.447 194.193 175.473 194.239 175.473 194.293V196.676H179.883L178.587 194.407C178.547 194.339 178.573 194.253 178.638 194.213L180.818 192.947C180.852 192.927 180.889 192.924 180.926 192.932C180.963 192.941 180.994 192.966 181.011 192.998L183.316 197.037C183.608 197.55 183.605 198.159 183.31 198.671C183.014 199.181 182.486 199.485 181.898 199.485H175.467V201.868C175.467 201.919 175.438 201.968 175.396 201.993C175.373 202.005 175.35 202.011 175.325 202.011L175.333 202.005ZM169.36 198.076L175.191 201.612V199.34C175.191 199.261 175.254 199.198 175.333 199.198H181.906C182.392 199.198 182.83 198.947 183.074 198.526C183.318 198.105 183.321 197.601 183.08 197.177L180.846 193.263L178.911 194.387L180.258 196.747C180.284 196.79 180.284 196.844 180.258 196.889C180.232 196.932 180.187 196.96 180.136 196.96H175.336C175.257 196.96 175.194 196.898 175.194 196.818V194.546L169.363 198.082L169.36 198.076Z" fill="white"/>
<path d="M168.227 193.209L168.378 185.896L165.104 187.789L161.83 189.682L163.97 190.86L160.41 197.1C159.841 198.097 160.56 199.335 161.705 199.335H166.093L166.792 196.81H163.479L166.178 192.079L168.227 193.209Z" fill="white"/>
<path d="M166.09 199.48H161.702C161.114 199.48 160.585 199.176 160.29 198.666C159.994 198.156 159.991 197.544 160.284 197.032L163.771 190.917L161.759 189.807C161.714 189.781 161.685 189.736 161.685 189.684C161.685 189.633 161.711 189.585 161.756 189.559L168.303 185.77C168.349 185.745 168.403 185.745 168.445 185.77C168.491 185.796 168.517 185.844 168.517 185.895L168.366 193.209C168.366 193.257 168.337 193.303 168.295 193.328C168.252 193.354 168.198 193.354 168.156 193.328L166.229 192.266L163.72 196.665H166.789C166.834 196.665 166.874 196.685 166.902 196.722C166.928 196.756 166.937 196.804 166.925 196.847L166.226 199.372C166.209 199.435 166.152 199.477 166.09 199.477V199.48ZM162.117 189.682L164.035 190.738C164.069 190.758 164.092 190.786 164.103 190.823C164.115 190.86 164.109 190.9 164.089 190.931L160.529 197.171C160.287 197.596 160.29 198.099 160.534 198.521C160.779 198.942 161.213 199.193 161.702 199.193H165.982L166.604 196.952H163.478C163.427 196.952 163.382 196.927 163.356 196.881C163.33 196.838 163.33 196.784 163.356 196.739L166.056 192.007C166.095 191.939 166.181 191.916 166.249 191.953L168.093 192.97L168.232 186.143L162.12 189.679L162.117 189.682Z" fill="white"/>
<path d="M201.963 161.43C201.924 161.43 201.887 161.428 201.855 161.419H197.508V160.565H201.492C201.48 160.491 201.466 160.408 201.455 160.323C201.384 159.876 201.296 159.278 201.205 158.68C201.088 157.892 200.972 157.103 200.906 156.659H141.311L140.546 160.568H143.916V161.422H140.029C139.901 161.422 139.782 161.365 139.699 161.265C139.617 161.166 139.586 161.037 139.611 160.912L140.543 156.15C140.583 155.95 140.756 155.805 140.961 155.805H201.276C201.489 155.805 201.668 155.962 201.696 156.17C201.935 157.801 202.321 160.42 202.401 160.841C202.418 160.889 202.429 160.941 202.429 160.992C202.429 161.217 202.256 161.41 202.032 161.428C202.006 161.428 201.983 161.428 201.96 161.428L201.963 161.43Z" fill="#18171E"/>
<path d="M173.873 158.245H173.02V155.296C173.02 154.188 172.122 153.289 171.017 153.289C169.912 153.289 169.014 154.188 169.014 155.296V158.245H168.161V155.296C168.161 153.718 169.443 152.435 171.017 152.435C172.591 152.435 173.873 153.718 173.873 155.296V158.245Z" fill="#18171E"/>
<path d="M34.6737 200.946C34.5856 196.056 34.5458 164.508 34.8697 162.188C34.9351 161.724 35.3415 161.351 35.8814 161.257C36.4071 161.166 37.1743 161.351 37.6063 162.176C37.8677 162.675 37.9018 163.218 37.9302 163.699C37.9359 163.793 37.9416 163.887 37.9501 163.978C38.1689 166.743 38.6179 171.827 39.0925 177.21C39.8029 185.286 40.5389 193.636 40.536 194.544H39.6835C39.6864 193.673 38.9191 184.968 38.2428 177.284C37.7683 171.898 37.3193 166.814 37.1005 164.047C37.0919 163.95 37.0863 163.85 37.0806 163.751C37.055 163.315 37.0294 162.905 36.8532 162.572C36.5776 162.046 36.1513 162.077 36.0291 162.097C35.8473 162.128 35.7251 162.228 35.7137 162.305C35.4068 164.516 35.4381 196.127 35.5262 200.929L34.6737 200.943V200.946Z" fill="#18171E"/>
<path d="M27.1547 221.642C25.8503 218.218 24.6739 214.787 23.6963 211.878C23.1905 210.375 22.6932 208.869 22.1931 207.363C21.7953 206.159 21.3946 204.952 20.9911 203.748C20.6358 202.683 20.2494 201.541 19.8515 200.406C19.6981 199.967 19.3372 198.942 20.3716 198.513C21.3718 198.094 21.943 199.042 22.2499 199.552C22.2982 199.631 22.3437 199.708 22.3892 199.776C26.0038 205.305 28.9932 211.149 31.744 216.663L30.9824 217.045C28.243 211.553 25.2649 205.732 21.6759 200.243C21.6248 200.166 21.5736 200.081 21.5196 199.99C21.1246 199.332 20.9541 199.19 20.6984 199.298C20.5023 199.381 20.4199 199.449 20.6557 200.121C21.0564 201.262 21.4429 202.41 21.8009 203.477C22.2045 204.681 22.6023 205.888 23.003 207.095C23.5003 208.599 23.9976 210.104 24.5034 211.605C25.4781 214.503 26.6517 217.927 27.9503 221.335L27.1547 221.64V221.642Z" fill="#18171E"/>
<path d="M51.7069 221.633L50.8714 221.457C52.1985 215.143 52.8776 208.923 53.5966 202.335C54.0456 198.23 54.5059 193.986 55.1425 189.713C55.5318 187.37 56.0774 185.212 56.6571 182.929C56.7679 182.488 56.8816 182.044 56.9952 181.591C56.9952 181.318 56.9895 180.948 56.91 180.814C56.765 180.825 56.4297 180.993 56.2223 181.096C56.1939 181.11 56.1626 181.121 56.1342 181.13C55.4152 181.309 55.0174 182.089 54.8128 182.71C54.8071 182.727 54.8015 182.744 54.7929 182.761C52.2582 188.002 50.8402 193.249 49.3397 198.803C48.6805 201.245 47.9985 203.77 47.217 206.275L46.4043 206.019C47.1801 203.531 47.8621 201.014 48.5185 198.581C49.9621 193.24 51.454 187.72 54.0171 182.414C54.4036 181.269 55.0487 180.546 55.8841 180.316C56.4127 180.051 57.0577 179.744 57.4954 180.185C57.8506 180.541 57.8506 181.104 57.8506 181.648C57.8506 181.682 57.8477 181.719 57.8392 181.751C57.7227 182.22 57.6062 182.684 57.4897 183.143C56.9157 185.409 56.3757 187.547 55.9921 189.85C55.3613 194.1 54.8981 198.336 54.4519 202.432C53.733 209.039 53.051 215.28 51.7154 221.636L51.7069 221.633Z" fill="#18171E"/>
<path d="M31.7186 221.594C31.3946 219.584 31.0593 217.566 30.724 215.545C28.6894 203.255 26.5837 190.55 26.3848 177.936C26.3848 177.15 26.6434 176.368 27.152 175.602C27.2316 175.482 27.3651 175.411 27.5072 175.411H27.9704C28.0557 175.411 28.1381 175.437 28.2063 175.482C29.0247 176.029 29.2946 176.843 29.5333 177.56C32.0823 186.812 34.2221 195.97 36.2937 204.827C37.2457 208.903 38.2317 213.119 39.2434 217.284L38.4164 217.486C37.4048 213.318 36.4187 209.1 35.4639 205.023C33.3952 196.175 31.2554 187.026 28.7178 177.808C28.5132 177.196 28.3313 176.647 27.834 176.262H27.7402C27.4049 176.82 27.2373 177.381 27.2373 177.925C27.4362 190.468 29.5362 203.141 31.5651 215.399C31.9005 217.423 32.2358 219.442 32.5597 221.452L31.7186 221.588V221.594Z" fill="#18171E"/>
<path d="M46.1314 221.534L45.2874 221.412C45.3329 221.104 45.3925 220.814 45.4522 220.535C45.546 220.094 45.6312 219.675 45.6312 219.282V216.959C45.6312 216.942 45.6312 216.925 45.6341 216.908C47.1373 204.357 46.6713 191.734 46.0944 182.138L45.4067 175.263C45.3726 175.189 45.3357 175.112 45.2988 175.032C45.151 174.705 44.9663 174.301 44.7446 174.156C44.4917 174.121 44.3212 174.38 44.0541 175.138C44.0001 175.289 43.9546 175.42 43.9035 175.531C40.4338 187.447 39.9962 199.882 39.5728 211.906C39.462 215.055 39.3483 218.309 39.1806 221.508L38.3281 221.463C38.4958 218.272 38.6094 215.021 38.7203 211.875C39.1437 199.785 39.5841 187.282 43.0936 175.254C43.0993 175.229 43.1107 175.206 43.122 175.183C43.159 175.112 43.2016 174.984 43.2499 174.85C43.4573 174.267 43.8864 173.057 44.9975 173.333C45.0288 173.341 45.0572 173.35 45.0856 173.364C45.5943 173.62 45.8614 174.204 46.0745 174.674C46.12 174.77 46.1598 174.864 46.2053 174.95C46.228 174.995 46.2422 175.047 46.2479 175.098L46.9441 182.067C47.5209 191.709 47.9898 204.371 46.4837 216.982V219.279C46.4837 219.763 46.3871 220.222 46.2848 220.706C46.228 220.973 46.1711 221.249 46.1314 221.531V221.534Z" fill="#18171E"/>
<path d="M252.832 221.915H251.98C251.98 218.636 249.317 215.969 246.044 215.969C244.677 215.969 243.392 216.421 242.33 217.278C242.236 217.352 242.116 217.386 241.997 217.366C241.878 217.349 241.773 217.281 241.707 217.181C240.124 214.813 237.482 213.398 234.64 213.398C229.954 213.398 226.141 217.218 226.141 221.913H225.288C225.288 216.746 229.482 212.544 234.64 212.544C237.615 212.544 240.394 213.953 242.156 216.339C243.29 215.544 244.654 215.112 246.044 215.112C249.786 215.112 252.832 218.163 252.832 221.913V221.915Z" fill="#18171E"/>
<path d="M110.465 51.6459L108.214 55.0278C108.214 55.0278 107.893 57.6867 108.777 58.572C109.661 59.4574 111.189 60.263 111.189 60.263L110.465 51.6431V51.6459Z" fill="#18171E"/>
<path d="M98.3313 54.5693V56.1919C98.3313 58.0537 97.1065 59.6934 95.3219 60.2115C94.4978 60.4506 93.5885 60.7211 92.6309 61.02L92.8156 61.3303C94.6627 65.5862 98.8172 67.9632 103.745 67.9632C106.271 67.9632 108.618 67.1803 110.55 65.8452L110.71 59.9724C109.269 59.2892 108.32 57.8259 108.32 56.1891V54.5664H98.3284L98.3313 54.5693Z" fill="#FFB192"/>
<path d="M110.632 65.8482C108.697 67.1833 106.353 67.9662 103.827 67.9662C98.8991 67.9662 94.665 64.9913 92.8179 60.7383L93.0111 60.892C89.8654 61.8656 86.1485 63.1779 83.4688 64.8803C78.5243 68.0231 68.4932 87.2728 68.4932 87.2728L83.1818 92.4027L86.3503 85.3683L120.121 85.4879L120.845 92.7215L135.534 87.5917C135.534 87.5917 128.046 68.0203 123.102 64.8803C120.433 63.1836 116.733 61.8741 113.596 60.9034L110.63 65.851L110.632 65.8482Z" fill="#FFB947"/>
<path d="M110.695 50.6809V45.2322L99.9593 36.1084L94.6653 44.8878C94.2419 43.6181 92.0765 43.6779 92.193 45.8557C92.3124 48.0904 93.5655 49.2661 95.0148 48.8618L95.2023 49.0611C95.6087 50.5528 96.2197 51.9135 97.1262 53.2515C98.4703 55.2357 100.624 57.3736 103.398 57.3736H103.278C106.052 57.3736 108.246 55.2642 109.55 53.2515C109.99 52.5711 110.366 51.8139 110.678 51.0424L110.695 50.6781V50.6809Z" fill="#FFB192"/>
<path d="M116.725 97.786C116.725 97.786 120.308 87.0053 119.987 82.3338C119.666 77.6623 118.541 75.0718 118.541 75.0718H87.7344C87.7344 75.0718 86.609 77.6623 86.2879 82.3338C85.9668 87.0053 89.5502 97.786 89.5502 97.786H116.731H116.725Z" fill="#FFB947"/>
<path d="M121.644 64.0377C119.181 62.7424 116.197 61.7062 113.597 60.9005L110.63 65.8482C108.695 67.1833 106.351 67.9662 103.824 67.9662C98.8968 67.9662 94.6627 64.9913 92.8157 60.7383L93.0089 60.892C90.6787 61.6122 88.0331 62.5203 85.7285 63.6363L85.7882 64.0861C86.3167 65.3386 87.2431 66.298 88.3599 66.8816C88.4793 68.137 89.0192 69.3582 89.9797 70.3204C90.9799 71.3196 92.2615 71.8605 93.5687 71.9488C94.1598 73.1188 95.1544 74.0924 96.4644 74.6247C97.7204 75.1343 99.056 75.1571 100.255 74.7813C101.227 75.5841 102.469 76.0652 103.827 76.0652C105.185 76.0652 106.527 75.5385 107.513 74.676C108.757 75.0859 110.147 75.0688 111.449 74.5165C112.699 73.987 113.657 73.059 114.239 71.9402C115.492 71.8207 116.711 71.2798 117.672 70.3176C118.672 69.3155 119.209 68.0317 119.297 66.7221C120.465 66.13 121.437 65.1337 121.968 63.8213L121.644 64.0377Z" fill="white"/>
<path d="M121.562 147.826L120.428 209.322L109.763 209.524L105.398 149.759L121.562 147.826Z" fill="#FFB192"/>
<path d="M109.715 209.262L109.84 222.328H113.571L116.052 218.79L119.874 221.964H129.746C131.846 221.964 133.551 220.259 133.551 218.152C133.551 216.045 131.849 214.34 129.746 214.34H124.801L120.616 209.259H109.715V209.262Z" fill="#1887F9"/>
<path d="M85.8592 148.068L81.3125 209.321L91.9801 209.523L101.056 150.724L85.8592 148.068Z" fill="#FFB192"/>
<path d="M92.0596 209.262L92.2443 222.328H88.5132L85.7227 218.79L81.9006 221.964H72.0286C69.9286 221.964 68.2236 220.259 68.2236 218.152C68.2236 216.045 69.9258 214.34 72.0286 214.34H76.9732L81.1589 209.259H92.0596V209.262Z" fill="#1887F9"/>
<path d="M76.956 153.525C76.956 153.525 81.2441 156.546 85.4782 156.685C87.4616 156.751 90.2607 154.519 92.8892 154.857C95.012 155.131 97.0807 158.416 99.5871 158.516C101.787 158.604 104.108 155.521 106.558 155.407C108.786 155.302 111.386 158.171 113.79 157.847C116.015 157.545 117.765 154.103 120.115 153.571C122.315 153.073 126.191 155.706 128.481 154.974V154.613C129.141 119.808 118.251 100.513 116.66 97.6094H89.4196C87.797 100.402 76.7116 120.315 76.9759 152.831L76.9531 153.525H76.956Z" fill="#FF6256"/>
<path d="M87.1776 133.424C87.5925 133.709 88.0159 133.954 88.4422 134.139C89.7295 134.703 90.4512 134.139 90.4512 134.139L90.1784 134.27C90.5564 134.637 90.8491 134.879 91.0139 134.945C92.0596 135.346 92.4603 134.623 92.5427 134.301C92.5569 134.241 92.3609 133.98 92.0284 133.584L92.1818 133.456C93.148 132.812 92.9974 131.975 91.8209 130.475C90.3347 128.582 86.6747 123.871 86.5127 122.983C86.5127 122.983 89.0048 123.384 89.971 124.432C90.9372 125.479 91.3378 127.614 92.9065 127.25C93.5373 127.105 92.3836 124.107 91.3379 122.658C90.2921 121.209 85.0918 118.468 84.0603 117.221C84.0603 117.221 81.2527 102.46 78.3571 96.1776L80.8833 91.8278L70.1475 88.2637C70.1475 88.2637 68.3373 91.2841 68.4197 95.15C68.5135 99.6194 71.1534 108.037 77.7461 119.8L80.4002 128.619C80.4002 128.619 83.617 133.652 86.5922 133.171L87.1776 133.422V133.424Z" fill="#FFB192"/>
<path d="M168.381 101.845C167.497 102.839 167.301 103.192 165.9 103.499C164.499 103.807 160.925 104.148 159.12 104.014C157.316 103.881 151.374 100.655 151.374 100.655L135.17 100.507C133.306 101.111 130.01 100.308 128.268 99.414C126.645 98.5799 125.387 97.1736 124.739 95.4656L123.522 92.2601L133.667 87.9985L134.801 92.6131L153.755 94.3468C153.755 94.3468 157.534 92.4025 158.745 92.2886C159.956 92.1747 165.272 91.9299 165.272 91.9299C165.272 91.9299 165.136 93.3305 163.721 93.6806C162.309 94.0336 159.06 94.4777 159.06 94.4777C159.06 94.4777 159.711 96.8605 162.857 96.664C166.003 96.4676 168.321 96.1915 168.731 96.1715C169.882 96.1175 170.294 97.2903 169.396 97.8369L168.657 98.0817C169.322 98.0675 170.711 98.002 170.865 98.7336C171.004 99.4026 169.913 100.097 169.913 100.097C170.063 100.829 170.098 101.301 168.762 101.552L168.39 101.839L168.381 101.845Z" fill="#FFB192"/>
<path d="M90.46 61.8L90.6362 41.9468C90.6362 34.995 96.2598 29.3613 103.199 29.3613C110.139 29.3613 115.762 34.995 115.762 41.9468V61.4869L110.69 71.3936V44.9928L99.954 35.869L94.66 44.6484C94.2365 43.3787 92.0712 43.4385 92.1877 45.6163C92.3071 47.851 93.5602 49.0267 95.0095 48.6224L95.197 48.8217C95.6034 50.3134 96.2144 51.6741 97.1209 53.0121C97.783 53.9914 97.8171 54.4867 98.178 54.9109C98.178 54.9109 98.2973 58.5974 96.2485 59.924C94.1968 61.2534 90.46 61.7972 90.46 61.7972V61.8Z" fill="#18171E"/>
<path d="M98.2822 56.7412C100.513 57.7091 103.548 57.729 103.548 57.729C103.548 57.729 99.9702 56.3199 98.825 55.2324L98.2822 56.744V56.7412Z" fill="#18171E"/>
<path d="M88.6348 99.5736L100.936 98.2442L89.4248 97.6094L88.6348 99.5736Z" fill="#18171E"/>
<path d="M124.083 93.4502L131.32 89.2598L123.6 91.8389L124.083 93.4502Z" fill="#18171E"/>
<path d="M71.3867 88.6992L79.9089 93.533L80.8836 91.8306L71.3867 88.6992Z" fill="#18171E"/>
<path d="M109.823 211.286L120.616 209.262H109.715L109.823 211.286Z" fill="#18171E"/>
<path d="M92.1307 211.206L83.3271 209.757L92.0596 209.262L92.1307 211.206Z" fill="#18171E"/>
<path d="M110.766 71.9687C110.732 71.9687 110.701 71.9658 110.667 71.9573C110.476 71.9118 110.34 71.7381 110.34 71.5417V52.7958C110.223 53.0065 110.101 53.2058 109.979 53.3965C109.152 54.6747 106.884 57.6154 103.514 57.7093C103.5 57.7093 103.486 57.7093 103.469 57.7093H103.349C103.335 57.7093 103.318 57.7093 103.304 57.7093C100.164 57.6182 97.916 54.985 96.8447 53.4022C95.9695 52.1069 95.3358 50.7462 94.9095 49.246C94.3014 49.3427 93.7075 49.2032 93.2131 48.8474C92.4032 48.2667 91.9173 47.1792 91.8405 45.7871C91.7638 44.3581 92.5538 43.6948 93.2557 43.561C93.8013 43.4557 94.344 43.635 94.722 43.9965L99.6665 35.7951C99.7319 35.6869 99.8398 35.6157 99.962 35.5958C100.087 35.5759 100.212 35.61 100.306 35.6926L111.042 44.8136C111.138 44.8961 111.192 45.0128 111.192 45.1381V69.771L115.412 61.5297V42.0921C115.412 35.388 109.968 29.9336 103.275 29.9336C96.5833 29.9336 91.1386 35.388 91.1386 42.0921V61.3902H90.2861V42.0921C90.2861 34.9154 96.1144 29.0796 103.275 29.0796C110.436 29.0796 116.265 34.9183 116.265 42.0921V61.6321C116.265 61.7005 116.248 61.7659 116.219 61.8257L111.147 71.7324C111.073 71.8776 110.925 71.9658 110.769 71.9658L110.766 71.9687ZM95.0857 48.3464C95.2022 48.3464 95.3131 48.3948 95.3955 48.4802L95.583 48.6794C95.6313 48.7307 95.6654 48.7933 95.6853 48.8616C96.086 50.3334 96.6941 51.6628 97.5495 52.9239C98.5355 54.3815 100.604 56.824 103.409 56.8582C106.418 56.8211 108.504 54.1053 109.263 52.9325C109.652 52.3318 110.013 51.623 110.34 50.8259V45.3402L100.138 36.669L95.1028 45.0214C95.0175 45.1637 94.8584 45.2434 94.6907 45.2263C94.5259 45.2064 94.3867 45.0954 94.3327 44.936C94.1878 44.5033 93.7501 44.341 93.412 44.4036C92.9204 44.4976 92.6504 44.9986 92.6902 45.7445C92.7499 46.8547 93.1221 47.7343 93.7075 48.1556C94.0741 48.4204 94.5117 48.4916 94.9721 48.3606C95.009 48.3492 95.0488 48.3464 95.0857 48.3464Z" fill="#18171E"/>
<path d="M120.84 93.2198C120.766 93.2198 120.69 93.1998 120.624 93.16C120.516 93.0974 120.442 92.9892 120.42 92.8639L119.306 86.3705L120.147 86.2253L121.176 92.2206L134.972 87.4039C133.864 84.5799 127.251 68.0915 122.869 65.3102C121.158 64.2228 118.86 63.1894 115.839 62.1532L116.115 61.3447C119.198 62.4037 121.556 63.4656 123.324 64.59C128.331 67.7698 135.617 86.7064 135.924 87.5092C135.966 87.6174 135.961 87.7369 135.912 87.8423C135.864 87.9476 135.776 88.0273 135.665 88.0643L120.977 93.1941C120.931 93.2112 120.883 93.2169 120.837 93.2169L120.84 93.2198Z" fill="#18171E"/>
<path d="M110.541 60.4622C108.905 59.7164 107.845 58.0681 107.845 56.2633V54.6406H108.697V56.2633C108.697 57.735 109.558 59.0787 110.894 59.6851L110.541 60.4622Z" fill="#18171E"/>
<path d="M103.935 50.4389C103.381 50.4389 102.778 50.2908 102.426 50.0574C101.977 49.7557 101.997 49.377 102.025 49.229L102.039 49.1635C102.724 45.7731 102.196 44.6998 101.937 44.3952C100.996 43.2878 98.9078 43.6551 97.325 44.1561L97.0664 43.3419C99.7291 42.4965 101.588 42.6644 102.585 43.8401C103.332 44.7198 103.429 46.5673 102.872 49.3315C103.105 49.5422 104.142 49.6959 104.435 49.5023L104.907 50.214C104.671 50.3734 104.313 50.4417 103.929 50.4417L103.935 50.4389Z" fill="#18171E"/>
<path d="M105.262 44.193L104.693 43.5553C105.995 42.3882 108.657 42.5447 109.621 43.5098L109.018 44.1133C108.413 43.5069 106.245 43.3076 105.262 44.1901V44.193Z" fill="#18171E"/>
<path d="M97.9696 45.3146C98.3135 45.289 98.609 45.2577 98.8477 45.1637C98.9699 45.1182 99.0949 45.0612 99.2541 45.0072C99.4132 44.9531 99.6036 44.9104 99.7968 44.9018C99.9901 44.8961 100.169 44.8961 100.368 44.9531C100.564 45.0015 100.752 45.1096 100.897 45.2377C101.184 45.4996 101.331 45.8185 101.36 46.2142C100.968 46.1601 100.678 46.032 100.442 45.9608C100.325 45.9238 100.229 45.901 100.126 45.8754C100.027 45.8526 99.8963 45.8213 99.7798 45.8071C99.6633 45.7929 99.5468 45.7872 99.4018 45.7929C99.2598 45.7957 99.0807 45.8099 98.896 45.79C98.5152 45.7502 98.197 45.5651 97.9668 45.3174L97.9696 45.3146Z" fill="#18171E"/>
<path d="M100.641 46.2769C100.417 46.6271 99.9537 46.7267 99.6042 46.5018C99.2547 46.2769 99.1552 45.8129 99.3797 45.4627C99.6042 45.1126 100.067 45.0129 100.417 45.2378C100.766 45.4627 100.866 45.9268 100.641 46.2769Z" fill="#18171E"/>
<path d="M109.18 45.3145C108.95 45.5622 108.632 45.7472 108.251 45.7871C108.066 45.807 107.887 45.7928 107.745 45.7899C107.6 45.7842 107.484 45.7899 107.367 45.8042C107.253 45.8184 107.12 45.8497 107.02 45.8725C106.918 45.8981 106.821 45.9209 106.705 45.9579C106.469 46.0262 106.182 46.1572 105.787 46.2112C105.816 45.8155 105.963 45.4967 106.25 45.2348C106.395 45.1067 106.583 45.0014 106.779 44.9501C106.978 44.8932 107.157 44.8932 107.35 44.8989C107.543 44.9074 107.734 44.9501 107.893 45.0042C108.052 45.0612 108.177 45.1181 108.299 45.1608C108.538 45.2576 108.833 45.286 109.177 45.3117L109.18 45.3145Z" fill="#18171E"/>
<path d="M106.492 46.2769C106.717 46.6271 107.18 46.7267 107.529 46.5018C107.879 46.2769 107.978 45.8129 107.754 45.4627C107.529 45.1126 107.066 45.0129 106.717 45.2378C106.367 45.4627 106.268 45.9268 106.492 46.2769Z" fill="#18171E"/>
<path d="M103.156 78.9288C103.381 79.2789 103.844 79.3785 104.193 79.1536C104.543 78.9288 104.642 78.4647 104.418 78.1146C104.193 77.7644 103.73 77.6648 103.381 77.8897C103.031 78.1146 102.932 78.5786 103.156 78.9288Z" fill="#18171E"/>
<path d="M103.156 82.6753C103.381 83.0255 103.844 83.1251 104.193 82.9002C104.543 82.6753 104.642 82.2113 104.418 81.8612C104.193 81.511 103.73 81.4114 103.381 81.6363C103.031 81.8612 102.932 82.3252 103.156 82.6753Z" fill="#18171E"/>
<path d="M105.307 52.3916H101.596C101.596 52.3916 102.156 53.6299 103.451 53.6299C104.747 53.6299 105.307 52.3916 105.307 52.3916Z" fill="#18171E"/>
<path d="M103.819 68.4643C98.8686 68.4643 94.3929 65.5265 92.418 60.9774L93.1994 60.6357C95.0408 64.8717 99.2067 67.6074 103.819 67.6074C106.177 67.6074 108.448 66.9014 110.383 65.5635L110.866 66.2666C108.789 67.7014 106.351 68.4615 103.819 68.4615V68.4643Z" fill="#18171E"/>
<path d="M103.818 76.5604C102.494 76.5604 101.204 76.122 100.155 75.3221C98.8819 75.6694 97.5208 75.5897 96.296 75.0915C95.0201 74.5734 93.963 73.6311 93.2924 72.4241C91.9227 72.2761 90.6439 71.6669 89.6721 70.6933C88.7371 69.7567 88.1319 68.5298 87.9557 67.2231C86.8105 66.5684 85.9068 65.5464 85.3896 64.3251L86.174 63.992C86.6428 65.1023 87.4868 66.0189 88.5496 66.574C88.6775 66.6424 88.7627 66.7676 88.7769 66.9128C88.8906 68.1084 89.422 69.2386 90.2717 70.0898C91.1554 70.9751 92.3319 71.5103 93.5879 71.5957C93.7385 71.6071 93.8721 71.6954 93.9403 71.8291C94.5086 72.9536 95.4577 73.8304 96.6143 74.303C97.7282 74.7556 98.9729 74.8068 100.118 74.4453C100.254 74.4026 100.405 74.4311 100.516 74.5222C101.442 75.2879 102.613 75.7093 103.815 75.7093C105.017 75.7093 106.273 75.2538 107.222 74.4254C107.336 74.3257 107.492 74.2944 107.634 74.34C108.828 74.7328 110.121 74.6816 111.272 74.1948C112.38 73.7251 113.295 72.8796 113.849 71.8149C113.917 71.6868 114.042 71.6014 114.187 71.5872C115.381 71.4733 116.509 70.941 117.359 70.0898C118.242 69.2044 118.777 68.0259 118.862 66.7676C118.873 66.6167 118.961 66.483 119.095 66.4146C120.217 65.8481 121.092 64.8945 121.564 63.7358L122.354 64.0575C121.837 65.3357 120.896 66.3947 119.692 67.0665C119.544 68.4387 118.936 69.7197 117.961 70.6933C117.026 71.6299 115.801 72.2362 114.497 72.4127C113.843 73.56 112.823 74.4652 111.604 74.9833C110.337 75.5185 108.924 75.6039 107.597 75.2253C106.523 76.0907 105.19 76.5661 103.815 76.5661L103.818 76.5604Z" fill="#18171E"/>
<path d="M83.4466 113.227L82.6367 112.962C85.3249 104.721 88.1297 99.5026 89.2095 97.6437C89.2862 97.5127 89.4255 97.4302 89.5789 97.4302H116.819C116.976 97.4302 117.118 97.5156 117.194 97.6522L117.277 97.8031C117.467 98.1504 117.754 98.6742 118.112 99.3631L117.356 99.756C117.027 99.1183 116.757 98.6258 116.569 98.2842H89.8262C88.681 100.285 86.0155 105.358 83.4494 113.227H83.4466Z" fill="#18171E"/>
<path d="M99.8338 159.193C99.7969 159.193 99.7628 159.193 99.7259 159.193C98.2425 159.133 96.9751 158.123 95.7475 157.146C94.7757 156.372 93.8578 155.64 92.9911 155.529C91.6328 155.353 90.192 155.934 88.8025 156.497C87.6601 156.959 86.5888 157.394 85.6198 157.363C81.3061 157.22 77.0436 154.251 76.8646 154.126C76.7481 154.043 76.6799 153.907 76.6827 153.762L76.7054 153.067C76.6287 143.818 77.4727 134.725 79.2118 126.06L80.0472 126.228C78.3195 134.836 77.4812 143.869 77.5551 153.076L77.538 153.551C78.4019 154.117 82.0762 156.389 85.6425 156.506C86.4325 156.532 87.4242 156.13 88.4785 155.703C89.8993 155.128 91.5106 154.476 93.0934 154.681C94.196 154.823 95.2047 155.626 96.2704 156.475C97.39 157.366 98.5494 158.288 99.7543 158.336C100.715 158.371 101.786 157.667 102.914 156.916C104.113 156.116 105.355 155.29 106.691 155.228C107.864 155.174 109.083 155.834 110.266 156.475C111.49 157.138 112.755 157.824 113.886 157.673C114.881 157.539 115.818 156.643 116.813 155.692C117.842 154.71 118.904 153.693 120.177 153.406C121.34 153.144 122.792 153.625 124.329 154.132C125.722 154.593 127.157 155.068 128.208 154.889V154.863C128.674 130.171 122.874 110.141 117.29 99.625L118.043 99.2236C121.348 105.444 124.116 113.511 126.054 122.553C128.259 132.844 129.271 143.718 129.06 154.872V155.228C129.06 155.413 128.941 155.578 128.765 155.635C127.432 156.062 125.719 155.495 124.062 154.946C122.701 154.496 121.294 154.032 120.365 154.243C119.322 154.479 118.347 155.41 117.404 156.312C116.355 157.314 115.27 158.351 114.002 158.521C112.599 158.712 111.209 157.958 109.862 157.229C108.734 156.617 107.674 156.045 106.733 156.085C105.634 156.136 104.494 156.896 103.389 157.63C102.232 158.399 101.039 159.196 99.831 159.196L99.8338 159.193Z" fill="#18171E"/>
<path d="M99.9028 155.265C99.8659 155.265 99.8318 155.265 99.7948 155.265C98.3456 155.208 97.1066 154.22 95.9074 153.266C94.9611 152.512 94.066 151.8 93.222 151.692C91.8978 151.524 90.4969 152.088 89.1414 152.634C88.0274 153.084 86.9732 153.508 86.0326 153.48C82.9664 153.377 79.5763 151.794 78.1611 150.818L78.6442 150.115C79.7724 150.892 83.0659 152.529 86.0582 152.629C86.8169 152.654 87.7916 152.261 88.8203 151.846C90.207 151.285 91.7841 150.65 93.3272 150.849C94.4042 150.989 95.3902 151.772 96.4331 152.603C97.5243 153.471 98.6525 154.371 99.8232 154.416C100.758 154.45 101.801 153.764 102.898 153.033C104.069 152.253 105.282 151.447 106.586 151.384C107.726 151.328 108.925 151.977 110.079 152.6C111.272 153.246 112.508 153.915 113.605 153.767C114.572 153.636 115.487 152.762 116.456 151.837C117.459 150.878 118.499 149.884 119.741 149.605C120.908 149.343 122.506 149.859 124.051 150.357C125.108 150.698 126.109 151.02 126.893 151.08L126.828 151.931C125.941 151.863 124.895 151.527 123.79 151.168C122.352 150.704 120.866 150.223 119.928 150.437C118.914 150.664 117.965 151.575 117.044 152.455C116.018 153.434 114.961 154.448 113.719 154.613C112.347 154.798 110.988 154.063 109.675 153.352C108.576 152.757 107.538 152.193 106.629 152.236C105.561 152.287 104.447 153.027 103.372 153.742C102.244 154.493 101.076 155.27 99.8971 155.27L99.9028 155.265Z" fill="white"/>
<path d="M89.1727 97.9909C89.0249 97.5468 85.5666 87.0765 85.8905 82.3736C86.2145 77.6822 87.3256 75.0774 87.3711 74.9692L88.1525 75.3108C88.1411 75.3365 87.0499 77.9042 86.7402 82.4334C86.4276 86.9683 89.9456 97.6151 89.9797 97.7204L89.1698 97.9909H89.1727Z" fill="#18171E"/>
<path d="M117.159 97.9909L116.35 97.7204C116.384 97.6123 119.902 86.9654 119.589 82.4334C119.277 77.9042 118.188 75.3365 118.177 75.3108L118.958 74.9692C119.007 75.0774 120.118 77.6822 120.439 82.3736C120.763 87.0765 117.304 97.5468 117.157 97.9909H117.159Z" fill="#18171E"/>
<path d="M83.1735 92.9009C83.128 92.9009 83.0797 92.8924 83.0343 92.8781L68.3456 87.7483C68.2291 87.7084 68.1353 87.6174 68.0899 87.5035C68.0444 87.3868 68.0501 87.2587 68.1069 87.1476C68.519 86.3562 78.2489 67.7584 83.2332 64.59C86.8478 62.2927 92.4573 60.6587 95.154 59.8729C96.7453 59.4089 97.8564 57.9258 97.8564 56.2633V54.6406H98.7089V56.2633C98.7089 58.3015 97.3449 60.1235 95.3927 60.6928C92.7329 61.4671 87.203 63.0784 83.6907 65.3102C79.306 68.0944 70.6218 84.2269 69.0958 87.1021L82.9462 91.9387L85.9555 85.2602L86.7313 85.6104L83.5628 92.6447C83.4918 92.8013 83.3383 92.8952 83.1735 92.8952V92.9009Z" fill="#18171E"/>
<path d="M70.4502 83.2215L70.1465 84.0195L84.3786 89.4554L84.6823 88.6574L70.4502 83.2215Z" fill="#18171E"/>
<path d="M133.458 83.671L119.945 88.8945L120.252 89.6913L133.765 84.4678L133.458 83.671Z" fill="#18171E"/>
<path d="M86.0976 133.703C83.0428 133.703 80.0846 129.129 79.9539 128.924C79.934 128.89 79.917 128.855 79.9056 128.816L77.2657 120.039C71.4289 109.62 68.0188 100.582 67.908 95.2297C67.8256 91.2869 69.6216 88.2409 69.6983 88.1128L70.4286 88.5512C70.4115 88.5797 68.6838 91.5204 68.7605 95.2097C68.8117 97.6807 69.8176 105.005 78.0329 119.658C78.0471 119.686 78.0613 119.715 78.0699 119.743L80.7041 128.505C81.0366 129.006 83.9152 133.231 86.4358 132.818L86.5722 133.661C86.4159 133.686 86.2567 133.698 86.0976 133.698V133.703Z" fill="#18171E"/>
<path d="M89.439 134.888C89.0867 134.888 88.6661 134.816 88.1802 134.603C84.8071 133.125 81.6159 128.246 81.4795 128.041L82.1956 127.577C82.2268 127.626 85.384 132.448 88.5212 133.823C89.5442 134.273 90.0926 133.883 90.0983 133.877L90.6212 134.552C90.5956 134.572 90.1722 134.89 89.4362 134.89L89.439 134.888Z" fill="#18171E"/>
<path d="M91.497 135.562C91.2895 135.562 91.048 135.523 90.7723 135.417C89.6754 134.996 84.4041 128.525 83.3584 127.233L84.0205 126.695C87.0156 130.396 90.474 134.372 91.0792 134.62C91.3606 134.728 91.5851 134.74 91.7499 134.654C91.8635 134.595 91.9431 134.492 91.9886 134.401C91.7357 134.048 90.8803 133.089 90.1187 132.235C88.2887 130.179 86.0097 127.62 85.5436 126.481L86.3336 126.157C86.7428 127.159 89.1583 129.869 90.7553 131.662C92.8922 134.059 92.9462 134.159 92.8666 134.475C92.7899 134.785 92.5597 135.192 92.142 135.409C91.9886 135.488 91.7726 135.56 91.4941 135.56L91.497 135.562Z" fill="#18171E"/>
<path d="M92.3266 133.883L91.8548 133.171C92.2044 132.938 92.2726 132.744 92.2925 132.622C92.3521 132.246 92.0595 131.654 91.3945 130.808C86.1971 124.192 86.0521 123.392 86.0038 123.131C85.9783 122.994 86.0209 122.854 86.1175 122.755C86.2141 122.655 86.3534 122.61 86.4898 122.632C86.5977 122.649 89.1411 123.071 90.1925 124.215C90.5278 124.58 90.7892 125.041 91.045 125.488C91.6162 126.495 91.9657 126.991 92.5738 126.931C92.588 126.325 91.8009 124.232 90.9 122.982C90.3857 122.268 88.6011 121.101 87.0268 120.073C85.4895 119.065 84.1596 118.197 83.6396 117.568C83.5941 117.514 83.5628 117.446 83.5486 117.374C83.5202 117.229 80.7695 102.859 77.9562 96.6017L75.0605 95.6936L75.3163 94.8794L78.391 95.8473C78.5047 95.8843 78.6013 95.9668 78.6496 96.075C81.4316 102.113 84.0743 115.609 84.3613 117.104C84.8615 117.642 86.1971 118.516 87.49 119.361C89.2064 120.483 90.9796 121.645 91.5877 122.487C92.4175 123.637 93.7019 126.407 93.3553 127.335C93.2757 127.549 93.1137 127.697 92.9063 127.742C91.5195 128.061 90.8432 126.871 90.3005 125.915C90.0703 125.51 89.8316 125.089 89.5616 124.799C89.0615 124.255 87.993 123.876 87.1775 123.66C87.7941 124.671 89.286 126.757 92.0594 130.284C92.912 131.369 93.2331 132.109 93.1279 132.758C93.0569 133.199 92.7926 133.57 92.3209 133.883H92.3266Z" fill="#18171E"/>
<path d="M80.4234 91.6878L77.8984 96.0391L78.6355 96.4683L81.1604 92.117L80.4234 91.6878Z" fill="#18171E"/>
<path d="M161.933 98.8792L161.894 98.0252C161.942 98.0252 166.824 97.7974 168.563 97.5526C169.191 97.4644 169.447 97.1712 169.424 96.9178C169.401 96.6901 169.148 96.4709 168.719 96.4908C168.606 96.4965 168.299 96.5249 167.875 96.5676C166.821 96.6701 165.053 96.8438 162.851 96.9804C159.393 97.1968 158.626 94.5066 158.617 94.481C158.586 94.3614 158.606 94.2362 158.674 94.1337C158.742 94.0312 158.85 93.9629 158.972 93.9458C159.004 93.9401 162.195 93.5074 163.567 93.1629C164.178 93.0121 164.491 92.6107 164.644 92.2804C163.226 92.3459 159.7 92.5167 158.751 92.605C157.824 92.6904 154.946 94.0881 153.914 94.6176C153.843 94.6546 153.763 94.6689 153.681 94.6632L134.81 92.9921L131.559 95.1642L131.087 94.4525L134.463 92.1979C134.542 92.1438 134.639 92.1182 134.736 92.1267L153.636 93.8006C154.352 93.4362 157.495 91.862 158.671 91.7538C159.879 91.6399 164.982 91.4093 165.198 91.3979C165.323 91.3979 165.443 91.4407 165.528 91.5317C165.613 91.6228 165.656 91.7453 165.645 91.8677C165.639 91.936 165.457 93.5729 163.772 93.9913C162.698 94.2589 160.64 94.5692 159.646 94.7116C159.995 95.3065 160.868 96.2517 162.797 96.1292C164.985 95.9926 166.741 95.8218 167.79 95.7165C168.259 95.6709 168.543 95.6425 168.677 95.6368C169.648 95.5827 170.211 96.2061 170.271 96.8381C170.333 97.4928 169.864 98.2301 168.679 98.3981C166.901 98.6486 162.132 98.8678 161.93 98.8792H161.933Z" fill="#18171E"/>
<path d="M161.109 100.564L161.104 99.71C161.172 99.71 167.929 99.6588 169.168 99.5307C170.001 99.4453 170.274 99.2289 170.362 99.1065C170.407 99.0439 170.461 98.9386 170.416 98.7165C170.367 98.4831 169.799 98.3778 168.725 98.4005H168.634L168.617 97.5494H168.705C169.518 97.5294 171.032 97.4924 171.248 98.5429C171.353 99.0524 171.197 99.4054 171.049 99.6104C170.74 100.037 170.151 100.288 169.253 100.379C167.975 100.51 161.388 100.561 161.109 100.561V100.564Z" fill="#18171E"/>
<path d="M160.138 102.312C159.945 102.312 159.768 102.312 159.606 102.309L159.618 101.455C162.082 101.495 167.356 101.27 168.649 101.028C168.919 100.977 169.271 100.877 169.402 100.681C169.527 100.493 169.476 100.169 169.402 99.827L170.237 99.6533C170.32 100.052 170.445 100.655 170.109 101.156C169.868 101.518 169.442 101.751 168.805 101.868C167.481 102.116 162.636 102.312 160.138 102.312Z" fill="#18171E"/>
<path d="M160.018 104.362C159.669 104.362 159.345 104.353 159.063 104.33C157.296 104.199 152.05 101.41 151.24 100.974L135.034 101.125C132.826 101.276 129.848 100.692 127.978 99.7329C126.296 98.8675 124.324 96.1659 123.608 94.2814L122.764 92.2687L123.551 91.9385L124.4 93.9654C125.051 95.6791 126.924 98.2326 128.367 98.9728C130.087 99.8553 132.937 100.413 135.003 100.274L151.345 100.12C151.411 100.126 151.487 100.137 151.553 100.171C153.184 101.057 157.722 103.377 159.129 103.479C160.925 103.613 164.443 103.266 165.787 102.972C166.92 102.725 167.125 102.491 167.807 101.714L168.04 101.449L168.677 102.019L168.446 102.278C167.733 103.089 167.375 103.496 165.969 103.807C164.786 104.066 161.984 104.362 160.024 104.362H160.018Z" fill="#18171E"/>
<path d="M133.68 88.1625L132.878 88.4507L134.304 92.4355L135.106 92.1474L133.68 88.1625Z" fill="#18171E"/>
<path d="M106.541 155.924L105.69 155.984L109.48 209.471L110.33 209.411L106.541 155.924Z" fill="#18171E"/>
<path d="M121.395 154.257L120.159 209.234L121.011 209.253L122.247 154.276L121.395 154.257Z" fill="#18171E"/>
<path d="M113.722 223H109.991C109.758 223 109.567 222.812 109.564 222.576L109.439 209.509C109.439 209.396 109.482 209.285 109.562 209.205C109.641 209.125 109.749 209.08 109.866 209.08H120.766C120.894 209.08 121.014 209.137 121.096 209.233L125.154 214.158H129.9C132.233 214.158 134.131 216.06 134.131 218.397C134.131 220.734 132.233 222.636 129.9 222.636H120.028C119.928 222.636 119.831 222.602 119.755 222.539L116.288 219.661L114.071 222.821C113.992 222.935 113.861 223.003 113.722 223.003V223ZM110.414 222.146H113.503L115.859 218.79C115.927 218.693 116.032 218.628 116.151 218.613C116.271 218.596 116.387 218.633 116.481 218.707L120.187 221.785H129.905C131.767 221.785 133.284 220.267 133.284 218.4C133.284 216.532 131.769 215.015 129.905 215.015H124.961C124.833 215.015 124.713 214.958 124.631 214.861L120.573 209.936H110.303L110.42 222.149L110.414 222.146Z" fill="#18171E"/>
<path d="M99.4304 158.551L91.7119 209.378L92.5547 209.507L100.273 158.679L99.4304 158.551Z" fill="#18171E"/>
<path d="M84.7147 156.658L81.0459 209.217L81.8963 209.277L85.5651 156.718L84.7147 156.658Z" fill="#18171E"/>
<path d="M92.398 223H88.6669C88.5362 223 88.414 222.94 88.3316 222.838L85.811 219.644L82.3243 222.539C82.2476 222.602 82.1509 222.636 82.0515 222.636H72.1795C69.8465 222.636 67.9482 220.734 67.9482 218.397C67.9482 216.06 69.8465 214.158 72.1795 214.158H76.9223L80.9802 209.233C81.0626 209.137 81.1819 209.08 81.3098 209.08H92.2105C92.4435 209.08 92.6339 209.267 92.6367 209.501L92.8214 222.567C92.8214 222.681 92.7788 222.792 92.6992 222.872C92.6197 222.955 92.5089 223 92.3952 223H92.398ZM88.8743 222.146H91.9661L91.7956 209.934H81.5144L77.4565 214.858C77.3741 214.955 77.2547 215.012 77.1269 215.012H72.1823C70.321 215.012 68.8036 216.53 68.8036 218.397C68.8036 220.264 70.3182 221.782 72.1823 221.782H81.9009L85.6064 218.704C85.6945 218.63 85.8082 218.599 85.9218 218.608C86.0355 218.619 86.1407 218.679 86.2117 218.767L88.8743 222.143V222.146Z" fill="#18171E"/>
<path d="M94.8561 49.0583C94.4242 46.9346 93.5006 46.4848 93.4893 46.482L93.8246 45.6963C93.961 45.7561 95.1715 46.3397 95.6887 48.8875L94.8533 49.0583H94.8561Z" fill="#18171E"/>
<path d="M263 222.146H0V223H263V222.146Z" fill="#18171E"/>
<path d="M200.744 218.132C201.927 216.917 203.799 214.463 204.001 212.268C204.152 210.637 204.214 208.712 202.492 208.288C200.986 207.915 199.145 212.567 199.329 213.489C199.585 214.765 199.932 218.969 200.744 218.135V218.132Z" fill="#00E7B1"/>
<path d="M197.349 201.883C197.335 201.812 197.312 201.738 197.278 201.661C196.562 199.996 195.684 198.364 194.195 197.268C192.899 196.315 190.887 195.882 189.736 197.325C188.577 198.777 189.75 200.306 190.944 201.413C192.498 202.854 195.215 204.038 197.076 204.994C197.65 205.288 197.798 204.966 197.878 204.24C197.977 203.312 197.764 202.566 197.349 201.883Z" fill="#00E7B1"/>
<path d="M208.682 197.129C204.258 197.274 208.154 206.737 208.614 208.858C208.841 209.908 209.285 209.063 209.654 208.046C209.907 207.91 210.112 207.668 210.185 207.303C210.589 205.299 212.743 196.992 208.685 197.126L208.682 197.129Z" fill="#00E7B1"/>
<path d="M215.377 192.665C214.82 191.358 213.413 190.277 211.944 190.729C210.549 191.159 209.944 192.648 210.603 193.926C210.995 194.683 211.683 195.296 212.16 196.004C212.7 196.81 213.848 198.379 214.186 199.287C214.436 199.958 214.632 199.432 215.169 199.079C215.445 198.948 215.672 198.703 215.76 198.324C216.164 196.559 216.093 194.348 215.374 192.659L215.377 192.665Z" fill="#00E7B1"/>
<path d="M200.523 216.837C199.691 215.243 198.375 214.03 196.852 213.085C195.638 212.333 193.615 211.838 192.55 213.165C191.606 214.34 192.896 215.869 193.862 216.53C195.394 217.577 198.204 217.529 199.512 218.909C200.307 219.749 200.68 218.687 200.523 217.745C200.674 217.503 200.708 217.193 200.523 216.84V216.837Z" fill="#00E7B1"/>
<path d="M203.757 200.61C203.999 199.045 203.311 196.605 201.569 196.195C197.574 195.253 197.696 203.648 197.909 205.8C197.972 206.412 198.29 207.312 198.594 206.907C199.364 205.88 201.751 204.2 202.464 203.133C202.982 202.358 203.612 201.555 203.757 200.61Z" fill="#00E7B1"/>
<path d="M199.577 190.069C199.239 188.563 198.196 186.77 196.369 186.716C194.687 186.667 193.817 188.136 193.897 189.594C194.007 191.657 195.349 193.73 196.187 195.586C196.411 196.084 196.858 196.329 197.312 196.363C197.883 196.574 198.318 195.526 198.594 194.806C199.287 192.998 200.012 192.005 199.577 190.069Z" fill="#00E7B1"/>
<path d="M216.806 210.446C215.468 208.527 212.831 209.632 211.206 210.512C209.134 211.633 207.551 213.367 206.514 215.473C206.48 215.545 206.454 215.613 206.434 215.681C206.272 215.883 206.136 216.097 206.042 216.325C205.661 217.255 206.11 217.506 207.017 217.247C209.52 216.535 212.138 216.757 214.402 215.337C216.088 214.278 218.151 212.376 216.804 210.443L216.806 210.446Z" fill="#00E7B1"/>
<path d="M221.446 201.792C220.915 200.183 218.673 199.927 217.255 200.172C215.126 200.536 213.501 201.985 212.001 203.437C211.81 203.622 211.702 203.833 211.662 204.049C210.966 204.695 210.619 205.677 211.651 205.655C213.725 205.606 217.206 206.196 219.184 205.433C220.597 204.889 221.989 203.429 221.449 201.795L221.446 201.792Z" fill="#00E7B1"/>
<path d="M225.2 188.367C221.918 185.813 217.639 193.636 217.627 193.653C216.76 195.057 217.954 196.48 219.105 195.649C219.184 195.592 221.978 194.78 222.995 194.223C223.785 193.79 224.686 193.394 225.3 192.708C226.3 191.586 226.436 189.332 225.197 188.37L225.2 188.367Z" fill="#00E7B1"/>
<path d="M215.095 206.207C213.1 206.207 211.336 206.025 211.199 206.011L211.29 205.163C211.35 205.168 217.252 205.78 219.557 204.781C220.574 204.34 221.168 203.406 221 202.507C220.813 201.502 219.784 200.867 218.244 200.804C214.621 200.665 212.421 203.95 212.398 203.984L211.688 203.514C211.787 203.361 214.186 199.791 218.281 199.953C220.594 200.047 221.637 201.254 221.841 202.353C222.083 203.645 221.281 204.966 219.898 205.567C218.733 206.071 216.829 206.21 215.098 206.21L215.095 206.207Z" fill="#18171E"/>
<path d="M201.243 222.573C196.989 213.008 196.81 196.611 196.81 196.446L197.662 196.44C197.662 196.602 197.841 212.823 202.021 222.226L201.243 222.573Z" fill="#18171E"/>
<path d="M204.683 222.81L203.854 222.619C207.292 207.656 217.101 195.378 217.198 195.256L217.86 195.794C217.764 195.913 208.076 208.046 204.683 222.812V222.81Z" fill="#18171E"/>
<path d="M205.982 217.99C205.925 217.99 205.868 217.99 205.814 217.99L205.829 217.136C205.883 217.136 205.937 217.136 205.993 217.136C209.776 217.136 215.897 214.824 216.908 212.456C217.173 211.838 217.045 211.297 216.505 210.748C215.945 210.178 215.263 209.936 214.416 210.002C211.322 210.25 207.383 214.548 207.059 215.004L206.786 214.81L206.303 214.622C206.434 214.283 210.327 209.948 213.751 209.239C215.11 208.957 216.238 209.265 217.113 210.15C218.099 211.152 217.974 212.14 217.693 212.795C216.442 215.715 209.796 217.993 205.982 217.993V217.99Z" fill="#18171E"/>
<path d="M208.548 209.661C208.398 209.299 204.891 200.742 206.764 197.77C207.184 197.104 207.821 196.745 208.659 196.702C209.489 196.662 210.16 196.927 210.648 197.499C212.291 199.412 211.291 204.314 210.913 206.159C210.864 206.401 210.813 206.652 210.808 206.711C210.813 206.649 210.791 206.504 210.665 206.395L210.103 207.039C209.898 206.859 209.918 206.76 210.077 205.991C210.396 204.425 211.37 199.657 210.001 198.06C209.685 197.693 209.259 197.531 208.699 197.559C208.148 197.587 207.75 197.807 207.483 198.228C206.122 200.386 208.358 206.976 209.333 209.333L208.546 209.661H208.548Z" fill="#18171E"/>
<path d="M214.8 199.947H213.948C213.951 198.643 212.899 197.49 211.885 196.377C210.674 195.051 209.424 193.681 209.89 191.973C210.231 190.729 211.439 190.063 212.831 190.359C214.962 190.809 216.96 193.297 216.312 197.701L215.468 197.576C216.036 193.718 214.408 191.564 212.655 191.193C211.927 191.04 210.981 191.211 210.711 192.198C210.367 193.451 211.41 194.592 212.513 195.799C213.638 197.032 214.803 198.307 214.8 199.944V199.947Z" fill="#18171E"/>
<path d="M218.355 196.195C217.841 196.195 217.46 196.07 217.221 195.819C216.326 194.883 217.98 191.225 219.827 189.278C221.773 187.222 223.811 186.926 225.561 188.441C226.593 189.335 226.641 190.28 226.499 190.917C225.985 193.229 222.259 195.281 219.904 195.939C219.296 196.11 218.778 196.195 218.355 196.195ZM217.843 195.236C217.946 195.324 218.446 195.461 219.676 195.119C222.205 194.41 225.289 192.435 225.669 190.732C225.803 190.129 225.587 189.591 225.007 189.087C223.808 188.051 222.49 188.11 221.086 189.266C218.818 191.134 217.582 194.723 217.846 195.236H217.843Z" fill="#18171E"/>
<path d="M200.251 219.744C199.961 219.638 193.175 217.133 192.129 214.497C191.919 213.965 191.933 213.452 192.172 212.977C192.536 212.251 193.081 211.827 193.794 211.716C196.144 211.349 199.449 214.662 199.819 215.041L199.208 215.639C198.29 214.696 195.545 212.305 193.925 212.561C193.493 212.63 193.169 212.892 192.933 213.361C192.805 213.617 192.8 213.879 192.922 214.184C193.675 216.08 198.679 218.263 200.543 218.944L200.251 219.747V219.744Z" fill="#18171E"/>
<path d="M200.813 218.756L200.282 218.087C200.282 218.087 201.76 216.883 202.916 214.469C203.74 212.749 203.888 210.429 203.243 209.296C203.039 208.934 202.774 208.738 202.456 208.71C200.674 208.547 199.927 212.143 199.64 214.295L198.796 214.184C199.518 208.749 201.22 207.745 202.53 207.858C203.132 207.912 203.635 208.263 203.982 208.872C204.775 210.264 204.644 212.829 203.684 214.839C202.436 217.438 200.879 218.702 200.813 218.753V218.756Z" fill="#18171E"/>
<path d="M198.534 207.471L197.988 206.816C198.017 206.794 200.867 204.405 201.998 202.595C203.194 200.682 203.578 198.846 203.024 197.678C202.74 197.075 202.217 196.711 201.512 196.622C201.137 196.574 200.756 196.699 200.384 196.99C199.27 197.861 198.284 200.192 197.985 202.66L197.139 202.558C197.411 200.295 198.361 197.488 199.861 196.315C200.418 195.879 201.012 195.697 201.62 195.774C202.612 195.899 203.385 196.446 203.797 197.314C204.484 198.766 204.092 200.858 202.723 203.05C201.518 204.977 198.656 207.374 198.537 207.477L198.534 207.471Z" fill="#18171E"/>
<path d="M197.753 206.196C191.998 203.921 189 200.514 189.012 198.322C189.017 197.325 189.594 196.554 190.637 196.158C194.928 194.518 197.716 200.739 197.832 201.006L197.051 201.351C197.025 201.294 194.476 195.609 190.938 196.958C190.228 197.229 189.864 197.693 189.861 198.33C189.85 200.186 192.723 203.295 198.062 205.404L197.75 206.199L197.753 206.196Z" fill="#18171E"/>
<path d="M197.232 196.87C196.064 196.87 193.535 192.742 193.319 189.938C193.16 187.874 194.149 186.59 196.104 186.317C197.772 186.086 198.676 186.815 199.145 187.47C200.571 189.465 199.926 193.323 198.912 195.338C198.412 196.332 197.835 196.861 197.241 196.87H197.232ZM196.724 187.125C196.565 187.125 196.397 187.137 196.221 187.162C194.916 187.345 194.243 188.031 194.163 189.258C193.99 191.868 196.545 195.777 197.244 196.013C197.4 195.993 197.747 195.754 198.15 194.951C199.062 193.135 199.619 189.599 198.451 187.965C198.048 187.402 197.482 187.123 196.724 187.123V187.125Z" fill="#18171E"/>
<path d="M179.253 110.702H146.764V143.26H179.253V110.702Z" fill="#00E7B1"/>
<path d="M161.484 131.136C161.285 131.136 161.112 130.999 161.07 130.803C161.024 130.592 159.953 125.596 162.49 122.203C165.028 118.806 170.115 118.434 170.331 118.419C170.547 118.411 170.728 118.547 170.774 118.752C170.822 118.963 171.891 123.959 169.353 127.352C166.815 130.746 161.729 131.122 161.513 131.136C161.504 131.136 161.493 131.136 161.484 131.136ZM170.009 119.31C168.816 119.464 165.099 120.139 163.172 122.715C161.243 125.294 161.644 129.055 161.834 130.245C163.027 130.091 166.744 129.416 168.671 126.843C170.6 124.264 170.2 120.503 170.009 119.313V119.31Z" fill="#18171E"/>
<path d="M164.328 134.301C163.396 134.301 159.52 134.145 157.23 131.66C154.667 128.881 155.158 124.352 155.178 124.161C155.204 123.951 155.377 123.791 155.585 123.783C155.778 123.774 160.319 123.64 162.885 126.422C165.448 129.2 164.956 133.729 164.937 133.92C164.911 134.131 164.738 134.29 164.53 134.299C164.51 134.299 164.439 134.301 164.331 134.301H164.328ZM155.997 124.642C155.943 125.75 155.96 129.029 157.855 131.082C159.753 133.14 163.01 133.413 164.118 133.444C164.172 132.337 164.155 129.058 162.26 127.005C160.361 124.947 157.105 124.674 155.997 124.642Z" fill="#18171E"/>
<path d="M179.253 143.687H146.764C146.528 143.687 146.338 143.496 146.338 143.26V110.701C146.338 110.465 146.528 110.274 146.764 110.274H179.253C179.489 110.274 179.679 110.465 179.679 110.701V143.26C179.679 143.496 179.489 143.687 179.253 143.687ZM147.19 142.833H178.827V111.128H147.19V142.833Z" fill="#18171E"/>
<path d="M155.406 113.466L155.361 102.543C155.332 98.4151 158.577 94.9136 162.598 94.7428C164.056 94.6859 165.488 95.036 166.741 95.7676L166.312 96.5049C165.201 95.8559 163.934 95.5427 162.635 95.5968C159.069 95.7505 156.187 98.862 156.213 102.537L156.259 113.463H155.406V113.466Z" fill="#18171E"/>
<path d="M168.741 115.364L168.696 104.723C168.693 104.276 168.645 103.829 168.554 103.397L169.386 103.22C169.491 103.71 169.545 104.214 169.548 104.72L169.594 115.362H168.741V115.364Z" fill="#18171E"/>
<path d="M162.248 67.274L161.444 66.9978L164.246 58.802L161.478 57.8512L158.861 65.5004L158.054 65.2243L160.947 56.7666L165.328 58.2725L162.248 67.274Z" fill="#DAE6F2"/>
<path d="M166.832 59.565C166.593 59.565 166.349 59.5251 166.113 59.4454L164.246 58.8049L164.885 56.9346C165.215 55.9695 166.153 55.366 167.102 55.4941C167.79 55.5881 168.381 56.0122 168.682 56.6271C168.983 57.2449 168.955 57.9708 168.605 58.5743C168.241 59.2034 167.557 59.565 166.829 59.565H166.832ZM165.329 58.2726L166.389 58.6369C166.957 58.8305 167.596 58.6199 167.872 58.1445C168.08 57.7858 168.097 57.3673 167.92 57.0029C167.741 56.6357 167.403 56.3966 166.991 56.3396C166.446 56.2656 165.889 56.6414 165.695 57.2107L165.332 58.2726H165.329Z" fill="#DAE6F2"/>
<path d="M161.478 57.8516L159.611 57.2111C158.648 56.8809 158.045 55.9471 158.173 54.9906C158.267 54.3017 158.69 53.7096 159.304 53.4078C159.921 53.1061 160.646 53.1345 161.248 53.4847C162.081 53.9686 162.447 55.0219 162.118 55.9841L161.478 57.8544V57.8516ZM159.89 56.4026L160.95 56.767L161.313 55.7051C161.509 55.1358 161.299 54.4953 160.822 54.2191C160.461 54.0085 160.046 53.9914 159.682 54.1707C159.316 54.3501 159.077 54.6889 159.02 55.1016C158.946 55.6454 159.321 56.2062 159.89 56.3998V56.4026Z" fill="#DAE6F2"/>
<path d="M164.829 68.0798L164.022 67.8037L164.656 65.9533C165.193 64.3819 166.429 63.1094 168.043 62.4632C170.632 61.4241 172.635 59.3175 173.536 56.6814C174.417 54.1051 174.161 51.2641 172.831 48.887C171.484 46.4787 169.245 44.8162 166.528 44.2098C162.251 43.2562 157.773 45.4339 155.88 49.3881C154.465 52.3401 154.63 55.7648 156.318 58.5489C157.156 59.9296 157.321 61.6462 156.77 63.2574L156.042 65.3839L155.235 65.1078L155.963 62.9813C156.432 61.6091 156.295 60.1573 155.591 58.993C153.749 55.964 153.57 52.2348 155.11 49.018C157.173 44.708 162.055 42.3367 166.713 43.3757C169.668 44.0362 172.106 45.8439 173.573 48.4686C175.019 51.0562 175.3 54.1507 174.34 56.9547C173.357 59.8271 171.177 62.1216 168.355 63.2517C166.971 63.8068 165.914 64.8914 165.457 66.2266L164.823 68.077L164.829 68.0798Z" fill="#DAE6F2"/>
<path d="M164.969 70.1083L153.679 66.2314L152.767 68.8975L164.057 72.7743L164.969 70.1083Z" fill="#DAE6F2"/>
<path d="M158.685 75.3221C158.228 75.3221 157.764 75.2481 157.31 75.0916L157.097 75.0175C154.877 74.2546 153.692 71.8263 154.451 69.603L155.258 69.8792C154.65 71.6555 155.599 73.5999 157.372 74.2091L157.585 74.2831C159.361 74.8923 161.3 73.9415 161.908 72.1651L161.982 71.9516L162.789 72.2277L162.715 72.4412C162.109 74.2091 160.456 75.3221 158.688 75.3221H158.685Z" fill="#DAE6F2"/>
<path d="M192.089 104.339L187.545 87.6856C186.798 84.9413 186.894 82.0718 187.824 79.3873C188.699 76.8651 188.79 74.1693 188.085 71.593L185.945 63.753L195.181 61.2251L197.321 69.065C198.022 71.6413 199.469 73.9159 201.503 75.641C203.669 77.48 205.209 79.8998 205.959 82.644L210.503 99.2975L192.086 104.342L192.089 104.339ZM186.994 64.3508L188.909 71.3681C189.657 74.1123 189.56 76.9818 188.631 79.6663C187.755 82.1885 187.665 84.8844 188.369 87.4607L192.689 103.291L209.46 98.6997L205.141 82.8689C204.439 80.2926 202.993 78.0181 200.958 76.2929C198.793 74.4539 197.252 72.0342 196.502 69.2899L194.587 62.2727L186.994 64.3508Z" fill="#DAE6F2"/>
<path d="M195.259 63.8922L187.228 66.0903L187.452 66.9142L195.484 64.716L195.259 63.8922Z" fill="#DAE6F2"/>
<path d="M191.842 88.4145L191.146 87.9249L192.538 85.9321L194.345 87.5576L193.774 88.1924L192.683 87.2103L191.842 88.4145Z" fill="#DAE6F2"/>
<path d="M197.275 92.018C196.673 92.018 196.065 91.9127 195.477 91.6907C193.479 90.942 192.169 89.0745 192.138 86.9338L192.99 86.9224C193.016 88.7073 194.11 90.2644 195.775 90.8907C197.582 91.5711 199.637 90.9477 200.768 89.3763L201.458 89.8773C200.469 91.2494 198.895 92.018 197.273 92.018H197.275Z" fill="#DAE6F2"/>
<path d="M201.876 87.7311L200.068 86.0971L200.64 85.4623L201.731 86.4501L202.569 85.2402L203.268 85.7299L201.876 87.7311Z" fill="#DAE6F2"/>
<path d="M201.424 86.7375C201.399 84.9526 200.305 83.3955 198.639 82.7692C196.832 82.0888 194.778 82.7122 193.647 84.2836L192.956 83.7826C194.312 81.9009 196.772 81.1551 198.941 81.9692C200.935 82.7179 202.248 84.5854 202.28 86.7233L201.427 86.7375H201.424Z" fill="#DAE6F2"/>
<path d="M224.47 69.378H213.26V45.5166H224.47V69.378ZM214.112 68.524H223.618V46.3706H214.112V68.524Z" fill="#DAE6F2"/>
<path d="M220.892 43.2334H216.84V45.7898H220.892V43.2334Z" fill="#DAE6F2"/>
<path d="M223.894 65.3643H213.837V66.2183H223.894V65.3643Z" fill="#DAE6F2"/>
<path d="M219.292 48.7988H218.439V51.657H219.292V48.7988Z" fill="#DAE6F2"/>
<path d="M220.292 49.8008H217.439V50.6548H220.292V49.8008Z" fill="#DAE6F2"/>
<path d="M192.503 125.408L192.447 124.557C193.1 124.511 193.762 124.457 194.413 124.389L194.501 125.237C193.839 125.306 193.168 125.362 192.503 125.408ZM196.49 124.998L196.374 124.153C197.025 124.064 197.681 123.962 198.323 123.851L198.468 124.693C197.815 124.805 197.15 124.91 196.487 125.001L196.49 124.998ZM200.437 124.318L200.264 123.481C200.909 123.347 201.557 123.199 202.191 123.045L202.392 123.874C201.75 124.03 201.094 124.178 200.44 124.315L200.437 124.318ZM204.328 123.367L204.097 122.544C204.725 122.368 205.362 122.177 205.987 121.978L206.246 122.792C205.612 122.994 204.967 123.188 204.328 123.367ZM208.144 122.148L207.857 121.343C208.474 121.124 209.096 120.887 209.704 120.645L210.02 121.44C209.4 121.684 208.769 121.924 208.144 122.146V122.148ZM211.864 120.671L211.523 119.888C212.12 119.626 212.722 119.35 213.313 119.068L213.68 119.84C213.08 120.127 212.469 120.406 211.861 120.671H211.864ZM215.47 118.943L215.075 118.186C215.655 117.884 216.234 117.568 216.805 117.244L217.226 117.987C216.646 118.314 216.055 118.636 215.47 118.943ZM218.951 116.97L218.505 116.241C219.065 115.897 219.624 115.541 220.17 115.182L220.639 115.894C220.088 116.259 219.519 116.62 218.951 116.967V116.97ZM222.29 114.764L221.795 114.067C222.33 113.688 222.864 113.292 223.384 112.897L223.901 113.577C223.375 113.978 222.833 114.38 222.29 114.764ZM225.473 112.333L224.933 111.672C225.441 111.254 225.95 110.827 226.439 110.397L227.001 111.04C226.504 111.476 225.99 111.912 225.473 112.336V112.333ZM228.485 109.691L227.902 109.068C228.385 108.615 228.86 108.151 229.32 107.69L229.923 108.293C229.457 108.76 228.974 109.23 228.485 109.691ZM231.312 106.847L230.687 106.266C231.133 105.788 231.576 105.293 232.008 104.795L232.651 105.356C232.213 105.859 231.764 106.36 231.312 106.847ZM233.941 103.818L233.279 103.28C233.694 102.768 234.103 102.244 234.498 101.723L235.177 102.238C234.776 102.768 234.361 103.3 233.941 103.818ZM236.359 100.616L235.663 100.123C236.041 99.5852 236.416 99.0329 236.771 98.4863L237.484 98.9532C237.121 99.5083 236.743 100.069 236.359 100.616ZM238.553 97.2537L237.822 96.8124C238.161 96.2516 238.496 95.6737 238.817 95.1015L239.562 95.52C239.235 96.1008 238.897 96.6872 238.553 97.2565V97.2537ZM240.514 93.7465L239.755 93.3536C240.056 92.7701 240.349 92.1722 240.63 91.5773L241.4 91.9417C241.116 92.5452 240.818 93.1515 240.511 93.7436L240.514 93.7465ZM242.23 90.1112L241.448 89.7724C241.707 89.1689 241.96 88.554 242.202 87.9391L242.994 88.2494C242.75 88.8729 242.494 89.4991 242.23 90.1112ZM243.693 86.3649L242.889 86.083C243.105 85.4653 243.315 84.8305 243.514 84.2013L244.327 84.4576C244.128 85.0981 243.915 85.7386 243.693 86.3677V86.3649ZM244.893 82.5303L244.071 82.3026C244.245 81.6706 244.41 81.0272 244.563 80.3867L245.393 80.586C245.239 81.235 245.072 81.8869 244.895 82.5303H244.893ZM245.822 78.6274L244.986 78.4566C245.117 77.8161 245.236 77.1613 245.344 76.5123L246.186 76.6518C246.075 77.3094 245.953 77.9755 245.822 78.6246V78.6274ZM246.481 74.6704L245.637 74.5594C245.722 73.9104 245.799 73.2499 245.862 72.5952L246.711 72.6777C246.646 73.3438 246.569 74.0128 246.484 74.6704H246.481ZM246.87 70.6764L246.021 70.6224C246.063 69.9648 246.092 69.2986 246.112 68.6467L246.964 68.6723C246.944 69.3356 246.913 70.0103 246.87 70.6764ZM246.134 66.6682C246.134 66.0163 246.117 65.3502 246.092 64.6926L246.944 64.6613C246.97 65.3303 246.984 66.0049 246.987 66.6654H246.134V66.6682ZM245.984 62.7198C245.935 62.065 245.879 61.4046 245.808 60.7498L246.654 60.6587C246.725 61.322 246.785 61.9939 246.831 62.6572L245.981 62.7169L245.984 62.7198ZM245.566 58.7884C245.475 58.1394 245.37 57.4818 245.256 56.8356L246.097 56.6875C246.214 57.3423 246.319 58.0113 246.41 58.6689L245.566 58.7884ZM244.881 54.8941C244.745 54.2507 244.597 53.6017 244.438 52.9668L245.265 52.7619C245.424 53.4052 245.575 54.0657 245.714 54.7176L244.878 54.8941H244.881ZM132.274 53.8806L131.444 53.6899C131.595 53.038 131.757 52.3832 131.927 51.7427L132.752 51.9648C132.584 52.5967 132.422 53.243 132.274 53.8835V53.8806ZM243.932 51.0567C243.753 50.4275 243.56 49.7927 243.358 49.1636L244.171 48.9017C244.375 49.5393 244.571 50.1856 244.753 50.8232L243.935 51.0567H243.932ZM133.297 50.0574L132.482 49.8069C132.675 49.1693 132.885 48.5231 133.101 47.8939L133.908 48.1701C133.695 48.7906 133.49 49.4255 133.297 50.0574ZM242.722 47.2961C242.497 46.6755 242.261 46.0549 242.02 45.4486L242.812 45.1297C243.06 45.7446 243.298 46.3766 243.526 47.0057L242.724 47.2961H242.722ZM134.582 46.3083L133.786 46.0037C134.025 45.3802 134.275 44.7511 134.536 44.1362L135.32 44.4693C135.065 45.0728 134.817 45.6934 134.582 46.3083ZM241.255 43.6295C240.991 43.0288 240.712 42.4282 240.428 41.8389L241.196 41.4688C241.483 42.0638 241.764 42.6758 242.034 43.285L241.255 43.6295ZM136.119 42.6588L135.346 42.3001C135.624 41.6966 135.92 41.0873 136.221 40.4924L136.983 40.8795C136.687 41.466 136.395 42.0666 136.122 42.6616L136.119 42.6588ZM239.542 40.0768C239.238 39.4989 238.919 38.9153 238.595 38.3459L239.337 37.9218C239.667 38.4997 239.991 39.0918 240.298 39.6782L239.542 40.0768ZM137.903 39.1231L137.156 38.7103C137.477 38.1239 137.813 37.5375 138.154 36.9681L138.887 37.4065C138.551 37.9702 138.222 38.548 137.903 39.1259V39.1231ZM237.589 36.6464C237.246 36.0913 236.89 35.5305 236.527 34.9839L237.237 34.5114C237.607 35.0665 237.967 35.633 238.317 36.1995L237.592 36.6464H237.589ZM139.927 35.7212L139.211 35.2601C139.569 34.6992 139.944 34.1384 140.325 33.589L141.026 34.0758C140.651 34.6167 140.285 35.1718 139.93 35.7212H139.927ZM235.407 33.3584C235.029 32.8289 234.634 32.2937 234.233 31.7699L234.91 31.249C235.316 31.7785 235.717 32.3222 236.1 32.8602L235.407 33.3556V33.3584ZM142.177 32.4674L141.493 31.9578C141.888 31.4255 142.3 30.8903 142.717 30.3693L143.385 30.9017C142.976 31.4169 142.569 31.9436 142.177 32.4674ZM233.006 30.2242C232.588 29.7174 232.159 29.2107 231.727 28.7182L232.366 28.1546C232.807 28.6528 233.242 29.168 233.665 29.6804L233.006 30.2242ZM144.641 29.3758L143.993 28.8207C144.428 28.314 144.874 27.8073 145.323 27.3176L145.951 27.8955C145.511 28.3766 145.067 28.8748 144.641 29.3758ZM230.394 27.2607C229.948 26.7853 229.482 26.3099 229.016 25.8459L229.616 25.2395C230.09 25.7092 230.562 26.1932 231.017 26.6743L230.397 27.2607H230.394ZM147.309 26.4608L146.701 25.8629C147.167 25.3875 147.648 24.9121 148.128 24.4538L148.716 25.0715C148.244 25.5213 147.77 25.9882 147.309 26.4579V26.4608ZM227.587 24.4794C227.109 24.0353 226.612 23.5941 226.115 23.1614L226.672 22.5152C227.178 22.9536 227.681 23.4034 228.166 23.8531L227.587 24.4794ZM150.168 23.7336L149.603 23.0959C150.097 22.6547 150.609 22.2163 151.123 21.7892L151.669 22.4468C151.163 22.8682 150.657 23.3009 150.171 23.7364L150.168 23.7336ZM224.597 21.8974C224.089 21.4875 223.563 21.0776 223.037 20.6819L223.549 19.9986C224.083 20.4 224.614 20.8128 225.132 21.2313L224.597 21.8974ZM153.206 21.2114L152.683 20.5367C153.209 20.1296 153.749 19.7254 154.286 19.3382L154.783 20.03C154.252 20.4114 153.72 20.81 153.203 21.2114H153.206ZM221.437 19.5232C220.9 19.1475 220.349 18.7745 219.798 18.4187L220.261 17.7013C220.818 18.0629 221.378 18.4415 221.923 18.8229L221.435 19.5232H221.437ZM156.406 18.9026L155.931 18.1938C156.485 17.8209 157.051 17.4565 157.613 17.1063L158.062 17.8323C157.508 18.1767 156.951 18.5383 156.406 18.9026ZM218.121 17.3711C217.559 17.0323 216.984 16.6993 216.41 16.3804L216.825 15.6346C217.408 15.9591 217.993 16.2979 218.562 16.6395L218.124 17.3711H218.121ZM159.753 16.816L159.327 16.0758C159.904 15.7428 160.492 15.4182 161.077 15.1079L161.478 15.8623C160.901 16.1698 160.321 16.4914 159.753 16.8188V16.816ZM214.663 15.4467C214.077 15.1478 213.481 14.8546 212.887 14.5756L213.248 13.8013C213.85 14.0831 214.458 14.382 215.049 14.6838L214.663 15.4438V15.4467ZM163.234 14.9656L162.862 14.197C163.459 13.9066 164.067 13.6219 164.675 13.3515L165.022 14.1315C164.425 14.3991 163.822 14.6781 163.237 14.9656H163.234ZM211.079 13.7671C210.477 13.5081 209.86 13.2575 209.247 13.0213L209.553 12.2242C210.176 12.4661 210.801 12.7195 211.415 12.9814L211.079 13.7671ZM166.832 13.36L166.511 12.5686C167.127 12.3181 167.755 12.0761 168.375 11.8484L168.667 12.6512C168.056 12.8761 167.437 13.1124 166.832 13.36ZM207.388 12.338C206.766 12.1217 206.135 11.9139 205.507 11.7203L205.76 10.9033C206.396 11.0997 207.039 11.3104 207.669 11.5296L207.391 12.3352L207.388 12.338ZM170.529 12.005L170.264 11.1936C170.895 10.9887 171.538 10.7894 172.18 10.6015L172.416 11.4214C171.785 11.6036 171.151 11.8 170.529 12.0021V12.005ZM203.609 11.168C202.978 10.9972 202.336 10.8321 201.696 10.6841L201.892 9.85283C202.543 10.0066 203.194 10.1717 203.833 10.3453L203.609 11.168ZM174.32 10.9061L174.112 10.0777C174.754 9.91546 175.411 9.76173 176.064 9.6194L176.243 10.4535C175.601 10.593 174.956 10.7439 174.322 10.9033L174.32 10.9061ZM199.767 10.2656C199.127 10.1375 198.474 10.0208 197.826 9.91261L197.962 9.06997C198.622 9.17815 199.284 9.29771 199.934 9.42582L199.77 10.2628L199.767 10.2656ZM178.179 10.072L178.028 9.23224C178.682 9.11552 179.346 9.00735 180.006 8.91056L180.128 9.75604C179.48 9.84998 178.824 9.95531 178.179 10.072ZM195.871 9.62794C195.223 9.54538 194.564 9.47137 193.91 9.41158L193.99 8.56041C194.655 8.62303 195.322 8.69705 195.979 8.78245L195.871 9.62794ZM182.086 9.50553L181.992 8.6572C182.654 8.58603 183.325 8.5234 183.987 8.47216L184.052 9.32333C183.399 9.37173 182.739 9.43436 182.086 9.50553ZM191.941 9.25786C191.284 9.21801 190.619 9.18954 189.969 9.1753L189.991 8.32128C190.654 8.33836 191.327 8.36683 191.992 8.40668L191.941 9.25786ZM186.022 9.20662L185.987 8.35259C186.65 8.32413 187.323 8.30705 187.988 8.3042L187.994 9.15822C187.337 9.16392 186.672 9.181 186.022 9.20662Z" fill="#18171E"/>
<path d="M199.205 42.4278H189.214V41.5737H199.205C199.492 41.5737 199.748 41.4257 199.89 41.178C200.032 40.9304 200.032 40.6343 199.89 40.3867L198.87 38.616L199.609 38.189L200.629 39.9596C200.927 40.4749 200.927 41.0898 200.629 41.6051C200.333 42.1203 199.799 42.4278 199.205 42.4278Z" fill="#DAE6F2"/>
<path d="M197.213 35.8547L191.669 26.2356C191.527 25.9879 191.271 25.8399 190.984 25.8399C190.697 25.8399 190.442 25.9879 190.299 26.2356L188.819 28.8062L188.08 28.3792L189.561 25.8086C189.856 25.2933 190.39 24.9858 190.984 24.9858C191.578 24.9858 192.11 25.2933 192.408 25.8086L197.952 35.4277L197.213 35.8547Z" fill="#DAE6F2"/>
<path d="M185.073 42.4281H182.769C182.175 42.4281 181.643 42.1206 181.345 41.6054C181.046 41.0901 181.046 40.4752 181.345 39.9599L186.241 31.4624L186.98 31.8894L182.084 40.387C181.942 40.6346 181.942 40.9307 182.084 41.1784C182.226 41.426 182.482 41.574 182.769 41.574H185.073V42.4281Z" fill="#DAE6F2"/>
<path d="M190.731 44.0105L188.205 42.1117L190.731 40.2129L191.243 40.8961L189.626 42.1117L191.243 43.3272L190.731 44.0105Z" fill="#DAE6F2"/>
<path d="M186.877 33.9389L186.463 31.9575L184.678 32.9141L184.277 32.1597L187.062 30.668L187.713 33.7652L186.877 33.9389Z" fill="#DAE6F2"/>
<path d="M197.94 36.5722L195.155 35.0805L195.556 34.3289L197.338 35.2826L197.755 33.3013L198.588 33.4778L197.94 36.5722Z" fill="#DAE6F2"/>
<path d="M57.0182 141.717C55.802 144.384 52.9347 145.682 52.9347 145.682C52.9347 145.682 52.0424 142.659 53.2587 139.994C54.4749 137.327 57.3421 136.029 57.3421 136.029C57.3421 136.029 58.2344 139.052 57.0182 141.717Z" fill="#DAE6F2"/>
<path d="M49.5849 130.25C47.4309 132.234 44.2852 132.319 44.2852 132.319C44.2852 132.319 44.6318 129.188 46.7858 127.201C48.9398 125.217 52.0856 125.131 52.0856 125.131C52.0856 125.131 51.7389 128.263 49.5849 130.25Z" fill="#DAE6F2"/>
<path d="M45.9069 120.263C44.6906 122.931 41.8234 124.229 41.8234 124.229C41.8234 124.229 40.9311 121.206 42.1473 118.541C43.3636 115.874 46.2308 114.576 46.2308 114.576C46.2308 114.576 47.1231 117.599 45.9069 120.263Z" fill="#DAE6F2"/>
<path d="M43.8325 111.778C42.3833 114.323 39.4109 115.362 39.4109 115.362C39.4109 115.362 38.7914 112.273 40.2407 109.725C41.6899 107.18 44.6623 106.141 44.6623 106.141C44.6623 106.141 45.2818 109.23 43.8325 111.778Z" fill="#DAE6F2"/>
<path d="M43.9208 139.154C46.1316 141.073 49.2802 141.065 49.2802 141.065C49.2802 141.065 48.8398 137.945 46.6289 136.026C44.4181 134.107 41.2695 134.116 41.2695 134.116C41.2695 134.116 41.71 137.236 43.9208 139.154Z" fill="#DAE6F2"/>
<path d="M38.8319 128.174C41.0428 130.093 44.1913 130.085 44.1913 130.085C44.1913 130.085 43.7509 126.965 41.5401 125.046C39.3292 123.127 36.1807 123.136 36.1807 123.136C36.1807 123.136 36.6211 126.256 38.8319 128.174Z" fill="#DAE6F2"/>
<path d="M34.4866 118.928C37.3084 119.703 40.1415 118.333 40.1415 118.333C40.1415 118.333 38.3996 115.709 35.5778 114.934C32.756 114.16 29.9229 115.529 29.9229 115.529C29.9229 115.529 31.6648 118.154 34.4866 118.928Z" fill="#DAE6F2"/>
<path d="M35.0634 110.807C37.2742 112.726 40.4228 112.717 40.4228 112.717C40.4228 112.717 39.9823 109.597 37.7715 107.678C35.5607 105.76 32.4121 105.768 32.4121 105.768C32.4121 105.768 32.8526 108.888 35.0634 110.807Z" fill="#DAE6F2"/>
<path d="M36.3055 103.357C36.996 105.486 39.0562 106.724 39.0562 106.724C39.0562 106.724 39.9996 104.51 39.3091 102.377C38.6186 100.248 36.5584 99.0098 36.5584 99.0098C36.5584 99.0098 35.6149 101.225 36.3055 103.357Z" fill="#DAE6F2"/>
<path d="M65.3586 158.322C60.147 154.482 55.5236 149.873 51.622 144.623C43.0202 133.054 38.5275 119.336 38.6327 104.951L39.4852 104.957C39.3829 119.154 43.8159 132.696 52.3068 144.114C56.1573 149.295 60.721 153.841 65.8644 157.633L65.3586 158.322Z" fill="#DAE6F2"/>
<path d="M51.2862 51.7711C52.4456 54.4642 55.2816 55.8249 55.2816 55.8249C55.2816 55.8249 56.2393 52.8216 55.0799 50.1314C53.9205 47.4384 51.0845 46.0776 51.0845 46.0776C51.0845 46.0776 50.1268 49.081 51.2862 51.7711Z" fill="#DAE6F2"/>
<path d="M58.9641 40.4695C61.0754 42.4992 64.2183 42.653 64.2183 42.653C64.2183 42.653 63.9398 39.513 61.8285 37.4833C59.7171 35.4535 56.5742 35.2998 56.5742 35.2998C56.5742 35.2998 56.8527 38.4398 58.9641 40.4695Z" fill="#DAE6F2"/>
<path d="M62.8575 30.5656C64.0169 33.2586 66.8529 34.6193 66.8529 34.6193C66.8529 34.6193 67.8106 31.616 66.6512 28.9258C65.4918 26.2328 62.6558 24.8721 62.6558 24.8721C62.6558 24.8721 61.6981 27.8754 62.8575 30.5656Z" fill="#DAE6F2"/>
<path d="M65.1138 22.1219C66.5091 24.6982 69.4559 25.7999 69.4559 25.7999C69.4559 25.7999 70.1408 22.7226 68.7455 20.1463C67.3502 17.57 64.4034 16.4683 64.4034 16.4683C64.4034 16.4683 63.7186 19.5456 65.1138 22.1219Z" fill="#DAE6F2"/>
<path d="M64.4373 49.4935C62.1838 51.3638 59.0381 51.2869 59.0381 51.2869C59.0381 51.2869 59.5467 48.1754 61.7974 46.3051C64.0508 44.4348 67.1965 44.5117 67.1965 44.5117C67.1965 44.5117 66.6879 47.6232 64.4373 49.4935Z" fill="#DAE6F2"/>
<path d="M69.7595 38.6278C67.5061 40.4981 64.3604 40.4212 64.3604 40.4212C64.3604 40.4212 64.869 37.3097 67.1196 35.4394C69.3731 33.5691 72.5188 33.646 72.5188 33.646C72.5188 33.646 72.0101 36.7574 69.7595 38.6278Z" fill="#DAE6F2"/>
<path d="M74.3067 29.4753C71.4678 30.1899 68.6631 28.7579 68.6631 28.7579C68.6631 28.7579 70.4619 26.1731 73.3007 25.4586C76.1395 24.744 78.9443 26.1759 78.9443 26.1759C78.9443 26.1759 77.1455 28.7608 74.3067 29.4753Z" fill="#DAE6F2"/>
<path d="M73.9031 21.3421C71.6496 23.2124 68.5039 23.1356 68.5039 23.1356C68.5039 23.1356 69.0126 20.0241 71.2632 18.1538C73.5166 16.2834 76.6624 16.3603 76.6624 16.3603C76.6624 16.3603 76.1537 19.4718 73.9031 21.3421Z" fill="#DAE6F2"/>
<path d="M72.8201 13.8694C72.0841 15.9845 69.9954 17.1773 69.9954 17.1773C69.9954 17.1773 69.1003 14.9426 69.8363 12.8275C70.5723 10.7123 72.6609 9.51953 72.6609 9.51953C72.6609 9.51953 73.5561 11.7542 72.8201 13.8694Z" fill="#DAE6F2"/>
<path d="M53.5146 58.5035L52.8809 57.9313C53.9408 56.7556 54.9723 55.5229 55.947 54.2704C64.6823 43.04 69.4052 29.5976 69.607 15.4009L70.4595 15.4123C70.2549 29.7969 65.4666 43.4157 56.6177 54.7942C55.6316 56.0638 54.5859 57.3107 53.5117 58.5006L53.5146 58.5035Z" fill="#DAE6F2"/>
<path d="M137.287 1.83348C137.136 1.23851 136.849 0.4585 136.287 0.145357C135.639 -0.219026 134.951 0.162438 134.451 0.59799C133.408 1.5061 132.806 2.80137 132.57 4.15073C132.286 5.78761 132.55 7.4615 132.814 9.0813C132.908 9.6478 133.596 9.72182 133.885 9.40298C134.005 9.37167 134.119 9.30619 134.209 9.2094C136.074 7.22807 138.014 4.74001 137.284 1.83633L137.287 1.83348Z" fill="#DAE6F2"/>
<path d="M127.238 3.5385C126.338 2.54498 125.119 1.32373 123.689 1.26964C123.064 1.24687 122.41 1.47176 121.961 1.91301C121.407 2.45958 121.265 3.17981 121.51 3.91142C121.91 5.11844 122.876 6.18882 123.917 6.88627C125.153 7.71468 126.613 8.11892 128.097 8.01928C128.153 8.01643 128.207 7.99935 128.256 7.97658C128.617 8.31249 129.37 8.07621 129.267 7.46132C129.02 5.97247 128.244 4.64304 127.241 3.5385H127.238Z" fill="#DAE6F2"/>
<path d="M133.16 18.2791L132.311 18.2222L132.737 18.2507L132.311 18.225C132.313 18.1738 132.538 12.9329 125.849 3.91728L126.533 3.40771C133.442 12.7137 133.177 18.0571 133.163 18.2791H133.16Z" fill="#DAE6F2"/>
<path d="M131.685 12.8816L131.052 12.3094C131.074 12.2838 133.467 9.56511 134.229 4.37549L135.073 4.50075C134.271 9.96365 131.791 12.7677 131.685 12.8844V12.8816Z" fill="#DAE6F2"/>
<path d="M20.1306 70.4711C18.275 70.4711 16.4904 70.0213 15.1378 68.5609C14.4444 67.8122 14.1148 67.1119 14.1546 66.4828C14.1915 65.9277 14.5155 65.1875 15.8397 64.8032C17.5248 64.3193 19.0991 64.7377 20.1221 65.1761C21.7333 65.865 23.0632 67.0778 24.234 68.1453C24.5352 68.4186 24.6461 68.8114 24.5324 69.1986C24.4301 69.5487 24.1544 69.8277 23.8276 69.9302C23.6941 70.027 23.5378 70.0953 23.373 70.1266C22.3159 70.3202 21.2105 70.4711 20.1278 70.4711H20.1306ZM17.3998 65.4437C16.9735 65.4437 16.5302 65.4978 16.0784 65.6259C15.3936 65.8223 15.0355 66.1298 15.0071 66.5397C14.9815 66.9155 15.2515 67.4279 15.763 67.9802C17.6243 69.99 20.5768 69.7679 23.2224 69.284C23.2707 69.2755 23.3161 69.2527 23.3502 69.2214L23.444 69.136L23.5691 69.116C23.6202 69.1075 23.6941 69.042 23.7197 68.9538C23.7452 68.8655 23.7083 68.8143 23.6657 68.7773C22.5432 67.7553 21.2701 66.5967 19.7925 65.9618C19.1758 65.6971 18.3347 65.4409 17.3998 65.4409V65.4437Z" fill="#DAE6F2"/>
<path d="M25.4159 65.0938C25.217 65.0938 25.0152 65.0283 24.8334 64.9002C23.6342 64.0434 22.6964 62.7879 22.0514 61.1681C21.4432 59.6394 20.9658 58.0367 21.5796 56.6447C21.8894 55.9444 22.4804 55.3836 23.1624 55.1416C24.0292 54.8341 24.9158 55.0419 25.5949 55.7081C26.4957 56.5934 27.1294 57.9485 27.3312 59.4259C27.5472 61.0173 27.2488 62.583 26.4616 63.958C26.4531 63.975 26.4417 63.9893 26.4304 64.0064C26.4389 64.3508 26.2684 64.6953 25.9757 64.9088C25.8024 65.034 25.6063 65.0967 25.4102 65.0967L25.4159 65.0938ZM23.961 55.8561C23.8047 55.8561 23.6342 55.8846 23.4523 55.9472C22.9863 56.1123 22.5799 56.5023 22.3639 56.992C21.878 58.0937 22.3071 59.4971 22.847 60.8522C23.4296 62.3182 24.265 63.4455 25.3306 64.2056C25.3932 64.2483 25.4329 64.2512 25.4841 64.2142C25.5551 64.1629 25.6006 64.0604 25.5807 63.995L25.4983 63.7217L25.7171 63.5395C26.419 62.3239 26.6833 60.9433 26.4929 59.5427C26.3196 58.2673 25.7626 57.0631 25.0039 56.3173C24.7708 56.0867 24.4185 55.8561 23.961 55.8561Z" fill="#DAE6F2"/>
<path d="M31.3979 73.7167C31.2388 73.5829 27.4792 70.3433 23.4668 59.5114L24.2653 59.2153C28.201 69.8365 31.9066 73.0306 31.9435 73.0619L31.3951 73.7167H31.3979Z" fill="#DAE6F2"/>
<path d="M26.1036 69.4491C24.3219 69.4491 21.7075 69.1588 18.8857 67.8607L19.241 67.0835C24.0093 69.2755 28.2405 68.4272 28.2832 68.4158L28.4565 69.2527C28.3769 69.2698 27.4932 69.4463 26.1036 69.4463V69.4491Z" fill="#DAE6F2"/>
<path d="M238.298 147.231C235.397 147.231 233.308 144.991 231.637 142.77C231.535 142.636 231.467 142.48 231.435 142.317C231.265 142.021 231.251 141.629 231.413 141.301C231.589 140.943 231.933 140.729 232.336 140.729C233.927 140.74 235.723 140.752 237.377 141.338C238.426 141.711 239.867 142.471 240.779 143.971C241.498 145.153 241.231 145.916 240.884 146.351C240.489 146.844 239.773 147.134 238.755 147.214C238.602 147.225 238.451 147.231 238.304 147.231H238.298ZM232.33 141.583C232.276 141.583 232.214 141.594 232.174 141.677C232.134 141.757 232.143 141.856 232.174 141.899L232.251 141.999L232.262 142.124C232.265 142.172 232.285 142.218 232.313 142.258C233.93 144.407 235.951 146.573 238.679 146.363C239.432 146.303 239.974 146.109 240.21 145.816C240.469 145.497 240.412 145.025 240.043 144.416C239.261 143.129 238.002 142.468 237.085 142.144C235.567 141.603 233.848 141.592 232.33 141.583Z" fill="#DAE6F2"/>
<path d="M234.967 137.99C234.674 137.99 234.384 137.973 234.1 137.936C233.665 137.882 233.338 137.583 233.253 137.162C233.179 136.806 233.29 136.436 233.529 136.191C233.529 136.174 233.534 136.154 233.54 136.137C233.892 134.591 234.731 133.236 235.967 132.214C237.115 131.266 238.499 130.697 239.761 130.66C240.715 130.64 241.502 131.081 241.932 131.895C242.27 132.536 242.324 133.35 242.079 134.076C241.591 135.516 240.153 136.37 238.675 137.082C237.41 137.688 236.172 137.993 234.972 137.993L234.967 137.99ZM239.843 131.511C239.823 131.511 239.803 131.511 239.783 131.511C238.723 131.542 237.499 132.052 236.507 132.872C235.418 133.771 234.68 134.967 234.37 136.325L234.41 136.607L234.168 136.763C234.108 136.797 234.072 136.906 234.089 136.991C234.103 137.054 234.134 137.079 234.208 137.091C235.504 137.256 236.882 136.994 238.303 136.311C239.616 135.681 240.883 134.941 241.269 133.8C241.443 133.293 241.406 132.729 241.176 132.294C240.838 131.653 240.278 131.511 239.846 131.511H239.843Z" fill="#DAE6F2"/>
<path d="M223.447 139.963C223.37 139.963 223.322 139.963 223.308 139.963L223.347 139.109C223.401 139.109 228.326 139.257 238.363 134.142L238.749 134.902C229.289 139.724 224.339 139.963 223.447 139.963Z" fill="#DAE6F2"/>
<path d="M236.468 144.151C231.216 142.437 228.596 138.827 228.488 138.676L229.182 138.178C229.207 138.212 231.759 141.717 236.732 143.337L236.468 144.148V144.151Z" fill="#DAE6F2"/>
<path d="M223.353 81.767C223.254 81.4624 223.086 81.2005 222.847 80.9784C222.626 80.7393 222.364 80.5714 222.06 80.4717C221.768 80.318 221.455 80.2468 221.117 80.2611C220.901 80.2895 220.682 80.318 220.466 80.3493C220.051 80.466 219.693 80.6767 219.386 80.9784C219.258 81.1435 219.13 81.3087 219.003 81.4738C218.781 81.8552 218.67 82.268 218.667 82.7093V83.1619C218.656 83.4978 218.724 83.8138 218.878 84.107C218.977 84.4116 219.145 84.6735 219.383 84.8956C219.605 85.1347 219.866 85.3026 220.17 85.4023C220.463 85.556 220.776 85.6272 221.114 85.6129C221.33 85.5845 221.549 85.5532 221.765 85.5247C222.18 85.408 222.538 85.1973 222.844 84.8956C222.972 84.7305 223.1 84.5653 223.228 84.4002C223.45 84.0188 223.561 83.606 223.561 83.1647V82.7121C223.572 82.3733 223.504 82.0602 223.35 81.767H223.353Z" fill="#DAE6F2"/>
<path d="M203.555 54.0371C202.074 54.0371 202.071 56.343 203.555 56.343C205.038 56.343 205.038 54.0371 203.555 54.0371Z" fill="#DAE6F2"/>
<path d="M176.897 81.4424C176.698 81.2431 176.371 81.0922 176.084 81.1036C175.786 81.1179 175.479 81.2147 175.272 81.4424C175.064 81.6673 174.934 81.9463 174.934 82.2566V82.7092C174.934 83.0053 175.061 83.3156 175.272 83.5234C175.471 83.7226 175.797 83.8735 176.084 83.8621C176.383 83.8479 176.69 83.7511 176.897 83.5234C177.105 83.2985 177.235 83.0195 177.235 82.7092V82.2566C177.235 81.9605 177.107 81.6502 176.897 81.4424Z" fill="#DAE6F2"/>
<path d="M173.027 30.668C172.965 30.4715 172.854 30.3007 172.701 30.1584C172.558 30.0047 172.388 29.8936 172.192 29.831C172.004 29.7314 171.8 29.6858 171.581 29.6944C171.172 29.7115 170.748 29.8481 170.461 30.1584C170.177 30.4687 169.998 30.8502 169.998 31.28V31.7298C169.99 31.949 170.035 32.1511 170.134 32.3418C170.197 32.5383 170.308 32.7091 170.461 32.8514C170.603 33.0051 170.774 33.1162 170.97 33.1788C171.157 33.2784 171.362 33.324 171.581 33.3154C171.99 33.2984 172.414 33.1617 172.701 32.8514C172.985 32.5411 173.164 32.1597 173.164 31.7298V31.28C173.172 31.0608 173.127 30.8587 173.027 30.668Z" fill="#DAE6F2"/>
</g>
<defs>
<clipPath id="clip0_53_1498">
<rect width="263" height="223" fill="white"/>
</clipPath>
</defs>
</svg>
