<svg width="182" height="174" viewBox="0 0 182 174" fill="none" xmlns="http://www.w3.org/2000/svg">
<path d="M115 46H80.913L52 108.892H80.913L69.6522 173L115 94.6124H86.087L115 46Z" fill="#73D5A4" stroke="black"/>
<path d="M176 3H151.111L130 49.055H151.111L142.889 96L176 38.5981H154.889L176 3Z" fill="#DF6436" stroke="black"/>
<path d="M47 6H22.1111L1 52.055H22.1111L13.8889 99L47 41.5981H25.8889L47 6Z" fill="#DF6436" stroke="black"/>
<path d="M122 43H87.913L59 105.892H87.913L76.6522 170L122 91.6124H93.087L122 43Z" fill="white" stroke="black"/>
<path d="M181 1H156.111L135 47.055H156.111L147.889 94L181 36.5981H159.889L181 1Z" fill="white" stroke="black"/>
<path d="M52 4H27.1111L6 50.055H27.1111L18.8889 97L52 39.5981H30.8889L52 4Z" fill="white" stroke="black"/>
</svg>
