<svg width="297" height="121" viewBox="0 0 297 121" fill="none" xmlns="http://www.w3.org/2000/svg">
<g clip-path="url(#clip0_200_646)">
<path d="M295.854 12.0813V63.6119H295.514C295.114 69.8084 292.437 75.3844 288.31 79.5106C283.829 84 277.634 86.7737 270.793 86.7737H75.016C61.3336 86.7737 50.2402 75.6732 50.2402 61.982C50.2402 61.1556 50.2888 60.3407 50.3831 59.54V12.4816C50.3831 5.81903 55.7812 0.41748 62.4395 0.41748H284.198C290.636 0.41748 295.854 5.63889 295.854 12.0813Z" fill="white" stroke="black" stroke-miterlimit="10"/>
<path d="M50.9541 65.6765H295.142" stroke="black" stroke-miterlimit="10"/>
<path d="M75.4193 47.3129H267.667C276.286 47.3129 283.281 54.3129 283.281 62.9371V65.6136H61.5283V61.2128C61.5283 53.5409 67.7523 47.3129 75.4193 47.3129Z" fill="#EEECE7" stroke="black" stroke-miterlimit="10"/>
<path d="M74.1016 53.6038H271.85" stroke="black" stroke-miterlimit="10"/>
<path d="M74.1016 57.0352H271.85" stroke="black" stroke-miterlimit="10"/>
<path d="M63.6258 69.3309H281.324C282.404 69.3309 283.281 70.2087 283.281 71.2896C283.281 73.4457 281.532 75.1928 279.38 75.1928H65.289C63.2143 75.1928 61.5283 73.5057 61.5283 71.4297C61.5283 70.2716 62.4685 69.3309 63.6258 69.3309Z" fill="#73D5A4" stroke="black" stroke-miterlimit="10"/>
<path d="M72.5671 77.4804H276.674C277.797 77.4804 278.709 78.3926 278.709 79.5164V79.7108C278.709 81.9526 276.891 83.7713 274.651 83.7713H74.2988C72.1385 83.7713 70.3867 82.0184 70.3867 79.8566V79.6622C70.3867 78.4584 71.364 77.4804 72.5671 77.4804Z" fill="#73D5A4" stroke="black" stroke-miterlimit="10"/>
<path d="M168.333 26.2958C177.605 26.2958 185.121 23.7993 185.121 20.7198C185.121 17.6403 177.605 15.1438 168.333 15.1438C159.06 15.1438 151.544 17.6403 151.544 20.7198C151.544 23.7993 159.06 26.2958 168.333 26.2958Z" fill="#73D5A4" stroke="black" stroke-miterlimit="10"/>
<path d="M243.768 17.0025C245.146 17.0025 246.263 15.8848 246.263 14.5061C246.263 13.1275 245.146 12.0098 243.768 12.0098C242.39 12.0098 241.273 13.1275 241.273 14.5061C241.273 15.8848 242.39 17.0025 243.768 17.0025Z" fill="#73D5A4" stroke="black" stroke-miterlimit="10"/>
<path d="M252.204 17.0025C253.582 17.0025 254.698 15.8848 254.698 14.5061C254.698 13.1275 253.582 12.0098 252.204 12.0098C250.826 12.0098 249.709 13.1275 249.709 14.5061C249.709 15.8848 250.826 17.0025 252.204 17.0025Z" fill="#73D5A4" stroke="black" stroke-miterlimit="10"/>
<path d="M260.64 17.0025C262.018 17.0025 263.135 15.8848 263.135 14.5061C263.135 13.1275 262.018 12.0098 260.64 12.0098C259.262 12.0098 258.146 13.1275 258.146 14.5061C258.146 15.8848 259.262 17.0025 260.64 17.0025Z" fill="#73D5A4" stroke="black" stroke-miterlimit="10"/>
</g>
<g clip-path="url(#clip1_200_646)">
<path d="M246.031 45.8901V97.4208H245.691C245.291 103.617 242.613 109.193 238.487 113.319C234.006 117.809 227.811 120.583 220.97 120.583H25.1927C11.5104 120.583 0.416992 109.482 0.416992 95.7909C0.416992 94.9645 0.465572 94.1495 0.559874 93.3489V46.2905C0.559874 39.6279 5.95796 34.2263 12.6163 34.2263H234.375C240.813 34.2263 246.031 39.4477 246.031 45.8901Z" fill="white" stroke="black" stroke-miterlimit="10"/>
<path d="M1.13086 99.4853H245.318" stroke="black" stroke-miterlimit="10"/>
<path d="M25.5961 81.1218H217.844C226.462 81.1218 233.458 88.1218 233.458 96.7459V99.4224H11.7051V95.0217C11.7051 87.3497 17.929 81.1218 25.5961 81.1218Z" fill="#EEECE7" stroke="black" stroke-miterlimit="10"/>
<path d="M24.2783 87.4126H222.027" stroke="black" stroke-miterlimit="10"/>
<path d="M24.2783 90.844H222.027" stroke="black" stroke-miterlimit="10"/>
<path d="M13.8026 103.14H231.5C232.581 103.14 233.458 104.018 233.458 105.098C233.458 107.254 231.709 109.002 229.557 109.002H15.4657C13.3911 109.002 11.7051 107.315 11.7051 105.239C11.7051 104.08 12.6452 103.14 13.8026 103.14Z" fill="#73D5A4" stroke="black" stroke-miterlimit="10"/>
<path d="M22.7439 111.289H226.851C227.974 111.289 228.885 112.201 228.885 113.325V113.52C228.885 115.761 227.068 117.58 224.828 117.58H24.4756C22.3152 117.58 20.5635 115.827 20.5635 113.665V113.471C20.5635 112.267 21.5408 111.289 22.7439 111.289Z" fill="#73D5A4" stroke="black" stroke-miterlimit="10"/>
<path d="M118.509 60.1046C127.781 60.1046 135.298 57.6081 135.298 54.5286C135.298 51.4491 127.781 48.9526 118.509 48.9526C109.237 48.9526 101.721 51.4491 101.721 54.5286C101.721 57.6081 109.237 60.1046 118.509 60.1046Z" fill="#73D5A4" stroke="black" stroke-miterlimit="10"/>
<path d="M193.945 50.8113C195.323 50.8113 196.44 49.6937 196.44 48.315C196.44 46.9363 195.323 45.8187 193.945 45.8187C192.567 45.8187 191.45 46.9363 191.45 48.315C191.45 49.6937 192.567 50.8113 193.945 50.8113Z" fill="#73D5A4" stroke="black" stroke-miterlimit="10"/>
<path d="M202.38 50.8113C203.758 50.8113 204.875 49.6937 204.875 48.315C204.875 46.9363 203.758 45.8187 202.38 45.8187C201.003 45.8187 199.886 46.9363 199.886 48.315C199.886 49.6937 201.003 50.8113 202.38 50.8113Z" fill="#73D5A4" stroke="black" stroke-miterlimit="10"/>
<path d="M210.817 50.8113C212.195 50.8113 213.312 49.6937 213.312 48.315C213.312 46.9363 212.195 45.8187 210.817 45.8187C209.439 45.8187 208.322 46.9363 208.322 48.315C208.322 49.6937 209.439 50.8113 210.817 50.8113Z" fill="#73D5A4" stroke="black" stroke-miterlimit="10"/>
</g>
<defs>
<clipPath id="clip0_200_646">
<rect width="246.449" height="87.1912" fill="white" transform="translate(49.8232)"/>
</clipPath>
<clipPath id="clip1_200_646">
<rect width="246.449" height="87.1912" fill="white" transform="translate(0 33.8088)"/>
</clipPath>
</defs>
</svg>
