<svg width="179" height="28" viewBox="0 0 179 28" fill="none" xmlns="http://www.w3.org/2000/svg">
<path fill-rule="evenodd" clip-rule="evenodd" d="M20.8235 0C29.998 0 37.8197 3.88312 40.5808 9.24782H18.2256L8.74875 24.5101C3.4613 22.0569 0 18.0402 0 13.5135C0 6.06907 9.35746 0 20.8235 0Z" fill="#2E3092"/>
<path fill-rule="evenodd" clip-rule="evenodd" d="M41.461 11.7129C41.5843 12.3019 41.648 12.903 41.648 13.5133C41.648 20.9577 32.2945 27.0268 20.8245 27.0268C19.2529 27.0268 17.7172 26.9114 16.2412 26.6958L21.652 17.2628C22.7938 15.2711 21.2104 13.3311 18.4254 11.7129H41.461Z" fill="#ED1C24"/>
<path fill-rule="evenodd" clip-rule="evenodd" d="M86.5837 4.97034H65.9631C60.5284 4.97034 53.6933 9.1692 52.4441 13.1555L51.5768 15.9092C49.7785 21.6474 54.4811 25.3514 59.2354 25.3514H75.4279C78.006 25.3514 80.8069 22.9529 81.4275 21.025L84.0056 12.9977L69.7705 13.0766L67.7693 15.9092H74.2662C75.3364 15.9092 74.7993 17.5669 74.4492 18.3502L73.2835 20.9461C72.9016 21.7992 71.8791 22.8345 70.7094 22.8345H62.9752C59.7248 22.8345 59.1877 18.25 60.0391 15.8303L61.0058 13.0766C62.0084 10.2197 66.4246 7.5692 70.2598 7.5692H85.7283C86.0148 6.70089 86.3012 5.83561 86.5837 4.97034ZM179.001 4.97034H163.011C157.58 4.97034 150.745 9.1692 149.492 13.1555L148.629 15.9092C146.83 21.6474 151.529 25.3514 156.287 25.3514H172.476L173.351 22.8557H159.951V22.8315C156.8 22.7647 156.255 18.3168 157.067 15.9001H175.42L176.231 13.4409H157.926L158.054 13.0766C159.06 10.2197 163.472 7.5692 167.312 7.5692H178.145C178.432 6.70089 178.714 5.83561 179.001 4.97034ZM149.309 4.97034H133.319C127.889 4.97034 121.053 9.1692 119.8 13.1555L118.937 15.9092C117.139 21.6474 121.837 25.3514 126.596 25.3514H142.788L143.659 22.8557H130.264V22.8315C127.109 22.7647 126.564 18.3168 127.375 15.9001H145.732L146.54 13.4409H128.239L128.366 13.0766C129.369 10.2197 133.781 7.5692 137.62 7.5692H148.454C148.74 6.70089 149.022 5.83561 149.309 4.97034ZM90.7611 4.97034L84.1608 25.2724L92.7225 25.3514L98.2885 7.49026H108.911C110.339 7.49026 111.123 9.32708 110.869 10.4018C110.582 11.6254 108.891 13.5077 106.333 13.5077H98.5192L106.95 25.2724H116.542L109.735 15.9882C114.171 15.4994 118.67 12.94 118.913 9.37565C119.032 7.65421 116.713 4.97034 112.806 4.97034H90.7611Z" fill="#2E3092"/>
</svg>
