<svg width="34" height="34" viewBox="0 0 34 34" fill="none" xmlns="http://www.w3.org/2000/svg">
<path d="M30.6667 17C30.6667 24.5156 24.5155 30.6667 17 30.6667C9.48448 30.6667 3.33334 24.5156 3.33334 17C3.33334 9.48452 9.48448 3.33337 17 3.33337C24.5155 3.33337 30.6667 9.48452 30.6667 17Z" stroke="#00B061"/>
<path d="M24 16.5C24 17.325 23.325 18 22.5 18C21.675 18 21 17.325 21 16.5C21 15.675 21.675 15 22.5 15C23.325 15 24 15.675 24 16.5Z" fill="#00B061"/>
<path d="M13 16.5C13 17.325 12.325 18 11.5 18C10.675 18 10 17.325 10 16.5C10 15.675 10.675 15 11.5 15C12.325 15 13 15.675 13 16.5Z" fill="#00B061"/>
<path d="M20.5417 20.9583H19.125C19.125 22.1625 18.2042 23.0833 17 23.0833C15.7959 23.0833 14.875 22.1625 14.875 20.9583H13.4584C13.4584 22.9417 15.0167 24.5 17 24.5C18.9834 24.5 20.5417 22.9417 20.5417 20.9583Z" fill="#00B061"/>
</svg>
