<svg width="548" height="634" viewBox="0 0 548 634" fill="none" xmlns="http://www.w3.org/2000/svg">
<path opacity="0.55" d="M93.4908 370.849C95.3586 397.156 101.433 468.161 155.685 529.229C221.201 602.987 343.223 646.788 398.644 604.541C455.278 561.367 387.665 470.029 439.708 318.237C483.68 190.013 565.137 158.345 544.491 108.043C520.252 48.9853 383.502 32.9448 283.952 70.729C273.4 74.7355 235.588 89.8492 196.506 124.839C184.629 135.475 83.4103 229.18 93.4908 370.849Z" fill="#00B259"/>
<path d="M93.7905 546.168C114.194 566.457 170.129 620.495 258.544 631.802C365.323 645.462 497.097 593.932 512.353 519.434C527.952 443.309 406.829 416.689 340.742 254.545C284.907 117.567 329.179 33.0871 276.124 6.53839C213.83 -24.63 89.8695 60.2775 35.1181 162.751C29.315 173.616 9.05414 213.168 2.02486 269.972C-0.113863 287.239 -16.1258 436.907 93.7905 546.182V546.168Z" fill="#00B061"/>
<path d="M99.6951 266.78H79.8911L73.6786 276.613H70.4972L93.9952 240.519H95.8951L105.333 276.613H102.152L99.6863 266.78H99.6951ZM81.5348 264.276H99.1295L94.1012 244.514L81.5348 264.276Z" fill="white"/>
<path d="M141.768 249.011L122.883 276.604H121.345L113.083 249.011H116.264L123.033 271.842L138.578 249.011H141.759H141.768Z" fill="white"/>
<path d="M172.195 249.011L166.804 276.604H163.932L164.551 273.535C161.369 275.687 157.569 276.763 153.053 276.763C146.284 276.763 141.768 272.106 141.768 265.651C141.768 256.18 150.181 248.446 159.063 248.446C163.066 248.446 166.601 249.778 168.713 251.877L169.278 249.011H172.203H172.195ZM168.138 254.849C166.238 252.494 162.801 251.163 158.904 251.163C151.259 251.163 144.693 258.076 144.693 265.29C144.693 270.413 148.591 274.144 154.441 274.144C158.541 274.144 162.288 272.812 165.116 270.563L168.147 254.849H168.138Z" fill="white"/>
<path d="M201.084 276.613H197.797L190.975 261.763L179.221 270.978L178.143 276.613H175.218L180.556 249.02H183.481L179.937 267.098L202.719 249.02H206.413L193.378 259.567L201.075 276.613H201.084Z" fill="white"/>
<path d="M233.409 265.396C231.969 272.662 225.146 276.816 218.474 276.816C213.084 276.816 207.852 273.694 207.852 267.653C207.852 266.939 207.905 266.172 208.055 265.405L211.237 249.02H214.162L211.087 264.99C210.936 265.652 210.83 266.472 210.83 267.142C210.83 271.957 214.727 274.206 219.146 274.206C224.837 274.206 229.406 270.625 230.537 264.99L233.665 249.02H236.591L233.409 265.405V265.396Z" fill="white"/>
<path d="M264.862 276.613H261.574L254.752 261.763L242.999 270.978L241.921 276.613H238.996L244.333 249.02H247.258L243.715 267.098L266.497 249.02H270.191L257.156 259.567L264.853 276.613H264.862Z" fill="white"/>
<path d="M296.471 276.613H293.343L288.73 250.757L286.83 252.141L271.082 276.613H267.901C268.104 276.613 285.805 249.117 285.805 249.117L288.217 247.423C287.448 242.512 282.827 240.157 278.311 240.157C277.904 240.157 277.489 240.21 277.082 240.21L277.542 237.75C277.745 237.75 278.364 237.697 278.876 237.697C284.523 237.697 289.702 240.466 290.78 246.145L296.471 276.613Z" fill="white"/>
<path d="M333.88 248.552C339.677 249.011 343.83 252.856 343.83 259.205C343.83 268.42 337.83 276.816 328.692 276.816C324.742 276.816 322.126 274.153 321.455 270.828C319.457 274.205 315.808 276.763 312.016 276.763C305.804 276.763 302.269 273.13 302.269 266.833C302.269 257.106 308.632 249.372 317.814 248.552L317.451 251.268C309.648 252.547 305.185 258.896 305.185 266.322C305.185 271.189 307.801 274.153 312.626 274.153C316.523 274.153 320.217 270.211 320.986 266.366L322.321 259.558H325.087C323.699 266.727 323.549 267.6 323.549 268.156C323.549 271.383 325.758 274.144 329.09 274.144C336.584 274.144 340.843 266.154 340.843 259.858C340.843 254.893 337.768 251.771 333.199 251.26L333.862 248.544L333.88 248.552ZM327.623 245.783H325.21L335.011 237.485L338.298 237.794L327.623 245.783Z" fill="white"/>
<path d="M377.085 249.011L358.2 276.604H356.662L348.399 249.011H351.58L358.35 271.842L373.894 249.011H377.076H377.085Z" fill="white"/>
<path d="M409.358 248.552C415.155 249.011 419.308 252.856 419.308 259.205C419.308 268.421 413.308 276.816 404.17 276.816C400.22 276.816 397.604 274.153 396.933 270.828C394.935 274.205 391.286 276.763 387.495 276.763C381.282 276.763 377.747 273.13 377.747 266.833C377.747 257.106 384.11 249.373 393.292 248.552L392.929 251.268C385.126 252.547 380.663 258.897 380.663 266.322C380.663 271.19 383.279 274.153 388.104 274.153C392.001 274.153 395.695 270.211 396.464 266.366L397.799 259.558H400.565C399.177 266.727 399.027 267.6 399.027 268.156C399.027 271.384 401.236 274.144 404.568 274.144C412.062 274.144 416.312 266.154 416.312 259.858C416.312 254.893 413.237 251.771 408.668 251.26L409.331 248.544L409.358 248.552Z" fill="white"/>
<path d="M144.066 302.23V338.254H134.76V335.6C131.835 337.593 128.247 338.783 124.253 338.783C114.214 338.783 105.969 331.287 105.969 320.141C105.969 308.994 114.214 301.499 124.253 301.499C128.044 301.499 131.764 302.689 134.76 304.479V302.222H144.066V302.23ZM134.76 312.98C132.569 311.058 129.378 309.858 125.914 309.858C119.666 309.858 115.142 314.303 115.142 320.141C115.142 326.314 119.666 330.494 125.914 330.494C129.44 330.494 132.56 329.365 134.76 327.443V312.98Z" fill="white"/>
<path d="M187.739 338.245H177.77L169.26 313.033L168.394 313.826L159.557 338.236H149.589L164.479 302.68L165.61 301.683C163.816 297.503 160.096 295.052 155.836 295.052C154.97 295.052 153.176 295.255 153.176 295.255V288.094C153.176 288.094 155.041 287.759 156.234 287.759C163.949 287.759 170.329 292.001 173.184 299.699L187.739 338.245Z" fill="white"/>
<path d="M227.894 338.245H217.926L209.416 313.033L208.55 313.826L199.713 338.236H189.745L204.635 302.68L205.766 301.683C203.972 297.503 200.252 295.052 195.992 295.052C195.126 295.052 193.332 295.255 193.332 295.255V288.094C193.332 288.094 195.197 287.759 196.39 287.759C204.105 287.759 210.485 292.001 213.34 299.699L227.894 338.245Z" fill="white"/>
<path d="M267.839 302.23V338.254H258.534V335.6C255.609 337.593 252.021 338.783 248.026 338.783C237.987 338.783 229.742 331.287 229.742 320.141C229.742 308.994 237.987 301.499 248.026 301.499C251.818 301.499 255.538 302.689 258.534 304.479V302.222H267.839V302.23ZM258.534 312.98C256.342 311.058 253.152 309.858 249.688 309.858C243.44 309.858 238.915 314.303 238.915 320.141C238.915 326.314 243.44 330.494 249.688 330.494C253.214 330.494 256.333 329.365 258.534 327.443V312.98ZM250.156 298.853H244.377L252.684 287.177L262.652 287.971L250.156 298.853Z" fill="white"/>
<path d="M307.863 293.933C299.353 300.106 283.596 313.898 283.596 323.316C283.596 331.87 306.528 326.764 306.528 338.775C306.528 347.399 293.829 350.583 294.033 350.521L290.904 345.68C294.165 343.687 297.02 341.703 297.02 339.842C297.02 337.717 293.167 337.32 291.77 336.985C283.994 335.194 274.087 332.937 274.087 324.118C274.087 314.7 285.257 302.76 295.561 295.855H276.279V288.227H307.854V293.933H307.863Z" fill="white"/>
<path d="M346.551 301.56C356.122 301.825 363.837 308.721 363.837 320.203C363.837 331.684 357.916 338.774 348.018 338.774C342.168 338.774 338.775 335.591 337.184 331.676C335.593 335.591 332.2 338.774 326.35 338.774C316.443 338.774 310.531 331.614 310.531 320.203C310.531 308.791 318.246 301.825 327.817 301.56V310.053C323.097 310.978 319.704 314.762 319.704 320.203C319.704 326.57 322.099 330.485 326.95 330.485C331.334 330.485 332.863 325.838 332.863 321.993V315.688H341.567V321.993C341.567 325.838 343.034 330.485 347.417 330.485C352.269 330.485 354.734 326.57 354.734 320.203C354.734 314.762 351.279 310.978 346.489 310.053L346.56 301.56H346.551Z" fill="white"/>
<path d="M124.456 368.625H116.874C120.859 371.28 122.856 374.525 122.856 379.772C122.856 389.128 114.346 397.55 103.441 397.55C92.5362 397.55 83.6991 389.261 83.6991 378.978C83.6991 368.696 92.6069 360.997 103.441 360.997H124.447V368.625H124.456ZM114.152 378.969C114.152 373.396 109.362 368.819 103.45 368.819C97.5381 368.819 92.8102 373.396 92.8102 378.969C92.8102 384.543 97.5999 389.252 103.45 389.252C109.3 389.252 114.152 384.604 114.152 378.969Z" fill="white"/>
<path d="M164.003 382.488C164.003 392.038 155.758 397.55 146.85 397.55C138.605 397.55 129.768 392.444 129.768 382.488V360.997H139.012V380.566C139.012 386.068 141.407 389.525 146.859 389.525C152.639 389.525 154.706 385.68 154.706 380.566V360.997H164.012V382.488H164.003Z" fill="white"/>
<path d="M210.743 368.625H203.16C207.146 371.28 209.143 374.525 209.143 379.772C209.143 389.128 200.633 397.55 189.728 397.55C178.823 397.55 169.986 389.261 169.986 378.978C169.986 368.696 178.893 360.997 189.728 360.997H210.734V368.625H210.743ZM200.438 378.969C200.438 373.396 195.649 368.819 189.737 368.819C183.825 368.819 179.097 373.396 179.097 378.969C179.097 384.543 183.886 389.252 189.737 389.252C195.587 389.252 200.438 384.604 200.438 378.969Z" fill="white"/>
<path d="M252.285 397.021H242.052L232.808 382.294L225.827 388.996V397.021H216.583V360.997H225.827V376.456L241.248 360.997H252.082L238.923 375.063L252.285 397.021Z" fill="white"/>
<path d="M289.313 392.841C283.595 395.689 279.079 397.55 271.965 397.55C262.13 397.55 255.21 394.896 255.21 387.003C255.21 382.761 257.667 379.904 262.059 378.581C258.604 376.924 256.545 374.066 256.545 370.821C256.545 362.593 263.19 360.336 272.637 360.336C278.682 360.336 283.94 362.329 288.659 364.578L285.071 370.345C281.015 368.617 277.294 367.558 273.901 367.558C268.917 367.558 265.391 368.819 265.391 371.871C265.391 373.396 266.584 375.848 271.842 375.848H279.291V381.553H270.313C265.726 381.553 264.259 384.075 264.259 385.998C264.259 388.388 267.052 390.178 272.301 390.178C277.55 390.178 280.679 388.987 285.663 386.73L289.322 392.832L289.313 392.841Z" fill="white"/>
<path d="M329.195 382.488C329.195 392.038 320.95 397.55 312.042 397.55C303.797 397.55 294.96 392.444 294.96 382.488V360.997H304.204V380.566C304.204 386.068 306.598 389.525 312.051 389.525C317.83 389.525 319.898 385.68 319.898 380.566V360.997H329.204V382.488H329.195Z" fill="white"/>
<path d="M371.339 376.924V397.021H362.095V376.924C362.095 371.35 359.373 368.634 354.248 368.634C350.987 368.634 348.336 369.692 346.268 371.483V397.021H337.024V360.997H346.268V363.255C348.928 361.394 352.251 360.336 355.909 360.336C366.478 360.336 371.33 365.248 371.33 376.924H371.339ZM355.918 357.62H350.139L358.445 345.944L368.414 346.738L355.918 357.62Z" fill="white"/>
<path d="M389.624 392.18C389.624 395.16 387.3 397.55 384.375 397.55C381.45 397.55 379.126 395.16 379.126 392.18C379.126 389.199 381.45 386.809 384.375 386.809C387.3 386.809 389.624 389.199 389.624 392.18ZM381.114 381.368L379.585 350.318H389.156L387.556 381.368H381.105H381.114Z" fill="white"/>
</svg>
