<svg width="110" height="55" viewBox="0 0 110 55" fill="none" xmlns="http://www.w3.org/2000/svg">
<g clip-path="url(#clip0_200_1378)">
<path d="M109.146 0.658691H55.3701V54.3172H109.146V0.658691Z" fill="#634E42"/>
<path d="M59.3526 19.0284C59.4659 19.2106 59.5793 19.3929 59.7002 19.5752C59.806 19.7422 59.9268 19.9093 60.0251 20.0688V21.1699C60.0251 21.5344 60.0024 21.7926 59.9571 21.9445L59.9268 22.0508H60.6824L60.6522 21.952C60.6296 21.8078 60.5993 21.5724 60.5918 21.1699V20.0688C60.6824 19.9093 60.7807 19.7574 60.894 19.6131C60.9998 19.4537 61.0905 19.3018 61.1963 19.1423C61.5741 18.6107 61.7932 18.307 61.9141 18.1627L62.0501 18.026H61.166V18.1019C61.1585 18.1703 61.1131 18.3146 60.962 18.5728L60.3424 19.5448L59.7153 18.5576C59.549 18.2842 59.5339 18.1551 59.5339 18.1171V18.026H58.4912L58.6952 18.1779C58.6952 18.1779 58.8917 18.3449 59.3526 19.036V19.0284Z" fill="white"/>
<path d="M68.1702 22.1115C68.7294 22.1115 69.1676 21.9141 69.5379 21.4964C69.8779 21.1167 70.0592 20.6383 70.0592 20.0915C70.0592 19.4992 69.9006 19.0056 69.5908 18.6107C69.2583 18.1779 68.7672 17.9576 68.1702 17.9576C67.5733 17.9576 67.0897 18.1779 66.7422 18.6107C66.4399 19.0132 66.2812 19.4992 66.2812 20.0915C66.2812 20.6459 66.455 21.1167 66.7875 21.4964C67.1275 21.9141 67.596 22.1115 68.1778 22.1115H68.1702ZM68.1702 18.5272C68.5934 18.5272 68.9107 18.6715 69.1374 18.9676C69.349 19.2562 69.4472 19.6207 69.4472 20.0991C69.4472 20.494 69.3339 20.8433 69.1147 21.1243C68.873 21.4129 68.5632 21.5647 68.1702 21.5647C67.7773 21.5647 67.4751 21.4129 67.2333 21.1091C66.9764 20.8357 66.8857 20.494 66.8857 20.1067C66.8857 19.6815 66.9764 19.317 67.2031 19.0132C67.4449 18.6791 67.7622 18.5272 68.1702 18.5272Z" fill="white"/>
<path d="M77.2373 21.952L77.207 22.0507H77.9626V21.952C77.9022 21.8229 77.8795 21.6634 77.8795 21.4812C77.8644 21.2989 77.8644 20.8433 77.8644 20.0991V18.5499H79.1111C79.3605 18.5499 79.4209 18.5803 79.4209 18.5803C79.4285 18.5955 79.4663 18.6486 79.4738 18.7625V18.8385H79.9272V18.7625C79.9121 18.4816 79.9045 18.2613 79.9272 18.0943V18.0107H79.8592C79.2849 18.0411 78.892 18.0487 78.5671 18.0411C78.0155 18.0411 77.5697 18.0259 77.3279 18.0107H77.2146L77.2448 18.1171C77.2826 18.2386 77.3053 18.922 77.3053 20.1067V21.223C77.3053 21.5951 77.2826 21.8305 77.2448 21.9596L77.2373 21.952Z" fill="white"/>
<path d="M61.7549 35.0818V34.9907H61.1958V35.0742C61.1807 35.3248 61.1731 35.4691 61.1051 35.621L60.3571 34.6794C60.8029 34.406 61.0069 34.1022 61.0069 33.6618C61.0069 33.1758 60.6064 32.7809 60.1077 32.7809C59.5637 32.7809 59.1708 33.1758 59.1708 33.6997C59.1708 34.0035 59.3143 34.2085 59.541 34.5351C59.0121 34.8388 58.7401 35.2565 58.725 35.7501C58.7099 36.107 58.8232 36.426 59.0499 36.6538C59.2766 36.8816 59.609 37.0183 60.017 37.0183C60.4251 37.0183 60.886 36.8436 61.158 36.5551L61.4754 36.9423H62.2083L61.5056 36.0766C61.6416 35.8109 61.7247 35.4843 61.7549 35.0742V35.0818ZM60.1077 33.2897C60.3646 33.2897 60.4628 33.5403 60.4628 33.7073C60.4628 33.9579 60.3268 34.163 60.0548 34.2921C59.8281 34.0339 59.7224 33.92 59.7224 33.6846C59.7224 33.4719 59.9037 33.2897 60.1077 33.2897ZM59.8584 34.9451L60.7878 36.1298C60.5989 36.3348 60.2966 36.4867 60.0322 36.4867C59.6317 36.4867 59.3295 36.2285 59.2992 35.8336C59.2766 35.4463 59.4579 35.1654 59.8584 34.9451Z" fill="white"/>
<path d="M90.8613 26.3185V28.627C90.8613 29.0219 90.8613 29.2573 90.8084 29.4016L90.7782 29.5079H91.4809V29.4016C91.4431 29.2725 91.4053 29.0295 91.3978 28.627V26.3488C91.6018 26.6526 91.9418 27.1766 92.5085 28.0043C92.7503 28.346 93.0072 28.7181 93.3019 29.1434L93.5588 29.5003H94.0348V26.3185C94.0348 25.9388 94.0575 25.7034 94.0877 25.5895L94.1179 25.4831H93.385L93.4152 25.5895C93.453 25.7337 93.4606 25.9767 93.4757 26.3261V26.6222C93.4606 26.8045 93.4606 27.1082 93.4606 27.5031V28.4675C93.2717 28.1258 92.9241 27.5942 92.4632 26.8956C92.1836 26.5083 91.8662 26.0679 91.4658 25.5135L91.3827 25.4148L91.3373 25.4831H90.6875L90.7404 25.6046C90.7933 25.7034 90.8462 25.9464 90.8462 26.3261L90.8613 26.3185Z" fill="white"/>
<path d="M71.3213 25.4756L71.3515 25.5667C71.3817 25.7034 71.4044 25.8781 71.412 26.0755V28.6422C71.412 29.0068 71.3893 29.2574 71.3515 29.4092L71.3213 29.508H72.8552C73.1876 29.508 73.4672 29.4396 73.7014 29.3029C74.0414 29.0903 74.2077 28.7789 74.2077 28.3613C74.2077 28.1031 74.0943 27.8525 73.8903 27.6626C73.7845 27.5487 73.6561 27.4728 73.5428 27.4196C73.6561 27.3437 73.7619 27.2829 73.845 27.1766C74.0188 27.002 74.0943 26.7969 74.0943 26.5463C74.0943 25.8325 73.6788 25.4756 72.8552 25.4756H71.3213ZM73.2178 27.1007C73.0894 27.1538 72.9458 27.1918 72.8098 27.1918H71.9409V25.9388H72.8098C72.9534 25.9388 73.1045 25.9616 73.2405 26.0148C73.4672 26.1135 73.5805 26.2957 73.5805 26.5463C73.5805 26.7969 73.4672 26.9868 73.2178 27.1007ZM71.9409 27.6323H72.772C72.908 27.6323 73.0667 27.6854 73.233 27.7689C73.4974 27.898 73.6334 28.0879 73.641 28.3613C73.641 28.5587 73.5956 28.6954 73.4899 28.7941C73.3614 28.9308 73.1423 28.9992 72.8249 28.9992H71.9409V27.6247V27.6323Z" fill="white"/>
<path d="M83.8191 22.0507H84.5369V21.952C84.4991 21.8077 84.4689 21.5723 84.4613 21.1699V18.9145C84.4613 18.512 84.4916 18.2766 84.5369 18.1323L84.5596 18.0336H83.8115L83.8266 18.1323C83.8569 18.269 83.872 18.4209 83.9098 18.6183C83.9098 18.8157 83.9098 19.6511 83.9098 21.1699C83.9098 21.5344 83.8644 21.7926 83.8266 21.9444L83.8115 22.0507H83.8191Z" fill="white"/>
<path d="M87.0755 22.1115C87.6196 22.1115 88.088 21.9141 88.4583 21.4964C88.7832 21.1167 88.957 20.6383 88.957 20.0915C88.957 19.4992 88.8134 19.0056 88.4961 18.6107C88.156 18.1779 87.6725 17.9576 87.068 17.9576C86.4635 17.9576 85.9875 18.1779 85.6474 18.6107C85.3301 19.0132 85.1865 19.4992 85.1865 20.0915C85.1865 20.6459 85.3528 21.1167 85.7003 21.4964C86.0328 21.9141 86.5013 22.1115 87.068 22.1115H87.0755ZM87.0755 18.5272C87.5138 18.5272 87.816 18.6715 88.0502 18.9676C88.2618 19.2562 88.3676 19.6207 88.3676 20.0991C88.3676 20.494 88.2467 20.8433 88.02 21.1243C87.7782 21.4129 87.4609 21.5647 87.0831 21.5647C86.7053 21.5647 86.3879 21.4129 86.1386 21.1091C85.9119 20.8357 85.791 20.494 85.791 20.1067C85.791 19.6815 85.9119 19.317 86.1235 19.0132C86.3804 18.6791 86.6826 18.5272 87.0831 18.5272H87.0755Z" fill="white"/>
<path d="M74.0417 21.952L74.019 22.0584H74.7671L74.7444 21.952C74.6991 21.823 74.6764 21.6179 74.6764 21.3293C74.6764 20.7978 74.6764 20.6307 74.6764 20.5168C74.6764 20.4788 74.6764 20.4485 74.6764 20.4029C74.9257 20.4029 75.3338 20.4029 75.4622 20.3953C75.7342 20.3725 75.976 20.289 76.2103 20.1295C76.5276 19.9245 76.6863 19.5979 76.6863 19.1879C76.6863 18.7778 76.5276 18.4513 76.1876 18.2462C75.9534 18.0943 75.7191 18.026 75.4622 18.026H74.0039L74.0266 18.1323C74.0644 18.269 74.087 18.512 74.087 18.9297V21.2078C74.087 21.5799 74.0719 21.8305 74.0266 21.952H74.0417ZM75.4622 18.5652C75.5227 18.5652 75.5907 18.5804 75.6738 18.5879C75.7947 18.6259 75.8853 18.6715 75.9609 18.7626C76.0591 18.8537 76.1196 19.0056 76.1196 19.1879C76.1196 19.5903 75.8929 19.803 75.4622 19.8713C75.432 19.8713 75.3262 19.8713 74.956 19.8713H74.6915V18.5348C75.0995 18.5348 75.3489 18.5348 75.4622 18.5652Z" fill="white"/>
<path d="M70.4373 25.5896L70.4675 25.4908H69.7195L69.7421 25.5896C69.7799 25.7339 69.7875 25.8857 69.8026 26.0832C69.8026 26.2654 69.8026 27.1008 69.8026 28.6271C69.8026 28.9916 69.7724 29.2574 69.7346 29.4017L69.7119 29.508H70.46L70.4297 29.4017C70.3995 29.2574 70.3768 29.0144 70.3542 28.6271V26.3565C70.3768 25.9693 70.3995 25.7339 70.4297 25.5896H70.4373Z" fill="white"/>
<path d="M60.6744 25.4604C59.6317 25.4604 59.0574 25.4452 58.8912 25.4148L58.793 25.3997V26.0603L58.8912 26.0375C58.9819 26.0148 59.0801 25.9996 59.2161 25.9844V27.5563C59.2161 28.2929 59.2161 28.741 59.1859 28.9308C59.1859 29.1131 59.1708 29.265 59.1254 29.4092L59.1028 29.508H59.881L59.8433 29.4092C59.7828 29.2194 59.7601 28.6119 59.7601 27.5563V25.9692H61.5282V27.5563C61.5282 28.6119 61.4905 29.2194 61.4451 29.4092L61.4149 29.508H62.1932L62.1705 29.4092C62.1252 29.265 62.1025 29.1131 62.1025 28.9308C62.0874 28.741 62.0874 28.2929 62.0874 27.5563V25.9844C62.2007 25.9996 62.3141 26.0148 62.4198 26.0375L62.5105 26.0603V25.3997L62.4198 25.4148C62.2309 25.4452 61.6945 25.4604 60.6517 25.4604H60.6744Z" fill="white"/>
<path d="M70.9883 19.0284C71.0866 19.2106 71.2226 19.3777 71.3284 19.5676C71.4493 19.7346 71.5626 19.9017 71.6684 20.0688V21.1699C71.6684 21.5344 71.6457 21.7926 71.6079 21.9445L71.5702 22.0508H72.3333L72.3031 21.952C72.2729 21.8078 72.2502 21.5724 72.2351 21.1699V20.6079C72.2351 20.4257 72.2351 20.251 72.2275 20.0688C72.3333 19.9245 72.4391 19.7574 72.5298 19.6131C72.6355 19.4612 72.7413 19.3018 72.8396 19.1423C73.2174 18.6107 73.444 18.307 73.5649 18.1627L73.6934 18.026H72.8018V18.1019C72.8018 18.1703 72.764 18.3146 72.5978 18.5728L71.9857 19.5448L71.3586 18.5576C71.1999 18.2842 71.1697 18.1551 71.1697 18.1171L71.1999 18.026H70.127L70.3385 18.1779C70.3763 18.2083 70.5425 18.3677 70.9883 19.036V19.0284Z" fill="white"/>
<path d="M80.4639 22.0963H80.5697C81.1364 22.0659 81.567 22.0507 81.8239 22.0507C82.2471 22.0507 82.6627 22.0659 83.1085 22.0735L83.2067 22.0887L83.1916 21.99C83.1765 21.8533 83.1765 21.6331 83.1916 21.3369V21.2458H82.7307V21.3141C82.7156 21.4204 82.7004 21.466 82.7004 21.4812C82.7004 21.4812 82.6551 21.5192 82.3529 21.5192H81.1288C81.1212 21.0407 81.1212 20.6079 81.1288 20.1978H81.4386C82.1942 20.1978 82.4738 20.2358 82.5644 20.2586L82.6929 20.3041V19.5295L82.5644 19.5827C82.4964 19.6055 82.2244 19.6662 81.1288 19.6662C81.1212 19.2714 81.1212 18.9144 81.1288 18.5575H82.1942C82.4435 18.5575 82.5191 18.5727 82.5418 18.5803L82.5569 18.6031V18.6183H82.5644V18.7626H83.048L83.0329 18.6714C83.0178 18.4436 83.0178 18.231 83.0329 18.1019L83.048 18.0032H82.9498C82.368 18.0411 81.9826 18.0411 81.6728 18.0411C81.227 18.0335 80.8568 18.0184 80.5772 18.0032H80.4714L80.5016 18.1095C80.5545 18.2993 80.5545 19.5523 80.5545 19.9624C80.5545 20.418 80.5545 21.8001 80.5016 21.9976L80.4714 22.1039L80.4639 22.0963Z" fill="white"/>
<path d="M86.5916 33.0316L86.6143 32.9404H85.8662L85.8813 33.0316C85.9267 33.1682 85.9569 33.3201 85.9569 33.5176C85.972 33.7074 85.972 34.5427 85.972 36.0691C85.9569 36.426 85.9267 36.6842 85.8889 36.8437L85.8738 36.95H86.6218L86.5916 36.8437C86.5614 36.6994 86.5463 36.4488 86.5387 36.0615V33.7985C86.5463 33.4037 86.5614 33.1758 86.5991 33.024L86.5916 33.0316Z" fill="white"/>
<path d="M89.9926 34.7478C89.8037 34.239 89.5695 33.6315 89.3126 32.9101L89.2975 32.8645H88.7534L88.7232 32.9101C87.9072 35.1199 87.3858 36.4336 87.1818 36.8285L87.1289 36.95H87.8165L87.8392 36.8817C87.8694 36.7678 87.9601 36.4716 88.2623 35.6667H89.7131C89.9549 36.3805 90.0909 36.7602 90.1211 36.8817V36.95H90.9145L90.8313 36.8285C90.7936 36.745 90.6198 36.3577 90.0077 34.7478H89.9926ZM89.5242 35.1503H88.4437C88.7157 34.4137 88.8895 33.9352 89.0104 33.6087C89.1615 34.1099 89.3353 34.6263 89.5242 35.1503Z" fill="white"/>
<path d="M89.5845 28.946C89.917 28.5587 90.0832 28.0803 90.0832 27.526C90.0832 26.9412 89.9396 26.44 89.6374 26.0451C89.2898 25.6199 88.8214 25.3997 88.2018 25.3997C87.5822 25.3997 87.1364 25.6275 86.7888 26.0451C86.479 26.44 86.3203 26.9412 86.3203 27.526C86.3203 28.1107 86.479 28.5663 86.819 28.946C87.1741 29.3637 87.6426 29.5611 88.2093 29.5611C88.776 29.5611 89.2218 29.3637 89.5921 28.946H89.5845ZM88.2018 25.9692C88.6325 25.9692 88.9498 26.1059 89.1689 26.4021C89.3729 26.683 89.4863 27.0551 89.4863 27.526C89.4863 27.936 89.3805 28.2777 89.1538 28.5587C88.912 28.8473 88.5947 29.0068 88.2018 29.0068C87.8088 29.0068 87.5142 28.8473 87.2799 28.5511C87.0306 28.2702 86.9172 27.9284 86.9172 27.5487C86.9172 27.1311 87.023 26.7666 87.2497 26.4628C87.4915 26.1287 87.8013 25.9768 88.2018 25.9768V25.9692Z" fill="white"/>
<path d="M85.9726 29.3865C85.8895 29.2498 85.6174 28.5436 85.1641 27.2982C84.9676 26.7894 84.7561 26.1667 84.4916 25.4756L84.4689 25.4225H83.9325L83.8871 25.4756C83.1089 27.6703 82.595 28.9992 82.391 29.3941L82.3457 29.508H83.0106L83.0333 29.4473C83.056 29.265 83.3053 28.6043 83.5622 27.9133C83.8645 27.0931 84.0609 26.5008 84.1894 26.1591C84.3556 26.5919 84.4992 27.04 84.6352 27.4728L84.7863 27.8981C85.0734 28.6879 85.2472 29.2574 85.2925 29.4473L85.3077 29.508H86.0406L85.9726 29.3941V29.3865Z" fill="white"/>
<path d="M98.1295 25.4756H94.4648V25.5667C94.4875 25.711 94.4875 25.9237 94.4724 26.1743V26.2654H94.9333L94.9484 26.1894C94.9484 26.0831 94.9635 26.0224 94.9711 26.0148C95.0089 25.9844 95.0618 25.9616 95.3111 25.9616H96.0138V28.6726C96.0063 29.0068 95.9685 29.2498 95.9383 29.3941L95.8929 29.5004H96.6636L96.641 29.3941C96.6032 29.265 96.5805 29.0599 96.5805 28.7106V25.9616H97.2832C97.525 25.9616 97.6006 25.992 97.6308 26.0072C97.6384 26.03 97.6459 26.0831 97.6459 26.1894V26.2654H98.1371V26.1818C98.1068 25.8933 98.1068 25.6882 98.1295 25.5591V25.468V25.4756Z" fill="white"/>
<path d="M100.132 25.3997C99.5428 25.3997 99.0592 25.6275 98.7192 26.0451C98.4094 26.44 98.2432 26.9412 98.2432 27.526C98.2432 28.1107 98.4169 28.5663 98.7419 28.946C99.0894 29.3637 99.5579 29.5611 100.132 29.5611C100.706 29.5611 101.145 29.3637 101.507 28.946C101.847 28.5587 102.014 28.0879 102.014 27.526C102.014 26.964 101.862 26.44 101.56 26.0451C101.205 25.6199 100.737 25.3997 100.125 25.3997H100.132ZM100.132 29.0068C99.7544 29.0068 99.437 28.8473 99.2028 28.5511C98.961 28.2702 98.8476 27.9284 98.8476 27.5487C98.8476 27.1311 98.961 26.7666 99.1801 26.4628C99.4143 26.1287 99.7241 25.9768 100.117 25.9768C100.548 25.9768 100.873 26.1135 101.099 26.4096C101.303 26.6906 101.409 27.0627 101.409 27.5335C101.409 27.9436 101.303 28.2853 101.069 28.5663C100.842 28.8549 100.518 29.0144 100.125 29.0144L100.132 29.0068Z" fill="white"/>
<path d="M93.9587 36.2134C93.9587 36.2134 93.9587 36.3197 93.9134 36.3501C93.9134 36.3501 93.8756 36.4032 93.6414 36.4032H92.0849L93.7698 34.9148L92.1226 33.4492H93.4903C93.7698 33.4492 93.8303 33.4644 93.8303 33.4644C93.8454 33.4644 93.8454 33.4872 93.8454 33.5023L93.8605 33.5175V33.5403C93.8605 33.5403 93.8605 33.5555 93.8756 33.5859V33.6542H94.3517L94.3365 33.5707C94.3214 33.2821 94.3214 33.0771 94.3365 32.986L94.3592 32.8796L94.2534 32.8948C93.9361 32.91 93.3014 32.9328 92.4324 32.9328C92.1075 32.9328 91.76 32.9176 91.3595 32.91H91.2764V33.4036L91.3141 33.4416C92.2964 34.3301 92.7951 34.7933 92.9538 34.9376C92.848 35.0287 92.644 35.2262 92.1831 35.6362L92.1529 35.659C91.7826 35.9931 91.5408 36.221 91.4048 36.3349C91.3746 36.3804 91.3519 36.3956 91.3293 36.4032L91.3066 36.426L91.3519 36.4791L91.2764 36.4943V36.9424H92.6969C93.0294 36.9272 93.5583 36.9424 94.3139 36.9424L94.397 36.9576L94.3819 36.8437C94.3517 36.707 94.3517 36.5019 94.397 36.221L94.4197 36.1222H93.9436V36.1982L93.9587 36.2134Z" fill="white"/>
<path d="M105.685 28.6954H105.202V28.7713C105.202 28.7713 105.187 28.8777 105.164 28.9156C105.164 28.9156 105.126 28.9536 104.892 28.9536H103.343L105.021 27.4804L103.388 26.0148H104.749C105.021 26.0148 105.089 26.0224 105.089 26.0224C105.104 26.0375 105.111 26.0375 105.119 26.0451V26.0755C105.119 26.0755 105.119 26.1287 105.119 26.1439V26.2122H105.595L105.58 26.1287C105.565 25.8325 105.565 25.6351 105.58 25.5439L105.595 25.4376H105.504C105.187 25.4604 104.567 25.468 103.668 25.468H102.52V25.9616L102.55 25.9768C103.479 26.8349 104.023 27.3209 104.189 27.488C104.099 27.5791 103.865 27.7765 103.396 28.1942C103.033 28.5435 102.784 28.7713 102.656 28.8853C102.618 28.9156 102.603 28.9384 102.572 28.946L102.557 28.9688L102.61 29.0295L102.527 29.0523V29.4928H102.61C103.23 29.4928 103.683 29.4928 103.955 29.4928C104.288 29.4928 104.817 29.4928 105.557 29.5155H105.655L105.64 29.4244C105.61 29.2725 105.61 29.0599 105.655 28.7789L105.67 28.6878L105.685 28.6954Z" fill="white"/>
<path d="M85.2397 36.2362V36.1602H84.7788V36.221C84.7485 36.3273 84.7334 36.3577 84.7334 36.388C84.7334 36.388 84.6881 36.4184 84.4085 36.4184H83.1693V35.1047C83.2902 35.1047 83.3885 35.0895 83.4943 35.0895C84.2423 35.0895 84.5294 35.1426 84.6277 35.173L84.7334 35.2186V34.444L84.6201 34.4896C84.5596 34.5123 84.2801 34.5731 83.1693 34.5731V33.472H84.2574C84.5068 33.472 84.5748 33.472 84.605 33.4948V33.5251V33.5479L84.6201 33.677H85.0961V33.5935C85.0735 33.3429 85.0735 33.153 85.0961 33.0012V32.91H85.0055C84.4236 32.9404 84.0383 32.948 83.7285 32.948C83.2827 32.948 82.9124 32.9176 82.6329 32.91H82.5195L82.5422 33.0088C82.5875 33.1303 82.6102 33.7681 82.6102 34.8617C82.6102 35.3173 82.6102 36.6918 82.5422 36.8892L82.5195 36.9956H82.6329C83.1996 36.9652 83.6303 36.9576 83.8872 36.9576C84.3027 36.9576 84.7108 36.9576 85.1717 36.9804H85.2699L85.2548 36.8968C85.2321 36.7601 85.2321 36.5475 85.2548 36.2438L85.2397 36.2362Z" fill="white"/>
<path d="M62.6466 21.4888C62.6466 21.6634 62.6239 21.8305 62.5786 21.9596L62.5559 22.0583H63.3266L63.2964 21.9596C63.251 21.7698 63.2284 21.1698 63.2284 20.1067V18.5272H64.9965V20.1067C64.9965 21.1622 64.9738 21.7698 64.9134 21.9596L64.8907 22.0583H65.6538L65.6312 21.9596C65.601 21.8305 65.5783 21.671 65.5707 21.4888C65.5556 21.3065 65.5556 20.8509 65.5556 20.1067V18.5423C65.6916 18.5575 65.7823 18.5727 65.8805 18.5879L65.9863 18.6183V17.9652L65.8805 17.9956C65.6992 18.0184 65.1627 18.026 64.1427 18.026C63.1226 18.026 62.5181 18.0184 62.3292 17.9956L62.2461 17.9652V18.6183L62.3443 18.5879C62.4426 18.5727 62.5332 18.5575 62.6541 18.5423V21.4888H62.6466Z" fill="white"/>
<path d="M71.1627 33.024C71.2005 33.1683 71.2232 33.4113 71.2307 33.7758C71.2232 33.8289 71.2232 33.9276 71.2232 34.0567V35.9173C71.0192 35.5679 70.6792 35.0288 70.2031 34.3301C69.916 33.9504 69.6138 33.51 69.2057 32.9556L69.1377 32.8645L69.0924 32.9404C69.0168 32.9404 68.8355 32.9404 68.5484 32.9177H68.4199L68.4955 33.0468C68.5408 33.1455 68.571 33.3885 68.5937 33.7758V36.0767C68.5937 36.4716 68.5635 36.707 68.5408 36.8513L68.4955 36.9576H69.2209L69.1982 36.8513C69.1755 36.7146 69.1453 36.4716 69.1302 36.0691V33.7834C69.3417 34.0947 69.6893 34.6187 70.2485 35.454C70.5054 35.8033 70.7774 36.2058 71.0721 36.6311L71.2912 36.95H71.7748V33.753C71.7748 33.3733 71.7899 33.1531 71.8352 33.024L71.8655 32.9101H71.1174L71.1552 33.024H71.1627Z" fill="white"/>
<path d="M67.8305 36.2362V36.1603H67.3772L67.362 36.221C67.362 36.3273 67.3394 36.3577 67.3243 36.3729C67.3243 36.3881 67.2714 36.4184 66.9918 36.4184H65.7602V35.1047C65.8735 35.1047 65.9793 35.0895 66.0851 35.0895C66.8256 35.0895 67.1202 35.1427 67.2109 35.173L67.3167 35.2186V34.444L67.2109 34.4896C67.1429 34.5124 66.8633 34.5731 65.7602 34.5731V33.472H66.8256C67.09 33.472 67.158 33.472 67.1807 33.4948C67.1807 33.51 67.1958 33.51 67.1958 33.51V33.5252H67.2034V33.6695H67.6794V33.5859C67.6567 33.3353 67.6567 33.1455 67.6794 32.9936L67.6945 32.9025H67.5963C67.0145 32.9328 66.614 32.9404 66.3118 32.9404C65.866 32.9404 65.4957 32.9101 65.2086 32.9025H65.1104L65.1481 33.0012C65.1784 33.1379 65.201 33.7606 65.201 34.8541C65.201 36.0691 65.1784 36.7602 65.1481 36.8817L65.1104 36.988H65.2086C65.8055 36.9576 66.2211 36.95 66.478 36.95C66.886 36.95 67.3016 36.95 67.7549 36.9728H67.8456L67.8305 36.8893C67.8078 36.7526 67.8078 36.5399 67.8305 36.2362Z" fill="white"/>
<path d="M69.085 26.645C69.085 26.2198 68.9112 25.916 68.5863 25.6958C68.352 25.5515 68.1178 25.4756 67.8609 25.4756H66.4102V25.5819C66.4706 25.711 66.4857 25.954 66.4857 26.3565V28.6422C66.4857 29.0295 66.4706 29.2574 66.4177 29.394V29.5004H67.1506L67.128 29.394C67.0902 29.2498 67.0751 29.0675 67.06 28.7713C67.06 28.2398 67.0751 28.0727 67.0751 27.9664C67.0751 27.9284 67.0751 27.8904 67.0751 27.8525C67.3244 27.8525 67.7325 27.8525 67.8609 27.8449C68.1254 27.8221 68.3823 27.7386 68.6014 27.5867C68.9036 27.3817 69.085 27.0475 69.085 26.6375V26.645ZM67.0751 25.992C67.4755 25.992 67.7325 25.992 67.8382 26.0223C67.9138 26.0223 67.9894 26.0299 68.0498 26.0451C68.1707 26.0831 68.2689 26.1363 68.3445 26.2198C68.4503 26.3185 68.4956 26.4628 68.4956 26.6526C68.4956 27.0399 68.284 27.2677 67.8534 27.3285C67.8231 27.3285 67.7098 27.3437 67.3547 27.3437C67.2715 27.3437 67.1733 27.3361 67.0826 27.3361V25.9996L67.0751 25.992Z" fill="white"/>
<path d="M81.2798 27.2905C81.0909 26.7817 80.8642 26.159 80.6073 25.468L80.5771 25.4148H80.033L80.0104 25.468C79.217 27.6626 78.7107 28.9839 78.4992 29.3864L78.4463 29.5003H79.1188V29.4396C79.1717 29.2573 79.4059 28.5966 79.6628 27.9056C79.965 27.0627 80.1842 26.4931 80.3051 26.1514C80.4637 26.5843 80.6073 27.0323 80.7584 27.4576L80.902 27.898C81.1664 28.6802 81.3478 29.2573 81.4007 29.4472V29.5079H82.1487L82.0958 29.394C82.0052 29.2573 81.7256 28.5511 81.2647 27.3057L81.2798 27.2905Z" fill="white"/>
<path d="M65.7749 29.5232V29.4397C65.7522 29.3106 65.7522 29.0828 65.7749 28.7866V28.6955H65.329V28.7714C65.3139 28.8625 65.2837 28.9157 65.2762 28.9233C65.2762 28.9233 65.2384 28.9613 64.9512 28.9613H63.7121V27.6399H64.0294C64.7775 27.6399 65.0646 27.6779 65.1704 27.7083L65.2762 27.7462V26.9868L65.1553 27.04C65.0873 27.0628 64.8152 27.1235 63.7121 27.1235V26.0148H64.785C65.0419 26.0148 65.1099 26.0376 65.1326 26.0376C65.1326 26.0376 65.1351 26.0452 65.1401 26.0604V26.0756V26.0908C65.1401 26.0908 65.1401 26.1287 65.1553 26.1515V26.2199H65.6313V26.1439C65.6086 25.8857 65.6086 25.6807 65.6313 25.5592V25.4681H65.5406C64.9588 25.4984 64.5734 25.506 64.2637 25.4984C63.8178 25.4984 63.4552 25.4833 63.168 25.4681L63.0547 25.4529L63.0849 25.5592C63.1302 25.6883 63.1529 26.3186 63.1529 27.4197C63.1529 28.6271 63.1302 29.3106 63.0849 29.4397L63.0547 29.546H63.168C63.7423 29.5308 64.1503 29.508 64.4223 29.508C64.8455 29.508 65.2535 29.5308 65.7068 29.5384H65.79L65.7749 29.5232Z" fill="white"/>
<path d="M77.5323 32.91H76.0664L76.0966 33.0239C76.1269 33.1606 76.1495 33.4036 76.1571 33.8137V36.0843C76.1571 36.4716 76.1269 36.7146 76.0966 36.8437L76.0664 36.95H76.822L76.7918 36.8437C76.754 36.6994 76.7389 36.5095 76.7389 36.2134V35.2945C76.9882 35.2945 77.4038 35.2945 77.5398 35.2945C77.8043 35.2793 78.0612 35.1882 78.2728 35.0287C78.5977 34.8085 78.7563 34.4972 78.7563 34.0871C78.7563 33.677 78.5901 33.3581 78.2576 33.1454C78.0159 32.9936 77.7816 32.9176 77.5323 32.9176V32.91ZM76.7313 33.4264C77.1545 33.4264 77.4038 33.4264 77.5096 33.4492C77.5701 33.4644 77.6456 33.472 77.7212 33.4872C77.8345 33.5175 77.9327 33.5707 78.0159 33.6542C78.099 33.753 78.1594 33.8972 78.1594 34.0871C78.1594 34.482 77.9554 34.7022 77.5172 34.7629C77.4794 34.7629 77.3887 34.7781 77.0185 34.7781H76.7389V33.434L76.7313 33.4264Z" fill="white"/>
<path d="M81.9902 32.91H81.8995C81.363 32.9404 80.9474 32.948 80.615 32.9404C80.086 32.9404 79.6251 32.9176 79.3833 32.91H79.2624L79.3002 33.0088C79.338 33.1454 79.3607 33.8061 79.3607 34.9984V36.1147C79.3531 36.5019 79.338 36.7222 79.2927 36.8589L79.2549 36.9652H80.018L80.0029 36.8589C79.9576 36.7298 79.9425 36.5703 79.9274 36.3956C79.9274 36.2058 79.9274 35.7577 79.9274 35.006V33.4568H81.1665C81.4386 33.4568 81.4688 33.4872 81.4688 33.4872C81.4839 33.5175 81.5217 33.5555 81.5292 33.677V33.7454H81.9902V33.6618C81.9826 33.3809 81.9826 33.1606 81.9902 33.0012V32.91Z" fill="white"/>
<path d="M75.4469 36.2362V36.1602H74.9785V36.221C74.9633 36.3273 74.9482 36.3577 74.9331 36.3729C74.9331 36.388 74.8802 36.4184 74.6007 36.4184H73.3766C73.3615 35.9552 73.3615 35.5223 73.3615 35.1047C73.4673 35.1047 73.5957 35.0895 73.6939 35.0895C74.4269 35.0895 74.7215 35.1426 74.8198 35.173L74.918 35.2186V34.444L74.8122 34.4896C74.7367 34.5123 74.4571 34.5731 73.3539 34.5731V33.472H74.4344C74.6913 33.472 74.7518 33.472 74.7896 33.4948V33.5251L74.8047 33.5479V33.677H75.2807L75.2656 33.5935C75.2505 33.3429 75.2505 33.153 75.2656 33.0012L75.2807 32.91H75.1825C74.5931 32.9404 74.2153 32.948 73.9055 32.948C73.4521 32.948 73.0819 32.9176 72.8099 32.91H72.7041L72.7192 33.0088C72.757 33.1454 72.7797 33.7681 72.7797 34.8617C72.7797 36.0767 72.757 36.7677 72.7192 36.8892L72.7041 36.9956H72.7872C73.369 36.9652 73.7922 36.9576 74.0491 36.9576C74.4798 36.9576 74.8953 36.9576 75.3411 36.9804H75.4318V36.8968C75.4016 36.7601 75.4016 36.5475 75.4318 36.2438L75.4469 36.2362Z" fill="white"/>
<path d="M77.532 29.4397L77.5471 29.5004H78.3102L78.2347 29.3865C78.1818 29.2802 77.9853 28.8397 77.4111 27.2982C77.2146 26.8046 76.9804 26.1895 76.7235 25.4756L76.7008 25.4225H76.1643L76.1417 25.4756C75.3105 27.6703 74.8118 28.9992 74.6002 29.3941L74.5322 29.508H75.2198L75.2425 29.4473C75.2576 29.3333 75.3634 29.0296 75.6656 28.2398H77.1239C77.3657 28.9309 77.5017 29.3258 77.532 29.4473V29.4397ZM76.935 27.6931H75.8696C76.1417 26.9716 76.3154 26.5008 76.4288 26.1591C76.595 26.6679 76.7537 27.1767 76.935 27.6931Z" fill="white"/>
<path d="M53.776 0.658691H0V54.3172H53.776V0.658691Z" fill="url(#paint0_linear_200_1378)"/>
<path d="M26.6881 5.19983C14.3567 5.19983 4.35254 15.1782 4.35254 27.4879C4.35254 39.7977 14.3491 49.7685 26.6881 49.7837C39.0421 49.7685 49.0538 39.8053 49.0538 27.4879C49.0538 15.1706 39.0497 5.19983 26.6881 5.19983ZM6.62689 33.1834C7.75274 33.4795 8.5839 33.92 9.95909 34.2769C10.6013 34.4592 11.2361 34.5199 11.8481 34.5199C13.0948 34.5199 14.2811 34.2313 15.6185 33.882C17.6889 33.3049 18.9205 32.5835 20.5677 32.5075C20.6584 32.5075 20.7188 32.5075 20.8095 32.5075C21.6709 32.5075 23.0007 32.7353 24.0812 32.948C25.0106 33.1302 25.7587 33.3201 25.9551 33.3656V37.3296C25.6378 37.2385 25.2298 37.1398 24.7764 37.0487C23.6657 36.7829 22.3509 36.5171 21.3082 36.5171H21.1495C19.185 36.593 17.8853 37.36 16.087 37.8157C14.9007 38.127 13.9109 38.3396 12.9739 38.3396C12.4526 38.3396 11.9161 38.2713 11.3645 38.1042C10.2084 37.7853 9.37727 37.2689 8.0852 36.912C7.47316 35.7349 6.98202 34.4895 6.61178 33.1834M25.9476 31.938C24.9728 31.7102 22.4794 31.1254 20.8019 31.1254C20.7037 31.1254 20.5979 31.1254 20.4921 31.1254C18.4671 31.2317 17.1222 32.0367 15.2483 32.5303C13.9487 32.8872 12.8757 33.1302 11.8405 33.1302C11.3343 33.1302 10.828 33.0619 10.284 32.9328C8.88614 32.5835 7.95675 31.9987 6.24909 31.6798C6.01486 30.5711 5.88641 29.4168 5.84107 28.2322H25.9476V31.938ZM26.6881 21.5495C22.4869 21.4052 18.6107 20.0383 15.3994 17.7677C15.543 17.7677 15.6941 17.7677 15.8452 17.7677C16.4346 17.7677 17.0693 17.707 17.7795 17.5703C19.7592 17.1982 21.0135 16.6135 22.5171 16.6211C22.6003 16.6211 22.6683 16.6211 22.7438 16.6363C23.5297 16.6514 24.8595 16.978 25.9778 17.3197C26.2271 17.3805 26.4689 17.4564 26.6881 17.5247V21.5495ZM28.169 17.4792H39.8657C36.5789 19.9168 32.544 21.3976 28.169 21.5495V17.4792ZM28.169 6.7338H47.4217C47.0061 8.08552 46.4697 9.37648 45.8123 10.6067H28.169V6.7338ZM28.169 5.26059V1.49401H48.2755C48.2226 2.78497 48.0715 4.03797 47.8071 5.26059H28.169ZM32.7555 -5.43923C32.2795 -5.85689 31.7808 -6.20621 31.3123 -6.472C31.131 -6.57072 30.9572 -6.66185 30.791 -6.75297L34.7503 -18.7513C37.3118 -17.7717 39.639 -16.3365 41.6036 -14.5063L32.7555 -5.43923ZM29.4082 -7.32252C28.9246 -7.48199 28.5091 -7.58071 28.1766 -7.63387V6.69583C29.9598 6.74899 31.7052 7.04515 33.3524 7.52357L29.4082 19.4156V-7.32252ZM28.1766 -6.28974C28.834 -6.14546 29.8767 -5.83411 30.9648 -5.12788C32.3626 -4.2318 33.8587 -2.70542 34.773 0.0131969H28.1766V-6.28974ZM36.1633 0.0131969C36.0424 -0.412062 35.8988 -0.814539 35.7326 -1.18664L46.9532 -6.58591C47.7391 -4.52796 48.1924 -2.31054 48.2831 0.0131969H36.1557H36.1633ZM46.3941 -7.968L35.1205 -2.52317C34.7201 -3.23699 34.2894 -3.86729 33.8209 -4.39886L42.669 -13.466C44.1953 -11.8637 45.4496 -10.0032 46.3941 -7.968ZM11.9463 12.771C15.5581 9.16385 20.4997 6.88568 25.9627 6.69583V13.6215C25.3431 13.4392 24.3608 12.8393 23.1141 11.1079C22.4491 10.1435 21.278 9.01198 19.4419 9.02716C17.5755 9.04995 15.8679 10.5308 15.8452 12.4672C15.8452 12.6039 15.8452 12.7558 15.8679 12.9076C15.9585 13.4468 16.1474 14.0391 16.5404 14.5327C16.9333 15.0491 17.5151 15.4592 18.2858 15.6263C18.4747 15.6718 18.6863 15.6946 18.8903 15.6946H18.9054C19.8499 15.6946 20.8246 15.1782 21.2931 14.1682C21.4593 13.8189 21.5424 13.4772 21.5424 13.1507C21.5424 12.6267 21.3157 12.1559 20.9757 11.8217C20.6584 11.5331 20.2504 11.3661 19.8121 11.3661C19.1698 11.3661 18.4974 11.7762 18.1876 12.4824L19.3965 13.0443C19.5401 12.733 19.6837 12.7102 19.8121 12.6874C19.8952 12.6874 19.9934 12.7406 20.0615 12.8013C20.137 12.8697 20.1975 12.9684 20.1975 13.1582C20.1975 13.2646 20.1748 13.4316 20.0917 13.6215C19.8423 14.1379 19.389 14.3657 18.8903 14.3733C18.7694 14.3733 18.6711 14.3581 18.5805 14.3353C18.0969 14.2214 17.8098 14.0088 17.5906 13.743C17.3715 13.462 17.2431 13.1051 17.1826 12.7254C17.1599 12.6419 17.1599 12.5583 17.1599 12.4824C17.1599 11.9432 17.4169 11.4116 17.8551 11.0092C18.2858 10.6067 18.8827 10.3637 19.4419 10.3637C20.7037 10.3637 21.4291 11.0699 22.0336 11.8977C23.5599 14.0467 24.9653 14.8213 25.9702 15.0036V19.0283C25.124 19.0435 23.1367 19.3473 20.2504 21.4736C19.2907 22.1646 18.5578 22.9696 17.7795 23.5467C16.9786 24.1238 16.155 24.5263 14.81 24.5339C12.6944 24.5339 11.0849 22.9012 10.7827 20.8509C10.7525 20.6079 10.7449 20.3725 10.7449 20.1446C10.7449 18.9524 11.1756 18.0943 11.8632 17.4868C12.5583 16.8793 13.5255 16.5375 14.5531 16.5375C15.2483 16.5375 15.9737 16.8033 16.5252 17.2817C17.0617 17.7753 17.4395 18.474 17.4471 19.4536C17.4471 19.9624 17.2808 20.5395 16.9484 20.9648C16.6084 21.3749 16.1021 21.6862 15.1803 21.7014C14.4776 21.7014 13.8655 21.3141 13.6464 20.7218C13.5784 20.4864 13.5331 20.2889 13.5331 20.137C13.5406 19.7649 13.6691 19.5827 13.9109 19.3853C13.9638 19.3397 14.1527 19.2713 14.3265 19.2713C14.5002 19.2713 14.6438 19.3245 14.7043 19.3777C14.7647 19.4232 14.81 19.4688 14.8251 19.6814L16.155 19.6207C16.1399 19.0891 15.8754 18.6031 15.5127 18.3297C15.1501 18.0411 14.7269 17.95 14.3189 17.95C13.8882 17.95 13.4651 18.0639 13.125 18.3221C12.5735 18.7018 12.1957 19.3777 12.1957 20.137C12.1957 20.4636 12.2712 20.8053 12.3997 21.1698C12.8304 22.3697 14.0015 23.0227 15.1727 23.0227C16.4421 23.0379 17.4017 22.5215 17.976 21.8153C18.5503 21.0787 18.7618 20.2206 18.7618 19.4612C18.7618 18.1247 18.2178 17.0235 17.4017 16.3097C16.6008 15.5883 15.5505 15.2238 14.5456 15.2238C13.2308 15.2238 11.9463 15.649 10.9791 16.4996C10.012 17.3349 9.38483 18.6107 9.39239 20.1522C9.39239 20.4484 9.42261 20.737 9.46039 21.0407C9.82308 23.6682 11.9463 25.8704 14.7949 25.8704H14.8251C16.4421 25.8704 17.6284 25.3237 18.5427 24.6326C19.4872 23.9492 20.1899 23.1442 21.0135 22.5519C23.7034 20.5851 25.3884 20.3725 25.9551 20.3725V26.7817H5.85618C6.04508 21.3293 8.33455 16.4084 11.9463 12.8013M9.14304 38.7573C9.69463 38.9851 10.2538 39.2281 11.0169 39.4408C11.6819 39.6382 12.3392 39.7293 12.9966 39.7293C14.1451 39.7293 15.2256 39.4711 16.4497 39.1598C18.452 38.6282 19.6459 37.9372 21.2175 37.9068H21.3309C22.1242 37.8992 23.4314 38.1346 24.4893 38.3928C25.0862 38.5295 25.6151 38.6662 25.9702 38.7725V42.8428C25.872 42.8276 25.7511 42.7821 25.6378 42.7441C24.4742 42.4176 23.1065 42.0531 22.0713 42.0075H21.7918C19.9179 42.0227 18.5805 42.6682 16.8048 42.9795C16.155 43.1086 15.6185 43.1542 15.1198 43.1542C14.198 43.1542 13.4348 42.9643 12.3392 42.577V42.5922C12.2032 42.4707 12.0748 42.3492 11.9463 42.2353C10.8885 41.1798 9.94397 40.0103 9.14304 38.7497M41.46 42.2353C41.2409 42.4479 41.0218 42.653 40.7875 42.8656H27.4437V38.8181H44.2255C43.4246 40.0483 42.5028 41.1949 41.4676 42.2353" fill="white"/>
</g>
<defs>
<linearGradient id="paint0_linear_200_1378" x1="54.6025" y1="26.8076" x2="-0.643695" y2="26.8076" gradientUnits="userSpaceOnUse">
<stop stop-color="#95BE20"/>
<stop offset="1" stop-color="#2E6738"/>
</linearGradient>
<clipPath id="clip0_200_1378">
<rect width="109.146" height="53.6585" fill="white" transform="translate(0 0.658691)"/>
</clipPath>
</defs>
</svg>
