<svg width="91" height="61" viewBox="0 0 91 61" fill="none" xmlns="http://www.w3.org/2000/svg">
<g clip-path="url(#clip0_200_1345)">
<path d="M81.7743 40.7694H77.3994V37.6689H81.7743L83.2452 39.2192L81.7743 40.7694Z" fill="#13A538"/>
<path d="M83.2452 44.835H77.3994V41.7345H83.2452L84.7161 43.2847L83.2452 44.835Z" fill="#76B82A"/>
<path d="M84.7161 48.8929H77.3994V45.8H84.7161L86.187 47.3503L84.7161 48.8929Z" fill="#BCCF00"/>
<path d="M15.3212 34.3406L14.5065 31.6657H10.4484L9.63377 34.3406H7.0918L11.0217 23.071H13.9106L17.8556 34.3406H15.3136H15.3212ZM13.9483 29.6747L13.1337 27.0682C13.0809 26.8934 13.013 26.6654 12.93 26.3919C12.8471 26.1183 12.7641 25.8447 12.6811 25.556C12.5982 25.2748 12.5303 25.024 12.4775 24.8188C12.4247 25.0316 12.3568 25.29 12.2663 25.594C12.1757 25.9055 12.0928 26.1943 12.0173 26.4755C11.9419 26.7566 11.8816 26.9466 11.8363 27.0682L11.0443 29.6747H13.9483Z" fill="#76B82A"/>
<path d="M24.523 23.1166L28.3171 34.3405H25.9336L23.8593 27.6001C23.814 27.4557 23.7537 27.2201 23.6707 26.901C23.5877 26.5818 23.5047 26.255 23.4218 25.9207C23.3388 25.5863 23.2785 25.3203 23.2483 25.1228C23.2181 25.3431 23.1653 25.6243 23.0823 25.9587C23.0069 26.293 22.9239 26.6198 22.8485 26.9314C22.7731 27.2429 22.7127 27.4785 22.6675 27.6229L20.563 34.3481H18.1719L21.9509 23.1242H24.523V23.1166Z" fill="#76B82A"/>
<path d="M35.2877 23.1166L39.0818 34.3405H36.6907L34.6164 27.6001C34.5787 27.4557 34.5108 27.2201 34.4278 26.901C34.3448 26.5818 34.2618 26.255 34.1789 25.9207C34.0959 25.5863 34.0356 25.3203 34.0054 25.1228C33.9752 25.3431 33.9224 25.6243 33.8394 25.9587C33.764 26.293 33.681 26.6198 33.6056 26.9314C33.5302 27.2429 33.4698 27.4785 33.4246 27.6229L31.3201 34.3481H28.9365L32.7155 23.1242H35.2877V23.1166Z" fill="#76B82A"/>
<path d="M47.9296 34.3406L47.1149 31.6657H43.0568L42.2422 34.3406H39.7002L43.6301 23.071H46.519L50.464 34.3406H47.922H47.9296ZM46.5567 29.6747L45.7421 27.0682C45.6893 26.8934 45.6214 26.6654 45.5384 26.3919C45.4555 26.1183 45.3725 25.8447 45.2895 25.556C45.2066 25.2748 45.1387 25.024 45.0859 24.8188C45.0331 25.0316 44.9652 25.29 44.8747 25.594C44.7841 25.9055 44.7012 26.1943 44.6257 26.4755C44.5503 26.7566 44.49 26.9466 44.4447 27.0682L43.6527 29.6747H46.5567Z" fill="#76B82A"/>
<path d="M65.2174 34.3406H51.4062V31.7721L60.2994 18.9067H51.6401V15.6315H64.9836V18.2L56.0904 31.0654H65.2174V34.3406Z" fill="#76B82A"/>
<path d="M76.0573 18.6483C74.5864 18.6483 73.4173 19.1042 72.5574 20.0237C71.6975 20.9432 71.2675 22.2731 71.2675 24.0209C71.2675 25.5255 71.5089 26.8478 71.9992 28.0028C72.4819 29.1579 73.372 30.085 74.6543 30.7765V34.3405H66.5381V31.0121H71.2449C70.0305 30.2598 69.0574 29.2035 68.3182 27.8433C67.579 26.483 67.217 24.9252 67.217 23.1774C67.217 21.6044 67.579 20.2289 68.2956 19.051C69.0122 17.8732 70.0305 16.9613 71.3505 16.3153C72.6705 15.6694 74.2394 15.3427 76.0573 15.3427C77.8751 15.3427 79.4441 15.6694 80.7641 16.3153C82.0841 16.9613 83.1024 17.8732 83.819 19.051C84.5356 20.2289 84.8976 21.612 84.8976 23.2002C84.8976 24.9632 84.528 26.521 83.7964 27.8661C83.0572 29.2111 82.069 30.2598 80.8169 31.0121H85.5765V34.3405H77.4075V30.7765C78.7049 30.0926 79.6025 29.1655 80.1003 27.9876C80.5982 26.8098 80.8395 25.4799 80.8395 23.9905C80.8395 22.2427 80.4096 20.9128 79.5497 20.0085C78.6898 19.1042 77.5282 18.6483 76.0498 18.6483H76.0573Z" fill="#76B82A"/>
<path d="M7.06152 48.8929V47.0235L10.652 43.0187L7.15958 39.5003V37.6765H14.7403V39.6295H11.3836C11.0895 39.6295 10.8028 39.6295 10.5237 39.6143C10.2447 39.6067 9.95802 39.5839 9.66384 39.5535L13.1261 43.0111L9.49035 47.0387C10.2069 46.9779 10.9235 46.9475 11.6401 46.9475H15.1853V48.9157H7.06152V48.8929Z" fill="#13A538"/>
<path d="M20.6845 42.2968L23.0078 37.6765H25.5497L21.8537 44.5309V48.9005H19.5154V44.6069L15.8193 37.6765H18.3764L20.6845 42.2968Z" fill="#13A538"/>
<path d="M26.2429 48.8929V47.0235L29.8333 43.0187L26.341 39.5003V37.6765H33.9216V39.6295H30.565C30.2708 39.6295 29.9842 39.6295 29.7051 39.6143C29.426 39.6067 29.1394 39.5839 28.8452 39.5535L32.3074 43.0111L28.6717 47.0387C29.3883 46.9779 30.1049 46.9475 30.8215 46.9475H34.3667V48.9157H26.2354L26.2429 48.8929Z" fill="#13A538"/>
<path d="M45.3568 48.893H42.6715L39.7524 44.1587L38.7567 44.8806V48.8854H36.4033V37.6614H38.7567V42.7984C38.9151 42.5781 39.066 42.3577 39.2244 42.1373C39.3828 41.9169 39.5336 41.6966 39.692 41.4762L42.7017 37.6538H45.3191L41.4345 42.6237L45.3493 48.8778L45.3568 48.893Z" fill="#13A538"/>
<path d="M53.2621 48.8929H46.8506V37.6689H53.2621V39.6219H49.204V42.0917H52.983V44.0446H49.204V46.9399H53.2621V48.9081V48.8929Z" fill="#13A538"/>
<path d="M59.1455 42.2968L61.4687 37.6765H64.0107L60.3146 44.5309V48.9005H57.9763V44.6069L54.2803 37.6765H56.8373L59.1455 42.2968Z" fill="#13A538"/>
<path d="M74.639 48.8929H72.2856V44.0522H67.8729V48.8929H65.5195V37.6689H67.8729V42.0689H72.2856V37.6689H74.639V48.8929Z" fill="#13A538"/>
<path d="M90.6679 56.8492C90.5472 56.7125 87.6582 53.4752 83.9924 53.4752C80.7413 53.4752 78.1088 56.0133 77.4677 56.6897H9.79986C5.40232 56.6897 1.81942 53.0801 1.81942 48.6498V17.2349C1.81942 12.9793 5.11569 9.49891 9.27185 9.21775C9.55094 11.4519 11.4367 13.1769 13.7297 13.1769H16.9581C17.2674 13.1769 17.5163 12.9261 17.5163 12.6146V11.3151H19.3945C19.7038 11.3151 19.9527 11.0643 19.9527 10.7528C19.9527 10.4412 19.7038 10.1904 19.3945 10.1904H17.5163V7.12038H19.3945C19.7038 7.12038 19.9527 6.86961 19.9527 6.55804C19.9527 6.24648 19.7038 5.9957 19.3945 5.9957H17.5163V4.69625C17.5163 4.38468 17.2674 4.13391 16.9581 4.13391H13.7297C11.4216 4.13391 9.52077 5.89691 9.26431 8.15386C4.52734 8.43503 0.755859 12.3942 0.755859 17.2349V48.6422C0.755859 53.6652 4.81397 57.7535 9.79986 57.7535H77.4677C78.1088 58.4299 80.7489 60.968 83.9924 60.968C87.6582 60.968 90.5472 57.7307 90.6679 57.594L90.9998 57.2216L90.6679 56.8492ZM13.7222 5.26618H16.3924V12.0598H13.7222C11.8591 12.0598 10.3505 10.5324 10.3505 8.66301C10.3505 6.79361 11.8666 5.26618 13.7222 5.26618ZM83.9924 54.6075C84.1055 54.6075 84.2262 54.6151 84.3393 54.6227L82.2877 56.6897H79.1196C80.1756 55.8082 81.9784 54.6075 83.9924 54.6075ZM79.1196 57.7687H82.2877L84.3393 59.8357C84.2262 59.8433 84.1055 59.8509 83.9924 59.8509C81.9859 59.8509 80.1756 58.6502 79.1196 57.7687ZM85.6744 59.5849L83.8717 57.7687H86.7003C86.9945 57.7687 87.2358 57.5256 87.2358 57.2292C87.2358 56.9328 86.9945 56.6897 86.7003 56.6897H83.8717L85.6744 54.8735C87.4093 55.4054 88.8274 56.6137 89.461 57.2292C88.8198 57.8447 87.4093 59.0454 85.6744 59.5849Z" fill="#13A538"/>
<path d="M28.3786 10.5476V10.4716L28.3183 10.4488C28.3183 10.4488 28.2278 10.3956 28.0618 10.16C27.9336 9.98524 27.8054 9.77246 27.6696 9.52929C27.5338 9.28612 27.398 9.04295 27.2698 8.79217C27.1491 8.5566 27.0586 8.37422 26.9907 8.22224C27.0284 8.10065 27.0963 7.94867 27.2019 7.78149L27.5489 7.18115C27.6696 6.97598 27.7752 6.7708 27.8657 6.58082C27.9638 6.37564 28.009 6.20846 28.009 6.07168C28.009 5.8969 27.9336 5.75251 27.7827 5.65372C27.647 5.56253 27.5036 5.50934 27.3603 5.49414H27.1416C26.9983 5.49414 26.8776 5.53214 26.7871 5.61573C26.7041 5.69172 26.6287 5.79051 26.5608 5.91209C26.4929 6.02608 26.425 6.15527 26.3496 6.30725C26.2968 6.40604 26.2364 6.51243 26.161 6.62641C26.1384 6.58842 26.1157 6.55042 26.0931 6.51243C26.0328 6.41364 25.9498 6.31485 25.8593 6.21606C25.7612 6.11727 25.6481 6.03368 25.5123 5.96529C25.3765 5.8969 25.2181 5.8513 25.0296 5.8285H24.7806L24.577 5.8893C24.5016 5.91209 24.4186 5.94249 24.3205 5.99568C24.2375 6.04128 24.1244 6.08687 24.0037 6.13247L23.9735 6.14767C23.7699 6.32245 23.5964 6.55042 23.4682 6.81639C23.3399 7.07476 23.2419 7.35593 23.1664 7.6675C23.091 7.97146 23.0382 8.29063 23.0005 8.60979C22.9628 8.93656 22.9402 9.25572 22.9326 9.55969C22.9703 10.0308 23.0608 10.4564 23.1891 10.8135C23.3324 11.2011 23.4833 11.4215 23.6794 11.4823C23.7774 11.4975 23.8453 11.5203 23.8906 11.5355C23.9509 11.5507 24.0113 11.5659 24.0791 11.5659H24.1697C24.2225 11.5659 24.2979 11.5431 24.396 11.4975C24.4789 11.4595 24.5694 11.4139 24.66 11.3607C24.7505 11.3075 24.8334 11.2543 24.9089 11.1935C24.9843 11.1327 25.0371 11.0871 25.0522 11.0567C25.2106 10.8743 25.3614 10.6996 25.5048 10.5172C25.6481 10.3348 25.7763 10.1752 25.8819 10.0308C25.9875 9.88645 26.078 9.77246 26.1535 9.67367C26.161 9.65848 26.1761 9.64328 26.1836 9.62808L26.2063 9.68127C26.2666 9.82566 26.3571 9.99284 26.4627 10.1828C26.5759 10.3728 26.7795 10.654 27.0662 11.0187C27.1944 11.1859 27.3377 11.2923 27.4961 11.3379C27.6394 11.3835 27.7375 11.4063 27.828 11.3987C27.9713 11.3759 28.0995 11.3455 28.1976 11.2999C28.3183 11.2467 28.4088 11.1327 28.4767 10.9579C28.4993 10.9199 28.4993 10.8743 28.4993 10.8211C28.4993 10.6768 28.4541 10.5856 28.3711 10.5476H28.3786ZM25.452 8.11585C25.4293 8.21464 25.3765 8.35142 25.2785 8.5186C25.1804 8.70098 25.0673 8.89096 24.939 9.08094C24.8184 9.26332 24.6977 9.4229 24.5694 9.55969C24.4638 9.67368 24.4035 9.71167 24.3733 9.72687C24.3658 9.69647 24.3507 9.65088 24.3432 9.59008C24.3356 9.4913 24.3281 9.4153 24.3281 9.34691C24.3281 9.11134 24.3281 8.88336 24.3507 8.67059C24.3658 8.45781 24.4035 8.23743 24.4638 8.00186C24.4789 7.85748 24.5468 7.71309 24.66 7.56871C24.7957 7.38633 24.8787 7.36353 24.8938 7.36353C25.0597 7.39393 25.188 7.49272 25.286 7.6675C25.3841 7.84228 25.4369 7.99426 25.452 8.12345V8.11585Z" fill="#13A538"/>
<path d="M34.3676 4.91666C34.2318 4.83307 34.0056 4.77988 33.6435 4.75708C33.4323 4.78748 33.2362 4.90906 33.0551 5.11424C32.8892 5.30422 32.7233 5.53979 32.5648 5.82856C32.4064 6.10973 32.248 6.42129 32.1123 6.74806L31.6899 7.72075C31.5541 8.03232 31.4183 8.32868 31.2825 8.60225C31.1996 8.76943 31.1241 8.91382 31.0412 9.0354C31.0185 8.89862 30.9884 8.73144 30.9507 8.53386C30.8828 8.1995 30.8224 7.83474 30.7621 7.44718C30.6942 7.05962 30.6414 6.67967 30.5886 6.31491C30.5358 5.95015 30.5056 5.66138 30.5056 5.4334V5.39541C30.4302 5.20543 30.2944 5.07624 30.0908 5.00025C29.9022 4.93186 29.7664 4.89386 29.6608 4.89386C29.5929 4.89386 29.51 4.89386 29.4345 4.90146C29.344 4.90146 29.261 4.93186 29.1856 4.96226C29.1026 5.00025 29.0423 5.05345 28.9895 5.12184C28.9367 5.19783 28.9141 5.28902 28.9141 5.41061C28.9141 5.60819 28.9367 5.80576 28.9895 6.01094C29.0423 6.20852 29.1026 6.4061 29.1705 6.61887C29.2384 6.82405 29.3063 7.02163 29.3591 7.21161C29.4194 7.39399 29.4572 7.58397 29.4722 7.76635C29.5024 8.1843 29.5703 8.68584 29.6834 9.24058C29.789 9.80292 29.9701 10.3501 30.2114 10.8744L30.2341 10.9048C30.3246 10.9884 30.4227 11.0568 30.5132 11.1252C30.5961 11.186 30.6867 11.2468 30.7696 11.3227L30.8073 11.3531H30.8526C31.1769 11.3076 31.4334 11.1632 31.6295 10.9276C31.8106 10.7072 31.969 10.4488 32.0972 10.1601C32.2254 9.87131 32.3386 9.57494 32.4366 9.27098C32.5347 8.98221 32.6478 8.72384 32.7911 8.51866C32.8439 8.45027 32.8892 8.38188 32.9194 8.31348C32.942 8.25269 32.9646 8.1919 32.9873 8.1387C33.2286 7.64476 33.47 7.18121 33.7114 6.76326C33.9452 6.3605 34.2545 5.95015 34.6316 5.55499L34.6618 5.517V5.4714C34.6241 5.19023 34.5336 5.00785 34.3902 4.90906L34.3676 4.91666Z" fill="#13A538"/>
<path d="M40.3347 10.5476V10.4716L40.2743 10.4488C40.2743 10.4488 40.1838 10.3956 40.0179 10.16C39.8897 9.98524 39.7614 9.77246 39.6256 9.52929C39.4899 9.28612 39.3541 9.04295 39.2259 8.79217C39.1052 8.5566 39.0147 8.37422 38.9468 8.22224C38.9845 8.10065 39.0524 7.94867 39.158 7.78149L39.505 7.18115C39.6256 6.97598 39.7312 6.7708 39.8218 6.58082C39.9198 6.37564 39.9651 6.20846 39.9651 6.07168C39.9651 5.8969 39.8897 5.75251 39.7388 5.65372C39.603 5.56253 39.4597 5.50934 39.3164 5.49414H39.0976C38.9543 5.49414 38.8336 5.53214 38.7431 5.61573C38.6601 5.69172 38.5847 5.79051 38.5168 5.91209C38.4489 6.02608 38.3811 6.15527 38.3056 6.30725C38.2528 6.40604 38.1925 6.51243 38.1171 6.62641C38.0944 6.58842 38.0718 6.55042 38.0492 6.51243C37.9888 6.41364 37.9059 6.31485 37.8153 6.21606C37.7173 6.11727 37.6041 6.03368 37.4684 5.96529C37.3326 5.8969 37.1742 5.8513 36.9856 5.8285H36.7367L36.533 5.8893C36.4576 5.91209 36.3746 5.94249 36.2766 5.99568C36.1936 6.04128 36.0805 6.08687 35.9598 6.13247L35.9296 6.14767C35.7259 6.32245 35.5525 6.55042 35.4242 6.81639C35.296 7.07476 35.1979 7.35593 35.1225 7.6675C35.0471 7.97146 34.9943 8.29063 34.9566 8.60979C34.9188 8.93656 34.8962 9.25572 34.8887 9.55969C34.9264 10.0308 35.0169 10.4564 35.1451 10.8135C35.2884 11.2011 35.4393 11.4215 35.6354 11.4823C35.7335 11.4975 35.8014 11.5203 35.8466 11.5355C35.907 11.5507 35.9673 11.5659 36.0352 11.5659H36.1257C36.1785 11.5659 36.2539 11.5431 36.352 11.4975C36.435 11.4595 36.5255 11.4139 36.616 11.3607C36.7065 11.3075 36.7895 11.2543 36.8649 11.1935C36.9404 11.1327 36.9932 11.0871 37.0082 11.0567C37.1666 10.8743 37.3175 10.6996 37.4608 10.5172C37.6041 10.3348 37.7324 10.1752 37.838 10.0308C37.9436 9.88645 38.0341 9.77246 38.1095 9.67367C38.1246 9.65848 38.1321 9.64328 38.1397 9.62808L38.1623 9.68127C38.2227 9.82566 38.3132 9.99284 38.4188 10.1828C38.5319 10.3728 38.7356 10.654 39.0222 11.0187C39.1504 11.1859 39.2938 11.2923 39.4522 11.3379C39.5955 11.3835 39.7086 11.4063 39.7841 11.3987C39.9274 11.3759 40.0556 11.3455 40.1537 11.2999C40.2743 11.2467 40.3649 11.1327 40.4327 10.9579C40.4554 10.9199 40.4554 10.8743 40.4554 10.8211C40.4554 10.6768 40.4101 10.5856 40.3271 10.5476H40.3347ZM37.408 8.11585C37.3854 8.21464 37.3326 8.35142 37.2345 8.5186C37.1365 8.70098 37.0233 8.89096 36.8951 9.08094C36.7744 9.26332 36.6537 9.4229 36.5255 9.55969C36.4199 9.67368 36.3595 9.71167 36.3294 9.72687C36.3218 9.69647 36.3067 9.65088 36.2992 9.59008C36.2917 9.4913 36.2841 9.4153 36.2841 9.34691C36.2841 9.11134 36.2841 8.88336 36.3067 8.67059C36.3218 8.45781 36.3595 8.23743 36.4199 8.00186C36.435 7.85748 36.5029 7.71309 36.616 7.56871C36.7518 7.38633 36.8348 7.36353 36.8498 7.36353C37.0158 7.39393 37.144 7.49272 37.2421 7.6675C37.3401 7.84228 37.3929 7.99426 37.408 8.12345V8.11585Z" fill="#13A538"/>
<path d="M45.8706 10.1676V10.1296L45.8328 10.1068C45.5387 9.87123 45.2898 9.67366 45.0861 9.52927C44.89 9.38489 44.6712 9.21771 44.4299 9.01253C44.3771 8.97453 44.2941 8.91374 44.1734 8.80735L43.8113 8.50339C43.6907 8.397 43.585 8.30581 43.5021 8.21462C43.4644 8.17662 43.4342 8.14623 43.4191 8.12343C43.4266 8.11583 43.4417 8.10063 43.4568 8.08543C43.5096 8.02464 43.57 7.97144 43.6378 7.90305C43.7057 7.84226 43.7736 7.78147 43.834 7.72827C43.8868 7.68268 43.9169 7.66748 43.9094 7.66748H43.9396L43.9697 7.64468C44.0829 7.56109 44.2111 7.4547 44.3469 7.32552C44.4827 7.20393 44.6184 7.08234 44.7768 6.96836C44.807 6.93796 44.8447 6.90756 44.9051 6.86957C44.973 6.82397 45.0408 6.77078 45.1087 6.71758C45.1842 6.65679 45.2445 6.596 45.2973 6.52761C45.3652 6.45161 45.3954 6.36042 45.3954 6.26923C45.3954 6.23124 45.3803 6.20084 45.3652 6.17804C45.3652 5.94247 45.2671 5.76769 45.0786 5.6461L45.0559 5.63091H45.0258C44.973 5.63091 44.9277 5.62331 44.9051 5.60051C44.8447 5.55491 44.7618 5.52452 44.6561 5.52452C44.6411 5.52452 44.6184 5.52452 44.5883 5.53212C44.5732 5.53212 44.5656 5.53212 44.5505 5.53212C44.3921 5.53212 44.2337 5.58531 44.0678 5.7069C44.0075 5.76009 43.9169 5.84368 43.8038 5.95767C43.6906 6.07166 43.57 6.19324 43.4493 6.32243C43.3286 6.45161 43.2079 6.5732 43.0948 6.68719C42.9892 6.79358 42.9062 6.86957 42.8458 6.90756C42.8458 6.83917 42.8458 6.77078 42.8308 6.70999C42.8232 6.6112 42.8157 6.49721 42.8157 6.36042V6.20084C42.8157 6.15525 42.8157 6.10205 42.8308 6.02606C42.8308 5.88168 42.8232 5.79049 42.8006 5.72969C42.7855 5.6689 42.7327 5.58531 42.6422 5.46372L42.6271 5.44093H42.5969C42.5969 5.44093 42.5441 5.39533 42.5215 5.37253C42.4838 5.31934 42.4159 5.28134 42.3254 5.25095C42.2801 5.21295 42.2273 5.19775 42.1519 5.19775C42.0312 5.20535 41.9331 5.23575 41.8577 5.27375C41.7823 5.31174 41.7295 5.34974 41.6842 5.38773C41.6465 5.41813 41.6088 5.44853 41.5862 5.47892C41.5711 5.48652 41.5635 5.49412 41.5485 5.49412C41.5032 5.49412 41.473 5.50932 41.4579 5.52452H41.4202L41.39 5.57771C41.39 5.57771 41.375 5.60051 41.3523 5.63091C41.3146 5.6765 41.292 5.74489 41.292 5.81329C41.292 5.91967 41.292 6.14765 41.3071 6.48201C41.3146 6.81637 41.3297 7.18873 41.3448 7.59149L41.39 8.81495C41.4051 9.2329 41.4127 9.55207 41.4127 9.81044C41.4127 10.1144 41.4051 10.1752 41.4051 10.1828L41.3825 10.6463C41.3825 10.6463 41.39 10.7223 41.4428 10.8287C41.4806 10.9047 41.5258 10.9807 41.5786 11.0567C41.6314 11.1403 41.6993 11.2163 41.7747 11.2771C41.8653 11.3455 41.9558 11.3835 42.0614 11.3835C42.1066 11.3835 42.1519 11.3835 42.1896 11.3835C42.2349 11.3835 42.2801 11.3911 42.3254 11.3911C42.3933 11.3911 42.4461 11.3835 42.4762 11.3607C42.4913 11.3531 42.5215 11.3227 42.5668 11.2847C42.6422 11.2695 42.7101 11.2239 42.7553 11.1631C42.8006 11.1023 42.8383 11.0339 42.8609 10.9503C42.8836 10.8743 42.8986 10.7983 42.8986 10.7223C42.8986 10.6463 42.9062 10.5856 42.9062 10.5324C42.9062 10.5248 42.9062 10.4792 42.8986 10.4108C42.8986 10.35 42.8911 10.274 42.8836 10.1904L42.8685 9.93203C42.8685 9.84844 42.8685 9.76485 42.8685 9.69645V9.49888L43.3512 9.90923C43.4417 9.98522 43.5549 10.0916 43.6906 10.2284C43.834 10.3652 43.9848 10.4944 44.1357 10.6235C44.2941 10.7527 44.4525 10.8667 44.6033 10.9579C44.9202 11.1555 45.1691 11.1403 45.4029 11.0643C45.516 11.0339 45.6367 10.9655 45.7574 10.8667L45.78 10.8439C45.8178 10.7983 45.8404 10.7451 45.863 10.6995C45.8781 10.6539 45.9007 10.578 45.9234 10.4564C45.9234 10.3576 45.9234 10.3044 45.9007 10.2588C45.9007 10.2588 45.8856 10.2284 45.8781 10.1372L45.8706 10.1676Z" fill="#13A538"/>
<path d="M51.3621 5.99573C51.3244 5.79056 51.2565 5.60058 51.1811 5.4182C51.0906 5.22062 50.9171 5.07624 50.6757 5.00024H50.6531L50.4117 5.03064C50.3212 5.04584 50.2307 5.07624 50.1477 5.11423C50.0648 5.15223 49.9893 5.21302 49.9214 5.28141C49.8535 5.3574 49.8158 5.46379 49.8158 5.58538V5.72216C49.8158 5.72216 49.8007 5.77536 49.8007 5.82855L49.8309 6.00333C49.8385 6.08692 49.8535 6.16291 49.8686 6.22371C49.8837 6.2769 49.8913 6.3377 49.9064 6.39089C49.9139 6.45168 49.929 6.52008 49.9365 6.59607C49.9441 6.67206 49.9516 6.77085 49.9516 6.90003C49.9516 7.04442 49.9516 7.1736 49.9365 7.29519C49.929 7.40918 49.9063 7.52316 49.8762 7.63715C49.846 7.75114 49.8083 7.87272 49.763 7.99431C49.7178 8.1159 49.6499 8.26788 49.5745 8.42746C49.5367 8.49586 49.4839 8.57185 49.4236 8.65544C49.3633 8.73903 49.2954 8.83022 49.2199 8.90621C49.1521 8.9822 49.0766 9.05059 49.0012 9.10379C48.9258 9.15698 48.8579 9.18738 48.8126 9.20258C48.7296 9.20258 48.6693 9.17978 48.624 9.13418C48.5712 9.08099 48.5335 9.0126 48.5034 8.92901C48.4732 8.83782 48.4506 8.73903 48.4355 8.63264C48.4204 8.52625 48.4128 8.42746 48.4128 8.34387C48.4128 8.31348 48.4128 8.22988 48.3902 8.1007C48.3751 7.98671 48.3676 7.88792 48.3676 7.80433C48.345 7.46997 48.3148 7.12041 48.2771 6.77845C48.2771 6.75565 48.2771 6.72525 48.262 6.71765C48.262 6.68726 48.262 6.65686 48.2469 6.63406L48.1715 6.3301C48.1338 6.19331 48.0885 6.04893 48.0357 5.88935C47.9829 5.72976 47.9225 5.59298 47.8697 5.45619C47.8019 5.29661 47.734 5.20542 47.651 5.16743C47.5907 5.13703 47.5303 5.12943 47.4775 5.13703C47.4549 5.13703 47.4398 5.13703 47.4172 5.12183H47.3945C47.3417 5.09903 47.2889 5.09143 47.2437 5.09143C47.1155 5.07624 47.0023 5.08383 46.9043 5.09903C46.8439 5.10663 46.7986 5.12183 46.7534 5.12943C46.6176 5.16743 46.5045 5.28141 46.414 5.47899C46.4064 5.50939 46.3989 5.53978 46.3913 5.56258C46.3913 5.59298 46.3838 5.63097 46.3838 5.67657C46.3838 5.82855 46.4215 5.96534 46.4969 6.08692C46.5196 6.17051 46.5573 6.2617 46.6101 6.36809C46.6553 6.45928 46.693 6.55047 46.7157 6.64166C46.7534 6.75565 46.7836 6.90003 46.8137 7.06721C46.8439 7.24199 46.8665 7.41678 46.8892 7.59915C46.9118 7.78153 46.9269 7.96391 46.9344 8.14629C46.942 8.32867 46.9495 8.48066 46.9495 8.60984C46.9495 8.9822 47.0325 9.33936 47.206 9.67372C47.3795 10.0157 47.6133 10.2741 47.9075 10.4564C47.9678 10.4868 48.0508 10.5248 48.1488 10.5552C48.2544 10.5932 48.36 10.616 48.4732 10.616H48.8202C48.8654 10.616 48.9107 10.616 48.971 10.6008C49.1143 10.5552 49.2275 10.5172 49.3105 10.4716C49.3859 10.4336 49.4839 10.388 49.6273 10.3273L49.7027 10.2893C49.8385 10.1905 50.0195 10.0461 50.2533 9.84091C50.4872 9.63573 50.6682 9.39256 50.8115 9.09619C50.8417 9.005 50.8718 8.92141 50.9096 8.84542C50.9548 8.76183 51.0001 8.66304 51.0302 8.55665C51.0604 8.46546 51.1132 8.32107 51.1811 8.1159C51.2565 7.90312 51.3093 7.70554 51.3244 7.53076C51.3923 7.204 51.43 6.84684 51.43 6.46688C51.43 6.36809 51.4225 6.2845 51.4074 6.20851C51.3923 6.14012 51.3772 6.06413 51.3546 5.98053L51.3621 5.99573Z" fill="#13A538"/>
<path d="M57.0724 10.1677V10.1297L57.0347 10.1069C56.7406 9.87133 56.4916 9.68135 56.288 9.52936C56.0919 9.38498 55.8731 9.2178 55.6317 9.01262C55.5789 8.97462 55.4884 8.90623 55.3753 8.80744L55.0132 8.50348C54.8925 8.40469 54.7869 8.3059 54.704 8.22231C54.6662 8.18431 54.6361 8.15392 54.621 8.13112C54.6285 8.12352 54.6436 8.10832 54.6587 8.09312C54.7115 8.03233 54.7718 7.97154 54.8397 7.91074C54.9076 7.84995 54.9755 7.78916 55.0358 7.73596C55.0886 7.69037 55.1188 7.67517 55.1113 7.67517H55.1414L55.1716 7.65237C55.2848 7.56878 55.4054 7.46239 55.5488 7.33321C55.6845 7.21162 55.8203 7.09003 55.9787 6.97605C56.0089 6.94565 56.0466 6.91525 56.1069 6.87726C56.1748 6.83166 56.2427 6.77847 56.3106 6.72528C56.386 6.66448 56.4464 6.60369 56.5067 6.5353C56.5746 6.45931 56.6048 6.36812 56.6048 6.27693C56.6048 6.23893 56.5897 6.20853 56.5746 6.18574C56.5746 5.95016 56.4766 5.77538 56.288 5.65379L56.2653 5.6386H56.2352C56.1824 5.6386 56.1371 5.631 56.1145 5.6082C56.0541 5.5626 55.9712 5.53221 55.8656 5.53221C55.8505 5.53221 55.8279 5.53221 55.7977 5.53981C55.7826 5.53981 55.7751 5.53981 55.76 5.53981C55.6016 5.53981 55.4432 5.593 55.2772 5.71459C55.2169 5.76778 55.1264 5.85137 55.0132 5.96536C54.9001 6.07935 54.7794 6.20093 54.6587 6.33012C54.538 6.4593 54.4173 6.58089 54.3042 6.69488C54.1684 6.83166 54.1005 6.89246 54.0553 6.91525C54.0553 6.84686 54.0553 6.77847 54.0402 6.71768C54.0326 6.61889 54.0251 6.5049 54.0251 6.36812V6.20853C54.0251 6.16294 54.0251 6.10974 54.0402 6.03375C54.0402 5.88937 54.0326 5.79818 54.01 5.73739C53.9949 5.67659 53.9421 5.593 53.8516 5.47141L53.8365 5.44862H53.8063C53.8063 5.44862 53.7535 5.40302 53.7309 5.38022C53.6932 5.32703 53.6253 5.28904 53.5348 5.25864C53.4895 5.22064 53.4217 5.20544 53.3613 5.20544C53.2406 5.21304 53.1426 5.24344 53.0671 5.28144C52.9917 5.31943 52.9389 5.35743 52.8936 5.39542C52.8559 5.42582 52.8182 5.45622 52.7956 5.48661C52.788 5.49421 52.773 5.50181 52.7579 5.50181C52.7126 5.50181 52.6824 5.51701 52.6598 5.53221H52.6146L52.5844 5.5854C52.5844 5.5854 52.5693 5.6082 52.5467 5.6386C52.509 5.68419 52.4863 5.75258 52.4863 5.82098C52.4863 5.92736 52.4863 6.15534 52.5014 6.4897C52.509 6.82406 52.524 7.19642 52.5391 7.59918L52.5844 8.82264C52.5995 9.2254 52.607 9.55976 52.607 9.81813C52.607 10.1297 52.5995 10.1829 52.5995 10.1905L52.5768 10.654C52.5768 10.654 52.5844 10.7224 52.6372 10.8364C52.6749 10.9124 52.7202 10.9884 52.773 11.0644C52.8258 11.148 52.8936 11.224 52.9691 11.2848C53.0596 11.3532 53.1501 11.3912 53.2557 11.3912C53.301 11.3912 53.3462 11.3912 53.3839 11.3912C53.4292 11.3912 53.4745 11.3988 53.5197 11.3988C53.5876 11.3988 53.6404 11.3912 53.6706 11.3684C53.6857 11.3608 53.7158 11.3304 53.7611 11.2924C53.8365 11.2772 53.9044 11.2316 53.9572 11.1708C54.0025 11.11 54.0402 11.0416 54.0628 10.958C54.0854 10.882 54.1005 10.806 54.1005 10.73C54.1005 10.654 54.1081 10.5932 54.1081 10.5401C54.1081 10.5325 54.1081 10.4869 54.1005 10.4185C54.1005 10.3577 54.093 10.2817 54.0854 10.1981L54.0703 9.93972C54.0703 9.85613 54.0703 9.77254 54.0703 9.70414V9.50657L54.5531 9.91692C54.6436 9.99291 54.7568 10.0993 54.8925 10.2361C55.0358 10.3729 55.1792 10.5021 55.3376 10.6312C55.4884 10.7604 55.6468 10.8668 55.8052 10.9656C56.122 11.1632 56.3709 11.148 56.6048 11.072C56.7179 11.0416 56.8386 10.9732 56.9593 10.8744L56.9819 10.8516C57.0196 10.806 57.0423 10.7528 57.0649 10.7072C57.08 10.6616 57.1026 10.5856 57.1252 10.4641C57.1252 10.3653 57.1252 10.3121 57.1026 10.2665C57.1026 10.2665 57.0951 10.2361 57.08 10.1525L57.0724 10.1677Z" fill="#13A538"/>
<path d="M61.9827 10.54C61.8243 10.1296 61.6961 9.70409 61.5829 9.29373L61.2661 8.03228C61.2209 7.89549 61.1681 7.74351 61.1228 7.55353C61.0775 7.37115 61.0323 7.20397 61.0021 7.04439L60.1724 2.94844C60.1648 2.88005 60.1422 2.78126 60.1196 2.65207C60.097 2.52289 60.0593 2.3937 60.0215 2.27212C59.9763 2.14293 59.931 2.02894 59.8707 1.93015C59.7802 1.77817 59.6746 1.74778 59.5991 1.74778C59.5539 1.74778 59.5086 1.74018 59.4709 1.71738C59.3955 1.67938 59.3125 1.66418 59.2144 1.66418H58.9806C58.8976 1.66418 58.8071 1.72498 58.6864 1.85416C58.5733 1.96815 58.5205 2.08214 58.5129 2.18093C58.4828 2.22652 58.4828 2.28732 58.4828 2.34051C58.5431 2.62928 58.5959 2.87245 58.6412 3.07763C58.6864 3.2904 58.7468 3.54118 58.8297 3.83754C58.9052 4.12631 59.0032 4.52147 59.1164 5.01541C59.2295 5.50176 59.305 6.0261 59.3578 6.58084L59.2748 6.81641C59.222 7.00639 59.2069 7.07478 59.1994 7.10518C59.1164 7.30276 59.041 7.50793 58.9731 7.69791C58.9127 7.88789 58.8599 8.01708 58.8373 8.09307C58.7091 8.38944 58.5959 8.6706 58.4903 8.92138C58.3847 9.17215 58.2867 9.41532 58.1886 9.6509C58.0905 9.88647 57.9849 10.1144 57.8869 10.35C57.7813 10.5856 57.6606 10.8364 57.5248 11.1023C57.4569 11.2315 57.4268 11.3683 57.4268 11.4899V11.5659C57.4268 11.6647 57.4494 11.7559 57.5022 11.8319C57.5625 11.9306 57.5776 11.9534 57.5852 11.9534C57.6757 12.0674 57.7964 12.1586 57.9397 12.2194C58.083 12.2878 58.2414 12.3182 58.4149 12.3182C58.5356 12.3182 58.6487 12.227 58.7694 12.0294C58.8675 11.8698 58.9655 11.6799 59.056 11.4747C59.1466 11.2695 59.2295 11.0719 59.2974 10.882C59.3653 10.692 59.4106 10.5628 59.4332 10.5096C59.4558 10.4488 59.4935 10.3424 59.5539 10.1904C59.6142 10.0309 59.6896 9.86367 59.7651 9.68889C59.8405 9.51411 59.9159 9.34693 59.9914 9.19495C60.014 9.15695 60.0291 9.11896 60.0442 9.08856L60.1045 9.22534C60.1271 9.27094 60.1422 9.33173 60.1649 9.40772C60.1875 9.48371 60.2101 9.5901 60.2403 9.71929C60.361 10.2132 60.5269 10.692 60.7381 11.1555C60.9493 11.6191 61.1605 11.999 61.3717 12.2878L61.4094 12.3182C61.4622 12.3486 61.5452 12.3638 61.6659 12.3638C61.7715 12.3638 61.8469 12.3714 61.8997 12.3714C61.9525 12.3714 62.0129 12.3562 62.0883 12.3258C62.1562 12.2954 62.2316 12.2574 62.2995 12.2118C62.3749 12.1586 62.4353 12.0978 62.4881 12.0218C62.5409 11.9382 62.5711 11.8471 62.5711 11.7483V11.7179L62.556 11.6951C62.3372 11.3531 62.1411 10.9731 61.9902 10.5628L61.9827 10.54Z" fill="#13A538"/>
<path d="M65.8449 4.04272V4.06552C65.9203 4.1719 66.0259 4.2327 66.1692 4.2327C66.3503 4.2099 66.486 4.1795 66.569 4.14151C66.8556 4.07312 67.0291 3.92873 67.0819 3.73115L67.7382 2.4621C67.9268 2.02894 68.0248 1.60339 68.0248 1.18544C68.0248 0.949863 67.9871 0.699091 67.8966 0.44072C67.8362 0.311535 67.7306 0.205146 67.5722 0.121556C67.4214 0.0455641 67.263 0.00756836 67.097 0.00756836C67.0744 0.00756836 67.0216 0.00756836 66.8783 0.037965C66.7501 0.0759607 66.6595 0.167151 66.6143 0.311535C66.6067 0.372328 66.5916 0.433121 66.5766 0.493914L66.5162 0.744686C66.4936 0.851075 66.4559 0.987859 66.4106 1.15504C66.3654 1.32222 66.3126 1.5426 66.2447 1.80857C66.1391 2.18853 66.0486 2.50769 65.9807 2.76606C65.9128 3.03203 65.86 3.2904 65.8298 3.55637C65.8298 3.60197 65.8298 3.63996 65.8298 3.67036C65.8298 3.70836 65.8223 3.75395 65.8223 3.79955C65.8223 3.85274 65.8223 3.89834 65.8298 3.94393C65.8298 3.98193 65.8449 4.01992 65.86 4.05792L65.8449 4.04272Z" fill="#13A538"/>
<path d="M70.4531 6.45162C70.4531 6.37563 70.4455 6.29204 70.4229 6.20845C70.4003 6.11726 70.3475 6.03367 70.2645 5.95768C70.1891 5.88929 70.0759 5.82849 69.9251 5.7905C69.7818 5.7525 69.5932 5.7373 69.3593 5.7373C69.3065 5.7373 69.2537 5.7449 69.2085 5.7677C69.1708 5.7829 69.1406 5.7905 69.1029 5.7981L69.0501 5.8133L69.035 5.86649C69.0048 5.95008 68.9747 6.02607 68.9369 6.09447C68.8917 6.18565 68.8691 6.29964 68.8691 6.45162V6.54281C68.8691 6.58841 68.8841 6.61881 68.8992 6.6644V6.77079C68.8992 6.87718 68.8992 7.04436 68.8841 7.26473C68.8766 7.49271 68.854 7.73588 68.8238 7.98665C68.7936 8.24503 68.7484 8.5034 68.6805 8.76177C68.6126 9.01254 68.5221 9.22532 68.4165 9.3925C68.2732 9.58248 68.1449 9.56728 68.0167 9.42289C67.9413 9.3393 67.8734 9.23291 67.813 9.11133C67.7527 8.98974 67.6999 8.86056 67.6622 8.73137C67.6245 8.60219 67.6018 8.4958 67.5943 8.41221C67.5566 8.15384 67.5264 7.86507 67.4962 7.5535C67.4736 7.23434 67.4434 6.92277 67.4133 6.61881V6.53522C67.3982 6.42883 67.3152 6.31484 67.1568 6.20085C67.0059 6.08687 66.8626 6.03367 66.7419 6.03367C66.6891 6.01847 66.659 6.01087 66.6514 6.01087L66.6137 6.10206V6.00327H66.5232C66.4402 6.02607 66.3497 6.06407 66.2667 6.11726C66.1838 6.17806 66.0932 6.21605 65.9952 6.24645H65.9575L65.9349 6.28444C65.8745 6.36803 65.8443 6.44403 65.8292 6.51242C65.8292 6.54281 65.8217 6.55801 65.8217 6.56561L65.7991 6.58841V6.73279V6.77839V7.25714C65.7915 7.47751 65.7538 7.75108 65.6859 8.08544C65.618 8.41221 65.4521 8.81496 65.173 9.30131C65.1278 9.4001 65.0749 9.46849 65.0221 9.52168C64.9467 9.58248 64.909 9.59767 64.909 9.60527H64.8713C64.7431 9.51408 64.6676 9.3925 64.6375 9.24051C64.5997 9.07333 64.5847 8.81496 64.5847 8.473V7.90306C64.5847 7.86507 64.5847 7.79668 64.5847 7.70549L64.6148 7.12035C64.6148 7.02916 64.6224 6.96077 64.6224 6.92277C64.6224 6.90757 64.6224 6.86958 64.6224 6.81638C64.6224 6.77079 64.6224 6.72519 64.6224 6.672V6.57321H64.5243L64.6224 6.55041V6.51242C64.6148 6.47442 64.6073 6.42123 64.5922 6.36803C64.5847 6.30724 64.5696 6.25405 64.5545 6.20845C64.5319 6.13246 64.4941 6.09446 64.4564 6.07927C64.4338 6.04887 64.3885 6.02607 64.3056 6.02607H64.2679C64.2679 6.02607 64.2 5.98808 64.1623 5.97288C64.0793 5.93488 63.936 5.91968 63.7248 5.91968C63.6267 5.91968 63.506 5.97288 63.3552 6.07167C63.1968 6.18565 63.1213 6.29204 63.1213 6.40603C63.1213 6.42123 63.1213 6.45163 63.1062 6.49722C63.0912 6.55041 63.0912 6.61121 63.0912 6.672C63.0836 6.90757 63.0685 7.16595 63.061 7.43951C63.0534 7.71308 63.0459 7.99425 63.0459 8.28302C63.0459 8.53379 63.0459 8.76937 63.061 8.98974C63.0685 9.21012 63.0987 9.41529 63.1364 9.59008C63.1666 9.73446 63.2269 9.89404 63.3099 10.0536C63.3929 10.2132 63.4909 10.3652 63.6116 10.5096C63.7323 10.654 63.8681 10.7831 64.0265 10.8895C64.1849 10.9959 64.3659 11.0643 64.5545 11.0871C64.6073 11.0947 64.6601 11.1023 64.7053 11.1023H64.8109C64.909 11.1023 65.0071 11.0871 65.0976 11.0491C65.1806 11.0187 65.2711 10.9807 65.3918 10.9275C65.5426 10.8515 65.6633 10.7527 65.7387 10.6388C65.8066 10.54 65.867 10.4488 65.9349 10.3728C66.0631 10.1828 66.1762 9.98523 66.2743 9.79525L66.4327 9.47609C66.4629 9.55208 66.493 9.62047 66.5232 9.68886C66.576 9.81045 66.6363 9.93964 66.6967 10.0612C66.7646 10.1904 66.8249 10.2968 66.8777 10.3652C66.8928 10.388 66.9079 10.4184 66.9909 10.502C67.0512 10.5628 67.1266 10.6236 67.2247 10.6844C67.3152 10.7451 67.4208 10.8059 67.534 10.8591C67.6471 10.9123 67.7753 10.9503 67.9186 10.9731H68.0393C68.1223 10.9731 68.2053 10.9655 68.2807 10.9503C68.341 10.9351 68.4089 10.9275 68.4844 10.9275C68.5145 10.9275 68.5221 10.9275 68.5296 10.9275C68.6126 11.0339 68.7408 11.0263 68.9596 10.8895C69.0576 10.8287 69.1331 10.7831 69.1783 10.7527L69.2009 10.7299C69.2613 10.6616 69.3443 10.5704 69.4574 10.464C69.5781 10.3424 69.6988 10.198 69.7968 10.0156C69.9402 9.77246 70.0382 9.57488 70.0835 9.3925C70.1363 9.19492 70.1514 9.14173 70.1664 9.11133C70.2494 8.84536 70.3098 8.52619 70.355 8.14624C70.4003 7.78148 70.4305 7.42432 70.4531 7.08235C70.4531 7.03676 70.4531 6.99876 70.4531 6.96077C70.4531 6.91517 70.4606 6.86958 70.4606 6.81638C70.4606 6.76319 70.4606 6.71 70.4531 6.6568C70.4531 6.61121 70.4531 6.55041 70.4531 6.47442V6.45162Z" fill="#13A538"/>
<path d="M76.5477 4.91666C76.412 4.83307 76.1857 4.77988 75.8236 4.75708C75.6124 4.78748 75.4163 4.90906 75.2353 5.11424C75.0693 5.30422 74.9034 5.53979 74.745 5.82856C74.5866 6.10973 74.4282 6.42129 74.2849 6.74806L73.8624 7.72075C73.7267 8.03991 73.5834 8.33628 73.4551 8.60225C73.3722 8.76943 73.2967 8.91382 73.2138 9.0354C73.1911 8.89862 73.161 8.73144 73.1232 8.53386C73.0554 8.1995 72.995 7.83474 72.9347 7.44718C72.8668 7.05962 72.814 6.67967 72.7536 6.31491C72.7008 5.95775 72.6707 5.66138 72.6707 5.4334V5.39541C72.5952 5.20543 72.4595 5.07624 72.2558 5.00025C72.0672 4.93186 71.9315 4.89386 71.8259 4.89386C71.758 4.89386 71.6825 4.89386 71.5996 4.90146C71.509 4.90146 71.4261 4.93186 71.3506 4.96226C71.2677 5.00025 71.2073 5.05345 71.1545 5.12184C71.1017 5.19023 71.0791 5.28902 71.0791 5.41061C71.0791 5.60819 71.1017 5.81336 71.1545 6.01094C71.2073 6.20852 71.2677 6.4137 71.3356 6.61127C71.4034 6.81645 71.4713 7.01403 71.5241 7.20401C71.5769 7.38639 71.6222 7.57637 71.6373 7.75875C71.6675 8.1767 71.7353 8.67064 71.8485 9.23298C71.9541 9.79532 72.1351 10.3425 72.3765 10.8668L72.3991 10.8972C72.4896 10.9808 72.5877 11.0568 72.6782 11.1176C72.7612 11.1708 72.8442 11.2392 72.9347 11.3152L72.9724 11.3455H73.0176C73.3344 11.3 73.5984 11.1556 73.7946 10.92C73.9756 10.6996 74.134 10.4412 74.2622 10.1525C74.3905 9.86371 74.5036 9.56734 74.6017 9.26338C74.6997 8.97461 74.8129 8.71624 74.9562 8.51106C75.009 8.44267 75.0542 8.37428 75.0844 8.30589C75.107 8.24509 75.1297 8.1843 75.1523 8.1311C75.3937 7.62956 75.6426 7.16601 75.8764 6.75566C76.1102 6.3529 76.4195 5.94255 76.7967 5.54739L76.8268 5.5094V5.4638C76.7891 5.18263 76.6986 5.00025 76.5553 4.90146L76.5477 4.91666Z" fill="#13A538"/>
<path d="M84.5205 6.64157C84.5205 6.59598 84.5205 6.53519 84.5205 6.45919C84.5205 6.3832 84.5054 6.29961 84.4903 6.21602C84.4677 6.12483 84.4149 6.04124 84.3319 5.96525C84.2565 5.89686 84.1433 5.83606 83.9925 5.79807C83.8491 5.76007 83.6606 5.74487 83.4267 5.74487C83.3739 5.74487 83.3211 5.75247 83.2759 5.77527C83.2382 5.79047 83.208 5.79807 83.1703 5.80567L83.1175 5.82086L83.1024 5.87406C83.0722 5.95765 83.042 6.03364 83.0043 6.10203C82.9591 6.19322 82.9364 6.30721 82.9364 6.45919V6.55038C82.9364 6.59598 82.944 6.62637 82.9666 6.67197V6.77836C82.9666 6.88475 82.9666 7.05193 82.9515 7.2723C82.944 7.50028 82.9214 7.74345 82.8912 7.99422C82.861 8.25259 82.8157 8.51096 82.7479 8.76934C82.68 9.02011 82.5895 9.23288 82.4839 9.40007C82.3405 9.59004 82.2123 9.57485 82.0841 9.43046C82.0087 9.34687 81.9408 9.24048 81.8804 9.1189C81.8201 8.99731 81.7673 8.86813 81.7296 8.73894C81.6919 8.60975 81.6692 8.50337 81.6617 8.41978C81.624 8.1614 81.5938 7.87264 81.5636 7.56107C81.541 7.24191 81.5108 6.93034 81.4806 6.62638V6.54278C81.4656 6.4364 81.3826 6.32241 81.2242 6.20842C81.0733 6.09443 80.9225 6.04124 80.8093 6.04124C80.7565 6.02604 80.7264 6.01844 80.7188 6.01844L80.6811 6.10963V6.01084H80.5906C80.5076 6.03364 80.4171 6.07164 80.3341 6.12483C80.2511 6.18562 80.1606 6.22362 80.0626 6.25402H80.0249L80.0022 6.29201C79.9419 6.3756 79.9117 6.45159 79.8966 6.51999C79.8966 6.55038 79.8891 6.56558 79.8891 6.57318L79.8665 6.59598V6.74036V6.78596V7.2647C79.8589 7.48508 79.8212 7.75865 79.7533 8.09301C79.6854 8.41977 79.5195 8.82253 79.2404 9.30888C79.1951 9.40767 79.1423 9.47606 79.0895 9.52925C79.0141 9.59004 78.9764 9.60524 78.9764 9.61284H78.9387C78.8104 9.52165 78.735 9.40007 78.7048 9.24808C78.6671 9.0809 78.652 8.82253 78.652 8.48057V7.91063C78.652 7.87264 78.652 7.80424 78.652 7.71305L78.6822 7.12792C78.6822 7.03673 78.6898 6.96834 78.6898 6.93034C78.6898 6.91514 78.6898 6.87715 78.6898 6.82395C78.6898 6.77836 78.6898 6.73276 78.6898 6.67957V6.58078H78.5917L78.6898 6.55798V6.51999C78.6822 6.48199 78.6747 6.4288 78.6596 6.3756C78.652 6.31481 78.637 6.26162 78.6219 6.21602C78.5992 6.14003 78.5615 6.10203 78.5238 6.08684C78.5012 6.05644 78.4559 6.03364 78.373 6.03364H78.3352C78.3352 6.03364 78.2673 5.99565 78.2296 5.98045C78.1467 5.94245 78.0033 5.92725 77.7921 5.92725C77.6941 5.92725 77.5734 5.98045 77.4225 6.07924C77.2641 6.19322 77.1887 6.29961 77.1887 6.4136C77.1887 6.4288 77.1887 6.45919 77.1736 6.50479C77.1661 6.55798 77.1585 6.61878 77.1585 6.67957C77.151 6.91514 77.1359 7.17351 77.1284 7.44708C77.1208 7.72065 77.1133 8.00182 77.1133 8.29059C77.1133 8.54136 77.1133 8.77694 77.1284 8.99731C77.1359 9.21769 77.1661 9.42286 77.2038 9.59764C77.234 9.74203 77.2943 9.90161 77.3773 10.0612C77.4603 10.2208 77.5583 10.3728 77.679 10.5171C77.7997 10.6615 77.9355 10.7907 78.0939 10.8971C78.2523 11.0035 78.4333 11.0719 78.6219 11.0947C78.6747 11.1023 78.7275 11.1099 78.7727 11.1099H78.8783C78.9764 11.1099 79.0744 11.0947 79.165 11.0567C79.2479 11.0263 79.3384 10.9883 79.4591 10.9351C79.61 10.8591 79.7307 10.7603 79.8061 10.6463C79.874 10.5475 79.9343 10.4563 80.0022 10.3804C80.1305 10.1904 80.2436 9.9928 80.3417 9.80282L80.5001 9.48366C80.5302 9.55965 80.5604 9.62804 80.5906 9.69643C80.6434 9.81802 80.7037 9.94721 80.7641 10.0688C80.832 10.198 80.8923 10.3044 80.9451 10.3728C80.9526 10.3956 80.9753 10.426 81.0582 10.5095C81.1186 10.5703 81.194 10.6311 81.2921 10.6919C81.3826 10.7527 81.4882 10.8135 81.6013 10.8667C81.7145 10.9199 81.8427 10.9579 81.986 10.9807H82.1067C82.1897 10.9807 82.2727 10.9731 82.3481 10.9579C82.4084 10.9427 82.4763 10.9351 82.5518 10.9351C82.5819 10.9351 82.597 10.9351 82.597 10.9351C82.68 11.0415 82.8082 11.0339 83.027 10.8971C83.125 10.8363 83.2004 10.7907 83.2457 10.7603L83.2683 10.7375C83.3287 10.6691 83.4116 10.5779 83.5248 10.4715C83.6455 10.35 83.7662 10.2056 83.8642 10.0232C84.0075 9.78002 84.1056 9.58245 84.1509 9.40007C84.2037 9.20249 84.2187 9.14929 84.2338 9.1189C84.3168 8.85293 84.3771 8.53376 84.4224 8.1538C84.4677 7.78905 84.4978 7.43189 84.5205 7.08992C84.5205 7.04433 84.5205 7.00633 84.5205 6.96834C84.5205 6.92274 84.528 6.87715 84.528 6.82395C84.528 6.77076 84.528 6.71757 84.5205 6.66437V6.64157Z" fill="#13A538"/>
</g>
<defs>
<clipPath id="clip0_200_1345">
<rect width="90.2439" height="60.9756" fill="white" transform="translate(0.755859)"/>
</clipPath>
</defs>
</svg>
