<svg width="73" height="61" viewBox="0 0 73 61" fill="none" xmlns="http://www.w3.org/2000/svg">
<g clip-path="url(#clip0_53_1136)">
<path d="M54.3734 5.00836H18.5706L0.0332031 27.0941H35.7983L54.3734 5.00836Z" fill="#DF6436"/>
<path d="M53.6238 27.8595V32.2795H40.9185L40.9138 59.0388H3.36328V27.8595H53.6238Z" fill="#E8E8E8"/>
<path opacity="0.12" d="M37.5557 28.3665H3.33105V29.6342H37.5557V28.3665Z" fill="black"/>
<path d="M16.1067 37.8666H8.70117V49.3759H16.1067V37.8666Z" fill="#A8E4C8"/>
<path d="M10.0152 37.8236H8.69141V49.3711H10.0152V37.8236Z" fill="#B2B2B2"/>
<path d="M11.306 37.8619H10.0576V49.3711H11.306V37.8619Z" fill="#19B86D"/>
<path d="M10.0293 37.881V39.1487H16.1205V37.881H10.0293Z" fill="#19B86D"/>
<path d="M29.5852 37.8666H22.1797V49.3759H29.5852V37.8666Z" fill="#A8E4C8"/>
<path d="M23.4937 37.8236H22.1699V49.3711H23.4937V37.8236Z" fill="#B2B2B2"/>
<path d="M24.7796 37.8619H23.5312V49.3711H24.7796V37.8619Z" fill="#19B86D"/>
<path d="M23.5029 37.881V39.1487H29.5941V37.881H23.5029Z" fill="#19B86D"/>
<path d="M54.373 6.92657L37.0699 27.1036L36.1278 28.223L36.123 59.0387H70.3712L70.3759 28.3617L54.373 6.92657Z" fill="#F5F5F5"/>
<path d="M30.1356 0.951904H25.3682V16.3024H30.1356V0.951904Z" fill="#636363"/>
<path d="M34.1966 11.0691V0.99974L29.9238 0.951904V16.3024H30.0322L34.1966 11.0691Z" fill="#84807E"/>
<path d="M37.07 28.3713H1.24839L0 27.1036H35.8169L37.07 28.3713Z" fill="#636363"/>
<path d="M54.3359 7.57714L37.0705 28.3713L35.8174 27.1036L54.3736 5.00836L73.0005 27.2328L71.8793 28.3617L54.3359 7.57714Z" fill="#84807E"/>
<path d="M54.3358 7.57715L53.4502 8.64867L70.3764 28.3617H71.8792L54.3358 7.57715Z" fill="#878787"/>
<path opacity="0.12" d="M36.123 29.6294H38.2335L53.5157 11.1648L68.3785 28.3617H70.3759L53.4497 8.64868L37.0699 28.3713H36.1278L36.123 29.6294Z" fill="black"/>
<path d="M58.924 38.0341H47.8581L47.7969 59.0531H58.8581L58.924 38.0341Z" fill="#DF6436"/>
<path d="M57.9011 39.0291L56.3937 40.5646H48.6631V39.0291H57.9011Z" fill="#A5A5A5"/>
<path d="M56.3945 40.5694V59.0388H57.902V39.0291L56.3945 40.5694Z" fill="#CCCACA"/>
<path d="M59.1218 37.7806V37.7615H47.6084V37.7806V39.0339V59.0914H48.8615V39.0339H57.9017V59.0914H59.1548V37.7806H59.1218Z" fill="#D8D8D8"/>
<path opacity="0.12" d="M56.4173 40.5646H55.1689V59.0388H56.4173V40.5646Z" fill="black"/>
<path d="M49.6576 29.8447H56.8135V22.3823H49.6576V29.8447Z" fill="#19B86D"/>
<path d="M55.4995 29.8399H56.8232V22.3345H55.4995V29.8399Z" fill="#C1C1C1"/>
<path d="M54.2086 29.8447H55.457V22.3775H54.2086V29.8447Z" fill="#A8E4C8"/>
<path d="M49.6387 22.3919V23.6595H55.4802V22.3919H49.6387Z" fill="#A8E4C8"/>
<path d="M72.4441 59.0914H34.7617V61H72.4441V59.0914Z" fill="#8E8B8A"/>
<path d="M38.6668 59.0914H0.984375V61H38.6668V59.0914Z" fill="#DF6436"/>
<path d="M35.3504 0H28.8164V1.15762H35.3504V0Z" fill="#8E8A87"/>
<path d="M31.0164 0H24.4824V1.15762H31.0164V0Z" fill="#726F6F"/>
</g>
<defs>
<clipPath id="clip0_53_1136">
<rect width="73" height="61" fill="white"/>
</clipPath>
</defs>
</svg>
