<svg width="102" height="67" viewBox="0 0 102 67" fill="none" xmlns="http://www.w3.org/2000/svg">
<path d="M82.3237 6.4751L18.184 6.48037L0.432617 28.8398H64.597L82.3237 6.4751Z" fill="#DF6436"/>
<path d="M81.6052 28.8397V34.0892H69.4367L69.4318 60.2157H3.62109V28.8397H81.6052Z" fill="#E5E5E5"/>
<path opacity="0.12" d="M66.212 30.1322H3.58594V31.4195H66.212V30.1322Z" fill="black"/>
<path d="M82.3254 6.4751L64.5986 28.8398L64.8493 29.9847L64.8444 60.2211H97.6441L97.6539 30.1271L82.3254 6.4751Z" fill="#F5F5F5"/>
<path d="M65.7511 30.1379H1.59661L0.397461 28.8505H64.552L65.7511 30.1379Z" fill="#5E5A58"/>
<path d="M82.2834 9.08141L65.7509 30.1377L64.5518 28.8504L82.3228 6.4751L100.163 28.9823L99.0863 30.1271L82.2834 9.08141Z" fill="#847E7B"/>
<path d="M82.2847 9.0813L81.4395 10.1681L97.6525 30.127H99.0876L82.2847 9.0813Z" fill="#5E5A58"/>
<path opacity="0.12" d="M64.8428 31.4088H66.8676L81.5031 12.7109L95.7405 30.1268H97.6523L81.4392 10.1679L65.752 30.1373H64.8477L64.8428 31.4088Z" fill="black"/>
<path d="M83.9771 60.2837H89.0293V38.3938H83.9771V60.2837Z" fill="#DDDDDD"/>
<path d="M84.9711 38.9476H74.3754L74.3164 60.2308H84.9122L84.9711 38.9476Z" fill="#DF6436"/>
<path d="M85.4412 38.6738H74.1328V38.6949V39.9612V60.2735H75.332V39.9612H83.9914V60.2735H85.4707L85.4412 38.6738Z" fill="#C1C1C1"/>
<path d="M84.0941 39.9663H82.5215V60.2892H84.0941V39.9663Z" fill="#77716E"/>
<path d="M74.1436 36.7744H89.4229L89.4425 60.284H87.634V38.7212H74.1436V36.7744Z" fill="#A0A0A0"/>
<path d="M74.1152 38.7422H76.3906V36.7796H74.1152V38.7422Z" fill="#DDDDDD"/>
<path d="M101.309 64.3419H53.0479V66.4311H101.309V64.3419Z" fill="#77716E"/>
<path d="M70.106 64.3419H0V66.4311H70.106V64.3419Z" fill="#DF6436"/>
<path d="M23.7363 40.267H13.1602V52.122H23.7363V40.267Z" fill="#A8E4C8"/>
<path d="M12.1865 39.2387L13.2677 40.4152H23.7357V39.2598V39.2387H12.1865Z" fill="#C4C2C2"/>
<path d="M13.2638 40.3999V52.1231L12.1826 52.1072V39.2445L13.2638 40.3999Z" fill="#D6D6D6"/>
<path d="M13.2637 52.0806H14.4629L14.4629 40.4418H13.2637L13.2637 52.0806Z" fill="#19B86D"/>
<path d="M13.3174 40.3732V41.6605H23.7313V40.3732H13.3174Z" fill="#19B86D"/>
<path d="M18.5722 52.0165H19.1816V41.0636H18.5722V52.0165Z" fill="#19B86D"/>
<path d="M40.4941 40.267H29.918V52.122H40.4941V40.267Z" fill="#A8E4C8"/>
<path d="M28.9512 39.2387L30.0275 40.4152H40.4954V39.2598V39.2387H28.9512Z" fill="#C4C2C2"/>
<path d="M30.0285 40.3999V52.1231L28.9473 52.1072V39.2445L30.0285 40.3999Z" fill="#D6D6D6"/>
<path d="M30.0216 52.0806H31.2207V40.4418H30.0216V52.0806Z" fill="#19B86D"/>
<path d="M30.084 40.3732V41.6605H40.4979V40.3732H30.084Z" fill="#19B86D"/>
<path d="M35.3271 52.0165H35.9365V41.0636H35.3271V52.0165Z" fill="#19B86D"/>
<path d="M57.2529 40.267H46.6768V52.122H57.2529V40.267Z" fill="#A8E4C8"/>
<path d="M45.709 39.2387L46.7853 40.4152H57.2533L57.2582 39.2598V39.2387H45.709Z" fill="#C4C2C2"/>
<path d="M46.7863 40.3999V52.1231L45.7051 52.1072V39.2445L46.7863 40.3999Z" fill="#D6D6D6"/>
<path d="M46.7823 52.0806H47.9814V40.4418H46.7823V52.0806Z" fill="#19B86D"/>
<path d="M46.8408 40.3732V41.6605H57.2548V40.3732H46.8408Z" fill="#19B86D"/>
<path d="M52.0888 52.0165H52.6982V41.0636H52.0888V52.0165Z" fill="#448D99"/>
<path d="M33.2238 1.03552H28.6582V21.9863H33.2238V1.03552Z" fill="#5E5A58"/>
<path d="M37.1094 16.684V1.08301L33.0205 1.03552V21.9863H33.1237L37.1094 16.684Z" fill="#847E7B"/>
<path d="M64.7925 60.2155H3.62109V64.4995H64.7925V60.2155Z" fill="#E5E5E5"/>
<path d="M97.8149 60.2155H64.7744V64.4995H97.8149V60.2155Z" fill="#F5F5F5"/>
<path d="M91.2106 60.2318H75.9951V62.4687H91.2106V60.2318Z" fill="#DDDDDD"/>
<path d="M93.0563 62.4686H77.8408V64.4893H93.0563V62.4686Z" fill="#C1C1C1"/>
<path d="M76.2349 60.232V62.5112H77.8518V64.5055H74.1807V60.2214L76.2349 60.232Z" fill="#7F7F7F"/>
<path d="M82.2494 32.0003C84.4534 32.0003 86.24 30.0822 86.24 27.7162C86.24 25.3502 84.4534 23.4321 82.2494 23.4321C80.0454 23.4321 78.2588 25.3502 78.2588 27.7162C78.2588 30.0822 80.0454 32.0003 82.2494 32.0003Z" fill="#AFAFAF"/>
<path d="M81.6567 23.4849C79.74 23.7961 78.2656 25.5689 78.2656 27.7162C78.2656 29.8635 79.74 31.6362 81.6567 31.9475C83.5733 31.6362 85.0477 29.8635 85.0477 27.7162C85.0477 25.5689 83.5733 23.7961 81.6567 23.4849Z" fill="#19B86D"/>
<path d="M81.6787 23.4849C81.5263 23.5112 81.3789 23.5482 81.2314 23.5904C82.927 24.0863 84.1753 25.7377 84.1753 27.7162C84.1753 29.6946 82.927 31.346 81.2314 31.842C81.3789 31.8842 81.5263 31.9211 81.6787 31.9475C83.5953 31.6362 85.0697 29.8635 85.0697 27.7162C85.0697 25.5689 83.5953 23.7961 81.6787 23.4849Z" fill="#A8E4C8"/>
<path d="M37.807 0.782349H33.3691V2.60255H37.807V0.782349Z" fill="#847E7B"/>
<path d="M33.5644 0.782349H28.1289V2.60255H33.5644V0.782349Z" fill="#5E5A58"/>
<path d="M32.9977 2.57635H28.6582V3.35192H32.9977V2.57635Z" fill="#514D4C"/>
<path d="M37.0848 2.57635H33.0205V3.35192H37.0848V2.57635Z" fill="#77716F"/>
</svg>
