<svg width="104" height="64" viewBox="0 0 104 64" fill="none" xmlns="http://www.w3.org/2000/svg">
<path d="M81.5818 10.8677H75.2754V23.4158H81.5818V10.8677Z" fill="#89827D"/>
<path opacity="0.15" d="M81.578 10.9478H75.2812V11.6232H81.578V10.9478Z" fill="black"/>
<path d="M82.0163 9.53137H74.6436V10.9923H82.0163V9.53137Z" fill="#6D6661"/>
<path d="M77.3474 12.9282H75.2871V14.089H77.3474V12.9282Z" fill="#828282"/>
<path d="M81.5505 14.0845H79.4854V15.2452H81.5505V14.0845Z" fill="#828282"/>
<path d="M79.4743 15.2098H77.4092V16.3706H79.4743V15.2098Z" fill="#828282"/>
<path d="M1.70801 39.6513H102.171L52.1782 3.42798L1.70801 39.6513Z" fill="#F9F9F9"/>
<path d="M89.1614 39.6508H15.0967V58.1527H89.1614V39.6508Z" fill="#E5E5E5"/>
<path d="M43.0594 44.0734H33.4189V53.9647H43.0594V44.0734Z" fill="#19B86D"/>
<path d="M33.7906 44.3538V53.97L32.6133 53.965V43.1381L33.7906 44.3538Z" fill="#C4C2C2"/>
<path d="M43.7737 43.1381L42.5915 44.3538H33.7906L32.6133 43.1381H43.7737Z" fill="#AAAAAA"/>
<path d="M42.5962 44.3538L42.5527 53.985L43.7445 53.97L43.7735 43.1381L42.5962 44.3538Z" fill="#C4C2C2"/>
<path d="M56.6561 44.0739H47.0156V53.9652H56.6561V44.0739Z" fill="#19B86D"/>
<path d="M56.6561 44.3841L48.5452 44.364V44.354L48.2701 44.0739H47.363V44.364H47.0156V45.2146L47.363 45.5748V53.9652H48.5452V45.5998H56.1929L56.6561 45.1145V44.3841Z" fill="#19B86D"/>
<path d="M47.3902 44.3538V53.97L46.208 53.965V43.1381L47.3902 44.3538Z" fill="#C4C2C2"/>
<path d="M57.3732 43.1381L56.1911 44.3538H47.3902L46.208 43.1381H57.3732Z" fill="#AAAAAA"/>
<path d="M56.189 44.3538L56.1504 53.985L57.3422 53.97L57.3711 43.1381L56.189 44.3538Z" fill="#C4C2C2"/>
<path d="M52.0672 0.0955711L52.0286 0.0655518L0 37.9299L1.55367 39.7461L52.0286 3.52278L52.0672 3.5578L102.021 39.7461L103.826 37.6147L52.0672 0.0955711Z" fill="#DF6436"/>
<path d="M56.8118 16.376H47.374V35.5033H56.8118V16.376Z" fill="#A8E4C8"/>
<path d="M47.7909 16.6867L47.762 35.5538L46.3965 35.5238L46.4689 15.3208L47.7909 16.6867Z" fill="#C4C2C2"/>
<path d="M57.6146 15.3207L56.2878 16.6865H47.7908L46.4688 15.3207V15.2957L57.6146 15.3207Z" fill="#AAAAAA"/>
<path d="M56.2878 16.6867L56.2637 35.5238H57.5423L57.6147 15.3208L56.2878 16.6867Z" fill="#C4C2C2"/>
<path d="M48.5707 16.691H47.707V35.4631H48.5707V16.691Z" fill="#19B86D"/>
<path d="M56.2367 16.691H55.373V35.4631H56.2367V16.691Z" fill="#19B86D"/>
<path d="M47.707 16.6612V17.5568H56.2667V16.6612H47.707Z" fill="#19B86D"/>
<path d="M42.7406 35.499H33.3027V23.5213L42.7406 16.947V35.499Z" fill="#A8E4C8"/>
<path d="M41.4296 35.5479H42.3174V17.8264H41.4296V35.5479Z" fill="#19B86D"/>
<path d="M34.6808 23.4597H33.793V35.5475H34.6808V23.4597Z" fill="#19B86D"/>
<path d="M33.5977 23.3358L33.8775 24.2114L42.2345 18.8029L41.9547 17.9274L33.5977 23.3358Z" fill="#19B86D"/>
<path d="M43.643 15.3207V15.2957L32.4971 22.4703L32.5694 35.5237H33.8481L33.8191 23.2708L42.3209 17.8323L42.3498 35.5537L43.7153 35.5237L43.643 15.3207Z" fill="#C4C2C2"/>
<path d="M61.3311 35.5236H70.7641V23.5659L61.3311 16.9967V35.5236Z" fill="#A8E4C8"/>
<path d="M62.6388 17.832H61.751V35.5534H62.6388V17.832Z" fill="#19B86D"/>
<path d="M70.2775 23.4597H69.3896V35.4975H70.2775V23.4597Z" fill="#19B86D"/>
<path d="M70.4699 23.3706L70.1949 24.2412L61.8379 18.8327L62.1129 17.9572L70.4699 23.3706Z" fill="#19B86D"/>
<path d="M60.4297 15.3204V15.2904L71.5708 22.465L71.4984 35.5184L70.2198 35.5234L70.2487 23.2655L61.7518 17.827L61.7229 35.5484L60.3525 35.5184L60.4297 15.3204Z" fill="#C4C2C2"/>
<path d="M72.4366 35.1432H31.8916V36.7342H72.4366V35.1432Z" fill="#F9F9F9"/>
<path opacity="0.15" d="M1.70801 39.6515L52.0672 3.55823L101.881 39.6264L97.8522 39.5764L52.2216 6.63521L5.58253 39.6515H1.70801Z" fill="black"/>
<path d="M72.8103 41.4371H60.5498V58.4331H72.8103V41.4371Z" fill="#C4C2C2"/>
<path d="M71.5838 42.9132H61.7793V58.3732H71.5838V42.9132Z" fill="#DF6436"/>
<path d="M89.1801 58.1381H15.0479V63.5515H89.1801V58.1381Z" fill="#DF6436"/>
<path d="M72.8247 59.8439H60.4629V61.8752H72.8247V59.8439Z" fill="#C4C2C2"/>
<path d="M72.8247 61.881H60.4629V63.5571H72.8247V61.881Z" fill="#A5A5A5"/>
<path d="M71.5784 42.9132H61.7256V58.2331H61.7401V58.2581H62.9415V44.0589H70.3673V58.2581H71.5687V44.0589H71.5784V42.9132Z" fill="#5B5B5B"/>
<path d="M72.8247 58.0978H60.4629V60.024H72.8247V58.0978Z" fill="#D6D6D6"/>
</svg>
