<svg width="14" height="24" viewBox="0 0 14 24" fill="none" xmlns="http://www.w3.org/2000/svg">
<path d="M12.0004 23.6662C11.7813 23.6723 11.5635 23.6308 11.3621 23.5444C11.1607 23.4581 10.9804 23.3291 10.8337 23.1662L0.833735 13.1662C0.675808 13.0157 0.550085 12.8347 0.464182 12.6341C0.378279 12.4336 0.333984 12.2177 0.333984 11.9995C0.333984 11.7814 0.378279 11.5655 0.464182 11.3649C0.550085 11.1644 0.675808 10.9834 0.833735 10.8329L10.8337 0.832877C11.1442 0.528604 11.5622 0.359154 11.997 0.361349C12.4317 0.363545 12.8479 0.537209 13.1553 0.844602C13.4627 1.152 13.6364 1.56828 13.6386 2.00299C13.6408 2.43771 13.4713 2.85573 13.1671 3.16621L4.33373 11.9995L13.1671 20.8329C13.325 20.9834 13.4507 21.1644 13.5366 21.3649C13.6225 21.5655 13.6668 21.7814 13.6668 21.9995C13.6668 22.2177 13.6225 22.4336 13.5366 22.6341C13.4507 22.8347 13.325 23.0157 13.1671 23.1662C13.0204 23.3291 12.8401 23.4581 12.6387 23.5444C12.4373 23.6308 12.2195 23.6723 12.0004 23.6662Z" fill="white"/>
</svg>
