<svg width="170" height="65" viewBox="0 0 170 65" fill="none" xmlns="http://www.w3.org/2000/svg">
<path d="M77.922 31.7392V54.9834H83.4428V31.7392H77.922ZM67.9846 22.8793H62.306C61.6751 22.8793 61.7802 23.4526 61.7802 23.4526C61.8854 24.1823 62.0431 25.381 62.0431 27.8826C62.0431 33.407 61.3596 41.3287 55.2605 48.8857L54.8398 49.4069C54.8398 49.4069 51.1593 23.9738 51.1067 23.5047C51.1067 23.5047 51.1067 22.9315 50.5809 22.9315H44.8498C44.324 22.9315 44.324 23.5047 44.324 23.5047C44.1663 26.4233 42.5364 50.9183 24.5018 54.8792C28.34 55.2961 32.967 54.0974 37.0156 51.6479C42.0106 48.573 45.3756 44.0388 46.4798 38.8271C46.4798 38.8271 48.6881 52.4818 48.951 55.6088V55.8173L48.7932 55.9215C43.7457 58.5795 38.0146 60.0387 32.2835 60.0387C18.0872 60.0387 5.52079 51.7 0 38.9835C3.25989 53.941 16.7201 64.8335 32.4412 64.8335C50.7912 64.8335 61.7277 49.6153 63.6205 38.775C63.6205 38.775 66.0917 54.5664 66.1443 55.0876H73.6631C73.5579 54.4101 68.5629 24.078 68.5103 23.609C68.5103 23.609 68.5103 23.0357 67.9846 23.0357V22.8793ZM4.41663 36.1692C4.41663 19.4917 18.6129 5.94133 36.0166 5.94133C46.7952 5.94133 56.8378 11.3094 62.6741 20.0129C58.4152 8.13024 46.5324 0 33.2299 0C16.0366 0 2.05058 13.2898 2.05058 29.6024C2.05058 34.0845 3.15474 38.4623 5.20531 42.4753C4.7321 40.4428 4.41663 38.306 4.41663 36.2213V36.1692ZM136.179 35.0747C134.181 32.7816 131.395 31.5829 128.03 31.5829C124.612 31.5829 121.72 32.6773 119.407 34.8662C117.146 37.003 115.989 39.8695 115.989 43.4134C115.989 46.9053 117.093 49.7196 119.302 51.8043C121.51 53.8889 124.717 54.9313 128.713 54.9313C136.495 54.9313 138.177 49.6153 138.808 47.8955L136.81 47.2701C135.023 50.5013 131.027 50.7098 128.661 50.5534C126.978 50.4492 125.453 49.8759 124.244 49.0421C123.035 48.1561 122.193 46.9053 121.825 44.9769L121.72 44.2473H139.176C139.124 40.4428 138.125 37.3679 136.179 35.1268V35.0747ZM122.141 40.9639C121.878 40.9639 121.878 40.7033 121.878 40.5991C122.088 39.2441 122.614 38.2017 123.56 37.2636C124.612 36.1692 126.242 35.5438 127.977 35.5438C129.554 35.5438 130.816 36.0128 131.921 36.8988C132.814 37.6806 133.445 38.775 133.813 40.2864C133.866 40.4428 133.971 40.9118 133.55 40.9118H122.141V40.9639ZM153.741 31.4786C147.116 31.4786 144.75 35.4916 144.014 37.3679C144.014 37.42 143.751 38.0454 143.751 38.0454L145.959 38.775C145.959 38.775 147.379 34.7099 153.005 34.9705C158.683 35.1789 158 39.8174 158 40.547C154.845 39.6089 150.376 39.7131 147.431 41.016C143.751 42.6838 143.172 46.0193 143.33 48.4688C143.488 52.117 146.748 54.6707 150.954 54.8792C154.74 55.0876 156.422 54.2537 158 52.7424L157.947 54.8792H162.942V48.7815V41.2766V39.9737V38.8792C163.047 36.1171 161.102 31.4265 153.741 31.4265V31.4786ZM157.947 49.5111C157.947 49.8759 157.842 50.1365 157.526 50.2929C156.58 50.7619 154.582 51.3873 152.111 51.231C149.534 51.0225 148.535 49.1984 148.378 48.4166C148.325 48.1039 147.747 44.7163 151.059 43.674C153.215 42.9965 155.949 43.4134 157.421 43.8304C157.842 43.9346 157.947 44.1952 157.947 44.7163V49.5632V49.5111ZM83.0747 22.8793H78.5003C77.8168 22.8793 77.922 23.5569 77.922 23.5569C77.922 24.2865 77.922 27.7262 77.922 28.4559H83.5479V23.5047C83.5479 23.5047 83.6005 22.9315 83.0221 22.9315L83.0747 22.8793ZM111.152 22.8793H106.472C105.999 22.8793 105.999 23.4005 105.999 23.4005V32.9379L105.316 32.5731C104.579 32.2083 103.843 31.9477 103.055 31.7913C102.266 31.635 101.32 31.5829 100.268 31.5829C96.5875 31.5829 93.5905 32.6252 91.3822 34.762C89.2264 36.8467 88.0697 39.8695 88.0697 43.5698C88.0697 46.8531 89.0161 49.6153 90.8564 51.8043C92.6967 53.941 95.3782 55.0355 98.901 55.0355C103.949 55.0355 105.947 52.0127 105.947 52.0127V54.9313H111.625V49.459C111.625 43.3092 111.625 23.4526 111.625 23.4526C111.625 23.4526 111.625 22.8793 111.152 22.8793ZM105.684 48.6251C105.158 49.0942 104.474 49.459 103.633 49.7717C102.739 50.1365 101.688 50.2929 100.531 50.2929C98.6381 50.2929 97.1133 49.6675 96.0091 48.4166C94.905 47.1658 94.3792 45.3417 94.3792 42.8923C94.3792 40.4949 94.905 38.7229 95.904 37.6284C96.9555 36.4819 98.5329 35.9086 100.636 35.9086C101.74 35.9086 102.792 36.0649 103.738 36.4297C104.579 36.7425 105.21 37.0552 105.684 37.4721C105.841 37.6284 105.999 37.889 105.999 38.2538V47.7912C105.999 48.1561 105.841 48.4166 105.684 48.573V48.6251Z" fill="#00B0F0"/>
<path d="M166.362 19.0225C164.417 19.0225 162.944 20.4817 162.944 22.4101C162.944 24.2863 164.417 25.7977 166.362 25.7977C168.307 25.7977 169.78 24.3384 169.78 22.4101C169.78 20.5339 168.307 19.0225 166.362 19.0225ZM166.362 19.4915C167.992 19.4915 169.254 20.7944 169.254 22.4101C169.254 24.0257 168.044 25.3286 166.362 25.3286C164.732 25.3286 163.47 24.0257 163.47 22.4101C163.47 20.7944 164.679 19.4915 166.362 19.4915ZM165.626 22.6185H166.467L167.571 24.3384H168.15L166.993 22.6185C167.519 22.5143 167.992 22.2016 167.992 21.5241C167.992 20.8466 167.624 20.4296 166.73 20.4296H165.205V24.3384H165.678V22.6185H165.626ZM165.626 22.2016V20.8466H166.52C166.993 20.8466 167.466 20.9508 167.466 21.5241C167.466 22.2016 166.888 22.2016 166.309 22.2016H165.678H165.626Z" fill="#00B0F0"/>
</svg>
