<svg width="179" height="32" viewBox="0 0 179 32" fill="none" xmlns="http://www.w3.org/2000/svg">
<path d="M17.6571 20.4031H5.88571L0 30.3835H11.7714L17.6571 20.4031ZM17.6571 20.4031H29.4285L35.3143 30.3835H23.5428L17.6571 20.4031ZM17.6571 0L23.6894 10.2016L17.6571 20.4031L11.6248 10.2747L17.6571 0Z" fill="#E51E25"/>
<path d="M170.973 16.2616V10.1522H176.797V22.3709H170.973V16.2616ZM153.906 16.2616V10.1522H159.728V14.5594H162.941V10.1522H168.765V22.3709H162.941V17.9637H159.728V22.3709H153.906V16.2616ZM130.412 16.2616V10.1522H136.236V22.3709H130.412V16.2616ZM122.788 14.1451C122.963 13.8227 122.94 13.6221 122.69 13.2435C122.431 12.8479 122.204 12.7561 121.473 12.7561H120.573V14.5594H121.57C122.373 14.5594 122.61 14.4788 122.788 14.1451ZM122.818 18.6667C123.162 17.9131 122.583 17.3638 121.446 17.3638H120.573V19.1653H121.582C122.461 19.1653 122.619 19.1016 122.818 18.6667ZM114.55 16.2728V10.1522L119.821 10.156C124.498 10.1597 125.182 10.2029 125.902 10.529C127.975 11.4682 128.612 13.7683 127.249 15.3842L126.731 15.9991L127.372 16.4978C128.236 17.1726 128.604 17.9562 128.604 19.1053C128.602 20.41 128.041 21.2817 126.842 21.8329C125.951 22.2453 125.556 22.2753 120.221 22.3315L114.55 22.3934V16.2728ZM71.5776 17.9731V13.5734L69.922 13.5153L68.2645 13.4572L68.2063 11.8056L68.148 10.1522H80.6148V13.5584H77.2002V22.3709H71.5776V17.9731ZM60.7345 16.2616V10.1522H66.5582V22.3709H60.7345V16.2616ZM40.2529 22.249C40.2529 22.1815 40.6156 19.5215 41.0572 16.3365C41.4989 13.1516 41.8597 10.4578 41.8597 10.3491C41.8597 10.2291 42.9722 10.156 44.7217 10.1635L47.5819 10.1747L48.5985 12.3043L49.6152 14.4357L50.6676 12.293L51.718 10.1522H54.5199C56.0609 10.1522 57.3256 10.1747 57.3294 10.2029C57.3331 10.2291 57.7221 12.9791 58.1938 16.3122L59.0507 22.3709H53.5634L53.4281 20.7531C53.3548 19.8627 53.2383 18.7342 53.1707 18.2468L53.0485 17.3582L51.5621 19.514C50.7446 20.7006 49.9553 21.7916 49.8069 21.9397C49.5832 22.1647 49.2788 21.8272 47.9577 19.8889C47.0895 18.6142 46.3228 17.5682 46.2551 17.5663C46.1875 17.5644 46.0729 18.2618 45.9996 19.1166C45.9263 19.9695 45.8135 21.0512 45.7478 21.5198L45.6294 22.3709H42.9421C41.4631 22.3709 40.2529 22.3165 40.2529 22.249ZM142.962 22.3559C142.409 22.2453 141.257 21.9266 140.402 21.6473L138.846 21.1355V19.3509C138.846 18.3667 138.88 17.5644 138.921 17.5644C138.964 17.5644 139.483 17.7837 140.077 18.0555C142.36 19.0941 145.542 19.5402 145.805 18.856C145.871 18.6873 145.876 18.5017 145.82 18.4455C145.763 18.3892 144.895 18.1755 143.892 17.9693C139.712 17.1145 137.978 15.6223 138.342 13.1928C138.517 12.0325 139.551 10.9658 140.986 10.4615C143.289 9.65547 147.519 9.89167 150.388 10.9864L151.495 11.4101V14.9381L150.242 14.3551C148.635 13.6109 146.865 13.1553 145.581 13.1591C143.413 13.1666 143.655 13.9895 145.934 14.3626C149.997 15.0318 151.895 16.3872 151.897 18.6254C151.899 20.3144 150.886 21.5067 148.945 22.0972C147.729 22.4684 144.283 22.6164 142.962 22.3559ZM102.35 22.2678C99.9782 21.7541 98.1253 20.3632 97.6781 18.766C97.5709 18.3799 97.4826 16.2841 97.4826 14.1076L97.4807 10.1522H103.103V13.8639C103.103 17.8137 103.271 18.7192 104.077 19.1503C104.827 19.5496 105.704 19.4071 106.332 18.781L106.918 18.1961V10.1522H112.541V14.2651C112.541 18.7417 112.43 19.3284 111.376 20.4363C109.713 22.1872 105.717 22.997 102.35 22.2678ZM86.7391 22.3559C86.1866 22.2453 85.0347 21.9266 84.1778 21.6473L82.6218 21.1355V19.3509C82.6218 18.3667 82.6556 17.5644 82.6988 17.5644C82.7402 17.5644 83.2588 17.7837 83.8526 18.0555C86.1359 19.0941 89.3174 19.5402 89.5805 18.856C89.6463 18.6873 89.6538 18.5017 89.5974 18.4455C89.5392 18.3892 88.6728 18.1755 87.6675 17.9693C83.5125 17.1201 81.7536 15.6186 82.1144 13.2285C82.2854 12.0831 83.3678 10.9508 84.7509 10.4653C87.0661 9.65547 91.2906 9.8898 94.1639 10.9864L95.2727 11.4101V14.9381L94.0173 14.3551C92.4106 13.6109 90.6404 13.1553 89.3569 13.1591C87.1883 13.1666 87.4307 13.9895 89.7121 14.3626C93.7749 15.0318 95.671 16.3872 95.6729 18.6254C95.6748 20.3144 94.6619 21.5067 92.7207 22.0972C91.5048 22.4684 88.0583 22.6164 86.7391 22.3559ZM172.832 28.1484C173.583 27.2617 172.96 25.9757 171.777 25.9757H171.174V27.2448C171.174 27.9422 171.24 28.5777 171.319 28.6583C171.558 28.8945 172.454 28.5927 172.832 28.1484ZM168.564 27.3817V24.3355L171.225 24.4048C173.441 24.4629 173.999 24.5417 174.566 24.8753C175.632 25.5015 176.094 26.2569 176.094 27.3779C176.094 28.4989 175.632 29.2582 174.57 29.8786C174.01 30.2048 173.426 30.2873 171.229 30.3529L168.564 30.4298V27.3817ZM162.941 28.0922V25.7995L162.088 25.7377C161.288 25.6795 161.231 25.6364 161.171 25.0253L161.109 24.3729H167.359V25.0759C167.359 25.7602 167.341 25.777 166.557 25.777H165.753V30.3829H162.941V28.0922ZM156.114 27.3779V24.3729H158.926V28.9807H161.335V30.3829H156.114V27.3779ZM137.239 27.3779V24.3729H142.46V25.5764H141.156C139.897 25.5764 139.85 25.5933 139.85 26.077C139.85 26.5494 139.91 26.5775 140.955 26.5775C142.048 26.5775 142.058 26.5831 142.058 27.1792C142.058 27.7735 142.048 27.7791 140.955 27.7791H139.85V29.1813H142.46V30.3829H137.239V27.3779ZM133.425 27.3779V24.3729H136.014L136.134 30.3829H133.425V27.3779ZM129.476 26.5437C129.786 26.0507 129.298 25.5764 128.48 25.5764C127.836 25.5764 127.802 25.6121 127.802 26.2888C127.802 26.988 127.817 27.0011 128.535 26.9393C128.944 26.9055 129.36 26.7312 129.476 26.5437ZM124.991 27.3779V24.3729H127.913C131.273 24.3729 131.846 24.5454 132.216 25.6664C132.515 26.5681 132.169 27.3536 131.28 27.796L130.643 28.1147L132.917 30.3829H129.722L128.762 29.44L127.802 28.4952V30.3829H124.991V27.3779ZM119.368 28.079V25.777H118.566C117.78 25.777 117.761 25.7602 117.761 25.0759V24.3729H124.012L123.95 25.0253C123.889 25.6364 123.833 25.6795 123.032 25.7377L122.179 25.7995V30.3829H119.368V28.079ZM97.7326 28.1371C98.4617 27.3029 97.9017 26.0001 96.7779 25.9195C96.1784 25.8764 96.1747 25.882 96.1145 27.0555C96.0807 27.7041 96.1014 28.3602 96.1615 28.5121C96.3062 28.8907 97.274 28.6583 97.7326 28.1371ZM93.4648 27.3779V24.3355L96.1258 24.4048C99.0198 24.4798 99.7226 24.7029 100.546 25.8051C101.102 26.5494 101.11 28.1971 100.561 28.932C99.7208 30.0567 99.0311 30.2761 96.1258 30.3529L93.4648 30.4223V27.3779ZM84.2285 27.3779V24.3729L87.3405 24.3767L88.3459 25.6627L89.3494 26.9486L89.4076 25.6608L89.4678 24.3729H92.2603V30.3829H89.2535L88.1974 28.9713L87.1394 27.5616L87.0811 28.9713L87.0229 30.3829H84.2285V27.3779ZM80.4137 27.3779V24.3729H83.225V30.3829H80.4137V27.3779ZM71.3765 29.2525C71.3765 28.229 71.275 27.9609 70.2734 26.3769C69.6664 25.4171 69.1684 24.5735 69.1684 24.5023C69.1684 24.4311 69.704 24.3729 70.358 24.3729H71.5494L72.194 25.4977L72.8367 26.6206L73.4418 25.4977L74.0469 24.3729H76.5876L75.3887 26.3169C74.3194 28.0509 74.1878 28.3752 74.1878 29.3219V30.3829H71.3765V29.2525ZM62.4634 27.8616C61.0747 24.0786 61.0709 24.3729 62.4953 24.3729C63.8446 24.3729 63.6248 24.1218 64.5625 26.7499L65.0173 28.0228L65.6468 26.2494L66.2782 24.4742L67.5223 24.4142C68.2063 24.3823 68.7663 24.4161 68.7663 24.4892C68.7663 24.5642 68.2965 25.9195 67.7196 27.5035L66.6728 30.3829H63.388L62.4634 27.8616ZM58.7914 28.4296C58.8384 28.3471 58.7407 27.8297 58.5734 27.2786L58.2671 26.2775L57.9984 27.2786C57.647 28.5927 57.6451 28.5795 58.2126 28.5795C58.4832 28.5795 58.7425 28.5121 58.7914 28.4296ZM55.2434 28.4296C55.6381 27.3554 56.1173 26.0263 56.3071 25.4752L56.6566 24.4742L58.2596 24.4161L59.8626 24.3598L60.9036 27.2205C61.4768 28.7951 61.9447 30.1505 61.9429 30.2329C61.941 30.3154 61.3885 30.3829 60.7157 30.3829C59.6615 30.3829 59.4773 30.3286 59.3871 29.9818C59.3007 29.6518 59.1128 29.5825 58.316 29.5825C57.5248 29.5825 57.3256 29.6556 57.2204 29.9818C57.1114 30.3286 56.9178 30.3829 55.811 30.3829H54.5275L55.2434 28.4296ZM48.8879 27.3779V24.3729H54.1084V25.5764H52.8042C51.5451 25.5764 51.4982 25.5933 51.4982 26.077C51.4982 26.5494 51.5583 26.5775 52.6031 26.5775C53.695 26.5775 53.7062 26.5831 53.7062 27.1792C53.7062 27.7735 53.695 27.7791 52.6031 27.7791H51.4982V29.1813H54.1084V30.3829H48.8879V27.3779ZM40.454 27.3779V24.3729H43.0436L43.1037 25.4246L43.1657 26.4762H44.9716L45.0337 25.4246L45.0938 24.3729H47.6834V30.3829H45.0731V28.1803H43.0642V30.3829H40.454V27.3779ZM176.545 30.3679C176.143 30.1336 176.073 29.1813 176.436 28.8214C176.568 28.6883 176.866 28.5795 177.098 28.5795C177.331 28.5795 177.627 28.6883 177.761 28.8214C178.142 29.2019 178.054 30.1411 177.612 30.3754C177.139 30.6285 176.994 30.6285 176.545 30.3679ZM144.869 30.2142C143.771 29.873 143.766 29.8655 143.702 28.9995C143.646 28.2234 143.679 28.1446 144.003 28.2796C145.814 29.0445 147.481 29.2413 147.481 28.6902C147.481 28.4952 147.083 28.3227 146.263 28.1615C144.752 27.8653 143.835 27.2711 143.595 26.4294C143.36 25.6139 143.813 24.8603 144.779 24.4573C145.617 24.1068 148.314 24.1068 149.287 24.4554C149.896 24.6729 149.997 24.806 150.052 25.4415C150.123 26.27 150.097 26.2813 148.986 25.882C147.887 25.4865 146.476 25.4808 146.476 25.8726C146.476 26.0357 146.724 26.2232 147.028 26.2907C148.33 26.5775 149.563 27.0536 149.915 27.4023C150.428 27.9141 150.42 29.2019 149.903 29.6706C148.896 30.5797 146.776 30.8084 144.869 30.2142ZM111.877 30.3642C110.558 30.0549 110.333 29.8524 110.333 28.9732C110.333 28.5364 110.363 28.1803 110.402 28.1803C110.44 28.1803 110.778 28.334 111.156 28.5214C112.092 28.9882 114.148 29.1363 114.148 28.737C114.148 28.5439 113.755 28.3565 112.999 28.1878C111.445 27.841 110.616 27.4192 110.351 26.8399C109.87 25.7864 110.207 24.8903 111.246 24.4573C112.06 24.118 114.424 24.0861 115.666 24.3973C116.534 24.6166 116.557 24.6429 116.557 25.4209C116.557 26.077 116.498 26.1969 116.23 26.0938C115.424 25.7864 114.161 25.5483 113.64 25.6102C112.565 25.7358 112.896 26.122 114.388 26.4875C116.091 26.9037 116.959 27.5954 116.959 28.5364C116.959 30.1148 114.533 30.9865 111.877 30.3642ZM104.007 30.3979C102.184 29.9593 101.899 29.4475 101.899 26.6337V24.3729H104.496L104.552 26.5231C104.609 28.6602 104.612 28.6733 105.155 28.8626C105.588 29.0145 105.787 28.977 106.11 28.6864C106.467 28.364 106.516 28.0734 106.516 26.3469V24.3729H109.128V26.5044C109.128 28.3077 109.064 28.7351 108.711 29.305C108.068 30.3435 105.886 30.8497 104.007 30.3979ZM150.608 30.6341C150.785 30.2198 150.976 29.7699 151.033 29.6312C151.138 29.3781 152.702 29.2675 152.702 29.515C152.702 29.5881 152.47 30.038 152.19 30.516C151.743 31.2752 151.593 31.384 150.984 31.384H150.287L150.608 30.6341Z" fill="#020202"/>
</svg>
