<svg width="34" height="34" viewBox="0 0 34 34" fill="none" xmlns="http://www.w3.org/2000/svg">
<path d="M30.6667 17C30.6667 24.5156 24.5155 30.6667 17 30.6667C9.48448 30.6667 3.33334 24.5156 3.33334 17C3.33334 9.48452 9.48448 3.33337 17 3.33337C24.5155 3.33337 30.6667 9.48452 30.6667 17Z" stroke="#E12500"/>
<path d="M24 16.5C24 17.325 23.325 18 22.5 18C21.675 18 21 17.325 21 16.5C21 15.675 21.675 15 22.5 15C23.325 15 24 15.675 24 16.5Z" fill="#E12500"/>
<path d="M13 16.5C13 17.325 12.325 18 11.5 18C10.675 18 10 17.325 10 16.5C10 15.675 10.675 15 11.5 15C12.325 15 13 15.675 13 16.5Z" fill="#E12500"/>
<path d="M20.5417 24.4999H19.125C19.125 23.2958 18.2042 22.3749 17 22.3749C15.7959 22.3749 14.875 23.2958 14.875 24.4999H13.4584C13.4584 22.5166 15.0167 20.9583 17 20.9583C18.9834 20.9583 20.5417 22.5166 20.5417 24.4999Z" fill="#E12500"/>
</svg>
