<svg width="14" height="24" viewBox="0 0 14 24" fill="none" xmlns="http://www.w3.org/2000/svg">
<path d="M2.0004 23.6667C1.78133 23.6728 1.56355 23.6313 1.36211 23.5449C1.16068 23.4586 0.980397 23.3295 0.833735 23.1667C0.675808 23.0162 0.550085 22.8352 0.464182 22.6346C0.378279 22.4341 0.333984 22.2182 0.333984 22C0.333984 21.7819 0.378279 21.566 0.464182 21.3654C0.550085 21.1649 0.675808 20.9839 0.833735 20.8334L9.66707 12L0.833735 3.1667C0.529462 2.85622 0.360013 2.4382 0.362208 2.00348C0.364404 1.56877 0.538067 1.15248 0.845461 0.84509C1.15285 0.537697 1.56914 0.364033 2.00385 0.361837C2.43857 0.359642 2.85658 0.529092 3.16707 0.833365L13.1671 10.8334C13.325 10.9839 13.4507 11.1649 13.5366 11.3654C13.6225 11.566 13.6668 11.7819 13.6668 12C13.6668 12.2182 13.6225 12.4341 13.5366 12.6346C13.4507 12.8352 13.325 13.0162 13.1671 13.1667L3.16707 23.1667C3.02041 23.3295 2.84012 23.4586 2.63869 23.5449C2.43725 23.6313 2.21947 23.6728 2.0004 23.6667Z" fill="white"/>
</svg>
