<svg width="172" height="23" viewBox="0 0 172 23" fill="none" xmlns="http://www.w3.org/2000/svg">
<path fill-rule="evenodd" clip-rule="evenodd" d="M20.0011 0.672122L18.7269 1.52225C12.7198 -0.888645 3.98318 -0.604248 1.2517 3.65027C-1.66083 8.47054 1.2517 11.0248 2.52594 11.8749C6.53067 14.2858 13.812 12.584 15.0862 15.5622C16.5425 18.5403 10.8995 18.9666 8.53304 18.6822C3.4361 18.1149 3.4361 17.5476 2.52594 17.4058C1.7978 17.1229 1.2517 16.9796 0.523568 16.5557V22.2276L1.7978 21.3775C4.89237 22.7949 9.98931 23.0777 13.2659 22.7949C19.273 22.0858 22.7316 17.4058 20.7293 13.1513C18.9099 9.18116 12.1737 10.0313 7.44084 8.75495C5.0744 8.18768 5.6205 5.49391 7.98694 4.50042C11.0815 3.36589 17.8167 4.7833 20.0011 6.48587V0.672122ZM30.5591 22.0865C31.1052 21.3775 30.9231 21.8021 31.4692 21.0931V1.52225C30.7411 0.954981 30.7411 0.672113 30.5591 0.528771H38.2045C37.6584 1.23938 38.0224 0.672118 37.2943 1.38044V21.2341L38.2045 22.0858L30.5591 22.0865ZM55.4977 21.2349V8.32949L68.058 22.2284H74.4291C74.4291 22.2284 74.0651 21.8021 73.519 21.0938V1.52302C74.0651 1.0968 73.883 0.813936 74.6112 0.529539H66.6017C67.1478 0.813936 67.1478 0.813932 67.8759 1.52302V13.5783L55.4977 0.672876H48.5804L49.4906 1.52302V21.0938C48.9435 21.6611 49.4906 21.2356 48.7624 22.0873H56.2258L55.4977 21.2349ZM104.648 6.34482C102.644 5.21028 99.7337 3.22483 94.4538 4.07498C91.5403 4.64225 89.3578 6.48586 88.6297 8.7557C87.5365 12.443 88.0826 16.9804 93.3626 18.2567C97.3673 19.2502 100.643 17.691 101.735 16.4131V12.443C101.553 11.8757 101.19 11.8757 100.825 11.5913H107.742C107.195 12.1586 107.56 11.7346 107.014 12.443V17.832C106.286 18.6822 105.376 19.6756 103.92 20.6676C100.643 22.6538 94.0907 23.3629 89.5399 21.6611C82.6226 18.9673 80.9833 12.443 83.1687 7.0539C85.3521 1.24014 94.6358 -2.02241 103.738 1.38197L104.649 0.814699L104.648 6.34482ZM116.661 22.0865C117.389 21.3775 117.573 21.3775 117.573 21.2349V2.23135C117.389 0.813934 117.208 1.23939 116.48 0.672122H136.504V5.4939C135.229 4.50042 136.322 4.7833 134.138 4.7833H123.397V9.18115C133.591 9.18115 133.591 9.32298 134.501 8.47055V13.8596C132.863 13.0095 135.957 13.1505 123.216 13.1505V17.9723C136.323 17.9723 135.958 18.1141 136.504 17.2632V22.085H116.661V22.0865ZM162.899 22.0865H172C169.999 20.6676 171.818 22.2284 164.901 13.7186C164.538 13.2923 167.085 12.584 168.723 10.8814C170.543 9.03782 170.18 6.62692 169.999 5.35057C169.815 4.21755 168.905 2.79786 166.72 1.66332C165.629 1.09605 163.443 0.386955 160.714 0.386955H146.697C147.425 1.23862 146.879 0.671355 147.608 1.38044V20.9512C147.06 21.8014 147.608 21.2341 146.697 22.0858H154.888C153.432 21.0923 153.797 21.8014 153.797 14.2858H157.801C164.901 22.5112 163.809 20.952 162.899 22.0865ZM161.078 9.60585H153.616V4.78406H161.078C164.901 4.78406 164.719 9.60585 161.078 9.60585Z" fill="#C9322D"/>
</svg>
