<svg width="179" height="32" viewBox="0 0 179 32" fill="none" xmlns="http://www.w3.org/2000/svg">
<path d="M112.615 13.1691H91.7546L90.5908 17.5596H97.5094L94.0877 31.1317H100.747L104.169 17.5596H111.45L112.615 13.1691Z" fill="#C21D58"/>
<path d="M171.647 31.1315H164.987L169.535 12.9596H176.196L171.647 31.1315Z" fill="#C21D58"/>
<path d="M22.0213 13.1691H1.16238L0 17.5596H6.91584L3.49411 31.1317H10.1538L13.5755 17.5596H20.8575L22.0213 13.1691Z" fill="#C21D58"/>
<path d="M160.793 13.3362H155.27L149.445 23.1998L148.368 13.3362H140.035L135.563 31.1257H141.083L143.667 20.8489L144.787 31.0896L144.765 31.1257H150.311L150.307 31.0896L157.008 19.743L154.146 31.1257H159.667L164.141 13.3362H160.793Z" fill="#C21D58"/>
<path d="M31.4761 31.5119C37.7265 31.514 43.3922 27.3094 44.13 22.1253C44.8665 16.9412 40.3993 12.7387 34.1489 12.7366C27.897 12.7366 22.2327 16.9391 21.4935 22.1242C20.7571 27.3083 25.2242 31.5108 31.4761 31.5119Z" fill="#C21D58"/>
<path d="M32.2717 26.3259C35.0921 26.3259 37.6479 24.4307 37.9792 22.0925C38.3119 19.7533 36.2962 17.8582 33.4759 17.8582C30.6569 17.8571 28.101 19.7533 27.7683 22.0925C27.4356 24.4307 29.4514 26.3259 32.2717 26.3259Z" fill="white"/>
<path d="M76.0967 31.5119C82.3457 31.514 88.0101 27.3094 88.7493 22.1253C89.4871 16.9412 85.0171 12.7387 78.7681 12.7366C72.5177 12.7366 66.8533 16.9391 66.1141 22.1242C65.3749 27.3083 69.8449 31.5108 76.0967 31.5119Z" fill="#C21D58"/>
<path d="M76.8116 26.3259C79.6306 26.3259 82.1878 24.4307 82.5219 22.0925C82.8532 19.7533 80.8375 17.8582 78.0185 17.8582C75.1982 17.8571 72.6423 19.7533 72.3096 22.0925C71.9755 24.4307 73.9913 26.3259 76.8116 26.3259Z" fill="white"/>
<path d="M121.76 31.5119C128.013 31.514 133.676 27.3094 134.414 22.1253C135.153 16.9412 130.683 12.7387 124.432 12.7366C118.181 12.7366 112.517 16.9391 111.778 22.1242C111.041 27.3083 115.511 31.5108 121.76 31.5119Z" fill="#C21D58"/>
<path d="M122.48 26.3259C125.301 26.3259 127.858 24.4307 128.191 22.0925C128.523 19.7533 126.505 17.8582 123.687 17.8582C120.867 17.8571 118.312 19.7533 117.978 22.0925C117.646 24.4307 119.66 26.3259 122.48 26.3259Z" fill="white"/>
<path d="M68.2364 13.0918H61.2704L54.4534 19.8449L50.6238 13.062H44.0156L50.3162 24.2205H50.3343L48.5677 31.132H55.2274L56.9912 24.2205H56.9995L68.2364 13.0918Z" fill="#C21D58"/>
<path d="M124.782 8.33371C127.269 9.05289 130.115 7.81636 131.141 5.57169C132.165 3.32809 130.985 0.925138 128.497 0.20489C126.012 -0.514296 123.165 0.720112 122.14 2.96372C121.115 5.20838 122.297 7.61134 124.782 8.33371Z" fill="#C21D58"/>
<path d="M80.9319 8.33371C83.4195 9.05289 86.2635 7.81636 87.2923 5.57169C88.3168 3.32809 87.1336 0.925138 84.6459 0.20489C82.1639 -0.514296 79.3157 0.720112 78.2911 2.96372C77.2638 5.20838 78.4484 7.61134 80.9319 8.33371Z" fill="#C21D58"/>
<path d="M36.5075 8.33371C38.9937 9.05289 41.8391 7.81636 42.8665 5.57169C43.891 3.32809 42.7064 0.925138 40.2215 0.20489C37.7381 -0.514296 34.8899 0.720112 33.8653 2.96372C32.838 5.20838 34.0226 7.61134 36.5075 8.33371Z" fill="#C21D58"/>
<path d="M172.274 8.33371C174.759 9.05289 177.605 7.81636 178.629 5.57169C179.657 3.32809 178.472 0.925138 175.989 0.20489C173.504 -0.514296 170.657 0.720112 169.631 2.96372C168.604 5.20838 169.788 7.61134 172.274 8.33371Z" fill="#C21D58"/>
</svg>
