<svg width="286" height="257" viewBox="0 0 286 257" fill="none" xmlns="http://www.w3.org/2000/svg">
<path d="M157.372 33.3091C147.7 31.3482 121.491 26.4275 94.0405 39.8726C60.8867 56.1081 32.8751 95.7162 42.5571 119.929C52.4518 144.671 92.1541 129.441 141.671 163.405C183.498 192.099 186.758 224.639 206.962 222.233C230.682 219.408 250.16 171.709 246.506 132.033C246.118 127.828 244.456 112.681 235.754 95.0865C233.108 89.7391 209.46 43.8614 157.372 33.3091Z" fill="#FFAF00"/>
<path d="M128.253 188.926L129.135 189.443L103.219 204.42L102.336 203.903L128.253 188.926Z" fill="#DFE5E5"/>
<path d="M120.355 184.358L121.238 184.875L95.3188 199.85L94.4385 199.335L120.355 184.358Z" fill="#DFE5E5"/>
<path d="M64.1904 160.124C65.679 160.982 65.679 162.374 64.1904 163.234C62.7018 164.092 60.2877 164.092 58.7991 163.234C57.3105 162.376 57.3105 160.985 58.7991 160.124C60.2877 159.266 62.7018 159.266 64.1904 160.124Z" fill="#DFE5E5"/>
<path d="M48.6553 168.592C50.1439 169.45 50.1439 170.842 48.6553 171.702C47.1667 172.56 44.7525 172.56 43.2639 171.702C41.7753 170.844 41.7753 169.452 43.2639 168.592C44.7525 167.734 47.1667 167.734 48.6553 168.592Z" fill="#DFE5E5"/>
<path d="M232.206 189.42C233.652 190.254 233.652 191.605 232.206 192.437C230.76 193.271 228.418 193.271 226.972 192.437C225.526 191.603 225.526 190.252 226.972 189.42C228.418 188.586 230.76 188.586 232.206 189.42Z" fill="#DFE5E5"/>
<path d="M146.521 249.983C146.201 249.976 145.876 249.952 145.559 249.914L145.588 249.678C145.9 249.714 146.215 249.738 146.528 249.745L146.521 249.983ZM147.484 249.964L147.468 249.726C147.78 249.707 148.095 249.671 148.405 249.621L148.443 249.857C148.126 249.907 147.804 249.943 147.484 249.964ZM144.605 249.759C144.292 249.692 143.978 249.611 143.67 249.519L143.739 249.29C144.037 249.38 144.345 249.461 144.653 249.526L144.603 249.759H144.605ZM149.388 249.664L149.328 249.433C149.634 249.356 149.937 249.264 150.233 249.161L150.311 249.385C150.011 249.49 149.701 249.585 149.388 249.664ZM142.763 249.194C142.468 249.073 142.172 248.937 141.888 248.789L141.998 248.577C142.274 248.723 142.563 248.856 142.854 248.973L142.763 249.194ZM151.208 249.025L151.108 248.808C151.394 248.677 151.676 248.534 151.948 248.379L152.067 248.587C151.79 248.746 151.499 248.894 151.208 249.028V249.025ZM141.48 248.563L140.652 248.086L140.771 247.879L141.599 248.356L141.48 248.563ZM152.892 248.105L152.773 247.898L153.599 247.419L153.718 247.626L152.892 248.105ZM139.827 247.61L138.999 247.133L139.118 246.926L139.946 247.402L139.827 247.61ZM154.543 247.147L154.424 246.94L155.249 246.461L155.369 246.669L154.543 247.147ZM138.173 246.657L137.348 246.18L137.467 245.973L138.293 246.449L138.173 246.657ZM156.194 246.19L156.075 245.982L156.9 245.503L157.019 245.711L156.194 246.19ZM136.52 245.706L135.692 245.229L135.812 245.022L136.637 245.499L136.518 245.706H136.52ZM157.845 245.234L157.726 245.027L158.551 244.548L158.67 244.755L157.845 245.234ZM134.867 244.755L134.042 244.278L134.161 244.071L134.986 244.548L134.867 244.755ZM159.493 244.278L159.374 244.071L160.199 243.592L160.319 243.799L159.493 244.278ZM133.214 243.804L132.388 243.328L132.508 243.12L133.333 243.597L133.214 243.804ZM161.144 243.323L161.025 243.116L161.85 242.637L161.97 242.844L161.144 243.323ZM131.561 242.853L130.733 242.377L130.852 242.17L131.68 242.646L131.561 242.853ZM162.795 242.365L162.676 242.158L163.501 241.679L163.62 241.886L162.795 242.365ZM129.908 241.9L129.082 241.424L129.201 241.216L130.027 241.693L129.908 241.9ZM164.446 241.407L164.326 241.2L165.152 240.721L165.271 240.928L164.446 241.407ZM128.254 240.947L127.429 240.471L127.548 240.263L128.374 240.74L128.254 240.947ZM166.097 240.449L165.977 240.242L166.803 239.763L166.922 239.97L166.097 240.449ZM126.601 239.994L125.776 239.517L125.895 239.31L126.72 239.787L126.601 239.994ZM167.747 239.491L167.628 239.284L168.453 238.805L168.573 239.012L167.747 239.491ZM124.948 239.041L124.122 238.564L124.242 238.357L125.067 238.833L124.948 239.041ZM169.396 238.533L169.277 238.326L170.102 237.847L170.221 238.054L169.396 238.533ZM123.295 238.088L122.467 237.611L122.586 237.404L123.414 237.88L123.295 238.088ZM171.047 237.575L170.927 237.368L171.753 236.889L171.872 237.096L171.047 237.575ZM121.642 237.137L120.816 236.66L120.935 236.453L121.761 236.93L121.642 237.137ZM172.697 236.62L172.578 236.412L173.404 235.933L173.523 236.141L172.697 236.62ZM119.988 236.186L119.163 235.709L119.282 235.502L120.108 235.979L119.988 236.186ZM174.348 235.662L174.229 235.454L175.054 234.976L175.174 235.183L174.348 235.662ZM118.335 235.233L117.51 234.756L117.629 234.549L118.454 235.026L118.335 235.233ZM175.999 234.704L175.88 234.497L176.705 234.018L176.824 234.225L175.999 234.704ZM116.682 234.28L115.857 233.803L115.976 233.596L116.801 234.072L116.682 234.28ZM177.65 233.746L177.531 233.539L178.356 233.06L178.475 233.267L177.65 233.746ZM115.029 233.327L114.201 232.85L114.32 232.643L115.148 233.119L115.029 233.327ZM179.298 232.788L179.179 232.581L180.004 232.102L180.124 232.309L179.298 232.788ZM113.376 232.373L112.548 231.897L112.667 231.689L113.495 232.166L113.376 232.373ZM180.949 231.83L180.83 231.623L181.655 231.144L181.774 231.351L180.949 231.83ZM111.722 231.42L110.897 230.944L111.016 230.736L111.842 231.213L111.722 231.42ZM182.6 230.872L182.481 230.665L183.306 230.186L183.425 230.393L182.6 230.872ZM110.069 230.467L109.244 229.99L109.363 229.783L110.191 230.26L110.072 230.467H110.069ZM184.251 229.914L184.131 229.707L184.957 229.228L185.076 229.435L184.251 229.914ZM108.416 229.516L107.588 229.04L107.707 228.832L108.535 229.309L108.416 229.516ZM185.902 228.959L185.782 228.751L186.608 228.272L186.727 228.48L185.902 228.959ZM106.763 228.565L105.935 228.089L106.054 227.882L106.882 228.358L106.763 228.565ZM187.552 228.003L187.433 227.796L188.258 227.317L188.378 227.524L187.552 228.003ZM105.11 227.615L104.282 227.138L104.401 226.931L105.229 227.407L105.11 227.615ZM189.201 227.048L189.081 226.84L189.907 226.361L190.026 226.569L189.201 227.048ZM103.456 226.664L102.631 226.187L102.75 225.98L103.576 226.457L103.456 226.664ZM190.852 226.09L190.732 225.882L191.558 225.403L191.677 225.611L190.852 226.09ZM101.803 225.711L100.975 225.234L101.095 225.027L101.922 225.503L101.803 225.711ZM192.502 225.132L192.383 224.924L193.208 224.445L193.328 224.653L192.502 225.132ZM100.15 224.758L99.3245 224.281L99.4438 224.074L100.269 224.55L100.15 224.758ZM194.153 224.174L194.034 223.966L194.859 223.487L194.979 223.695L194.153 224.174ZM98.4967 223.804L97.669 223.328L97.7882 223.12L98.616 223.597L98.4967 223.804ZM195.804 223.216L195.685 223.008L196.51 222.53L196.629 222.737L195.804 223.216ZM96.8436 222.851L96.0158 222.375L96.135 222.167L96.9628 222.644L96.8436 222.851ZM197.455 222.258L197.336 222.051L198.161 221.572L198.28 221.779L197.455 222.258ZM95.1904 221.898L94.365 221.421L94.4842 221.214L95.3096 221.691L95.1904 221.898ZM199.103 221.3L198.984 221.093L199.809 220.614L199.929 220.821L199.103 221.3ZM93.5372 220.947L92.7094 220.471L92.8286 220.263L93.6564 220.74L93.5372 220.947ZM200.754 220.344L200.635 220.137L201.46 219.658L201.579 219.865L200.754 220.344ZM91.884 219.996L91.0586 219.52L91.1778 219.313L92.0056 219.789L91.8863 219.996H91.884ZM202.405 219.389L202.286 219.182L203.111 218.703L203.23 218.91L202.405 219.389ZM90.2308 219.046L89.403 218.569L89.5222 218.362L90.35 218.838L90.2308 219.046ZM204.056 218.433L203.936 218.226L204.762 217.747L204.881 217.954L204.056 218.433ZM88.5776 218.095L87.7498 217.618L87.869 217.411L88.6968 217.888L88.5776 218.095ZM205.706 217.475L205.587 217.268L206.413 216.789L206.532 216.996L205.706 217.475ZM86.9244 217.142L86.099 216.665L86.2182 216.458L87.0436 216.934L86.9244 217.142ZM207.357 216.517L207.238 216.31L208.063 215.831L208.183 216.038L207.357 216.517ZM85.2712 216.189L84.4434 215.712L84.5627 215.505L85.3881 215.981L85.2688 216.189H85.2712ZM209.006 215.559L208.886 215.352L209.712 214.873L209.831 215.081L209.006 215.559ZM83.618 215.235L82.7902 214.759L82.9095 214.551L83.7373 215.028L83.618 215.235ZM210.657 214.602L210.537 214.394L211.363 213.915L211.482 214.123L210.657 214.602ZM81.9648 214.282L81.137 213.806L81.2563 213.598L82.0817 214.075L81.9624 214.282H81.9648ZM212.307 213.644L212.188 213.436L213.013 212.957L213.133 213.165L212.307 213.644ZM80.3116 213.329L79.4838 212.852L79.6031 212.645L80.4309 213.122L80.3116 213.329ZM213.958 212.686L213.839 212.478L214.664 211.999L214.784 212.207L213.958 212.686ZM78.6584 212.376L77.833 211.899L77.9523 211.692L78.7777 212.169L78.6584 212.376ZM215.609 211.728L215.49 211.52L216.315 211.041L216.434 211.249L215.609 211.728ZM77.0052 211.425L76.1774 210.949L76.2967 210.741L77.1245 211.218L77.0052 211.425ZM217.26 210.772L217.14 210.565L217.966 210.086L218.085 210.293L217.26 210.772ZM75.352 210.474L74.5242 209.998L74.6435 209.79L75.4713 210.267L75.352 210.474ZM218.908 209.817L218.789 209.609L219.614 209.13L219.734 209.338L218.908 209.817ZM73.6988 209.524L72.8734 209.047L72.9927 208.84L73.8181 209.316L73.6988 209.524ZM220.559 208.859L220.44 208.651L221.265 208.172L221.384 208.38L220.559 208.859ZM72.0456 208.57L71.2178 208.094L71.3371 207.886L72.1649 208.363L72.0456 208.57ZM222.21 207.901L222.091 207.693L222.916 207.214L223.035 207.422L222.21 207.901ZM70.3924 207.617L69.567 207.141L69.6863 206.933L70.5141 207.41L70.3948 207.617H70.3924ZM223.861 206.943L223.741 206.736L224.567 206.257L224.686 206.464L223.861 206.943ZM68.7392 206.664L67.9114 206.187L68.0307 205.98L68.8585 206.457L68.7392 206.664ZM225.511 205.985L225.392 205.778L226.218 205.299L226.337 205.506L225.511 205.985ZM67.086 205.711L66.2582 205.234L66.3775 205.027L67.2053 205.504L67.086 205.711ZM227.162 205.027L227.043 204.82L227.868 204.341L227.988 204.548L227.162 205.027ZM65.4328 204.758L64.6074 204.281L64.7267 204.074L65.5521 204.55L65.4328 204.758ZM228.811 204.069L228.691 203.862L229.517 203.383L229.636 203.59L228.811 204.069ZM63.7796 203.807L62.9518 203.33L63.0711 203.123L63.8989 203.6L63.7796 203.807ZM230.462 203.113L230.342 202.906L231.168 202.427L231.287 202.635L230.462 203.113ZM62.1264 202.856L61.2986 202.38L61.4179 202.172L62.2457 202.649L62.1264 202.856ZM232.112 202.158L231.993 201.951L232.818 201.472L232.938 201.679L232.112 202.158ZM60.4732 201.905L59.6478 201.429L59.7671 201.221L60.5925 201.698L60.4732 201.905ZM233.763 201.2L233.644 200.993L234.469 200.514L234.589 200.721L233.763 201.2ZM58.82 200.952L57.9922 200.476L58.1115 200.268L58.9393 200.745L58.82 200.952ZM235.414 200.242L235.295 200.035L236.12 199.556L236.239 199.763L235.414 200.242ZM57.1668 199.999L56.3414 199.522L56.4607 199.315L57.2861 199.792L57.1668 199.999ZM237.065 199.284L236.945 199.077L237.771 198.598L237.89 198.805L237.065 199.284ZM55.5136 199.046L54.6858 198.569L54.8051 198.362L55.6329 198.839L55.5136 199.046ZM238.713 198.326L238.594 198.119L239.419 197.64L239.539 197.847L238.713 198.326ZM53.8604 198.093L53.035 197.616L53.1543 197.409L53.9821 197.885L53.8628 198.093H53.8604ZM240.364 197.368L240.245 197.161L241.07 196.682L241.189 196.889L240.364 197.368ZM52.2072 197.139L51.3818 196.663L51.5011 196.456L52.3265 196.932L52.2072 197.139ZM242.015 196.41L241.896 196.203L242.721 195.724L242.84 195.931L242.015 196.41ZM50.554 196.186L49.7262 195.71L49.8455 195.502L50.6733 195.979L50.554 196.186ZM243.666 195.452L243.546 195.245L244.372 194.766L244.491 194.973L243.666 195.452ZM48.9008 195.236L48.0754 194.759L48.1947 194.552L49.0225 195.028L48.9032 195.236H48.9008ZM245.316 194.497L245.197 194.29L246.023 193.811L246.142 194.018L245.316 194.497ZM47.2476 194.285L46.4222 193.808L46.5415 193.601L47.3669 194.077L47.2476 194.285ZM246.97 193.537L246.843 193.334C247.108 193.167 247.351 192.974 247.568 192.757L247.738 192.926C247.509 193.155 247.251 193.358 246.972 193.534L246.97 193.537ZM45.5944 193.334L44.7666 192.857L44.8859 192.65L45.7137 193.127L45.5944 193.334ZM43.9412 192.381L43.1158 191.904L43.2351 191.697L44.0605 192.173L43.9412 192.381ZM248.346 192.164L248.143 192.038C248.308 191.778 248.441 191.497 248.544 191.204L248.768 191.282C248.661 191.592 248.518 191.888 248.346 192.164ZM42.288 191.428L41.4603 190.951L41.5795 190.744L42.4073 191.22L42.288 191.428ZM40.6348 190.474L39.8094 189.998L39.9287 189.791L40.7541 190.267L40.6348 190.474ZM248.985 190.329L248.749 190.3C248.768 190.141 248.778 189.976 248.778 189.814C248.778 189.669 248.771 189.519 248.754 189.376L248.99 189.352C249.007 189.505 249.014 189.662 249.014 189.817C249.014 189.988 249.005 190.16 248.985 190.329ZM38.9816 189.524L38.1562 189.047L38.2755 188.84L39.1009 189.316L38.9816 189.524ZM37.3285 188.57L36.5007 188.094L36.6199 187.887L37.4477 188.363L37.3285 188.57ZM248.558 188.473C248.461 188.18 248.329 187.896 248.167 187.634L248.37 187.51C248.539 187.787 248.678 188.087 248.783 188.397L248.556 188.473H248.558ZM35.6753 187.62L34.8498 187.143L34.9691 186.936L35.7945 187.412L35.6753 187.62ZM247.599 186.907C247.385 186.688 247.144 186.493 246.881 186.323L247.01 186.123C247.287 186.302 247.542 186.509 247.769 186.74L247.599 186.907ZM34.0221 186.667L33.1967 186.19L33.3159 185.983L34.1413 186.459L34.0221 186.667ZM246.063 185.844L245.238 185.368L245.357 185.161L246.182 185.637L246.063 185.844ZM32.3689 185.713L31.5411 185.237L31.6603 185.029L32.4881 185.506L32.3689 185.713ZM244.41 184.891L243.585 184.415L243.704 184.207L244.529 184.684L244.41 184.891ZM30.7157 184.76L29.8903 184.284L30.0095 184.076L30.8349 184.553L30.7157 184.76ZM242.757 183.938L241.929 183.462L242.048 183.254L242.876 183.731L242.757 183.938ZM29.0625 183.807L28.2347 183.33L28.354 183.123L29.1794 183.6L29.0601 183.807H29.0625ZM241.104 182.985L240.278 182.508L240.397 182.301L241.223 182.778L241.104 182.985ZM27.4093 182.854L26.5839 182.377L26.7031 182.17L27.5285 182.647L27.4093 182.854ZM239.45 182.032L238.623 181.555L238.742 181.348L239.57 181.824L239.45 182.032ZM25.7561 181.901L24.9307 181.424L25.0499 181.217L25.8753 181.693L25.7561 181.901ZM237.797 181.079L236.969 180.602L237.089 180.395L237.916 180.871L237.797 181.079ZM24.1029 180.948L23.2751 180.471L23.3944 180.264L24.2221 180.74L24.1029 180.948ZM236.144 180.125L235.319 179.649L235.438 179.442L236.263 179.918L236.144 180.125ZM22.4497 179.994L21.6243 179.518L21.7435 179.31L22.569 179.787L22.4497 179.994ZM234.491 179.172L233.663 178.696L233.782 178.488L234.61 178.965L234.491 179.172ZM20.7965 179.041L19.9711 178.565L20.0904 178.357L20.9158 178.834L20.7965 179.041ZM232.838 178.219L232.012 177.742L232.131 177.535L232.957 178.012L232.838 178.219ZM19.1433 178.088L18.3155 177.611L18.4348 177.404L19.2626 177.881L19.1433 178.088ZM231.184 177.266L230.359 176.789L230.478 176.582L231.304 177.059L231.184 177.266ZM17.4901 177.135L16.6647 176.658L16.784 176.451L17.6094 176.928L17.4901 177.135ZM229.531 176.313L228.703 175.836L228.823 175.629L229.65 176.105L229.531 176.313ZM15.8393 176.158C15.5721 175.967 15.3264 175.748 15.1117 175.505L15.2906 175.348C15.4934 175.576 15.7271 175.784 15.98 175.965L15.8417 176.158H15.8393ZM227.878 175.36L227.053 174.883L227.172 174.676L227.997 175.152L227.878 175.36ZM14.5391 174.711C14.3841 174.425 14.2576 174.12 14.1694 173.806L14.3984 173.742C14.4819 174.039 14.6012 174.328 14.7491 174.597L14.5391 174.711ZM226.218 174.414L225.39 173.937L225.509 173.73L226.337 174.206L226.218 174.414ZM224.564 173.46L223.739 172.984L223.858 172.776L224.686 173.253L224.567 173.46H224.564ZM14.0072 172.843C14.0024 172.76 14 172.674 14 172.591C14 172.35 14.0191 172.107 14.0596 171.869L14.2958 171.907C14.26 172.133 14.2409 172.362 14.2409 172.591C14.2409 172.672 14.2409 172.75 14.2481 172.831L14.0095 172.846L14.0072 172.843ZM222.911 172.51L222.086 172.033L222.205 171.826L223.03 172.302L222.911 172.51ZM221.258 171.556L220.43 171.08L220.549 170.873L221.375 171.349L221.256 171.556H221.258ZM14.5415 171.015L14.3197 170.927C14.4413 170.622 14.5988 170.334 14.7849 170.067L14.9805 170.203C14.8039 170.456 14.656 170.727 14.5415 171.015ZM219.602 170.606L218.775 170.129L218.894 169.922L219.722 170.398L219.602 170.606ZM217.949 169.652L217.124 169.176L217.243 168.969L218.068 169.445L217.949 169.652ZM15.5936 169.509L15.4337 169.333C15.6675 169.123 15.9252 168.935 16.2043 168.776L16.2257 168.764L16.345 168.971L16.3235 168.983C16.0611 169.135 15.8154 169.312 15.5936 169.512V169.509ZM216.296 168.702L215.468 168.225L215.587 168.018L216.415 168.494L216.296 168.702ZM17.1704 168.49L17.0511 168.282L17.8765 167.803L17.9958 168.011L17.1704 168.49ZM214.643 167.749L213.817 167.272L213.937 167.065L214.764 167.541L214.645 167.749H214.643ZM18.8212 167.532L18.702 167.324L19.5274 166.845L19.6466 167.053L18.8212 167.532ZM212.99 166.795L212.164 166.319L212.283 166.111L213.109 166.588L212.99 166.795ZM20.472 166.574L20.3528 166.366L21.1782 165.887L21.2974 166.095L20.472 166.574ZM211.336 165.845L210.509 165.368L210.628 165.161L211.456 165.637L211.336 165.845ZM22.1229 165.616L22.0036 165.408L22.829 164.93L22.9483 165.137L22.1229 165.616ZM209.683 164.891L208.858 164.415L208.977 164.207L209.803 164.684L209.683 164.891ZM23.7713 164.658L23.652 164.451L24.4774 163.972L24.5967 164.179L23.7713 164.658ZM208.03 163.938L207.202 163.462L207.322 163.254L208.149 163.731L208.03 163.938ZM25.4221 163.7L25.3028 163.493L26.1282 163.014L26.2475 163.221L25.4221 163.7ZM206.377 162.985L205.549 162.508L205.668 162.301L206.496 162.778L206.377 162.985ZM27.0729 162.742L26.9536 162.535L27.779 162.056L27.8983 162.263L27.0729 162.742ZM204.724 162.034L203.898 161.558L204.018 161.35L204.843 161.827L204.724 162.034ZM28.7237 161.784L28.6044 161.577L29.4298 161.098L29.5491 161.305L28.7237 161.784ZM203.07 161.081L202.243 160.605L202.362 160.397L203.19 160.874L203.07 161.081ZM30.3721 160.826L30.2529 160.619L31.0783 160.14L31.1975 160.347L30.3721 160.826ZM201.415 160.128L200.589 159.651L200.709 159.444L201.534 159.921L201.415 160.128ZM32.0206 159.868L31.9013 159.661L32.7267 159.182L32.846 159.389L32.0206 159.868ZM199.762 159.175L198.936 158.698L199.056 158.491L199.881 158.967L199.762 159.175ZM33.6714 158.91L33.5521 158.703L34.3775 158.224L34.4968 158.431L33.6714 158.91ZM198.108 158.222L197.281 157.745L197.4 157.538L198.228 158.014L198.108 158.222ZM35.3222 157.952L35.2029 157.745L36.0283 157.266L36.1476 157.473L35.3222 157.952ZM196.455 157.271L195.63 156.794L195.749 156.587L196.577 157.063L196.458 157.271H196.455ZM36.973 156.994L36.8537 156.787L37.6791 156.308L37.7984 156.515L36.973 156.994ZM194.802 156.318L193.974 155.841L194.094 155.634L194.921 156.11L194.802 156.318ZM38.6214 156.036L38.5021 155.829L39.3276 155.35L39.4468 155.557L38.6214 156.036ZM193.146 155.364L192.319 154.888L192.438 154.681L193.266 155.157L193.146 155.364ZM40.2699 155.079L40.1506 154.871L40.976 154.392L41.0953 154.6L40.2699 155.079ZM191.493 154.411L190.668 153.935L190.787 153.727L191.613 154.204L191.493 154.411ZM41.9207 154.121L41.8014 153.913L42.6268 153.434L42.7461 153.642L41.9207 154.121ZM189.84 153.461L189.015 152.984L189.134 152.777L189.959 153.253L189.84 153.461ZM43.5715 153.165L43.4522 152.958L44.2776 152.479L44.3969 152.686L43.5715 153.165ZM188.187 152.51L187.359 152.033L187.478 151.826L188.306 152.302L188.187 152.51ZM45.2223 152.207L45.103 152L45.9284 151.521L46.0477 151.728L45.2223 152.207ZM186.534 151.557L185.706 151.08L185.825 150.873L186.653 151.349L186.534 151.557ZM46.8707 151.249L46.7514 151.042L47.5768 150.563L47.6961 150.77L46.8707 151.249ZM184.88 150.603L184.053 150.127L184.172 149.919L185 150.396L184.88 150.603ZM48.5215 150.291L48.4022 150.084L49.2277 149.605L49.3469 149.812L48.5215 150.291ZM183.227 149.65L182.399 149.174L182.519 148.966L183.347 149.443L183.227 149.65ZM50.1723 149.333L50.0531 149.126L50.8785 148.647L50.9977 148.854L50.1723 149.333ZM181.574 148.699L180.749 148.223L180.868 148.016L181.693 148.492L181.574 148.699ZM51.8232 148.375L51.7039 148.168L52.5293 147.689L52.6486 147.896L51.8232 148.375ZM179.921 147.746L179.093 147.27L179.212 147.062L180.04 147.539L179.921 147.746ZM53.474 147.417L53.3547 147.21L54.1801 146.731L54.2994 146.938L53.474 147.417ZM178.268 146.793L177.442 146.317L177.562 146.109L178.387 146.586L178.268 146.793ZM55.1224 146.459L55.0031 146.252L55.8285 145.773L55.9478 145.981L55.1224 146.459ZM176.614 145.84L175.789 145.363L175.908 145.156L176.734 145.633L176.614 145.84ZM56.7732 145.502L56.6539 145.294L57.4793 144.815L57.5986 145.023L56.7732 145.502ZM174.961 144.887L174.134 144.41L174.253 144.203L175.081 144.679L174.961 144.887ZM58.424 144.544L58.3047 144.336L59.1301 143.857L59.2494 144.065L58.424 144.544ZM173.308 143.936L172.483 143.459L172.602 143.252L173.427 143.729L173.308 143.936ZM60.0748 143.586L59.9555 143.378L60.781 142.899L60.9002 143.107L60.0748 143.586ZM171.655 142.983L170.827 142.506L170.946 142.299L171.772 142.775L171.653 142.983H171.655ZM61.7256 142.628L61.6064 142.42L62.4318 141.941L62.551 142.149L61.7256 142.628ZM170.002 142.03L169.174 141.553L169.293 141.346L170.121 141.822L170.002 142.03ZM63.3741 141.67L63.2548 141.462L64.0802 140.984L64.1995 141.191L63.3741 141.67ZM168.349 141.076L167.523 140.6L167.642 140.393L168.468 140.869L168.349 141.076ZM65.0249 140.712L64.9056 140.505L65.731 140.026L65.8503 140.233L65.0249 140.712ZM166.695 140.126L165.868 139.649L165.987 139.442L166.815 139.918L166.695 140.126ZM66.6757 139.756L66.5564 139.549L67.3818 139.07L67.5011 139.277L66.6757 139.756ZM165.042 139.175L164.217 138.698L164.336 138.491L165.161 138.968L165.042 139.175ZM68.3265 138.798L68.2072 138.591L69.0326 138.112L69.1519 138.319L68.3265 138.798ZM163.389 138.222L162.564 137.745L162.683 137.538L163.508 138.014L163.389 138.222ZM69.9773 137.84L69.858 137.633L70.6834 137.154L70.8027 137.361L69.9773 137.84ZM161.736 137.269L160.908 136.792L161.027 136.585L161.855 137.061L161.736 137.269ZM71.6257 136.883L71.5065 136.675L72.3319 136.196L72.4511 136.404L71.6257 136.883ZM160.083 136.315L159.257 135.839L159.376 135.631L160.202 136.108L160.083 136.315ZM73.2765 135.925L73.1573 135.717L73.9827 135.238L74.102 135.446L73.2765 135.925ZM158.429 135.365L157.602 134.888L157.721 134.681L158.546 135.157L158.427 135.365H158.429ZM74.9274 134.967L74.8081 134.759L75.6335 134.28L75.7528 134.488L74.9274 134.967ZM156.776 134.411L155.948 133.935L156.068 133.728L156.895 134.204L156.776 134.411ZM76.5782 134.009L76.4589 133.801L77.2843 133.322L77.4036 133.53L76.5782 134.009ZM155.123 133.458L154.298 132.982L154.417 132.774L155.242 133.251L155.123 133.458ZM78.2266 133.051L78.1073 132.843L78.9327 132.364L79.052 132.572L78.2266 133.051ZM153.47 132.505L152.642 132.028L152.761 131.821L153.589 132.298L153.47 132.505ZM79.8774 132.093L79.7581 131.886L80.5835 131.407L80.7028 131.614L79.8774 132.093ZM151.817 131.554L150.991 131.078L151.11 130.87L151.936 131.347L151.817 131.554ZM81.5282 131.137L81.4089 130.93L82.2343 130.451L82.3536 130.658L81.5282 131.137ZM150.163 130.604L149.336 130.127L149.455 129.92L150.283 130.396L150.163 130.604ZM83.179 130.179L83.0598 129.972L83.8852 129.493L84.0044 129.7L83.179 130.179ZM148.51 129.65L147.682 129.174L147.802 128.966L148.629 129.443L148.51 129.65ZM84.8298 129.221L84.7106 129.014L85.536 128.535L85.6553 128.742L84.8298 129.221ZM146.857 128.697L146.032 128.221L146.151 128.013L146.976 128.49L146.857 128.697ZM86.4783 128.263L86.359 128.056L87.1844 127.577L87.3037 127.785L86.4783 128.263ZM145.204 127.744L144.376 127.267L144.495 127.06L145.321 127.537L145.201 127.744H145.204ZM88.1291 127.306L88.0098 127.098L88.8352 126.619L88.9545 126.827L88.1291 127.306ZM143.551 126.793L142.723 126.317L142.842 126.109L143.67 126.586L143.551 126.793ZM89.7799 126.348L89.6606 126.14L90.486 125.661L90.6053 125.869L89.7799 126.348ZM141.897 125.84L141.072 125.363L141.191 125.156L142.017 125.633L141.897 125.84ZM91.4307 125.39L91.3114 125.182L92.1368 124.703L92.2561 124.911L91.4307 125.39ZM140.244 124.887L139.416 124.41L139.536 124.203L140.363 124.68L140.244 124.887ZM93.0791 124.432L92.9598 124.224L93.7853 123.745L93.9045 123.953L93.0791 124.432ZM138.589 123.934L137.763 123.457L137.882 123.25L138.71 123.726L138.591 123.934H138.589ZM94.7276 123.474L94.6083 123.266L95.4337 122.788L95.553 122.995L94.7276 123.474ZM136.935 122.983L136.108 122.506L136.227 122.299L137.055 122.776L136.935 122.983ZM96.3784 122.518L96.2591 122.311L97.0845 121.832L97.2038 122.039L96.3784 122.518ZM135.282 122.032L134.454 121.556L134.574 121.348L135.401 121.825L135.282 122.032ZM98.0292 121.56L97.9099 121.353L98.7353 120.874L98.8546 121.081L98.0292 121.56ZM133.629 121.079L132.804 120.602L132.923 120.395L133.748 120.872L133.629 121.079ZM99.68 120.602L99.5607 120.395L100.386 119.916L100.505 120.123L99.68 120.602ZM131.976 120.126L131.15 119.649L131.27 119.442L132.095 119.918L131.976 120.126ZM101.331 119.644L101.212 119.437L102.037 118.958L102.156 119.165L101.331 119.644ZM130.325 119.173L129.497 118.696L129.616 118.489L130.444 118.965L130.325 119.173ZM102.982 118.687L102.862 118.479L103.688 118L103.807 118.208L102.982 118.687ZM128.672 118.222L127.846 117.745L127.966 117.538L128.791 118.015L128.672 118.222ZM104.632 117.729L104.513 117.521L105.339 117.042L105.458 117.25L104.632 117.729ZM127.019 117.269L126.191 116.792L126.31 116.585L127.138 117.061L127.019 117.269ZM106.283 116.771L106.164 116.563L106.231 116.525C106.486 116.377 106.746 116.237 107.006 116.101L107.116 116.313C106.858 116.447 106.603 116.587 106.35 116.733L106.283 116.771ZM125.363 116.332C125.084 116.187 124.798 116.046 124.511 115.913L124.612 115.696C124.9 115.829 125.189 115.972 125.473 116.12L125.363 116.332ZM107.967 115.896L107.867 115.679C108.156 115.546 108.452 115.42 108.75 115.298L108.838 115.52C108.545 115.639 108.251 115.765 107.967 115.896ZM123.643 115.536C123.35 115.417 123.051 115.305 122.756 115.2L122.834 114.976C123.132 115.081 123.435 115.196 123.731 115.315L123.641 115.536H123.643ZM109.726 115.186L109.647 114.962C109.947 114.857 110.255 114.757 110.561 114.669L110.627 114.898C110.327 114.986 110.021 115.084 109.723 115.188L109.726 115.186ZM121.854 114.91C121.553 114.819 121.243 114.736 120.938 114.662L120.995 114.431C121.305 114.507 121.615 114.59 121.921 114.681L121.851 114.91H121.854ZM111.546 114.65L111.489 114.419C111.796 114.342 112.111 114.276 112.426 114.214L112.471 114.447C112.161 114.507 111.849 114.576 111.546 114.65ZM120.015 114.457C119.704 114.397 119.392 114.342 119.079 114.297L119.113 114.061C119.428 114.107 119.747 114.161 120.06 114.223L120.015 114.457ZM113.409 114.29L113.376 114.054C113.69 114.009 114.012 113.971 114.33 113.94L114.351 114.178C114.039 114.207 113.721 114.245 113.409 114.29ZM118.14 114.183C117.825 114.152 117.507 114.128 117.192 114.114L117.204 113.875C117.522 113.89 117.844 113.914 118.161 113.944L118.137 114.183H118.14ZM115.298 114.111L115.286 113.873C115.594 113.859 115.911 113.852 116.224 113.852L116.248 113.971V114.09C115.916 114.09 115.604 114.097 115.298 114.111Z" fill="#DFE5E5"/>
<path d="M227.581 166.987L231.601 163.599V190.633H231.596C231.601 190.931 231.396 191.245 230.974 191.488C230.213 191.927 229.048 191.977 228.39 191.596L228.018 191.381C227.725 191.212 227.586 190.983 227.581 190.745L227.574 190.74C227.574 189.144 227.581 166.987 227.581 166.987Z" fill="#111107"/>
<path d="M229.589 139.702C229.589 139.702 220.798 166.493 218.069 175.486C217.563 177.156 218.677 178.927 221.356 180.216C225.903 182.406 233.272 182.406 237.819 180.216C240.493 178.927 241.612 177.161 241.109 175.496C238.394 166.495 229.589 139.702 229.589 139.702Z" fill="url(#paint0_linear_207_3314)"/>
<path d="M229.589 133.794C229.589 133.794 222.826 154.402 220.727 161.322C220.338 162.606 221.195 163.969 223.256 164.961C226.753 166.645 232.421 166.645 235.918 164.961C237.975 163.969 238.836 162.611 238.449 161.329C236.362 154.407 229.587 133.794 229.587 133.794H229.589Z" fill="url(#paint1_linear_207_3314)"/>
<path d="M229.59 128.44C229.59 128.44 224.387 144.294 222.775 149.615C222.474 150.604 223.135 151.65 224.721 152.415C227.412 153.711 231.773 153.711 234.462 152.415C236.043 151.652 236.706 150.606 236.408 149.622C234.803 144.296 229.59 128.443 229.59 128.443V128.44Z" fill="url(#paint2_linear_207_3314)"/>
<path d="M59.4886 137.653L63.5083 134.265V161.299H63.5035C63.5083 161.597 63.3031 161.911 62.8809 162.154C62.1199 162.593 60.9557 162.643 60.2973 162.262L59.9252 162.047C59.6317 161.878 59.4934 161.649 59.4886 161.411L59.4814 161.406C59.4814 159.81 59.4886 137.653 59.4886 137.653Z" fill="#111107"/>
<path d="M61.496 110.368C61.496 110.368 52.7051 137.159 49.9761 146.153C49.4703 147.823 50.5844 149.593 53.2634 150.883C57.8103 153.073 65.1793 153.073 69.7262 150.883C72.4004 149.593 73.5192 147.828 73.0159 146.162C70.3011 137.162 61.496 110.368 61.496 110.368Z" fill="url(#paint3_linear_207_3314)"/>
<path d="M61.4966 104.461C61.4966 104.461 54.7335 125.068 52.6342 131.988C52.2453 133.273 53.1018 134.636 55.1629 135.627C58.6601 137.312 64.3282 137.312 67.8255 135.627C69.8818 134.636 70.743 133.278 70.3566 131.996C68.2692 125.073 61.4942 104.461 61.4942 104.461H61.4966Z" fill="url(#paint4_linear_207_3314)"/>
<path d="M61.4975 99.1069C61.4975 99.1069 56.2946 114.961 54.6819 120.282C54.3814 121.27 55.0422 122.317 56.6286 123.082C59.3195 124.378 63.6803 124.378 66.3688 123.082C67.9505 122.319 68.6137 121.273 68.3155 120.289C66.71 114.963 61.4975 99.1093 61.4975 99.1093V99.1069Z" fill="url(#paint5_linear_207_3314)"/>
<path d="M44.3382 151.023L47.5897 148.282V170.148H47.585C47.5897 170.389 47.4227 170.644 47.0816 170.839C46.4661 171.194 45.5238 171.232 44.9919 170.925L44.6913 170.751C44.4527 170.613 44.343 170.429 44.3382 170.236H44.3311C44.3311 168.942 44.3382 151.02 44.3382 151.02V151.023Z" fill="#111107"/>
<path d="M45.9602 128.952C45.9602 128.952 38.8488 150.622 36.6422 157.895C36.2318 159.246 37.136 160.678 39.3021 161.722C42.9782 163.493 48.9398 163.493 52.6183 161.722C54.782 160.681 55.6861 159.251 55.2806 157.902C53.0859 150.622 45.9626 128.95 45.9626 128.95L45.9602 128.952Z" fill="url(#paint6_linear_207_3314)"/>
<path d="M45.9598 124.174C45.9598 124.174 40.4897 140.843 38.7936 146.438C38.4787 147.477 39.1729 148.578 40.8404 149.381C43.6697 150.744 48.2547 150.744 51.084 149.381C52.7467 148.58 53.4433 147.479 53.1308 146.443C51.4418 140.843 45.9622 124.172 45.9622 124.172L45.9598 124.174Z" fill="url(#paint7_linear_207_3314)"/>
<path d="M45.9599 119.845C45.9599 119.845 41.7518 132.667 40.4469 136.971C40.2035 137.769 40.7379 138.617 42.0213 139.235C44.197 140.283 47.7252 140.283 49.9009 139.235C51.1795 138.617 51.7163 137.771 51.4753 136.976C50.1752 132.667 45.9623 119.845 45.9623 119.845H45.9599Z" fill="url(#paint8_linear_207_3314)"/>
<path d="M96.4483 186.75L138.575 162.456C139.088 162.161 139.72 162.161 140.233 162.456L176.463 183.085C177.57 183.724 177.57 185.318 176.463 185.954L134.336 210.248C133.823 210.544 133.191 210.544 132.678 210.248L96.4483 189.619C95.3414 188.981 95.3414 187.387 96.4483 186.75Z" fill="#DFE5E5"/>
<path d="M133.052 123.748L91.2188 99.6494L97.4045 188.68L133.503 209.476L133.052 123.748Z" fill="#639BFF"/>
<path d="M133.052 123.749L181.486 96.1069L175.3 185.138L133.503 209.477L133.052 123.749Z" fill="url(#paint9_linear_207_3314)"/>
<path d="M84.0485 99.4044L135.193 71.4813C137.449 70.1779 140.231 70.1779 142.49 71.4789L188.656 96.1088H190.96V100.918H190.958C190.943 101.761 190.521 102.6 189.684 103.081L137.509 133.201C135.252 134.505 132.471 134.505 130.212 133.204L83.0179 106.019C82.2999 105.607 81.8895 104.933 81.775 104.216H81.7393V99.4068H84.0437L84.0485 99.4044Z" fill="url(#paint10_linear_207_3314)"/>
<path d="M168.301 139.659L160.615 149.177L165.345 155.901L161.645 158.034V155.427L160.638 156.009L156.721 166.093L160.579 171.586L161.645 170.971V168.459L166.931 165.431L173.873 147.566L168.301 139.659ZM166.323 164.52L160.533 167.866V168.96L158.582 166.177C158.224 165.669 158.227 164.787 158.582 163.868L160.533 158.84V159.919L165.965 156.778L166.202 161.196L166.321 164.518L166.323 164.52ZM165.82 135.203L163.191 131.434L154.472 136.462L155.757 143.291L156.142 142.304L157.99 144.93L156.034 147.361L156.538 148.083L164.369 143.565L168.239 133.616L167.707 132.856L165.815 135.203H165.82ZM164.315 141.161C163.957 142.083 163.296 142.905 162.58 143.317L158.673 145.569L159.486 144.559L156.764 140.708L159.624 136.912L162.552 133.042L165.443 137.148L166.268 136.126L164.312 141.163L164.315 141.161Z" fill="white"/>
<path d="M155.748 143.329V135.728L149.314 139.438L143.753 153.764L151.415 154.484L155.748 143.329Z" fill="white"/>
<path d="M148.13 161.7L150.091 161.871L150.594 160.575L146.677 155.008L138.95 159.457L138.418 160.825L140.303 161.001L137.646 167.8L144.588 177.665L155.721 171.238L155.745 161.004L146.279 166.463L148.128 161.702L148.13 161.7ZM141.62 167.228L138.898 167.099L141.789 159.653L140.964 159.581L144.876 157.325C145.592 156.912 146.253 156.969 146.61 157.479L148.567 160.253L147.753 160.182L145.043 167.173L141.617 167.228H141.62Z" fill="white"/>
<path d="M142.489 66.8564L189.683 94.0408C191.386 95.0225 191.386 97.4769 189.683 98.4587L137.508 128.576C135.251 129.88 132.47 129.88 130.21 128.579L83.0167 101.394C81.3134 100.413 81.3134 97.9583 83.0167 96.9765L135.194 66.8588C137.451 65.5553 140.232 65.5553 142.491 66.8564H142.489Z" fill="white"/>
<path d="M133.861 128.772C135.049 128.772 136.22 128.457 137.248 127.864L189.423 97.7461C190.058 97.3791 190.434 96.7238 190.434 95.9923C190.434 95.2607 190.055 94.6054 189.421 94.2408L142.227 67.0564C141.199 66.4655 140.03 66.1533 138.844 66.1533C137.659 66.1533 136.485 66.4679 135.457 67.0612L83.282 97.179C82.6474 97.5459 82.2705 98.2012 82.2705 98.9328C82.2705 99.6644 82.6498 100.32 83.2844 100.684L130.478 127.869C131.504 128.46 132.675 128.772 133.861 128.772Z" fill="url(#paint11_linear_207_3314)"/>
<path d="M181.486 95.787L139.655 71.6885L91.2188 99.6497L133.052 123.748L181.486 95.787Z" fill="url(#paint12_linear_207_3314)"/>
<path d="M139.655 119.936V71.6885L91.2188 99.6497L133.052 123.746L139.655 119.936Z" fill="#639BFF"/>
<path d="M222.385 195.789C225.934 195.789 228.811 194.39 228.811 192.663C228.811 190.936 225.934 189.537 222.385 189.537C218.835 189.537 215.958 190.936 215.958 192.663C215.958 194.39 218.835 195.789 222.385 195.789Z" fill="#DFE5E5"/>
<path d="M217.694 187.182C218.179 185.471 220.268 183.248 222.745 183.248C225.572 183.248 227.769 185.038 227.783 187.108C228.57 187.83 229.109 189.565 229.109 190.561C229.109 192.892 226.533 194.779 223.358 194.779C221.387 194.779 219.651 194.429 218.613 193.323C218.489 193.333 218.362 193.337 218.236 193.337C216.051 193.337 214.278 191.66 214.278 190.058C214.278 188.591 215.767 187.378 217.697 187.185L217.694 187.182Z" fill="#47AA50"/>
<path d="M224.44 194.057C227.374 194.057 229.76 192.308 229.76 190.156C229.76 189.263 229.359 188.421 228.598 187.723L228.243 187.397V186.98C228.226 185.142 226.177 183.646 223.669 183.646C221.513 183.646 219.631 184.768 219.194 186.312L218.96 187.144L217.813 187.259C216.265 187.413 215.096 188.398 215.096 189.546C215.096 190.819 216.508 191.855 218.245 191.855C218.34 191.855 218.443 191.85 218.548 191.843L219.507 191.777L220.051 192.358C221.045 193.421 222.687 194.055 224.44 194.055V194.057Z" fill="url(#paint13_linear_207_3314)"/>
<path d="M220.646 186.078C220.636 186.228 220.686 186.35 220.758 186.462C220.829 186.571 220.927 186.667 221.042 186.745C221.156 186.824 221.29 186.888 221.438 186.929C221.586 186.969 221.748 186.993 221.936 186.967C221.879 186.824 221.8 186.722 221.717 186.629C221.631 186.538 221.54 186.459 221.438 186.39C221.335 186.321 221.225 186.259 221.099 186.207C220.97 186.154 220.832 186.107 220.646 186.078Z" fill="#47AA50"/>
<path d="M222.56 185.762C222.404 185.85 222.314 185.958 222.249 186.072C222.185 186.186 222.152 186.306 222.147 186.425C222.14 186.544 222.161 186.665 222.214 186.782C222.266 186.899 222.345 187.011 222.488 187.111C222.593 186.987 222.645 186.875 222.684 186.765C222.722 186.656 222.741 186.551 222.746 186.444C222.75 186.339 222.741 186.232 222.715 186.122C222.686 186.01 222.648 185.896 222.56 185.765V185.762Z" fill="#47AA50"/>
<path d="M217.694 187.182C218.868 187.108 218.956 187.144 218.956 187.144L217.809 187.258C216.258 187.413 215.271 188.397 215.271 189.546C215.271 190.818 216.504 191.59 218.241 191.59C218.336 191.59 218.439 191.586 218.544 191.579L219.503 191.512L220.047 192.093C221.041 193.156 222.683 193.833 224.436 193.833C225.805 193.833 227.058 193.671 228.002 193.044C226.955 194.093 225.266 194.774 223.358 194.774C221.449 194.774 219.651 194.424 218.613 193.318C218.489 193.328 218.362 193.332 218.236 193.332C216.051 193.332 214.278 191.655 214.278 190.053C214.278 188.586 215.767 187.373 217.697 187.18L217.694 187.182Z" fill="#257219"/>
<path d="M223.636 192.444C223.517 192.384 223.398 192.368 223.283 192.365C223.166 192.365 223.054 192.382 222.952 192.415C222.847 192.449 222.751 192.496 222.67 192.561C222.589 192.625 222.52 192.704 222.486 192.811C222.625 192.825 222.734 192.818 222.837 192.806C222.94 192.792 223.033 192.773 223.121 192.744C223.209 192.716 223.295 192.68 223.381 192.635C223.467 192.587 223.55 192.532 223.639 192.449L223.636 192.444Z" fill="#47AA50"/>
<path d="M222.73 191.369C222.591 191.39 222.489 191.44 222.403 191.5C222.317 191.562 222.25 191.633 222.202 191.714C222.155 191.793 222.126 191.881 222.121 191.972C222.119 192.062 222.133 192.157 222.202 192.253C222.317 192.191 222.391 192.126 222.455 192.062C222.52 191.998 222.57 191.933 222.61 191.864C222.651 191.795 222.682 191.724 222.706 191.645C222.727 191.564 222.742 191.481 222.732 191.371L222.73 191.369Z" fill="#47AA50"/>
<path d="M218.024 189.847C217.895 189.966 217.833 190.092 217.795 190.218C217.759 190.345 217.752 190.473 217.768 190.597C217.785 190.721 217.828 190.845 217.9 190.962C217.971 191.079 218.067 191.191 218.222 191.288C218.31 191.148 218.343 191.024 218.365 190.9C218.384 190.778 218.384 190.662 218.365 190.545C218.348 190.428 218.315 190.316 218.265 190.199C218.212 190.085 218.143 189.968 218.024 189.844V189.847Z" fill="#47AA50"/>
<path d="M168.244 103.431L150.713 113.668L133.053 123.746L126.955 98.146L149.749 102.34L168.244 103.431Z" fill="url(#paint14_linear_207_3314)"/>
<path d="M135.347 98.9037C135.347 98.9037 126.544 97.7408 123.595 97.8433C119.137 97.9982 109.628 98.1221 105.975 100.681C102.881 102.85 98.8164 104.027 98.8164 104.027L133.052 123.748C133.052 123.748 138.054 112.329 137.799 108.247C137.384 101.604 135.347 98.9037 135.347 98.9037Z" fill="url(#paint15_linear_207_3314)"/>
<path d="M174.794 99.6504C174.794 99.6504 159.622 98.7592 150.647 96.107C143.75 94.0672 126.994 97.9895 126.994 97.9895C126.994 97.9895 136.646 104.161 151.47 105.341C156.69 105.755 167.542 103.842 167.542 103.842L174.794 99.6504Z" fill="url(#paint16_linear_207_3314)"/>
<path d="M187.84 212.178C192.69 212.178 196.621 209.911 196.621 207.114C196.621 204.318 192.69 202.051 187.84 202.051C182.99 202.051 179.059 204.318 179.059 207.114C179.059 209.911 182.99 212.178 187.84 212.178Z" fill="#DFE5E5"/>
<path d="M124.643 213.46C128.025 213.46 130.767 211.879 130.767 209.928C130.767 207.978 128.025 206.397 124.643 206.397C121.261 206.397 118.52 207.978 118.52 209.928C118.52 211.879 121.261 213.46 124.643 213.46Z" fill="#DFE5E5"/>
<path d="M94.1823 198.949C97.5644 198.949 100.306 197.368 100.306 195.418C100.306 193.467 97.5644 191.886 94.1823 191.886C90.8003 191.886 88.0586 193.467 88.0586 195.418C88.0586 197.368 90.8003 198.949 94.1823 198.949Z" fill="#DFE5E5"/>
<path d="M173.36 193.392L171.914 193.285L172.067 189.17L173.827 190.064L173.36 193.392Z" fill="#FFD7CF"/>
<path d="M173.055 195.284L171.34 194.941C171.34 194.941 171.471 194.274 171.583 193.967C171.822 193.311 172.051 192.949 172.051 192.949L173.358 193.39L173.055 195.284Z" fill="#FFD7CF"/>
<path d="M173.362 193.393L173.059 194.086C173.059 194.086 173.137 194.754 173.149 194.975C173.161 195.221 173.147 195.707 173.233 195.952C173.273 196.064 173.45 196.052 173.495 195.952C173.877 195.144 173.362 193.391 173.362 193.391V193.393Z" fill="#FFD7CF"/>
<path d="M171.34 194.944C171.34 194.944 171.235 195.485 171.206 195.666C171.173 195.873 171.149 196.195 171.218 196.49C171.24 196.578 171.385 196.557 171.412 196.481C171.498 196.214 171.509 195.895 171.567 195.706C171.633 195.492 171.972 194.901 171.972 194.901L171.34 194.944Z" fill="#FFD7CF"/>
<path d="M172.244 194.968L171.786 194.898C171.786 194.898 171.669 195.654 171.657 195.873C171.642 196.116 171.6 196.614 171.585 196.841C171.58 196.912 171.642 196.983 171.728 197.003C171.814 197.022 171.864 196.964 171.881 196.919C171.95 196.743 172.003 196.333 172.091 195.99C172.229 195.461 172.246 194.965 172.246 194.965L172.244 194.968Z" fill="#FFD7CF"/>
<path d="M173.056 195.285L172.488 195.12C172.488 195.12 172.331 196.202 172.402 197.062C172.417 197.229 172.641 197.21 172.682 197.119C172.72 197.038 172.806 196.402 172.827 196.166C172.853 195.866 173.056 195.285 173.056 195.285Z" fill="#FFD7CF"/>
<path d="M172.701 194.984L172.115 195.074C172.115 195.074 171.929 196.168 171.981 197.031C171.986 197.093 172.038 197.162 172.129 197.186C172.22 197.21 172.282 197.107 172.294 197.048C172.329 196.866 172.384 196.397 172.418 196.161C172.461 195.861 172.701 194.984 172.701 194.984Z" fill="#FFD7CF"/>
<path d="M180.184 206.768C180.072 206.852 180.079 207.243 180.175 207.309C180.411 207.471 180.857 207.772 180.957 207.829C181.129 207.927 181.647 208.072 182.074 207.786C182.45 207.533 183.023 207.102 183.023 207.102V207.285L184.046 206.675C184.12 206.64 184.168 206.566 184.17 206.485V206.006C184.17 206.006 180.568 206.485 180.184 206.771V206.768Z" fill="#111107"/>
<path d="M182.06 205.292C182.32 204.906 182.852 204.243 183.68 204.484C183.847 204.534 184.157 204.77 184.205 204.968C184.231 205.075 184.193 205.294 184.205 205.366C184.243 205.585 184.253 205.876 184.238 205.997C184.222 206.147 184.126 206.276 183.988 206.333C183.692 206.455 183.193 206.66 182.991 206.824C182.712 207.05 182.211 207.46 181.712 207.606C181.428 207.689 181.003 207.548 180.875 207.486C180.875 207.486 180.479 207.265 180.364 207.167C180.14 206.979 180.097 206.688 180.202 206.521C180.581 205.916 181.461 206.185 182.06 205.294V205.292Z" fill="url(#paint17_linear_207_3314)"/>
<path d="M183.808 205.089C183.536 205.48 182.764 205.334 182.604 205.006C181.902 203.547 181.902 202.804 181.902 202.804L183.448 201.891C183.448 201.891 184.252 204.448 183.808 205.089Z" fill="#47AA50"/>
<path d="M184.001 203.64C183.796 200.144 183.762 192.626 183.686 192.18C183.469 190.92 186.599 189.473 187.851 187.265C189.531 184.298 189.111 180.554 189.111 180.554L181.942 181.848C181.942 181.848 177.114 189.807 178.505 194.582C178.929 196.038 181.393 203.235 181.692 203.804C182.352 205.07 184.03 204.105 184.001 203.638V203.64Z" fill="#111107"/>
<path d="M191.154 207.845C191.057 207.943 191.133 208.451 191.307 208.56C191.562 208.722 192.147 208.915 192.254 208.958C192.438 209.03 192.695 209.089 193.12 208.734C193.466 208.443 193.974 207.757 193.974 207.757V207.936L194.783 207.295C194.85 207.25 194.883 207.171 194.878 207.088C194.871 206.954 194.878 206.556 194.878 206.556C194.878 206.556 191.491 207.512 191.154 207.845Z" fill="#111107"/>
<path d="M192.695 206.182C192.895 205.768 193.568 204.012 194.572 205.384C194.894 205.825 194.89 206.421 194.885 206.709C194.885 206.792 194.868 206.869 194.668 206.969C194.382 207.109 194 207.362 193.823 207.553C193.58 207.815 193.225 208.406 192.757 208.623C192.49 208.746 192.053 208.668 191.917 208.625C191.917 208.625 191.497 208.465 191.371 208.387C191.125 208.234 191.042 207.955 191.12 207.777C191.409 207.128 192.23 207.15 192.693 206.185L192.695 206.182Z" fill="url(#paint18_linear_207_3314)"/>
<path d="M192.119 204.025C192.119 204.025 193.102 205.017 193.19 205.984C193.224 206.344 193.968 206.38 194.326 206.108C194.579 205.915 193.961 204.025 193.961 204.025H192.119Z" fill="#47AA50"/>
<path d="M174.769 177.601C174.23 176.698 176.551 172.59 178.23 172.876C179.91 173.162 181.148 174.892 181.208 175.943C181.246 176.601 186.718 183.816 186.718 183.816C186.718 183.816 182.732 183.156 181.637 182.427C179.185 180.794 175.21 178.34 174.769 177.601Z" fill="url(#paint19_linear_207_3314)"/>
<path d="M174.77 177.603C174.231 176.7 183.494 183.493 183.494 183.493C183.494 183.493 182.449 183.624 181.352 182.895C178.899 181.263 175.209 178.339 174.767 177.6L174.77 177.603Z" fill="url(#paint20_linear_207_3314)"/>
<path d="M194.633 204.739C194.18 201.041 186.873 196.57 186.797 196.125C186.58 194.864 190.075 190.62 191.325 188.411C193.004 185.444 192.594 184.11 192.594 184.11L186.716 183.819C186.716 183.819 180.788 192.801 182.131 197.588C182.62 199.33 191.895 204.98 192.439 205.325C193.414 205.947 194.667 205.018 194.633 204.739Z" fill="#111107"/>
<path d="M179.616 179.25C184.621 181.15 186.258 184.591 187.441 184.591C188.235 184.591 192.427 185.434 192.995 184.602C193.882 183.301 191.735 179.463 190.745 178.085C190.046 177.113 187.751 175.147 186.721 174.537C185.265 173.674 183.584 172.862 181.229 172.862C180.289 172.862 177.224 173.16 177.224 173.16C177.224 173.16 178.808 173.581 179.428 174.637C180.814 176.999 179.616 179.25 179.616 179.25Z" fill="url(#paint21_linear_207_3314)"/>
<path d="M177.444 178.712C177.319 178.298 175.638 176.177 174.469 176.177C172.446 176.177 171.506 188.971 171.506 191.952C171.506 192.607 173.906 192.404 173.906 192.404C173.906 192.404 174.419 188.906 175.254 184.989C176.411 179.556 177.778 179.825 177.444 178.712Z" fill="url(#paint22_linear_207_3314)"/>
<path d="M173.739 173.522C175.352 171.971 176.812 172.493 176.812 172.493C176.812 172.493 177.561 172.109 178.406 172.655C179.749 173.52 179.46 174.909 179.598 175.295C180.002 176.422 179.155 176.432 178.992 177.342C178.84 178.193 175.817 178.562 174.768 177.85C174.407 177.604 173.157 176.52 172.967 175.438C172.84 174.718 173.332 173.918 173.742 173.525L173.739 173.522Z" fill="#111107"/>
<path d="M174.005 176.98C174.005 176.98 174.993 178.593 175.351 179.11C176.093 180.185 176.854 180.599 177.927 180.051C178.662 179.677 179.499 178.3 179.06 177.073C178.786 176.3 177.75 174.551 177.75 174.551C177.135 173.732 173.402 176.179 174.003 176.98H174.005Z" fill="#FFD7CF"/>
<path d="M178.971 175.709C178.436 175.795 178.355 176.095 178.324 176.5C178.291 176.905 178.56 177.23 178.906 177.168C179.262 177.103 179.488 176.786 179.522 176.381C179.555 175.976 179.328 175.652 178.973 175.709H178.971Z" fill="#FFD7CF"/>
<path d="M179.003 176.214L178.991 176.743C179.118 176.777 179.232 176.465 179.237 176.319C179.239 176.174 179.118 176.138 179.006 176.214H179.003Z" fill="#F4C0B8"/>
<path d="M177.047 173.351C176.205 173.122 173.85 173.484 173.273 174.818C172.791 175.936 174.525 179.248 174.525 179.248L174.907 178.645L175.038 178.893C175.038 178.893 175.768 178.317 175.871 178.224C176.878 177.309 177.216 176.079 178.323 176.501L178.71 175.781C178.71 175.781 178.173 173.658 177.047 173.351Z" fill="#111107"/>
<path d="M176.326 179.573C176.391 179.501 176.424 179.394 176.455 179.339C176.539 179.177 176.665 179.101 176.863 179.037C177.064 178.972 177.226 178.972 177.364 178.991C177.526 179.013 177.767 179.125 177.882 179.106C179.137 178.906 179.063 177.073 179.063 177.073C179.063 177.073 179.75 178.677 178.881 179.578C178.006 180.486 176.718 180.378 176.148 180.073C175.425 179.685 174.649 178.103 174.649 178.103C174.649 178.103 175.88 180.069 176.326 179.573Z" fill="#111107"/>
<path d="M186.692 194.953L180.988 191.343L179.996 191.074L185.7 194.684L186.692 194.953Z" fill="#E9EFEF"/>
<path d="M187.994 193.142L182.29 189.535L180.987 191.343L186.691 194.953L187.994 193.142Z" fill="url(#paint23_linear_207_3314)"/>
<path d="M185.606 190.663L186.835 191.783L189.039 190.203L187.544 188.373L185.606 190.663Z" fill="#FFD7CF"/>
<path d="M184.265 192.012L185.83 193.204C185.83 193.204 186.228 192.779 186.459 192.548C186.903 192.105 186.953 191.412 186.953 191.412L186.28 190.718C186.28 190.718 185.548 190.671 185.362 190.735C184.916 190.894 184.265 192.012 184.265 192.012Z" fill="#FFD7CF"/>
<path d="M184.884 190.689C185.139 190.649 185.678 190.577 185.678 190.577L185.435 191.328C185.435 191.328 184.719 191.511 184.567 191.537C184.383 191.571 183.827 191.935 183.582 192.019C183.469 192.057 183.324 191.902 183.372 191.802C183.541 191.445 184.464 190.753 184.884 190.689Z" fill="#FFD7CF"/>
<path d="M185.828 193.203C185.828 193.203 185.32 193.548 185.153 193.649C185.008 193.737 184.089 193.744 184.027 193.684C183.975 193.634 184.006 193.541 184.056 193.491C184.056 193.491 184.91 193.346 185.117 193.201C185.246 193.11 185.47 192.679 185.47 192.679L185.828 193.201V193.203Z" fill="#FFD7CF"/>
<path d="M185.136 192.405L185.393 192.822L184.725 193.396C184.725 193.396 183.957 193.62 183.788 193.773C183.735 193.82 183.64 193.818 183.571 193.761C183.502 193.703 183.516 193.63 183.542 193.589C183.786 193.174 185.136 192.407 185.136 192.407V192.405Z" fill="#FFD7CF"/>
<path d="M185.068 192.474L184.204 193.23C184.204 193.23 183.636 193.385 183.372 193.578C183.231 193.68 183.157 193.675 183.085 193.613C183.011 193.554 182.985 193.449 183.121 193.342C183.512 193.037 184.686 192.246 184.686 192.246L185.068 192.474Z" fill="#FFD7CF"/>
<path d="M184.523 191.607L184.788 192.138C184.788 192.138 184.001 192.92 183.263 193.373C183.211 193.406 183.125 193.401 183.051 193.342C182.977 193.282 182.987 193.196 183.006 193.139C183.034 193.053 183.533 192.615 183.724 192.515C184.077 192.331 184.523 191.607 184.523 191.607Z" fill="#FFD7CF"/>
<path d="M185.752 176.308C188.357 177.38 192.188 183.485 192.059 184.901C192.031 185.225 190.905 189.681 188.111 191.253C187.651 191.513 185.969 190.138 186.239 189.514C186.911 187.958 188.851 186.447 187.959 184.159C187.479 182.932 186.014 181.955 184.24 180.008C181.818 177.349 184.232 175.681 185.752 176.305V176.308Z" fill="url(#paint24_linear_207_3314)"/>
<path d="M111.388 106.885L110.682 106.056L110.357 106.742L110.873 107.083L111.388 106.885Z" fill="#DFE5E5"/>
<path d="M143.571 105.84L141.91 106.183L145.3 108.104L143.571 105.84Z" fill="#DFE5E5"/>
<path d="M148.048 110.948L144.472 111.136L143.268 112.408L148.048 110.948Z" fill="#DFE5E5"/>
<path d="M145.656 112.408L141.51 111.677L143.103 113.188L145.656 112.408Z" fill="#DFE5E5"/>
<path d="M158.17 99.4453L155.136 99.5764L155.875 100.032L158.17 99.4453Z" fill="#DFE5E5"/>
<path d="M140.24 106.749L143.606 107.833L144.071 106.608L140.24 106.749Z" fill="#DFE5E5"/>
<path d="M138.718 117.014L141.444 116.837L141.511 114.983L138.718 117.014Z" fill="#DFE5E5"/>
<path d="M124.986 115.707L127.715 115.533L127.782 113.679L124.986 115.707Z" fill="#DFE5E5"/>
<path d="M125.684 115.707L128.701 116.426L127.783 114.572L125.684 115.707Z" fill="#DFE5E5"/>
<path d="M121.453 109.565L120.726 110.719L121.656 110.295L121.453 109.565Z" fill="white"/>
<path d="M111.772 99.8828L110.524 99.9948L112.166 100.359L111.772 99.8828Z" fill="#DFE5E5"/>
<path d="M154.548 105.782L154.283 106.384L156.652 105.696L154.548 105.782Z" fill="#DFE5E5"/>
<path d="M131.414 115.148L131.199 116.042L131.81 115.37L131.414 115.148Z" fill="#DFE5E5"/>
<path d="M123.702 109.177L123.499 110.092L124.36 110.142L123.702 109.177Z" fill="white"/>
<path d="M140.633 100.144L136.354 99.7124L138.379 101.006L140.633 100.144Z" fill="#DFE5E5"/>
<path d="M143.666 99.7589L138.771 99.2656L138.187 100.262L143.666 99.7589Z" fill="#DFE5E5"/>
<path d="M106.24 159.921L106.157 161.048L102.404 161.186L102.419 159.875L106.24 159.921Z" fill="#FFD7CF"/>
<path d="M108.073 159.684L107.92 161.121C107.92 161.121 107.321 161.318 107.026 161.335C106.458 161.366 106.024 160.949 106.024 160.949L105.974 160.196C105.974 160.196 106.207 159.748 106.365 159.674C106.744 159.495 108.073 159.686 108.073 159.686V159.684Z" fill="#FFD7CF"/>
<path d="M106.951 159.259C106.746 159.359 106.355 159.629 106.252 159.767C106.197 159.843 106.894 160.015 106.894 160.015C106.894 160.015 107.302 159.59 107.411 159.514C107.545 159.424 107.609 159.436 107.817 159.333C107.912 159.288 107.96 159.231 107.886 159.173C107.707 159.038 107.161 159.152 106.949 159.257L106.951 159.259Z" fill="#FFD7CF"/>
<path d="M107.92 161.118C107.92 161.118 108.452 161.097 108.621 161.051C108.769 161.011 109.172 160.794 109.172 160.794C109.28 160.749 109.332 160.725 109.33 160.658C109.33 160.601 109.249 160.572 109.184 160.577L107.548 160.804L107.922 161.118H107.92Z" fill="#FFD7CF"/>
<path d="M107.801 160.399L107.779 160.737L108.714 160.67C108.714 160.67 109.328 160.584 109.535 160.565C109.599 160.558 109.657 160.501 109.659 160.432C109.664 160.363 109.604 160.332 109.561 160.325C109.134 160.253 107.801 160.396 107.801 160.396V160.399Z" fill="#FFD7CF"/>
<path d="M107.886 160.394L108.838 160.299C108.838 160.299 109.362 160.275 109.653 160.22C109.809 160.192 109.849 160.146 109.854 160.072C109.859 159.999 109.806 159.927 109.651 159.953C109.207 160.025 107.967 160.051 107.967 160.051L107.886 160.394Z" fill="#FFD7CF"/>
<path d="M108.072 159.684L107.864 160.008C107.864 160.008 109.157 160.063 109.589 160.053C109.644 160.053 109.694 159.986 109.699 159.912C109.704 159.839 109.642 159.8 109.591 159.781C109.517 159.753 108.935 159.643 108.74 159.629C108.547 159.617 108.074 159.686 108.074 159.686L108.072 159.684Z" fill="#FFD7CF"/>
<path d="M95.5389 155.978C96.0923 157.729 97.4855 159.152 98.5996 159.943C100.122 161.022 100.792 161.38 103.531 161.63C103.724 161.647 103.96 161.508 103.967 161.337C103.981 160.865 103.929 159.938 103.929 159.938C103.929 159.614 103.504 159.533 103.325 159.519C102.009 159.414 100.866 158.804 100.394 158.339C99.9737 157.925 98.5757 156.483 98.0533 155.082C97.8505 154.536 95.286 155.172 95.5413 155.975L95.5389 155.978Z" fill="#111107"/>
<path d="M96.7651 154.907C96.4812 152.091 97.1897 150.709 96.0136 149.262C95.15 148.199 94.4224 147.78 92.7788 148.161C92.2468 148.285 91.3641 148.678 90.8608 150.091C90.5507 150.959 90.9562 152.384 91.1685 152.958C91.4643 153.754 92.3637 154.052 92.211 155.146C91.5693 159.711 96.9225 156.466 96.7651 154.91V154.907Z" fill="url(#paint25_linear_207_3314)"/>
<path d="M92.3271 149.843L92.2222 149.54C92.1697 149.39 92.2222 149.209 92.3582 149.069C92.5013 148.919 92.716 148.845 92.8997 148.878L93.3434 148.959L92.3271 149.843Z" fill="#111107"/>
<path d="M90.9594 192.307C90.6755 192.453 90.2891 193.11 90.0744 193.363C89.8978 193.573 89.4279 193.909 89.3181 194.152C89.1893 194.438 89.0653 195.01 89.1678 195.255C89.206 195.348 89.5424 195.72 89.6473 195.727C89.8954 195.744 90.3678 195.286 90.5753 195.091C90.8473 194.833 91.0811 194.107 91.2814 193.794C91.415 193.589 91.7633 193.07 91.7824 192.846C91.8039 192.608 91.5343 192.448 91.3459 192.348C91.2433 192.293 91.0787 192.241 90.9546 192.305L90.9594 192.307Z" fill="#257219"/>
<path d="M95.6133 194.981C95.6133 194.826 95.6944 194.605 95.7183 194.505C95.7588 194.319 95.9425 194.192 96.088 194.147C96.8061 193.921 97.1043 194.471 97.3452 194.972C97.777 195.868 97.987 196.151 98.6406 196.573C98.7336 196.633 98.7694 196.773 98.7217 196.885C98.674 196.997 98.3997 197.178 98.3138 197.233C98.1635 197.326 97.9011 197.424 97.5051 197.192C96.7655 196.761 96.2741 196.101 96.2741 196.101V196.373L95.7469 196.018C95.7469 196.018 95.6109 195.503 95.6133 194.981Z" fill="#257219"/>
<path d="M91.2559 193.658C91.461 193.444 91.6829 193.039 91.6996 192.839C91.7187 192.624 91.4777 192.483 91.3083 192.395C91.2153 192.348 91.0698 192.3 90.96 192.357C90.731 192.474 90.471 192.841 90.3851 193.155C90.242 193.68 90.9481 193.982 91.2559 193.661V193.658Z" fill="#47AA50"/>
<path d="M96.5396 195.417C96.8497 195.431 97.3531 195.124 97.2601 194.816C97.1265 194.371 96.7806 193.994 96.1866 194.182C96.0554 194.223 95.8931 194.337 95.855 194.502C95.8359 194.592 95.7953 194.692 95.8096 194.831C95.8574 195.245 96.282 195.405 96.5372 195.414L96.5396 195.417Z" fill="#47AA50"/>
<path d="M99.984 167.441C99.6428 164.684 92.2237 168.47 92.0019 172.65C91.7991 176.484 93.3688 183.03 93.0038 183.847C92.3597 185.296 91.3601 191.835 90.7733 192.545C90.4966 192.879 90.8282 193.286 91.2623 193.334C91.2623 193.334 94.7858 188.144 95.6589 184.388C95.7543 183.974 95.8665 180.19 95.8665 180.19L96.4223 182.918C96.4223 182.918 96.3173 184.527 96.1957 185.341C95.8522 187.634 95.6041 194.208 96.0478 194.773C96.3173 195.116 96.8875 194.966 96.94 194.535C97.1428 192.814 98.691 186.917 99.3088 183.194C99.9744 179.186 100.294 169.962 99.9816 167.439L99.984 167.441Z" fill="#FFD7CF"/>
<path d="M91.4898 190.194C91.4898 190.194 90.9101 192.424 90.6954 192.684C90.4187 193.018 91.2011 193.499 91.3753 193.315C91.9645 192.694 92.1601 192.253 92.7756 190.94C91.986 190.747 91.4898 190.194 91.4898 190.194Z" fill="#FFD011"/>
<path d="M95.7988 192.264C95.8394 193.582 95.837 194.611 95.9992 194.816C96.2688 195.159 96.8866 194.969 96.9367 194.537C96.9892 194.092 97.1514 193.305 97.3375 192.4C97.1514 192.467 96.3809 192.569 95.8012 192.264H95.7988Z" fill="#FFD011"/>
<path d="M100.185 167.411C99.7941 165.228 98.6467 163.06 98.6467 163.06L92.9237 163.963C92.9237 163.963 91.0057 168.426 91.0176 172.613C91.0176 173.428 91.4685 175.973 91.7643 178.208C92.0506 180.367 92.1722 181.687 92.22 183.012C92.2939 184.997 99.2526 183.893 100.026 181.229C100.169 180.734 100.054 178.055 100.142 175.286C100.247 171.919 100.431 168.786 100.185 167.413V167.411Z" fill="url(#paint26_linear_207_3314)"/>
<path d="M98.7474 157.654C98.6687 156.979 98.5351 156.372 98.1821 155.369C97.9697 154.763 97.5904 154.489 97.0036 154.492C96.7173 154.492 95.1953 154.294 93.9739 155.025C93.4539 155.338 92.3374 155.945 91.9271 156.534C91.3259 157.396 92.972 161.331 92.9434 162.968C92.9386 163.294 92.8432 163.594 92.867 163.854C92.8837 164.064 93.4443 164.319 94.0097 164.364C97.0489 164.602 98.6067 163.344 98.7403 162.799C98.8071 162.524 98.4206 161.497 98.4087 160.875C98.4015 160.461 98.8238 158.302 98.7474 157.649V157.654Z" fill="#111107"/>
<path d="M97.0627 155.133C97.0341 154.909 96.8719 154.724 96.6548 154.664C95.703 154.402 94.4338 154.645 93.6991 155.312C93.6991 155.312 93.3389 155.589 93.3389 155.815C93.3365 156.659 94.7368 157.819 96.3208 156.968C97.1152 156.542 97.1248 155.631 97.0627 155.133Z" fill="#FFD7CF"/>
<path d="M94.8043 156.378L96.3526 155.999L95.4484 151.886L93.7881 152.098C93.7881 152.098 94.2008 153.909 94.2461 154.171C94.4632 155.415 94.8043 156.38 94.8043 156.38V156.378Z" fill="#FFD7CF"/>
<path d="M95.7488 153.277L95.9038 153.952C95.9038 153.952 95.5866 154.176 95.0236 154.016C94.3413 153.821 94.0336 153.177 94.0336 153.177L93.9238 152.725C94.4606 153.189 94.8208 153.668 95.7512 153.277H95.7488Z" fill="#F4C0B8"/>
<path d="M93.1583 151.19C92.9699 150.487 95.2815 149.113 95.9709 149.961C96.2596 150.316 96.7057 151.329 96.8059 151.765C97.023 152.72 96.5125 153.507 96.2978 153.659C95.9328 153.921 94.5515 153.814 94.0291 153.028C93.6999 152.532 93.1583 151.188 93.1583 151.188V151.19Z" fill="#FFD7CF"/>
<path d="M92.0529 150.909C91.9861 150.604 92.0243 150.075 92.5682 149.472C93.0501 148.938 93.6178 148.409 94.8011 148.733C95.7887 149.005 96.4901 150.454 96.4901 150.454L94.6436 151.838L94.1188 151.471C94.1188 151.471 94.4003 151.869 94.3908 152.015C94.3788 152.201 93.8397 152.506 93.8397 152.506L93.2839 152.639C93.2839 152.639 92.3439 152.253 92.0505 150.911L92.0529 150.909Z" fill="url(#paint27_linear_207_3314)"/>
<path d="M93.271 152.188C93.636 152.062 93.8388 152.338 93.8984 152.402C94.0964 152.607 94.0916 152.946 93.8531 153.024C93.6074 153.105 93.3473 152.993 93.1756 152.765C93.0038 152.536 93.0253 152.274 93.2686 152.188H93.271Z" fill="#FFD7CF"/>
<path d="M93.4819 152.47L93.7467 152.806C93.6656 152.901 93.4533 152.787 93.3602 152.682C93.2672 152.575 93.3435 152.479 93.4819 152.47Z" fill="#F4C0B8"/>
<path d="M104.664 162.231L104.647 163.367L100.494 162.965L100.914 161.645L104.664 162.231Z" fill="#FFD7CF"/>
<path d="M106.664 162.254L106.404 163.6C106.404 163.6 105.746 163.736 105.426 163.722C104.811 163.693 104.372 163.233 104.372 163.233L104.367 162.192L104.773 161.97L106.667 162.256L106.664 162.254Z" fill="#FFD7CF"/>
<path d="M105.489 161.693C105.26 161.774 104.771 161.967 104.771 161.967L105.374 162.392C105.374 162.392 105.758 162.108 105.892 162.06C106.154 161.965 106.405 162.139 106.636 162.06C106.741 162.025 106.798 161.972 106.722 161.908C106.538 161.753 105.727 161.615 105.491 161.696L105.489 161.693Z" fill="#FFD7CF"/>
<path d="M106.402 163.599L106.81 163.423C106.974 163.325 106.989 163.28 106.991 163.213C106.991 163.156 106.907 163.118 106.838 163.116L106.018 163.247L106.399 163.599H106.402Z" fill="#FFD7CF"/>
<path d="M106.322 162.865L106.276 163.201C106.276 163.201 106.773 163.123 106.994 163.125C107.064 163.125 107.152 163.035 107.161 162.965C107.171 162.896 107.109 162.861 107.064 162.849C106.608 162.732 106.319 162.865 106.319 162.865H106.322Z" fill="#FFD7CF"/>
<path d="M106.416 162.87C106.416 162.87 106.607 162.92 106.927 162.896C107.096 162.882 107.113 162.725 107.122 162.651C107.132 162.577 107.079 162.501 106.912 162.51C106.428 162.536 106.528 162.536 106.528 162.536L106.418 162.87H106.416Z" fill="#FFD7CF"/>
<path d="M106.665 162.253L106.42 162.482C106.42 162.482 106.369 162.568 106.837 162.604C106.897 162.608 107.006 162.473 106.971 162.404C106.928 162.318 106.665 162.256 106.665 162.256V162.253Z" fill="#FFD7CF"/>
<path d="M91.983 158.162C91.4939 157.535 95.1868 156.906 95.714 157.735C96.172 158.457 97.6129 159.847 98.2689 160.354C99.0442 160.952 101.523 161.195 102.112 161.665C102.396 161.891 101.993 163.159 101.726 163.273C101.413 163.404 97.9254 162.995 97.1167 162.516C96.3462 162.06 94.5665 161.467 91.9806 158.162H91.983Z" fill="#111107"/>
<path d="M121.521 152.421L120.18 153.2L103.212 204.421L104.548 203.651L121.521 152.421Z" fill="#111107"/>
<path d="M113.598 147.923L112.267 148.683L95.3174 199.842L96.6724 199.016L113.598 147.923Z" fill="#111107"/>
<path d="M105.627 193.94L98.6084 189.875L99.9419 189.131L106.039 192.658L105.627 193.94Z" fill="white"/>
<path d="M107.858 187.215L100.84 183.148L102.173 182.404L108.271 185.931L107.858 187.215Z" fill="white"/>
<path d="M110.089 180.488L103.07 176.421L104.404 175.677L110.501 179.206L110.089 180.488Z" fill="white"/>
<path d="M112.32 173.761L105.302 169.696L106.635 168.95L112.733 172.479L112.32 173.761Z" fill="white"/>
<path d="M114.551 167.034L107.532 162.969L108.866 162.223L114.963 165.752L114.551 167.034Z" fill="white"/>
<path d="M116.779 160.307L109.761 156.242L111.094 155.496L117.192 159.025L116.779 160.307Z" fill="white"/>
<path d="M98.206 191.124L105.217 195.179L102.328 203.896L103.213 204.413L120.179 153.202L119.368 152.735L119.292 152.689L112.264 148.686L111.377 148.174L94.4297 199.33L95.3147 199.848L98.2036 191.128L98.206 191.124ZM114.132 168.269L112.314 173.755L105.303 169.699L107.121 164.213L114.132 168.269ZM107.534 162.969L109.351 157.484L116.363 161.54L114.545 167.025L107.534 162.969ZM111.904 174.996L110.086 180.481L103.075 176.426L104.893 170.94L111.904 174.996ZM109.676 181.723L107.858 187.208L100.847 183.153L102.665 177.667L109.676 181.723ZM118.882 153.931L116.773 160.296L109.762 156.24L111.854 149.923L118.879 153.931H118.882ZM98.6187 189.88L100.437 184.394L107.448 188.45L105.63 193.935L98.6187 189.88Z" fill="url(#paint28_linear_207_3314)"/>
<path d="M120.182 153.199L111.382 148.169L112.72 147.392L121.523 152.42L120.182 153.199Z" fill="white"/>
<path d="M112.075 148.743L95.1729 199.759L95.316 199.843L112.218 148.829L112.075 148.743Z" fill="#F7C405"/>
<path d="M120.038 153.115L103.072 204.327L103.215 204.412L120.182 153.199L120.038 153.115Z" fill="#F7C405"/>
<path d="M113.838 112.991L115.102 113.474L114.146 116.174L112.264 115.962L113.838 112.991Z" fill="#FFDED5"/>
<path d="M114.872 115.019C114.872 115.019 114.979 114.339 115.032 114.118C115.058 114.011 115.001 113.903 114.893 113.879C114.514 113.789 113.942 113.51 113.562 113.422C113.46 113.398 113.355 113.462 113.328 113.565C113.283 113.751 112.885 114.492 112.885 114.492L114.87 115.019H114.872Z" fill="#BABFBF"/>
<path d="M105.858 126.426C108.238 124.734 111.626 122.117 113.205 119.93C113.742 119.189 114.615 117.506 115.013 115.855C115.08 115.581 115.214 114.907 115.032 114.716C114.799 114.473 113.1 113.968 112.811 114.48C112.449 115.123 111.442 117.587 110.199 118.51C108.737 119.594 106.394 121.348 105.569 123.471C104.937 125.103 104.696 127.248 105.855 126.423L105.858 126.426Z" fill="url(#paint29_linear_207_3314)"/>
<path d="M114.45 111.149L116.194 111.895C116.194 111.895 115.924 112.527 115.805 112.784C115.748 112.91 115.512 113.277 115.018 113.706L113.718 113.223C113.718 113.223 113.765 112.694 113.828 112.436C113.878 112.226 114.448 111.149 114.448 111.149H114.45Z" fill="#FFDED5"/>
<path d="M114.612 110.521C114.391 110.406 114.224 110.802 113.987 111.412C113.754 112.02 113.811 112.544 113.811 112.544L114.257 112.291L114.381 111.669C114.381 111.669 114.789 110.611 114.612 110.521Z" fill="#FFDED5"/>
<path d="M116.189 111.907C116.189 111.907 116.358 111.33 116.372 111.135C116.384 110.987 116.344 110.689 116.294 110.549C116.277 110.501 116.212 110.415 116.146 110.41C116.055 110.403 116.036 110.451 116.024 110.513C115.998 110.649 116 111.066 116 111.066L115.692 111.831L116.189 111.907Z" fill="#FFDED5"/>
<path d="M115.319 111.567L115.711 111.81C115.711 111.81 115.985 111.164 116.045 110.938C116.097 110.745 116.135 110.38 116.126 110.192C116.121 110.089 116.066 109.994 115.98 109.963C115.894 109.932 115.827 110.037 115.811 110.092C115.811 110.092 115.689 110.659 115.639 110.838C115.563 111.1 115.322 111.564 115.322 111.564L115.319 111.567Z" fill="#FFDED5"/>
<path d="M115.288 111.552C115.288 111.552 115.579 110.925 115.639 110.706C115.711 110.442 115.856 110.168 115.873 109.925C115.882 109.786 115.818 109.696 115.732 109.682C115.634 109.665 115.551 109.763 115.52 109.848C115.52 109.848 115.331 110.339 115.257 110.539C115.176 110.756 114.84 111.359 114.84 111.359L115.288 111.555V111.552Z" fill="#FFDED5"/>
<path d="M114.42 111.152L114.843 111.409C114.843 111.409 115.074 110.873 115.181 110.618C115.253 110.449 115.365 110.168 115.394 110.01C115.406 109.944 115.406 109.784 115.315 109.748C115.203 109.703 115.105 109.822 115.067 109.882C114.878 110.184 114.418 111.154 114.418 111.154L114.42 111.152Z" fill="#FFDED5"/>
<path d="M106.991 161.039C107.007 161.284 107.484 161.453 108.057 161.417C108.63 161.382 109.083 161.151 109.066 160.905C109.049 160.66 108.572 160.491 108 160.526C107.427 160.562 106.974 160.793 106.991 161.039Z" fill="#0F41B9"/>
<path d="M111.142 162.99C111.142 163.264 111.659 163.488 112.299 163.488C112.938 163.488 113.456 163.267 113.456 162.99C113.456 162.714 112.938 162.492 112.299 162.492C111.659 162.492 111.142 162.714 111.142 162.99Z" fill="#0F41B9"/>
<path d="M112.667 125.247C112.722 124.642 111.932 124.075 110.904 123.984C109.876 123.891 108.998 124.308 108.943 124.913C108.888 125.519 109.678 126.086 110.706 126.176C111.734 126.269 112.612 125.852 112.667 125.247Z" fill="white"/>
<path d="M108.246 163.075C108.742 162.722 108.99 162.751 109.438 162.489C109.663 162.358 109.915 161.803 110.14 161.552C110.168 161.519 110.28 161.493 110.39 161.56C110.419 161.576 110.44 161.803 110.395 161.881C110.173 162.265 109.896 162.546 109.049 163.049C108.933 163.118 108.527 163.199 108.527 163.199V163.401C108.527 163.401 108.334 163.656 108.238 163.692C108.019 163.773 107.294 163.564 107.294 163.564C107.294 163.564 107.279 163.585 107.263 163.213C107.666 163.213 107.921 163.304 108.246 163.075Z" fill="#C11205"/>
<path d="M108.452 163.057C108.371 163.119 108.257 163.286 108.161 163.324C107.951 163.405 107.267 163.248 107.267 163.248C107.267 163.248 107.162 162.576 107.355 162.009C107.439 161.763 107.751 161.608 107.751 161.608C107.751 161.608 108.798 161.675 109.359 161.358C109.624 161.21 110.246 161.277 110.385 161.549C110.475 161.727 109.939 162.252 109.407 162.588C108.925 162.893 108.679 162.888 108.452 163.059V163.057Z" fill="#C11205"/>
<path d="M107.595 162.334C107.688 162.384 107.948 162.408 108.055 162.415C108.329 162.434 108.558 162.38 108.599 161.975C108.606 161.908 108.599 160.993 108.599 160.993C108.599 160.819 107.394 160.788 107.361 160.874C107.308 161.012 107.358 162.206 107.595 162.337V162.334Z" fill="#FFDED5"/>
<path d="M112.273 165.704C112.755 165.361 112.996 165.387 113.433 165.134C113.65 165.008 114.237 164.598 114.451 164.355C114.48 164.322 114.731 164.501 114.838 164.565C114.867 164.582 114.886 164.801 114.843 164.877C114.628 165.249 114.067 165.613 113.178 165.756C113.046 165.778 112.643 165.852 112.643 165.852V166.007C112.643 166.007 112.307 166.197 112.214 166.233C112.002 166.312 111.198 165.828 111.198 165.828C111.198 165.828 111.183 165.849 111.169 165.487C111.56 165.487 111.959 165.928 112.273 165.704Z" fill="#C11205"/>
<path d="M112.401 165.684C112.323 165.744 112.232 165.834 112.139 165.872C111.936 165.951 111.173 165.517 111.173 165.517C111.173 165.517 111.12 165.239 111.306 164.691C111.388 164.452 111.793 164.278 111.793 164.278C111.793 164.278 113.01 164.362 113.618 164.216C114.129 164.095 114.61 164.269 114.744 164.528C114.832 164.7 114.105 165.272 113.406 165.439C112.681 165.613 112.621 165.517 112.404 165.684H112.401Z" fill="#C11205"/>
<path d="M111.775 164.731C111.868 164.781 112.123 164.822 112.288 164.822C112.5 164.822 112.791 164.786 112.832 164.381C112.839 164.314 112.832 163.452 112.832 163.452C112.832 163.278 111.62 163.411 111.589 163.499C111.537 163.637 111.513 164.588 111.778 164.731H111.775Z" fill="#FFDED5"/>
<path d="M111.048 118.098C111.048 118.098 111.816 120.161 111.878 120.662C112.052 122.065 111.656 122.203 110.721 122.415C110.074 122.563 109.22 122.568 108.743 121.634C108.443 121.048 108.199 119.806 108.199 119.806C108.061 118.994 110.912 117.302 111.048 118.095V118.098Z" fill="#FFDED5"/>
<path d="M107.08 118.161C107.099 117.833 107.102 117.685 107.669 117.087C108.151 116.579 109.44 116.343 110.492 116.858C111.57 117.387 111.25 117.909 111.25 117.909C111.25 117.909 110.341 119.081 109.962 118.524L108.681 119.698C108.681 119.698 108.54 119.739 108.359 119.663C108.075 119.539 107.782 119.717 107.782 119.717C107.782 119.717 107.023 119.105 107.08 118.164V118.161Z" fill="url(#paint30_linear_207_3314)"/>
<path d="M107.993 124.451L111.156 125.083L110.738 121.806L107.969 121.229C107.969 121.229 108.255 122.34 108.265 122.581C108.317 124.032 107.993 124.451 107.993 124.451Z" fill="#FFDED5"/>
<path d="M110.816 122.404L110.823 122.55C110.823 122.55 110.415 122.645 110.081 122.478C109.704 122.292 109.595 121.728 109.595 121.728L109.752 121.649C109.752 121.649 110.019 122.257 110.816 122.402V122.404Z" fill="#FFC2B8"/>
<path d="M106.779 156.656C106.812 156.018 106.936 154.476 107.017 153.842C107.241 152.069 107.678 149.646 107.719 146.998C107.754 144.646 107.296 141.718 107.296 140.657C107.296 138.599 107.549 137.262 107.549 137.262L115.524 138.384C115.524 138.384 115.901 142.85 115.956 143.774C116.178 147.501 114.906 152.131 114.212 154.702C113.644 156.804 113.313 162.583 113.327 163.807C113.277 164.706 111.266 164.484 111.256 163.993C111.201 161.482 110.698 158.61 110.784 156.504C110.801 156.08 110.987 154.383 110.97 153.961C110.867 151.121 111.02 149.286 111.02 149.286C111.02 149.286 109.808 154.655 109.663 155.284C109.176 157.383 108.921 161.265 108.864 161.832C108.806 162.402 107.399 162.33 107.275 161.896C106.843 160.398 106.717 157.969 106.783 156.656H106.779Z" fill="#111107"/>
<path d="M105.636 123.269C106.333 122.542 107.356 122.813 108.262 123.047C108.262 123.047 108.017 124.572 110.347 124.269C110.958 124.191 110.98 123.621 110.98 123.621C112.201 124.072 112.645 124.419 113.969 125.027C114.99 125.497 115.326 127.86 115.264 130.398C115.214 132.486 115.775 135.419 115.636 137.995C115.553 139.522 114.78 139.816 113.046 139.951C110.438 140.154 108.625 139.611 107.59 138.536C106.939 137.859 107.113 137.211 107.11 136.782C107.096 134.666 107.206 134.545 106.07 130.827C105.719 129.676 103.928 125.041 105.636 123.266V123.269Z" fill="url(#paint31_linear_207_3314)"/>
<path d="M109.362 116.626C108.026 116.261 106.535 117.517 106.127 118.158C105.886 118.539 105.733 119.013 105.841 119.721C106.017 120.882 106.385 121.449 106.578 121.716C107.088 122.423 107.716 122.454 108.317 122.89C108.615 123.107 109.431 122.793 109.703 122.473C109.782 122.38 109.951 122.083 109.801 121.677C109.705 121.423 109.703 121.139 109.739 120.836C109.791 120.381 110.49 120.848 110.607 120.519C110.855 119.819 110.724 116.997 109.362 116.626Z" fill="url(#paint32_linear_207_3314)"/>
<path d="M109.749 120.357C110.302 120.364 110.376 121.188 110.121 121.326C109.982 121.4 109.689 121.298 109.527 120.914C109.41 120.635 109.367 120.352 109.746 120.357H109.749Z" fill="#FFDED5"/>
<path d="M109.828 120.648L109.966 121.06C109.89 121.122 109.739 120.932 109.699 120.803C109.658 120.677 109.732 120.612 109.83 120.648H109.828Z" fill="#FFC2B8"/>
<path d="M112.866 163.393C113.329 163.34 113.379 163.128 113.451 163.031C113.374 163.529 113.429 163.593 113.427 163.688C113.427 163.991 113.165 164.449 112.124 164.439C111.588 164.434 111.144 164.105 111.144 163.829C111.144 163.829 111.151 163.643 111.142 162.988C111.273 163.271 111.588 163.533 112.866 163.391V163.393Z" fill="#3F3F3D"/>
<path d="M108.559 161.301C108.97 161.227 109.005 161.034 109.063 160.943C109.022 161.394 109.075 161.451 109.079 161.534C109.096 161.806 108.889 162.23 107.953 162.283C107.472 162.309 107.056 162.04 107.04 161.792C107.04 161.792 107.037 161.625 106.987 161.039C107.121 161.286 107.419 161.503 108.557 161.301H108.559Z" fill="#3F3F3D"/>
<path d="M116.503 99.0186L120.755 115.094L115.21 117.193L110.957 101.12L116.503 99.0186Z" fill="url(#paint33_linear_207_3314)"/>
<path d="M116.648 95.4634L120.9 111.536L120.754 115.094L116.503 99.0211L116.648 95.4634Z" fill="#E4EAEA"/>
<path d="M110.957 101.12L115.21 117.193L116.031 121.358L111.78 105.285L110.957 101.12Z" fill="#E4EAEA"/>
<path d="M123.998 93.0542L128.249 109.127L120.901 111.536L116.65 95.4633L123.998 93.0542Z" fill="url(#paint34_linear_207_3314)"/>
<path d="M117.788 116.601L119.05 116.318L119.114 119.616L117.895 120.109L117.788 116.601Z" fill="#FFDED5"/>
<path d="M119.602 117.966C119.602 117.966 119.413 117.306 119.337 117.092C119.18 116.651 117.705 116.813 117.643 117.387C117.593 117.838 117.505 118.619 117.505 118.619L119.602 117.966Z" fill="#BABFBF"/>
<path d="M115.26 129.076C117.884 127.963 119.198 125.971 119.602 124.339C120.038 122.578 120.544 119.716 119.804 117.659C119.585 117.052 117.533 117.555 117.428 118.131C117.297 118.86 117.273 121.143 117.023 122.135C116.734 123.281 116.171 124.753 113.805 125.602C112.156 126.193 112.593 130.206 115.26 129.074V129.076Z" fill="url(#paint35_linear_207_3314)"/>
<path d="M117.052 114.925L118.781 114.363C118.781 114.363 119.13 115.025 119.158 115.614C119.175 115.94 119.215 116.031 119.056 116.414L117.827 116.81C117.827 116.81 117.558 116.453 117.453 116.355C117.293 116.21 117.212 115.74 117.193 115.542C117.176 115.385 117.052 114.925 117.052 114.925Z" fill="#FFDED5"/>
<path d="M116.718 114.766C116.531 114.806 116.601 115.1 116.825 115.719C116.968 116.11 117.698 116.651 117.698 116.651L117.703 116.155L117.314 115.652C117.314 115.652 116.908 114.725 116.715 114.766H116.718Z" fill="#FFDED5"/>
<path d="M118.785 114.377C118.785 114.377 118.561 113.927 118.418 113.793C118.256 113.643 118.091 113.577 117.965 113.5C117.922 113.474 117.817 113.448 117.762 113.486C117.688 113.538 117.702 113.588 117.733 113.643C117.8 113.765 118.065 113.946 118.151 114.075C118.241 114.208 118.373 114.692 118.373 114.692L118.783 114.375L118.785 114.377Z" fill="#FFDED5"/>
<path d="M117.918 114.728L118.376 114.666C118.376 114.666 118.1 114.147 117.983 113.947C117.837 113.701 117.651 113.523 117.501 113.406C117.42 113.341 117.329 113.291 117.243 113.322C117.157 113.356 117.172 113.477 117.193 113.53C117.193 113.53 117.532 113.851 117.606 114.021C117.713 114.271 117.918 114.728 117.918 114.728Z" fill="#FFDED5"/>
<path d="M117.938 114.721C117.938 114.721 117.611 114.18 117.525 113.968C117.441 113.761 117.286 113.572 117.134 113.358C117.053 113.243 116.945 113.217 116.871 113.26C116.785 113.308 116.783 113.439 116.814 113.525C116.814 113.525 117.055 113.88 117.124 114.082C117.201 114.301 117.499 114.869 117.499 114.869L117.938 114.723V114.721Z" fill="#FFDED5"/>
<path d="M117.082 114.986L117.504 114.888C117.504 114.888 117.222 114.507 117.144 114.242C117.091 114.066 117.053 113.821 116.962 113.651C116.919 113.573 116.831 113.487 116.741 113.527C116.64 113.57 116.647 113.787 116.664 113.875C116.702 114.056 117.082 114.988 117.082 114.988V114.986Z" fill="#FFDED5"/>
<path d="M127.72 208.407C127.634 208.157 127.157 208.033 127.157 208.033C127.157 208.033 126.229 208.366 125.675 208.019C125.499 207.907 125.036 208.026 124.967 208.183C124.929 208.271 124.929 208.431 124.988 208.507C125.511 209.215 126.675 209.515 126.675 209.515V209.722C126.675 209.722 126.913 209.875 127.011 209.911C127.233 209.994 127.765 209.694 127.765 209.694L127.782 209.313C127.798 209.174 127.892 208.905 127.72 208.405V208.407Z" fill="url(#paint36_linear_207_3314)"/>
<path d="M127.468 208.629C127.372 208.681 127.143 208.705 126.993 208.695C126.716 208.674 126.502 208.626 126.495 208.214C126.49 207.98 126.449 207.246 126.449 207.246C126.449 207.07 127.668 207.037 127.702 207.127C127.754 207.266 127.706 208.5 127.465 208.631L127.468 208.629Z" fill="#AD633A"/>
<path d="M123.644 210.818C123.566 210.678 123.217 210.501 123.217 210.501C123.217 210.501 121.843 210.828 121.228 210.68C120.743 210.563 120.488 210.723 120.24 210.868C120.211 210.885 120.204 211.054 120.247 211.131C120.467 211.507 120.913 211.81 121.812 211.953C121.943 211.974 122.351 212.019 122.351 212.019L122.356 212.222C122.356 212.222 122.695 212.415 122.79 212.451C123.005 212.532 123.706 211.965 123.706 211.965C123.706 211.965 123.721 211.986 123.737 211.619C123.744 211.536 123.742 210.992 123.644 210.816V210.818Z" fill="url(#paint37_linear_207_3314)"/>
<path d="M123.277 211.091C123.181 211.144 123.021 211.179 122.854 211.179C122.64 211.179 122.308 211.12 122.296 210.865C122.294 210.798 122.208 209.797 122.208 209.797C122.208 209.621 123.434 209.757 123.468 209.845C123.52 209.983 123.546 210.946 123.277 211.091Z" fill="#AD633A"/>
<path d="M128.067 171.136C127.652 173.014 125.159 178.34 124.517 179.102C123.131 180.742 122.883 180.832 121.275 181.712C121.008 181.857 120.342 182.188 120.094 182.05C119.777 181.876 118.773 180.249 119.226 179.808C119.796 179.25 121.142 177.949 122.26 176.298C123.42 174.587 123.67 170.834 125.436 169.125C126.791 167.812 128.398 169.642 128.067 171.139V171.136Z" fill="url(#paint38_linear_207_3314)"/>
<path d="M116.77 181.919L117.564 180.194C117.564 180.194 118.072 180.235 118.27 180.256C118.73 180.306 119.749 180.046 119.749 180.046L119.892 181.853L118.611 182.298L118.063 182.239L116.772 181.919H116.77Z" fill="#AD633A"/>
<path d="M116.35 182.234C116.262 182.455 116.717 182.393 117.335 182.494C117.729 182.558 118.597 182.305 118.597 182.305L118.254 181.872L117.586 182C117.586 182 116.419 182.057 116.35 182.234Z" fill="#AD633A"/>
<path d="M117.577 180.196C117.577 180.196 116.886 180.301 116.671 180.318C116.509 180.33 116.179 180.406 116.024 180.468C115.972 180.489 115.874 180.554 115.869 180.609C115.86 180.682 115.912 180.694 115.981 180.694C116.129 180.694 116.587 180.635 116.587 180.635L117.422 180.778L117.577 180.199V180.196Z" fill="#AD633A"/>
<path d="M117.122 181.123L117.399 180.766C117.399 180.766 116.702 180.596 116.456 180.58C116.246 180.565 115.85 180.63 115.645 180.665C115.531 180.685 115.45 180.735 115.414 180.808C115.378 180.885 115.495 180.954 115.555 180.961C115.555 180.961 116.106 180.906 116.301 180.923C116.588 180.947 117.124 181.121 117.124 181.121L117.122 181.123Z" fill="#AD633A"/>
<path d="M117.239 181.126C117.239 181.126 116.435 180.966 116.196 180.94C115.963 180.916 115.581 180.93 115.318 181.054C115.18 181.118 115.137 181.166 115.144 181.24C115.154 181.326 115.283 181.347 115.376 181.326C115.376 181.326 115.822 181.273 116.039 181.304C116.275 181.34 117.136 181.569 117.136 181.569L117.239 181.123V181.126Z" fill="#AD633A"/>
<path d="M116.769 181.924L117.06 181.538C117.06 181.538 116.421 181.426 116.142 181.373C115.956 181.34 115.541 181.395 115.331 181.471C115.243 181.504 115.088 181.526 115.057 181.607C115.021 181.697 115.102 181.774 115.185 181.795C115.362 181.843 115.877 181.731 116.066 181.757C116.266 181.788 116.769 181.919 116.769 181.919V181.924Z" fill="#AD633A"/>
<path d="M128.292 202.855C128.258 202.207 128.132 200.648 128.051 200.005C127.824 198.211 127.38 195.756 127.342 193.078C127.306 190.695 127.769 187.731 127.769 186.658C127.769 184.573 127.514 183.22 127.514 183.22L119.265 184.94C119.265 184.94 118.94 188.879 119.005 189.813C119.348 194.758 119.882 198.609 120.603 201.289C120.66 201.504 120.896 202.195 120.949 202.388C121.524 204.516 121.855 208.881 121.841 210.121C121.891 211.031 123.752 210.781 123.764 210.283C123.819 207.74 124.217 205.088 124.131 202.955C124.114 202.526 123.926 200.808 123.943 200.382C124.048 197.505 124.002 195.392 124.002 195.392C124.002 195.392 125.229 200.827 125.376 201.466C125.868 203.591 126.128 207.523 126.185 208.095C126.242 208.672 127.755 208.603 127.881 208.164C128.318 206.646 128.361 204.185 128.292 202.855Z" fill="#111107"/>
<path d="M127.461 169.182C126.669 168.538 125.684 168.672 124.47 169.044C123.874 169.227 123.466 169.377 122.218 169.932C121.013 170.468 120.08 171.181 119.591 171.858C118.594 173.24 118.418 175.149 118.797 177.694C119.11 179.783 119.234 182.257 118.928 184.852C118.797 185.972 120.288 186.77 122.046 186.653C124.995 186.456 126.445 185.76 127.352 184.552C127.922 183.791 127.6 183.093 127.566 182.636C127.323 179.202 129.396 170.757 127.459 169.184L127.461 169.182Z" fill="url(#paint39_linear_207_3314)"/>
<path d="M111.813 182.55L111.957 183.617L114.779 182.743L115.964 180.493L111.813 182.55Z" fill="#AD633A"/>
<path d="M121.852 173.274C121.857 175.741 120.63 179.415 119.337 180.926C118.276 182.165 116.045 183.009 114.418 183.571C114.149 183.664 113.283 183.776 113.073 183.611C112.806 183.399 112.169 182.229 112.656 181.889C113.271 181.46 115.919 179.723 116.766 178.85C118.326 177.24 118.841 174.733 119.106 173.019C119.376 171.268 121.847 171.837 121.849 173.274H121.852Z" fill="url(#paint40_linear_207_3314)"/>
<path d="M109.904 182.482L110.197 184.281C110.197 184.281 110.984 184.219 111.237 184.157C111.535 184.086 112.091 183.84 112.287 183.516L112.082 182.446C112.082 182.446 111.287 182.16 111.154 182.105C110.951 182.022 110.283 182.072 110.283 182.072L109.901 182.482H109.904Z" fill="#AD633A"/>
<path d="M109.246 182.477C109.191 182.229 109.475 182.272 110.1 182.051C110.496 181.91 111.255 182.141 111.255 182.141L111.073 182.589L110.432 182.549C110.432 182.549 109.291 182.67 109.246 182.477Z" fill="#AD633A"/>
<path d="M110.2 184.279C110.2 184.279 109.603 184.306 109.408 184.27C109.26 184.244 108.962 184.213 108.837 184.129C108.795 184.101 108.728 184.015 108.74 183.95C108.756 183.86 108.809 183.853 108.873 183.858C109.014 183.867 109.436 183.889 109.436 183.889L110.25 183.874L110.2 184.277V184.279Z" fill="#AD633A"/>
<path d="M110.126 183.383L110.221 183.886C110.221 183.886 109.532 183.896 109.296 183.898C109.093 183.898 108.711 183.929 108.53 183.869C108.43 183.836 108.351 183.76 108.344 183.667C108.337 183.574 108.456 183.536 108.513 183.533C108.513 183.533 109.053 183.583 109.241 183.579C109.518 183.571 110.124 183.381 110.124 183.381L110.126 183.383Z" fill="#AD633A"/>
<path d="M110.083 183.406C110.083 183.406 109.394 183.516 109.162 183.528C108.936 183.538 108.599 183.602 108.335 183.552C108.196 183.526 108.067 183.328 108.075 183.242C108.084 183.142 108.201 183.087 108.294 183.08C108.294 183.08 108.881 183.132 109.096 183.113C109.329 183.092 110.007 182.918 110.007 182.918L110.081 183.406H110.083Z" fill="#AD633A"/>
<path d="M109.915 182.454L110.056 182.935C110.056 182.935 109.376 183.073 109.097 183.114C108.91 183.14 108.488 183.128 108.295 183.116C108.204 183.111 108.071 183.078 108.068 182.978C108.068 182.866 108.166 182.785 108.254 182.763C108.436 182.723 108.963 182.685 109.142 182.635C109.354 182.575 109.915 182.456 109.915 182.456V182.454Z" fill="#AD633A"/>
<path d="M121.483 171.072C121.361 170.469 122.115 169.861 123.138 169.656C124.164 169.451 124.923 168.96 125.044 169.563C125.166 170.166 124.641 170.588 123.348 171.129C122.384 171.534 121.604 171.674 121.483 171.072Z" fill="#F7C405"/>
<path d="M120.98 163.965C120.98 163.965 120.599 166.246 120.63 166.775C120.718 168.259 121.138 168.326 122.109 168.369C122.779 168.398 123.631 168.243 123.931 167.185C124.12 166.52 124.134 165.19 124.134 165.19C124.122 164.325 120.968 163.115 120.98 163.963V163.965Z" fill="#AD633A"/>
<path d="M123.502 170.807L123.328 170.835C122.77 170.926 122.241 170.552 122.143 169.997L121.856 168.379L124.407 167.051C124.407 167.051 124.454 168.078 124.492 168.426C124.502 168.526 124.559 168.865 124.621 169.246C124.745 169.987 124.244 170.685 123.502 170.807Z" fill="#AD633A"/>
<path d="M121.852 168.358L121.895 168.618C121.895 168.618 122.329 168.592 122.639 168.375C123.044 168.094 123.044 167.813 123.044 167.813L122.877 167.753C122.877 167.753 122.634 168.11 121.854 168.358H121.852Z" fill="#894522"/>
<path d="M126.283 164.492C126.263 163.735 125.836 163.434 125.46 162.848C125.149 162.369 124.727 162.701 124.014 162.21C123.336 161.745 122.256 161.981 121.356 162.519C120.748 162.884 120.798 163.549 120.939 163.756C121.034 163.897 121.156 163.704 121.359 164.123C121.48 164.373 122.084 164.207 122.156 164.957C122.22 165.629 122.203 166.089 122.356 166.37C122.532 166.692 122.68 166.049 122.814 166.516C122.902 166.825 123.014 167.107 122.964 167.39C122.924 167.628 122.838 167.698 122.828 167.943C122.821 168.165 123.084 168.403 123.262 168.577C123.942 169.242 124.524 168.696 124.61 168.422C124.975 167.269 125.677 167.433 125.93 166.725C126.046 166.396 126.314 165.736 126.285 164.492H126.283Z" fill="#111107"/>
<path d="M122.879 166.251C122.319 166.227 122.199 167.059 122.45 167.211C122.586 167.292 122.889 167.207 123.072 166.828C123.206 166.554 123.266 166.268 122.879 166.251Z" fill="#AD633A"/>
<path d="M122.782 166.542L122.622 166.95C122.696 167.016 122.858 166.83 122.906 166.704C122.954 166.578 122.882 166.509 122.782 166.542Z" fill="#894522"/>
<defs>
<linearGradient id="paint0_linear_207_3314" x1="229.543" y1="186.855" x2="229.655" y2="161.351" gradientUnits="userSpaceOnUse">
<stop stop-color="#47AA50"/>
<stop offset="0.24" stop-color="#43A44A"/>
<stop offset="0.56" stop-color="#39943A"/>
<stop offset="0.91" stop-color="#297A21"/>
<stop offset="1" stop-color="#257219"/>
</linearGradient>
<linearGradient id="paint1_linear_207_3314" x1="229.639" y1="169.288" x2="229.528" y2="152.174" gradientUnits="userSpaceOnUse">
<stop stop-color="#47AA50"/>
<stop offset="0.24" stop-color="#43A44A"/>
<stop offset="0.56" stop-color="#39943A"/>
<stop offset="0.91" stop-color="#297A21"/>
<stop offset="1" stop-color="#257219"/>
</linearGradient>
<linearGradient id="paint2_linear_207_3314" x1="229.59" y1="156.761" x2="229.59" y2="133.383" gradientUnits="userSpaceOnUse">
<stop stop-color="#47AA50"/>
<stop offset="0.24" stop-color="#43A44A"/>
<stop offset="0.56" stop-color="#39943A"/>
<stop offset="0.91" stop-color="#297A21"/>
<stop offset="1" stop-color="#257219"/>
</linearGradient>
<linearGradient id="paint3_linear_207_3314" x1="61.4482" y1="157.521" x2="61.5601" y2="132.017" gradientUnits="userSpaceOnUse">
<stop stop-color="#47AA50"/>
<stop offset="0.24" stop-color="#43A44A"/>
<stop offset="0.56" stop-color="#39943A"/>
<stop offset="0.91" stop-color="#297A21"/>
<stop offset="1" stop-color="#257219"/>
</linearGradient>
<linearGradient id="paint4_linear_207_3314" x1="61.5443" y1="139.957" x2="61.4324" y2="122.843" gradientUnits="userSpaceOnUse">
<stop stop-color="#47AA50"/>
<stop offset="0.24" stop-color="#43A44A"/>
<stop offset="0.56" stop-color="#39943A"/>
<stop offset="0.91" stop-color="#297A21"/>
<stop offset="1" stop-color="#257219"/>
</linearGradient>
<linearGradient id="paint5_linear_207_3314" x1="61.4975" y1="127.43" x2="61.4975" y2="104.049" gradientUnits="userSpaceOnUse">
<stop stop-color="#47AA50"/>
<stop offset="0.24" stop-color="#43A44A"/>
<stop offset="0.56" stop-color="#39943A"/>
<stop offset="0.91" stop-color="#297A21"/>
<stop offset="1" stop-color="#257219"/>
</linearGradient>
<linearGradient id="paint6_linear_207_3314" x1="45.922" y1="167.093" x2="46.0125" y2="146.464" gradientUnits="userSpaceOnUse">
<stop stop-color="#47AA50"/>
<stop offset="0.24" stop-color="#43A44A"/>
<stop offset="0.56" stop-color="#39943A"/>
<stop offset="0.91" stop-color="#297A21"/>
<stop offset="1" stop-color="#257219"/>
</linearGradient>
<linearGradient id="paint7_linear_207_3314" x1="45.998" y1="152.886" x2="45.9075" y2="139.041" gradientUnits="userSpaceOnUse">
<stop stop-color="#47AA50"/>
<stop offset="0.24" stop-color="#43A44A"/>
<stop offset="0.56" stop-color="#39943A"/>
<stop offset="0.91" stop-color="#297A21"/>
<stop offset="1" stop-color="#257219"/>
</linearGradient>
<linearGradient id="paint8_linear_207_3314" x1="45.9599" y1="142.752" x2="45.9599" y2="123.843" gradientUnits="userSpaceOnUse">
<stop stop-color="#47AA50"/>
<stop offset="0.24" stop-color="#43A44A"/>
<stop offset="0.56" stop-color="#39943A"/>
<stop offset="0.91" stop-color="#297A21"/>
<stop offset="1" stop-color="#257219"/>
</linearGradient>
<linearGradient id="paint9_linear_207_3314" x1="147.845" y1="122.097" x2="165.822" y2="179.409" gradientUnits="userSpaceOnUse">
<stop stop-color="#639BFF"/>
<stop offset="1" stop-color="#85D2F9"/>
</linearGradient>
<linearGradient id="paint10_linear_207_3314" x1="81.7416" y1="102.34" x2="190.96" y2="102.34" gradientUnits="userSpaceOnUse">
<stop stop-color="#75A9FF"/>
<stop offset="1" stop-color="#95DDFF"/>
</linearGradient>
<linearGradient id="paint11_linear_207_3314" x1="82.2729" y1="97.4625" x2="190.434" y2="97.4625" gradientUnits="userSpaceOnUse">
<stop stop-color="#639BFF"/>
<stop offset="1" stop-color="#85D2F9"/>
</linearGradient>
<linearGradient id="paint12_linear_207_3314" x1="130.993" y1="80.8103" x2="146.302" y2="129.215" gradientUnits="userSpaceOnUse">
<stop stop-color="#639BFF"/>
<stop offset="1" stop-color="#85D2F9"/>
</linearGradient>
<linearGradient id="paint13_linear_207_3314" x1="229.76" y1="188.85" x2="215.096" y2="188.85" gradientUnits="userSpaceOnUse">
<stop stop-color="#47AA50"/>
<stop offset="0.24" stop-color="#43A44A"/>
<stop offset="0.56" stop-color="#39943A"/>
<stop offset="0.91" stop-color="#297A21"/>
<stop offset="1" stop-color="#257219"/>
</linearGradient>
<linearGradient id="paint14_linear_207_3314" x1="146.665" y1="92.141" x2="151.109" y2="133.336" gradientUnits="userSpaceOnUse">
<stop stop-color="#E5E8E5"/>
<stop offset="1" stop-color="#B7BFC3"/>
</linearGradient>
<linearGradient id="paint15_linear_207_3314" x1="139.893" y1="112.813" x2="106.333" y2="104.028" gradientUnits="userSpaceOnUse">
<stop stop-color="#E5E8E5"/>
<stop offset="1" stop-color="#B7BFC3"/>
</linearGradient>
<linearGradient id="paint16_linear_207_3314" x1="174.794" y1="100.461" x2="126.997" y2="100.461" gradientUnits="userSpaceOnUse">
<stop stop-color="#E5E8E5"/>
<stop offset="1" stop-color="#B7BFC3"/>
</linearGradient>
<linearGradient id="paint17_linear_207_3314" x1="184.243" y1="206.03" x2="180.145" y2="206.03" gradientUnits="userSpaceOnUse">
<stop stop-color="#FFDC1D"/>
<stop offset="1" stop-color="#F0A41D"/>
</linearGradient>
<linearGradient id="paint18_linear_207_3314" x1="194.885" y1="206.778" x2="191.092" y2="206.778" gradientUnits="userSpaceOnUse">
<stop stop-color="#FFDC1D"/>
<stop offset="1" stop-color="#F0A41D"/>
</linearGradient>
<linearGradient id="paint19_linear_207_3314" x1="176.727" y1="175.083" x2="186.97" y2="185.014" gradientUnits="userSpaceOnUse">
<stop stop-color="#FFDC1D"/>
<stop offset="1" stop-color="#F0A41D"/>
</linearGradient>
<linearGradient id="paint20_linear_207_3314" x1="183.494" y1="180.512" x2="174.746" y2="180.512" gradientUnits="userSpaceOnUse">
<stop stop-color="#FB4143"/>
<stop offset="1" stop-color="#CD0000"/>
</linearGradient>
<linearGradient id="paint21_linear_207_3314" x1="184.915" y1="186.978" x2="185.386" y2="173.66" gradientUnits="userSpaceOnUse">
<stop stop-color="#FB4143"/>
<stop offset="1" stop-color="#CD0000"/>
</linearGradient>
<linearGradient id="paint22_linear_207_3314" x1="174.123" y1="195.938" x2="174.777" y2="177.456" gradientUnits="userSpaceOnUse">
<stop stop-color="#FB4143"/>
<stop offset="1" stop-color="#CD0000"/>
</linearGradient>
<linearGradient id="paint23_linear_207_3314" x1="187.116" y1="191.164" x2="182.046" y2="193.524" gradientUnits="userSpaceOnUse">
<stop stop-color="white"/>
<stop offset="1" stop-color="#E5EFF4"/>
</linearGradient>
<linearGradient id="paint24_linear_207_3314" x1="192.363" y1="192.675" x2="182.987" y2="175.776" gradientUnits="userSpaceOnUse">
<stop stop-color="#FB4143"/>
<stop offset="1" stop-color="#CD0000"/>
</linearGradient>
<linearGradient id="paint25_linear_207_3314" x1="93.487" y1="149.161" x2="94.6088" y2="155.862" gradientUnits="userSpaceOnUse">
<stop stop-color="#FFDC1D"/>
<stop offset="1" stop-color="#F0A41D"/>
</linearGradient>
<linearGradient id="paint26_linear_207_3314" x1="94.8679" y1="186.681" x2="96.3342" y2="164.601" gradientUnits="userSpaceOnUse">
<stop stop-color="#FB4143"/>
<stop offset="1" stop-color="#CD0000"/>
</linearGradient>
<linearGradient id="paint27_linear_207_3314" x1="93.636" y1="149.03" x2="96.0915" y2="155.313" gradientUnits="userSpaceOnUse">
<stop stop-color="#FFDC1D"/>
<stop offset="1" stop-color="#F0A41D"/>
</linearGradient>
<linearGradient id="paint28_linear_207_3314" x1="120.182" y1="176.292" x2="94.4321" y2="176.292" gradientUnits="userSpaceOnUse">
<stop stop-color="#FFDC1D"/>
<stop offset="1" stop-color="#F0A41D"/>
</linearGradient>
<linearGradient id="paint29_linear_207_3314" x1="105.042" y1="120.435" x2="115.125" y2="120.435" gradientUnits="userSpaceOnUse">
<stop stop-color="#E5E8E5"/>
<stop offset="1" stop-color="#B7BFC3"/>
</linearGradient>
<linearGradient id="paint30_linear_207_3314" x1="109.774" y1="116.834" x2="107.56" y2="121.842" gradientUnits="userSpaceOnUse">
<stop stop-color="#FFDC1D"/>
<stop offset="1" stop-color="#F0A41D"/>
</linearGradient>
<linearGradient id="paint31_linear_207_3314" x1="109.734" y1="124.741" x2="111.753" y2="139.499" gradientUnits="userSpaceOnUse">
<stop stop-color="#47AA50"/>
<stop offset="0.24" stop-color="#43A44A"/>
<stop offset="0.56" stop-color="#39943A"/>
<stop offset="0.91" stop-color="#297A21"/>
<stop offset="1" stop-color="#257219"/>
</linearGradient>
<linearGradient id="paint32_linear_207_3314" x1="109.798" y1="116.37" x2="107.437" y2="121.708" gradientUnits="userSpaceOnUse">
<stop stop-color="#FFDC1D"/>
<stop offset="1" stop-color="#F0A41D"/>
</linearGradient>
<linearGradient id="paint33_linear_207_3314" x1="120.451" y1="103.069" x2="110.811" y2="113.609" gradientUnits="userSpaceOnUse">
<stop stop-color="white"/>
<stop offset="1" stop-color="#E1EAEE"/>
</linearGradient>
<linearGradient id="paint34_linear_207_3314" x1="127.531" y1="96.7266" x2="116.916" y2="108.332" gradientUnits="userSpaceOnUse">
<stop stop-color="white"/>
<stop offset="1" stop-color="#E1EAEE"/>
</linearGradient>
<linearGradient id="paint35_linear_207_3314" x1="112.836" y1="123.331" x2="120.179" y2="123.331" gradientUnits="userSpaceOnUse">
<stop stop-color="#E5E8E5"/>
<stop offset="1" stop-color="#B7BFC3"/>
</linearGradient>
<linearGradient id="paint36_linear_207_3314" x1="124.943" y1="208.953" x2="127.822" y2="208.953" gradientUnits="userSpaceOnUse">
<stop stop-color="#47AA50"/>
<stop offset="1" stop-color="#257219"/>
</linearGradient>
<linearGradient id="paint37_linear_207_3314" x1="120.216" y1="211.481" x2="123.74" y2="211.481" gradientUnits="userSpaceOnUse">
<stop stop-color="#47AA50"/>
<stop offset="1" stop-color="#257219"/>
</linearGradient>
<linearGradient id="paint38_linear_207_3314" x1="119.409" y1="187.786" x2="125.346" y2="170.539" gradientUnits="userSpaceOnUse">
<stop stop-color="#FFDC1D"/>
<stop offset="1" stop-color="#F0A41D"/>
</linearGradient>
<linearGradient id="paint39_linear_207_3314" x1="123.244" y1="187.738" x2="123.506" y2="170.692" gradientUnits="userSpaceOnUse">
<stop stop-color="#FFDC1D"/>
<stop offset="1" stop-color="#F0A41D"/>
</linearGradient>
<linearGradient id="paint40_linear_207_3314" x1="116.475" y1="183.822" x2="117.32" y2="170.496" gradientUnits="userSpaceOnUse">
<stop stop-color="#FFDC1D"/>
<stop offset="1" stop-color="#F0A41D"/>
</linearGradient>
</defs>
</svg>
