<svg width="214" height="214" viewBox="0 0 214 214" fill="none" xmlns="http://www.w3.org/2000/svg">
<circle cx="107" cy="107" r="107" fill="#FFCB3D"></circle>
<path d="M33 112.98V104.194H51.427V112.98H33Z" fill="black"></path>
<path d="M65.4748 118.194H85.0781V127.15H53.993V124.316C54.0676 121.331 54.9078 118.704 56.5134 116.437C58.1563 114.132 61.0128 111.619 65.0828 108.899C68.5554 106.594 70.9824 104.761 72.364 103.401C73.7829 102.003 74.4923 100.453 74.4923 98.753C74.4923 97.5061 73.9882 96.5236 72.9801 95.8057C71.9719 95.0877 70.665 94.7287 69.0594 94.7287C67.0058 94.7287 65.4375 95.2767 64.3547 96.3725C63.3092 97.4305 62.7864 98.8853 62.7864 100.737V101.757H53.7689V100C53.7689 95.5789 55.0945 92.1592 57.7456 89.7409C60.3967 87.2848 64.2426 86.0567 69.2835 86.0567C73.9136 86.0567 77.6662 87.0769 80.5413 89.1174C83.4165 91.1579 84.854 94.0486 84.854 97.7895C84.854 99.641 84.5927 101.304 84.0699 102.777C83.5845 104.213 82.763 105.574 81.6055 106.858C80.4853 108.105 79.2531 109.22 77.9089 110.202C76.602 111.185 74.8844 112.318 72.756 113.603C68.9848 115.833 66.5577 117.363 65.4748 118.194Z" fill="black"></path>
<path d="M120.325 122.445C117.039 126.148 112.521 128 106.771 128C101.02 128 96.4837 126.148 93.1605 122.445C89.8373 118.704 88.1756 113.565 88.1756 107.028C88.1756 100.491 89.8373 95.3522 93.1605 91.6113C96.4837 87.8704 101.02 86 106.771 86C112.521 86 117.039 87.8704 120.325 91.6113C123.611 95.3144 125.254 100.453 125.254 107.028C125.254 113.603 123.611 118.742 120.325 122.445ZM106.771 118.818C109.384 118.818 111.438 117.798 112.932 115.757C114.463 113.679 115.228 110.769 115.228 107.028C115.228 103.287 114.463 100.378 112.932 98.2996C111.438 96.2213 109.384 95.1822 106.771 95.1822C104.12 95.1822 102.029 96.2213 100.498 98.2996C98.9668 100.378 98.2013 103.287 98.2013 107.028C98.2013 110.769 98.9668 113.679 100.498 115.757C102.029 117.798 104.12 118.818 106.771 118.818Z" fill="black"></path>
<path d="M137.593 127.15L165.037 86.8502H171.59L144.202 127.15H137.593ZM138.993 111.733C135.521 111.733 132.776 110.618 130.76 108.389C128.781 106.121 127.791 103.023 127.791 99.0931C127.791 95.1255 128.781 92.027 130.76 89.7976C132.776 87.5304 135.521 86.3968 138.993 86.3968C142.503 86.3968 145.247 87.5304 147.226 89.7976C149.205 92.027 150.195 95.1255 150.195 99.0931C150.195 103.023 149.205 106.121 147.226 108.389C145.247 110.618 142.503 111.733 138.993 111.733ZM135.016 104.648C135.987 105.97 137.313 106.632 138.993 106.632C140.673 106.632 141.98 105.989 142.914 104.704C143.885 103.382 144.37 101.53 144.37 99.1498C144.37 96.7314 143.885 94.861 142.914 93.5385C141.98 92.2159 140.673 91.5547 138.993 91.5547C137.313 91.5547 135.987 92.2348 135.016 93.5951C134.083 94.9177 133.616 96.7692 133.616 99.1498C133.616 101.493 134.083 103.325 135.016 104.648ZM177.975 124.372C175.997 126.602 173.271 127.717 169.798 127.717C166.326 127.717 163.581 126.602 161.565 124.372C159.586 122.105 158.596 119.007 158.596 115.077C158.596 111.109 159.586 108.011 161.565 105.781C163.581 103.514 166.326 102.381 169.798 102.381C173.271 102.381 175.997 103.514 177.975 105.781C179.992 108.011 181 111.109 181 115.077C181 119.007 179.992 122.105 177.975 124.372ZM165.822 120.632C166.792 121.954 168.118 122.615 169.798 122.615C171.478 122.615 172.785 121.973 173.719 120.688C174.69 119.366 175.175 117.514 175.175 115.134C175.175 112.715 174.69 110.845 173.719 109.522C172.785 108.2 171.478 107.538 169.798 107.538C168.118 107.538 166.792 108.219 165.822 109.579C164.888 110.901 164.421 112.753 164.421 115.134C164.421 117.476 164.888 119.309 165.822 120.632Z" fill="black"></path>
</svg>
