<svg width="1406" height="416" viewBox="0 0 1406 416" fill="none" xmlns="http://www.w3.org/2000/svg">
<path d="M0 8.55C0 3.82796 3.82797 0 8.55 0H1294.45C1299.17 0 1303 3.82797 1303 8.55V407.45C1303 412.172 1299.17 416 1294.45 416H8.55005C3.82801 416 0 412.172 0 407.45V8.55Z" fill="url('#paint0_radial_9_403')"></path>
<mask id="mask0_9_403" style="mask-type: alpha" maskUnits="userSpaceOnUse" x="0" y="0" width="1406" height="416">
<path d="M0 8.55C0 3.82796 3.82797 0 8.55 0H1397.45C1402.17 0 1406 3.82797 1406 8.55V407.45C1406 412.172 1402.17 416 1397.45 416H8.55003C3.828 416 0 412.172 0 407.45V8.55Z" fill="url('#paint1_radial_9_403')"></path>
</mask>
<g mask="url('#mask0_9_403')">
<path d="M779.043 536.454C704.933 291.894 821.165 40.4782 1038.65 -25.0993C1248.19 -88.2795 1471.94 -84.5053 1557.51 258.456C1564.09 284.86 1562.8 312.906 1555.11 338.994C1482.17 586.382 1465.52 516.339 1215.14 632.117C997.653 697.695 853.153 781.015 779.043 536.454Z" fill="#2B8E72"></path>
<path d="M1239.87 511.674C1252.04 489.996 1284.11 430.954 1273.02 354.791C1259.63 262.83 1186.14 165.206 1120.48 169.794C1053.42 174.478 1059.32 281.382 939.485 373.963C838.259 452.176 757.584 434.945 747.75 485.245C736.233 544.295 860.26 531.837 924.536 574.886C982.373 613.624 974.94 649.96 1030.92 652.078C1092.73 654.413 1174.29 628.439 1239.87 511.666V511.674Z" fill="#F15A27"></path>
<path d="M974.424 107.895C986.636 129.975 982.231 159.933 964.186 177.59C949.529 191.927 928.5 197.574 911.711 209.36C887.078 226.652 873.034 257.877 876.466 287.731C878.366 304.276 885.119 319.807 889.748 335.808C894.384 351.801 896.8 369.458 890.219 384.757C880.302 407.793 854.031 418.072 834.236 433.521C904.495 430.746 953.717 430.701 1014.56 430.746C1050.98 430.775 1089.03 422.883 1125.46 422.913C1147.04 422.928 1168.66 422.95 1190.13 425.151C1202.49 426.419 1214.78 428.411 1227.18 429.119C1254.75 430.693 1301.11 427.061 1328.32 427.061C1371.45 427.061 1388.53 324.491 1317.04 320.239C1299.78 319.21 1279.56 315.152 1267.01 303.284C1253.82 290.804 1265.99 261.54 1268.74 243.607C1270.27 233.567 1274.5 224.041 1275.58 213.94C1277.61 194.821 1266.94 174.972 1249.86 166.072C1240.61 161.261 1229.93 159.478 1221.08 153.988C1206.42 144.895 1199.18 125.403 1204.36 108.977" fill="#F15A27"></path>
<path d="M1083.29 -19.0002H1101.3C1160.55 -19.0002 1208.65 28.9798 1208.65 88.082V360.834H976.818V87.2018C976.818 28.5844 1024.52 -19.0002 1083.29 -19.0002Z" fill="#F15A27"></path>
<path d="M1036.08 207.994L1042.51 156.62L1136.25 151.406L1146.78 212.686L1036.08 207.994Z" fill="#AECFEC"></path>
<path d="M1031.57 233.693L1041 170.921C1041 170.921 1063.31 192.241 1086.31 191.241C1126.7 189.481 1138.96 167.467 1138.96 167.467L1150.45 232.44L1031.57 233.693Z" fill="white"></path>
<path d="M1170.44 88.7603C1170.44 133.958 1133.71 170.607 1088.39 170.607C1043.07 170.607 1006.34 133.965 1006.34 88.7603C1006.34 83.5162 1006.83 78.384 1007.78 73.416C1014.22 39.5346 1041.6 13.0456 1075.99 7.84627C1080.03 7.23458 1084.17 6.91382 1088.38 6.91382C1089.51 6.91382 1090.62 6.9362 1091.73 6.98095C1128.21 8.43557 1158.55 33.6564 1167.65 67.5453C1169.46 74.3111 1170.43 81.4276 1170.43 88.7678L1170.44 88.7603Z" fill="white" stroke="#231F20" stroke-width="3.7603" stroke-miterlimit="10"></path>
<path d="M925.343 245.047C919.495 291.244 945.782 357.09 997.427 427.24C1094.01 430.395 1136.85 428.128 1185.7 426.755C1227.32 366.803 1250.46 287.724 1246.68 239.587C1244.96 217.492 1226.54 200.424 1204.32 200.424C1172.4 200.424 1132.63 207.996 1092.72 207.996C1051.14 207.996 1009.41 200.424 976.3 200.424C950.485 200.424 928.567 219.506 925.336 245.055L925.343 245.047Z" fill="white"></path>
<mask id="mask1_9_403" style="mask-type: alpha" maskUnits="userSpaceOnUse" x="924" y="200" width="324" height="229">
<path d="M925.345 245.044C919.497 291.242 945.783 357.087 997.428 427.237C1094.01 430.393 1136.85 428.125 1185.7 426.752C1227.32 366.8 1250.46 287.721 1246.69 239.584C1244.96 217.489 1226.54 200.421 1204.32 200.421C1172.4 200.421 1132.63 207.993 1092.72 207.993C1051.14 207.993 1009.42 200.421 976.302 200.421C950.487 200.421 928.568 219.503 925.337 245.052L925.345 245.044Z" fill="white"></path>
</mask>
<g mask="url('#mask1_9_403')">
<path d="M1083.81 232.953C1081.51 236.288 1075.41 245.396 1076.07 257.928C1076.86 273.056 1087.32 290.011 1098.05 290.25C1109 290.496 1109.65 273.048 1130.5 259.815C1148.11 248.633 1160.95 252.639 1163.3 244.62C1166.06 235.206 1151.16 220.175 1135.56 215.177C1133.91 214.647 1127.91 212.842 1119.84 213.297C1117.39 213.439 1096.21 214.99 1083.8 232.961L1083.81 232.953Z" fill="#AECFEC"></path>
<path d="M1118.64 284.395C1116.65 287.923 1111.41 297.546 1113.2 309.966C1115.36 324.96 1127.32 340.901 1138.03 340.17C1148.96 339.424 1148.02 321.991 1167.59 306.923C1184.12 294.197 1197.26 297.024 1198.88 288.826C1200.77 279.203 1184.56 265.582 1168.57 262.009C1166.88 261.628 1160.74 260.375 1152.74 261.554C1150.31 261.912 1129.37 265.373 1118.64 284.395Z" fill="#54C0A3"></path>
<path d="M1185.68 319.326C1183.37 322.661 1177.28 331.769 1177.94 344.301C1178.73 359.429 1189.19 376.385 1199.91 376.623C1210.87 376.869 1211.52 359.421 1232.37 346.188C1249.98 335.006 1262.82 339.012 1265.17 330.993C1267.93 321.579 1253.02 306.548 1237.42 301.55C1235.77 301.02 1229.77 299.215 1221.71 299.67C1219.25 299.812 1198.07 301.364 1185.67 319.334L1185.68 319.326Z" fill="#AECFEC"></path>
<path d="M1220.52 370.768C1218.53 374.297 1213.28 383.919 1215.07 396.34C1217.23 411.333 1229.19 427.274 1239.9 426.543C1250.83 425.797 1249.9 408.364 1269.46 393.296C1285.99 380.57 1299.14 383.397 1300.75 375.199C1302.64 365.576 1286.44 351.955 1270.44 348.382C1268.75 348.001 1262.61 346.748 1254.62 347.927C1252.19 348.285 1231.24 351.746 1220.52 370.768Z" fill="#54C0A3"></path>
<path d="M1162.32 354.441C1159.07 352.009 1150.2 345.571 1137.62 345.713C1122.44 345.892 1105.03 355.634 1104.36 366.316C1103.67 377.23 1121.12 378.58 1133.54 399.892C1144.03 417.899 1139.5 430.529 1147.44 433.199C1156.76 436.332 1172.42 422.084 1178.06 406.732C1178.66 405.106 1180.71 399.198 1180.58 391.142C1180.54 388.695 1179.84 367.517 1162.33 354.433L1162.32 354.441Z" fill="#AECFEC"></path>
<path d="M1109.39 387.092C1105.93 384.966 1096.51 379.356 1083.99 380.632C1068.88 382.183 1052.44 393.455 1052.74 404.159C1053.04 415.088 1070.54 414.856 1084.85 434.96C1096.93 451.945 1093.57 464.933 1101.71 466.872C1111.28 469.147 1125.58 453.542 1129.8 437.75C1130.25 436.079 1131.75 430.007 1130.89 421.995C1130.63 419.563 1128.01 398.535 1109.39 387.084V387.092Z" fill="#54C0A3"></path>
<path d="M1080.66 294.098C1077.41 291.666 1068.54 285.228 1055.96 285.37C1040.77 285.549 1023.37 295.291 1022.69 305.973C1022.01 316.887 1039.45 318.237 1051.87 339.549C1062.37 357.556 1057.83 370.186 1065.78 372.856C1075.09 375.989 1090.75 361.741 1096.39 346.389C1096.99 344.763 1099.04 338.855 1098.91 330.799C1098.88 328.352 1098.17 307.174 1080.67 294.09L1080.66 294.098Z" fill="#AECFEC"></path>
<path d="M1027.88 326.39C1024.42 324.264 1015 318.655 1002.48 319.93C987.374 321.482 970.929 332.753 971.228 343.458C971.535 354.386 989.034 354.155 1003.34 374.259C1015.42 391.244 1012.06 404.231 1020.2 406.171C1029.77 408.446 1044.07 392.84 1048.29 377.048C1048.74 375.377 1050.24 369.305 1049.38 361.294C1049.12 358.862 1046.5 337.833 1027.88 326.383V326.39Z" fill="#54C0A3"></path>
<path d="M1285.6 174.492C1282.35 172.06 1273.48 165.623 1260.9 165.765C1245.71 165.944 1228.31 175.686 1227.64 186.368C1226.95 197.281 1244.39 198.631 1256.82 219.943C1267.31 237.951 1262.78 250.58 1270.72 253.25C1280.04 256.383 1295.7 242.136 1301.33 226.784C1301.93 225.158 1303.98 219.25 1303.85 211.193C1303.82 208.747 1303.11 187.569 1285.61 174.485L1285.6 174.492Z" fill="#AECFEC"></path>
<path d="M1232.66 207.135C1229.21 205.009 1219.78 199.399 1207.26 200.675C1192.16 202.226 1175.71 213.498 1176.01 224.202C1176.32 235.131 1193.82 234.899 1208.12 255.003C1220.21 271.989 1216.84 284.976 1224.99 286.915C1234.55 289.19 1248.85 273.585 1253.08 257.793C1253.53 256.122 1255.03 250.05 1254.17 242.038C1253.91 239.606 1251.29 218.578 1232.66 207.127V207.135Z" fill="#54C0A3"></path>
<path d="M1151.15 146.445C1147.7 144.319 1138.28 138.71 1125.76 139.985C1110.65 141.537 1094.21 152.808 1094.51 163.513C1094.81 174.441 1112.31 174.21 1126.62 194.314C1138.7 211.299 1135.34 224.286 1143.48 226.226C1153.05 228.501 1167.34 212.895 1171.57 197.103C1172.02 195.433 1173.52 189.36 1172.66 181.349C1172.4 178.917 1169.78 157.888 1151.15 146.438V146.445Z" fill="#54C0A3"></path>
<path d="M959.407 160.171C957.418 163.699 952.175 173.322 953.963 185.742C956.124 200.736 968.082 216.677 978.791 215.946C989.724 215.2 988.789 197.767 1008.35 182.699C1024.88 169.973 1038.03 172.8 1039.64 164.602C1041.53 154.979 1025.33 141.358 1009.33 137.784C1007.64 137.404 1001.5 136.151 993.508 137.329C991.077 137.688 970.131 141.149 959.407 160.171Z" fill="#54C0A3"></path>
<path d="M1026.44 195.104C1024.14 198.439 1018.04 207.547 1018.7 220.079C1019.49 235.207 1029.95 252.162 1040.68 252.401C1051.63 252.647 1052.28 235.199 1073.13 221.966C1090.75 210.784 1103.59 214.79 1105.93 206.771C1108.69 197.357 1093.79 182.326 1078.19 177.328C1076.54 176.798 1070.54 174.993 1062.47 175.448C1060.02 175.59 1038.84 177.141 1026.43 195.112L1026.44 195.104Z" fill="#AECFEC"></path>
<path d="M1003.08 230.217C999.827 227.785 990.958 221.347 978.38 221.489C963.191 221.668 945.789 231.41 945.116 242.092C944.428 253.006 961.875 254.356 974.297 275.668C984.789 293.675 980.257 306.304 988.199 308.975C997.517 312.108 1013.18 297.86 1018.81 282.508C1019.41 280.882 1021.46 274.974 1021.33 266.918C1021.3 264.471 1020.59 243.293 1003.09 230.209L1003.08 230.217Z" fill="#AECFEC"></path>
<path d="M950.147 262.868C946.692 260.742 937.27 255.132 924.751 256.408C909.645 257.959 893.2 269.231 893.499 279.935C893.806 290.863 911.305 290.632 925.611 310.736C937.696 327.721 934.331 340.708 942.475 342.648C952.039 344.923 966.338 329.318 970.563 313.526C971.012 311.855 972.515 305.783 971.655 297.771C971.393 295.339 968.776 274.311 950.147 262.86V262.868Z" fill="#54C0A3"></path>
<path d="M921.574 169.526C918.321 167.094 909.451 160.657 896.873 160.798C881.685 160.977 864.283 170.72 863.61 181.402C862.922 192.315 880.368 193.665 892.79 214.977C903.282 232.985 898.75 245.614 906.692 248.284C916.01 251.417 931.669 237.169 937.308 221.818C937.906 220.191 939.955 214.284 939.828 206.227C939.791 203.78 939.088 182.603 921.581 169.519L921.574 169.526Z" fill="#AECFEC"></path>
</g>
<path d="M1224.92 340.127L1229.63 340.157C1271.3 339.485 1294.38 320.747 1293.73 303.441C1293.43 295.444 1287.19 273.453 1243.59 266.59" fill="#54C0A3"></path>
<path d="M1237.17 319.405L1238.93 319.375C1257.19 319.084 1267.3 310.871 1267.01 303.292C1266.88 299.786 1264.15 290.156 1245.04 287.149" fill="#231F20"></path>
<path d="M972.517 210.591C1012.33 200.424 1061.47 223.504 1091.26 222.012C1168.07 218.163 1176.61 204.706 1207.42 210.591C1221.43 213.269 1226.28 223.415 1219.37 232.664C1207.26 248.889 1174.36 268.239 1086.46 268.948C1007.26 269.589 973.429 254.118 959.243 238.953C948.975 227.972 957.575 214.411 972.517 210.591Z" fill="#231F20"></path>
<path d="M1176.61 80.6521C1167.32 88.0893 1156.32 92.3935 1144.52 92.3935C1123.14 92.3935 1104.34 78.2277 1093.66 56.8859C1087.73 45.04 1084.29 30.9787 1084.29 15.888C1084.29 12.0612 1084.52 8.30907 1084.94 4.63895C1088.99 3.86316 1093.13 3.45288 1097.34 3.45288C1098.47 3.45288 1099.58 3.48272 1100.69 3.53494C1137.17 5.39237 1167.51 37.491 1176.61 80.6446V80.6521Z" fill="#F15A27"></path>
<path d="M1086.3 21.46C1086.3 35.0961 1083.32 47.8744 1078.14 58.8623C1067.7 80.98 1048.28 95.8469 1026.06 95.8469C1017.2 95.8469 1008.78 93.4822 1001.21 89.2377C1007.66 47.2925 1035.03 14.4927 1069.42 8.06259C1073.46 7.30171 1077.6 6.91382 1081.82 6.91382C1082.94 6.91382 1084.05 6.94365 1085.16 6.99587C1085.92 11.673 1086.3 16.5068 1086.3 21.46H1086.3Z" fill="#F15A27"></path>
<path d="M1063.17 133.885C1063.17 133.885 1067.86 144.589 1084.29 144.074C1100.72 143.56 1109.14 133.885 1109.14 133.885" fill="white"></path>
<path d="M1063.17 133.885C1063.17 133.885 1067.86 144.589 1084.29 144.074C1100.72 143.56 1109.14 133.885 1109.14 133.885" stroke="#231F20" stroke-width="2.33765" stroke-miterlimit="10"></path>
<path d="M1043.75 322C1055.53 335.24 1031.56 342.61 1019.62 350.443C1054.63 327.49 1090.31 337.157 1043.75 366.414C1072.1 353.084 1086.3 362.259 1056.98 387.994C1067.5 387.502 1072.53 389.188 1073.97 392.008C1081.29 406.263 1010.52 441.502 976.113 437.437C969.749 436.698 960.199 426.255 952.444 414.439C944.233 401.929 938.018 387.86 939.701 382.109C947.957 353.822 1031.56 308.304 1043.75 322.007V322Z" fill="white" stroke="#231F20" stroke-width="3.13358" stroke-miterlimit="10"></path>
<path d="M1027.82 345.766L982.896 372.225" stroke="#231F20" stroke-width="3.13358" stroke-miterlimit="10"></path>
<path d="M1044.3 365.928L999.102 393.342" stroke="#231F20" stroke-width="3.13358" stroke-miterlimit="10"></path>
<path d="M1057.31 387.988L1013.35 412.232" stroke="#231F20" stroke-width="3.13358" stroke-miterlimit="10"></path>
<path d="M1139.82 321.52C1128.05 334.761 1152.01 342.131 1163.96 349.963C1128.94 327.01 1093.26 336.678 1139.82 365.934C1111.48 352.604 1097.28 361.779 1126.6 387.515C1116.08 387.023 1111.05 388.709 1109.6 391.528C1102.29 405.784 1173.06 441.023 1207.46 436.957C1213.83 436.219 1223.38 425.775 1231.13 413.959C1239.34 401.449 1245.56 387.381 1243.88 381.629C1235.62 353.343 1152.01 307.824 1139.82 321.528V321.52Z" fill="white" stroke="#231F20" stroke-width="3.13358" stroke-miterlimit="10"></path>
<path d="M1155.76 345.286L1200.68 371.746" stroke="#231F20" stroke-width="3.13358" stroke-miterlimit="10"></path>
<path d="M1139.27 365.449L1184.48 392.863" stroke="#231F20" stroke-width="3.13358" stroke-miterlimit="10"></path>
<path d="M1126.27 387.507L1170.22 411.751" stroke="#231F20" stroke-width="3.13358" stroke-miterlimit="10"></path>
<path d="M1006.35 61.3481C1013.81 44.0046 1036.17 7.27361 1085.16 6.99761C1136.02 6.71414 1158.02 31.9201 1168.2 51.3821" stroke="#54C0A3" stroke-width="3.13358" stroke-miterlimit="10"></path>
</g>
<defs>
<radialGradient id="paint0_radial_9_403" cx="0" cy="0" r="1" gradientUnits="userSpaceOnUse" gradientTransform="translate(652 719) rotate(-146.652) scale(371.101 1121.09)">
<stop stop-color="#FAE9DD"></stop>
<stop offset="1" stop-color="#F15A27"></stop>
</radialGradient>
<radialGradient id="paint1_radial_9_403" cx="0" cy="0" r="1" gradientUnits="userSpaceOnUse" gradientTransform="translate(518.211 555.503) rotate(-118.899) scale(625.514 2027.8)">
<stop stop-color="#FAE9DD"></stop>
<stop offset="1" stop-color="#F15A27"></stop>
</radialGradient>
</defs>
</svg>
