<svg width="1400" height="950" viewBox="0 0 1400 950" fill="none" xmlns="http://www.w3.org/2000/svg">
<mask id="mask0_9_12" style="mask-type: alpha" maskUnits="userSpaceOnUse" x="0" y="0" width="1400" height="950">
<path d="M0 16C0 7.16346 7.16344 0 16 0H1384C1392.84 0 1400 7.16344 1400 16V910C1400 932.091 1382.09 950 1360 950H40C17.9086 950 0 932.091 0 910V16Z" fill="url('#paint0_radial_9_12')"></path>
</mask>
<g mask="url('#mask0_9_12')">
<path d="M1050.55 971.023C964.091 684.987 1099.69 390.934 1353.43 314.235C1597.91 240.336 1858.96 244.755 1958.78 645.946C1966.45 676.786 1964.94 709.548 1955.98 740.037C1870.87 1029.42 1851.46 947.491 1559.34 1082.91C1305.6 1159.61 1137.01 1257.06 1050.55 971.023Z" fill="#2B8E72"></path>
<path d="M758 731C414.524 954.113 37.2754 444.242 106.113 35.8734C114.711 -15.1356 42.5905 -81.1189 -2.061 -55.0021C-16.8874 -46.33 -26 -30.4431 -26 -13.2668V19L-96.7118 543.446C-97.5651 549.775 -97.4027 556.199 -96.2305 562.477L-16.8152 987.79C-11.6621 1015.39 11.9388 1035.72 39.9949 1036.74L876 1067H1411.35C1445.5 1067 1472.77 1038.53 1471.29 1004.41L1440 281C1440 461 1448 647 1320 745C1210.89 828.539 992 579 758 731Z" fill="#1F6652"></path>
</g>
<defs>
<radialGradient id="paint0_radial_9_12" cx="0" cy="0" r="1" gradientUnits="userSpaceOnUse" gradientTransform="translate(516 1268.58) rotate(-105.602) scale(1130.31 1970.4)">
<stop stop-color="#FAE9DD"></stop>
<stop offset="1" stop-color="#F15A27"></stop>
</radialGradient>
</defs>
</svg>
