<svg width="528" height="472" viewBox="0 0 528 472" fill="none" xmlns="http://www.w3.org/2000/svg">
<ellipse cx="264" cy="449.5" rx="264" ry="22.5" fill="black" fill-opacity="0.07"></ellipse>
<path d="M398.352 111.441L422.38 39.3661C422.38 39.3661 123.569 -4.17389 122.071 0.326268C120.567 4.83363 84.5293 450.796 84.5293 450.796L443.397 444.791L410.362 342.216L176.117 370.355L164.114 69.744L398.36 111.448L398.352 111.441Z" fill="#F15A25"></path>
<path d="M202.8 75.4534C202.8 75.4534 195.298 95.5349 212.319 113.428C216.43 117.755 218.122 136.591 218.122 136.591C222.327 153.367 237.405 165.14 254.707 165.14H334.723C354.315 165.14 371.243 151.43 375.304 132.263C375.304 132.263 375.974 117.424 379.171 114.04C390.338 102.224 386.853 77.8439 386.853 77.8439L202.8 75.4606V75.4534Z" fill="black"></path>
<path d="M417.663 39.517C427.47 38.6026 439.163 40.9354 443.354 49.8422C447.393 58.4321 441.907 69.0741 433.799 74.0134C425.692 78.9528 415.784 79.644 406.308 80.2057" fill="#F15A25"></path>
<path d="M409.607 70.7946C419.414 69.8802 431.107 72.213 435.297 81.1198C439.337 89.7097 433.85 100.352 425.743 105.291C417.635 110.23 407.727 110.922 398.252 111.483" fill="#F15A25"></path>
<path d="M216.979 252.3L245.492 233.255H346.065L378.077 252.3V345.838L357.701 363.4L245.492 368.67L216.979 339.063V252.3Z" fill="white" stroke="#231F20" stroke-width="2.8801" stroke-miterlimit="10"></path>
<mask id="mask0_8_3" style="mask-type: alpha" maskUnits="userSpaceOnUse" x="215" y="231" width="165" height="140">
<path d="M216.979 252.3L245.492 233.255H346.065L378.077 252.3V345.838L357.701 363.4L245.492 368.67L216.979 339.063V252.3Z" fill="#D9D9D9" stroke="#231F20" stroke-width="2.8801" stroke-miterlimit="10"></path>
</mask>
<g mask="url('#mask0_8_3')">
<path d="M270.584 189.068C268.367 192.287 262.498 201.078 263.132 213.175C263.895 227.777 273.968 244.143 284.294 244.374C294.842 244.611 295.468 227.77 315.543 214.996C332.499 204.203 344.862 208.07 347.123 200.33C349.78 191.243 335.43 176.734 320.41 171.91C318.819 171.399 313.044 169.656 305.275 170.096C302.913 170.232 282.522 171.73 270.577 189.076L270.584 189.068Z" fill="#AECFEC"></path>
<path d="M304.13 238.728C302.215 242.134 297.168 251.422 298.889 263.411C300.969 277.883 312.483 293.27 322.793 292.564C333.32 291.844 332.42 275.017 351.256 260.473C367.169 248.189 379.827 250.918 381.382 243.005C383.204 233.717 367.601 220.569 352.199 217.12C350.572 216.753 344.661 215.543 336.964 216.681C334.623 217.027 314.456 220.367 304.13 238.728V238.728Z" fill="#54C0A3"></path>
<path d="M368.674 272.447C366.456 275.666 360.588 284.457 361.222 296.553C361.985 311.156 372.058 327.522 382.383 327.752C392.932 327.99 393.558 311.148 413.632 298.375C430.589 287.582 442.952 291.448 445.213 283.708C447.87 274.621 433.52 260.113 418.5 255.289C416.909 254.778 411.134 253.035 403.365 253.474C401.003 253.611 380.612 255.109 368.667 272.454L368.674 272.447Z" fill="#AECFEC"></path>
<path d="M346.18 306.331C343.048 303.984 334.509 297.77 322.398 297.907C307.774 298.08 291.019 307.483 290.371 317.794C289.709 328.328 306.507 329.631 318.466 350.202C328.568 367.584 324.205 379.774 331.852 382.351C340.823 385.376 355.901 371.623 361.33 356.805C361.906 355.235 363.878 349.533 363.756 341.756C363.72 339.395 363.043 318.953 346.187 306.324L346.18 306.331Z" fill="#AECFEC"></path>
<path d="M295.217 337.847C291.891 335.795 282.818 330.381 270.765 331.612C256.221 333.11 240.387 343.989 240.675 354.322C240.97 364.87 257.819 364.647 271.593 384.051C283.229 400.446 279.989 412.982 287.83 414.854C297.039 417.05 310.806 401.987 314.874 386.744C315.306 385.131 316.753 379.27 315.925 371.537C315.673 369.19 313.153 348.893 295.217 337.84V337.847Z" fill="#54C0A3"></path>
<path d="M267.703 247.75C264.571 245.402 256.032 239.188 243.921 239.325C229.297 239.498 212.542 248.902 211.894 259.212C211.232 269.746 228.03 271.05 239.989 291.621C250.091 309.002 245.728 321.192 253.375 323.77C262.346 326.794 277.423 313.041 282.852 298.223C283.429 296.654 285.401 290.951 285.279 283.175C285.243 280.813 284.566 260.372 267.71 247.742L267.703 247.75Z" fill="#AECFEC"></path>
<path d="M216.742 279.265C213.415 277.213 204.343 271.798 192.29 273.03C177.745 274.527 161.912 285.407 162.2 295.739C162.495 306.288 179.344 306.065 193.118 325.469C204.753 341.864 201.513 354.4 209.354 356.272C218.563 358.468 232.33 343.405 236.399 328.162C236.831 326.549 238.278 320.688 237.45 312.955C237.198 310.608 234.678 290.31 216.742 279.258V279.265Z" fill="#54C0A3"></path>
</g>
<path d="M216.979 252.3L245.492 233.255H346.065L378.077 252.3V345.838L357.701 363.4L245.492 368.67L216.979 339.063V252.3Z" stroke="#231F20" stroke-width="2.8801" stroke-miterlimit="10"></path>
<path d="M202.21 383.502V370.801L359.86 363.399H386.313V390.595L202.21 383.502Z" fill="black"></path>
<path d="M229.147 315.15L247.651 329.81" stroke="#231F20" stroke-width="2.8801" stroke-miterlimit="10"></path>
<path d="M229.147 292.116L247.651 309.915" stroke="#231F20" stroke-width="2.8801" stroke-miterlimit="10"></path>
<path d="M228.924 269.076L250.035 286.882" stroke="#231F20" stroke-width="2.8801" stroke-miterlimit="10"></path>
<path d="M152.256 89.5798L140.037 371.895" stroke="#231F20" stroke-width="2.8801" stroke-miterlimit="10"></path>
<path d="M215.949 116.524C215.949 116.524 243.368 133.2 279.355 129.024" stroke="#F15A25" stroke-width="2.16008" stroke-miterlimit="10"></path>
<path d="M295.778 238.547C323.55 238.547 346.064 235.603 346.064 231.973C346.064 228.342 323.55 225.399 295.778 225.399C268.005 225.399 245.491 228.342 245.491 231.973C245.491 235.603 268.005 238.547 295.778 238.547Z" fill="#F15A25"></path>
<path d="M324.99 165.14H263.535C256.68 165.14 251.122 170.696 251.122 177.549C251.122 184.403 256.68 189.959 263.535 189.959H324.99C331.845 189.959 337.403 184.403 337.403 177.549C337.403 170.696 331.845 165.14 324.99 165.14Z" fill="#54C0A3"></path>
</svg>
