<svg width="301" height="457" viewBox="0 0 301 457" fill="none" xmlns="http://www.w3.org/2000/svg">
<path d="M0 5H295" stroke="#F15A25" stroke-width="2"></path>
<path d="M126 5H163.632C172.203 5 180.435 8.34825 186.573 14.3309V14.3309C192.92 20.5173 196.5 29.005 196.5 37.8683V126.974C196.5 135.611 199.988 143.881 206.172 149.908V149.908C212.153 155.738 220.174 159 228.526 159H291" stroke="#F15A25" stroke-width="2"></path>
<path d="M126 5H164.203C172.423 5 180.335 8.13474 186.324 13.7654V13.7654C192.818 19.8695 196.5 28.3854 196.5 37.2974V271.531C196.5 280.214 200.088 288.512 206.415 294.459V294.459C212.251 299.946 219.959 303 227.969 303H291" stroke="#F15A25" stroke-width="2"></path>
<path d="M126 5H164.055C172.366 5 180.361 8.18969 186.39 13.9112V13.9112C192.845 20.0373 196.5 28.5458 196.5 37.4451V420.387C196.5 429.058 200.062 437.348 206.351 443.317V443.317C212.225 448.892 220.015 452 228.113 452H291" stroke="#F15A25" stroke-width="2"></path>
<circle cx="296" cy="5" r="5" fill="#F15A25"></circle>
<circle cx="296" cy="160" r="5" fill="#F15A25"></circle>
<circle cx="296" cy="303" r="5" fill="#F15A25"></circle>
<circle cx="296" cy="452" r="5" fill="#F15A25"></circle>
</svg>
