<svg width="1920" height="1080" viewBox="0 0 1920 1080" fill="none" xmlns="http://www.w3.org/2000/svg">
<path d="M0 16C0 7.16342 7.16345 0 16 0H1904C1912.84 0 1920 7.16344 1920 16V1040C1920 1062.09 1902.09 1080 1880 1080H40C17.9086 1080 0 1062.09 0 1040V16Z" fill="url('#paint0_radial_1_1112')"></path>
<mask id="mask0_1_1112" style="mask-type: alpha" maskUnits="userSpaceOnUse" x="0" y="0" width="1920" height="1080">
<path d="M0 16C0 7.16342 7.16345 0 16 0H1904C1912.84 0 1920 7.16344 1920 16V1040C1920 1062.09 1902.09 1080 1880 1080H40C17.9086 1080 0 1062.09 0 1040V16Z" fill="url('#paint1_radial_1_1112')"></path>
</mask>
<g mask="url('#mask0_1_1112')">
<path d="M1440.76 1103.9C1322.18 778.723 1508.15 444.43 1856.14 357.236C2191.8 273.127 2550.26 278.259 2686.8 735.921C2696.92 769.863 2695.18 805.384 2683.91 837.26C2565.98 1171.06 2540.77 1076.52 2138.52 1231.1C1790.53 1318.29 1559.33 1429.08 1440.76 1103.9Z" fill="#2B8E72"></path>
<path d="M1039.54 831.032C576.029 1080.62 67.6684 523.374 141.461 63.1571C151.689 -0.630692 62.5761 -94.2386 4.44589 -66.0538L-1.83379 -63.0091C-22.5204 -52.9791 -35.657 -32.0104 -35.657 -9.02045V16.7531C-35.657 19.9796 -35.9173 23.201 -36.4353 26.3857L-132.533 617.199C-133.766 624.779 -133.533 632.525 -131.845 640.017L-21.1961 1131.24C-15.1783 1157.96 8.16492 1177.21 35.5377 1178.03L1201.37 1213.01H1958.27C1992.64 1213.01 2019.98 1184.2 2018.19 1149.88L1974.86 319.453C1974.86 524.085 1985.83 735.538 1810.29 846.948C1660.65 941.918 1360.46 658.232 1039.54 831.032Z" fill="#1F6652"></path>
</g>
<defs>
<radialGradient id="paint0_radial_1_1112" cx="0" cy="0" r="1" gradientUnits="userSpaceOnUse" gradientTransform="translate(707.657 1442.17) rotate(-101.302) scale(1077.68 2239.08)">
<stop stop-color="#FAE9DD"></stop>
<stop offset="1" stop-color="#F15A27"></stop>
</radialGradient>
<radialGradient id="paint1_radial_1_1112" cx="0" cy="0" r="1" gradientUnits="userSpaceOnUse" gradientTransform="translate(707.657 1442.17) rotate(-108.617) scale(1305.97 2658.84)">
<stop stop-color="#FAE9DD"></stop>
<stop offset="1" stop-color="#F15A27"></stop>
</radialGradient>
</defs>
</svg>
