<svg width="788" height="665" viewBox="0 0 788 665" fill="none" xmlns="http://www.w3.org/2000/svg">
<path d="M383.5 296.5L381.387 300.473L383.5 296.5ZM393.001 633.5L395.523 629.774L393.001 633.5ZM759.173 444.972C757.502 443.133 754.656 442.997 752.816 444.668L722.841 471.903C721.001 473.574 720.865 476.42 722.536 478.259C724.208 480.099 727.054 480.235 728.893 478.564L755.538 454.355L779.746 481C781.418 482.839 784.264 482.976 786.103 481.304C787.943 479.633 788.079 476.787 786.408 474.948L759.173 444.972ZM15.5005 296.5L11.2408 297.951L11.4802 298.654L11.9329 299.243L15.5005 296.5ZM381.387 300.473C395.135 307.785 403.51 316.876 408.186 327.214C412.895 337.623 414.043 349.712 412.579 363.283C409.627 390.651 396.28 422.56 382.631 456.007C369.142 489.059 355.403 523.528 352.783 554.921C351.466 570.714 352.932 585.959 358.79 599.993C364.667 614.072 374.844 626.644 390.479 637.227L395.523 629.774C381.199 620.078 372.234 608.836 367.096 596.527C361.939 584.173 360.519 570.455 361.752 555.669C364.236 525.906 377.353 492.757 390.963 459.407C404.413 426.452 418.407 393.174 421.527 364.248C423.099 349.671 421.965 335.837 416.386 323.504C410.775 311.1 400.854 300.633 385.613 292.527L381.387 300.473ZM390.479 637.227C414.32 653.365 448.733 662.706 486.765 664.559C524.872 666.415 567.017 660.777 606.59 646.548C685.802 618.068 755.227 554.881 760.337 448.214L751.347 447.783C746.457 549.867 680.324 610.474 603.545 638.079C565.124 651.893 524.166 657.37 487.203 655.569C450.166 653.765 417.544 644.679 395.523 629.774L390.479 637.227ZM537.324 41.1983C316.368 -26.7688 172.074 -0.902306 89.1608 61.7153C6.24833 124.333 -14.2771 223.022 11.2408 297.951L19.7603 295.05C-4.56282 223.629 14.9119 129.068 94.5847 68.8972C174.257 8.72671 315.133 -17.7325 534.678 49.8005L537.324 41.1983ZM11.9329 299.243C27.7872 319.866 54.5143 326.502 85.4106 326.464C116.417 326.425 152.939 319.66 189.866 312.074C226.987 304.448 264.548 295.988 298.281 292.258C332.151 288.512 361.105 289.687 381.387 300.473L385.613 292.527C362.763 280.376 331.42 279.538 297.291 283.312C263.024 287.102 224.881 295.693 188.055 303.258C151.035 310.863 115.366 317.427 85.3994 317.464C55.3223 317.501 32.2929 310.96 19.0681 293.758L11.9329 299.243Z" fill="#000000"/>
</svg>
