<svg width="313" height="460" viewBox="0 0 313 460" fill="none" xmlns="http://www.w3.org/2000/svg">
<path d="M162 450.5L160.473 453.583L162 450.5ZM243.751 2.56905C241.856 2.70679 240.431 4.35454 240.569 6.2494L242.814 37.1279C242.951 39.0228 244.599 40.4472 246.494 40.3095C248.389 40.1717 249.813 38.524 249.676 36.6291L247.68 9.18155L275.128 7.18634C277.023 7.0486 278.447 5.40085 278.309 3.50599C278.172 1.61113 276.524 0.186704 274.629 0.324445L243.751 2.56905ZM5.11918 364.71C24.7035 349.394 43.402 333.016 60.8488 317.871C78.3406 302.687 94.5315 288.78 109.253 278.234C124.057 267.628 136.927 260.76 147.783 259.161C153.124 258.374 157.878 258.879 162.142 260.768C166.413 262.658 170.45 266.05 174.166 271.45L179.834 267.55C175.55 261.325 170.587 256.982 164.928 254.477C159.263 251.968 153.157 251.415 146.78 252.354C134.198 254.208 120.193 261.934 105.247 272.641C90.2185 283.407 73.7844 297.531 56.3387 312.675C38.848 327.859 20.2965 344.106 0.880825 359.29L5.11918 364.71ZM174.166 271.45C181.309 281.829 181.376 296.077 177.424 312.958C173.489 329.765 165.82 348.202 158.614 366.422C151.494 384.422 144.773 402.331 143.272 417.449C142.516 425.06 143.047 432.25 145.72 438.515C148.431 444.869 153.23 449.995 160.473 453.583L163.527 447.417C157.645 444.505 154.069 440.553 152.048 435.815C149.988 430.988 149.429 425.073 150.118 418.129C151.508 404.138 157.818 387.14 165.011 368.953C172.118 350.985 180.042 331.954 184.123 314.526C188.186 297.173 188.691 280.421 179.834 267.55L174.166 271.45ZM160.473 453.583C175.961 461.253 191.339 461.627 205.934 456.093C220.409 450.604 233.904 439.391 246.051 424.237C270.336 393.94 289.888 347.071 301.421 294.972C312.965 242.823 316.553 185.084 308.628 132.866C300.709 80.6967 281.229 33.6362 246.25 3.3976L241.75 8.6024C275.021 37.3638 294.041 82.6087 301.826 133.899C309.603 185.141 306.097 242.017 294.704 293.485C283.299 345.004 264.07 390.756 240.683 419.934C228.994 434.516 216.431 444.754 203.494 449.66C190.676 454.52 177.289 454.233 163.527 447.417L160.473 453.583Z" fill="white"/>
</svg>
