<svg width="185" height="185" viewBox="0 0 185 185" fill="none" xmlns="http://www.w3.org/2000/svg">
<circle cx="92.5" cy="92.5" r="92.5" fill="#FFCB3D"/>
<path d="M20.2082 79.5602C19.157 80.0582 18.5069 80.3348 17.3589 80.3348C16.1555 80.3348 15.4501 79.9337 15.4501 79.2698C15.4501 78.8271 15.8097 78.2462 16.778 78.2462H18.7559V77.1812H17.0961C16.0172 77.1812 15.6991 76.6002 15.6991 76.2406C15.6991 75.4522 16.5013 75.1617 17.6494 75.1617C18.4239 75.1617 19.2262 75.4245 20.0699 75.798L20.7062 74.7744C19.738 74.3041 18.6729 73.8892 17.4419 73.8892C15.4916 73.8892 14.1084 74.3595 14.1084 76.0608C14.1084 76.697 14.5372 77.3333 15.2703 77.6791C14.3574 77.9557 13.8318 78.592 13.8318 79.4357C13.8318 81.0679 15.2703 81.6212 17.3036 81.6212C18.7559 81.6212 19.6826 81.2339 20.8583 80.6391L20.2082 79.5602Z" fill="black"/>
<path d="M29.3653 75.383C30.4857 75.5628 31.3018 76.4481 31.3018 77.7621C31.3018 79.2559 30.6932 80.1688 29.5451 80.1688C28.5907 80.1688 28.1758 79.1868 28.1758 78.3015V76.8492H26.6128V78.3015C26.6128 79.1868 26.184 80.1688 25.2434 80.1688C24.0954 80.1688 23.4868 79.2559 23.4868 77.7621C23.4868 76.4481 24.3029 75.5628 25.3956 75.383V73.903C23.4315 73.9722 21.8546 75.4107 21.8546 77.7621C21.8546 80.1273 23.0718 81.6212 25.1466 81.6212C26.3085 81.6212 27.0554 80.9434 27.4012 80.0997C27.7193 80.9434 28.4662 81.6212 29.6558 81.6212C31.7029 81.6212 32.9339 80.1273 32.9339 77.7621C32.9339 75.4107 31.3571 73.9722 29.393 73.903L29.3653 75.383ZM30.3474 71.0398L28.5492 70.8877L26.7096 73.2806H27.7747L30.3474 71.0398Z" fill="black"/>
<path d="M38.9636 80.5008C37.4836 79.9337 35.6301 79.5741 35.6301 77.7068C35.6301 76.3927 36.7505 75.3415 38.0507 75.3415C38.8114 75.3415 39.503 75.715 39.918 76.3374L40.983 75.3692C40.3191 74.4286 39.2264 73.8892 38.0507 73.8892C35.9206 73.8892 34.0118 75.549 34.0118 77.7068C34.0118 79.9198 35.8376 80.9434 37.7326 81.5243C38.2305 81.6765 38.7284 81.8978 38.7284 82.2298C38.7284 82.5755 38.2167 82.9352 37.5666 83.364L38.1337 84.2077C39.1019 83.9726 40.3468 83.1565 40.3468 82.0914C40.3468 81.3169 39.6413 80.7636 38.9636 80.5008Z" fill="black"/>
<path d="M17.6003 99.5355V90.8556H36.06V99.5355H17.6003Z" fill="black"/>
<path d="M68.7047 98.8075H74.4277V106.983H68.7047V113.535H58.9418V106.983H38.4622V102.167L61.4106 73.6639H68.7047V98.8075ZM50.1889 99.3115H60.0079V87.1037L50.1889 99.3115Z" fill="black"/>
<path d="M109.271 108.887C105.979 112.546 101.453 114.375 95.6924 114.375C89.9319 114.375 85.3872 112.546 82.0581 108.887C78.7289 105.191 77.0644 100.114 77.0644 93.6555C77.0644 87.197 78.7289 82.1197 82.0581 78.4238C85.3872 74.7279 89.9319 72.8799 95.6924 72.8799C101.453 72.8799 105.979 74.7279 109.271 78.4238C112.562 82.0824 114.208 87.1597 114.208 93.6555C114.208 100.151 112.562 105.229 109.271 108.887ZM95.6924 105.303C98.3108 105.303 100.368 104.295 101.864 102.279C103.398 100.226 104.165 97.3515 104.165 93.6555C104.165 89.9596 103.398 87.085 101.864 85.0317C100.368 82.9784 98.3108 81.9517 95.6924 81.9517C93.0366 81.9517 90.9419 82.9784 89.4083 85.0317C87.8746 87.085 87.1078 89.9596 87.1078 93.6555C87.1078 97.3515 87.8746 100.226 89.4083 102.279C90.9419 104.295 93.0366 105.303 95.6924 105.303Z" fill="black"/>
<path d="M127.13 113.535L154.623 73.7199H161.188L133.751 113.535H127.13ZM128.533 98.3035C125.054 98.3035 122.305 97.2022 120.285 94.9995C118.303 92.7596 117.311 89.6983 117.311 85.8157C117.311 81.8957 118.303 78.8345 120.285 76.6318C122.305 74.3919 125.054 73.2719 128.533 73.2719C132.049 73.2719 134.798 74.3919 136.781 76.6318C138.763 78.8345 139.755 81.8957 139.755 85.8157C139.755 89.6983 138.763 92.7596 136.781 94.9995C134.798 97.2022 132.049 98.3035 128.533 98.3035ZM124.549 91.3036C125.522 92.6102 126.85 93.2636 128.533 93.2636C130.216 93.2636 131.525 92.6289 132.461 91.3596C133.433 90.0529 133.919 88.2236 133.919 85.8717C133.919 83.4824 133.433 81.6344 132.461 80.3278C131.525 79.0211 130.216 78.3678 128.533 78.3678C126.85 78.3678 125.522 79.0398 124.549 80.3838C123.614 81.6904 123.147 83.5197 123.147 85.8717C123.147 88.1863 123.614 89.9969 124.549 91.3036ZM167.585 110.791C165.602 112.994 162.871 114.095 159.393 114.095C155.914 114.095 153.165 112.994 151.145 110.791C149.162 108.551 148.171 105.49 148.171 101.607C148.171 97.6875 149.162 94.6262 151.145 92.4236C153.165 90.1836 155.914 89.0636 159.393 89.0636C162.871 89.0636 165.602 90.1836 167.585 92.4236C169.604 94.6262 170.614 97.6875 170.614 101.607C170.614 105.49 169.604 108.551 167.585 110.791ZM155.409 107.095C156.382 108.402 157.709 109.055 159.393 109.055C161.076 109.055 162.385 108.421 163.32 107.151C164.293 105.845 164.779 104.015 164.779 101.663C164.779 99.2741 164.293 97.4262 163.32 96.1195C162.385 94.8129 161.076 94.1595 159.393 94.1595C157.709 94.1595 156.382 94.8315 155.409 96.1755C154.474 97.4822 154.006 99.3115 154.006 101.663C154.006 103.978 154.474 105.789 155.409 107.095Z" fill="black"/>
</svg>
