<svg width="202" height="61" viewBox="0 0 202 61" fill="none" xmlns="http://www.w3.org/2000/svg">
<g clip-path="url(#clip0_9_385)">
<path d="M30.4422 0.0997314C13.7774 0.0997314 0.267334 13.5757 0.267334 30.1987C0.267334 46.8225 13.7774 60.2974 30.4422 60.2974C47.1087 60.2974 60.6173 46.8225 60.6173 30.1987C60.6173 13.5768 47.1087 0.101169 30.4418 0.101169L30.4422 0.0997314ZM44.2801 43.5112C43.7396 44.3953 42.5794 44.6757 41.693 44.133C34.6082 39.8163 25.6894 38.8386 15.1859 41.2324C14.1738 41.4624 13.1649 40.8298 12.9342 39.8199C12.7026 38.8099 13.3342 37.8035 14.3489 37.5734C25.8433 34.954 35.7029 36.0818 43.6568 40.9305C44.5432 41.4732 44.8242 42.627 44.2801 43.5112ZM47.9735 35.3155C47.2924 36.4197 45.8439 36.7683 44.7377 36.089C36.6268 31.116 24.2629 29.6758 14.6692 32.5807C13.425 32.9555 12.1109 32.2561 11.7333 31.0172C11.3585 29.7761 12.0601 28.4678 13.3021 28.0904C24.2607 24.7736 37.8843 26.3802 47.1988 32.0897C48.305 32.769 48.6545 34.2139 47.9735 35.3159V35.3155ZM48.2906 26.7813C38.5653 21.0194 22.52 20.4896 13.2348 23.3007C11.7437 23.7517 10.1669 22.9121 9.71509 21.4248C9.26324 19.9368 10.1042 18.365 11.5964 17.9129C22.2552 14.6852 39.9742 15.3088 51.171 21.9391C52.515 22.7331 52.9546 24.4609 52.1583 25.7969C51.3656 27.1346 49.6288 27.5757 48.292 26.7813H48.2906ZM82.363 27.8855C77.1527 26.6462 76.2267 25.7764 76.2267 23.9487C76.2267 22.222 77.8553 21.06 80.2803 21.06C82.6297 21.06 84.9574 21.9424 87.4004 23.7589C87.4725 23.8139 87.5661 23.8358 87.6562 23.8215C87.7499 23.8078 87.8292 23.7578 87.8832 23.6827L90.4271 20.1057C90.5316 19.9584 90.5028 19.7553 90.3623 19.6428C87.4544 17.3162 84.1827 16.1851 80.356 16.1851C74.7313 16.1851 70.8001 19.5526 70.8001 24.3707C70.8001 29.5374 74.1908 31.3669 80.0497 32.7791C85.033 33.9246 85.8762 34.8842 85.8762 36.5994C85.8762 38.5008 84.1755 39.6833 81.437 39.6833C78.3958 39.6833 75.9132 38.6589 73.1387 36.2651C73.0702 36.204 72.9765 36.1789 72.89 36.1825C72.7964 36.1897 72.7135 36.2328 72.6558 36.3011L69.802 39.6869C69.6831 39.8306 69.6975 40.0391 69.8345 40.1613C73.063 43.0367 77.0338 44.5535 81.3217 44.5535C87.3824 44.5535 91.2991 41.2504 91.2991 36.1357C91.3099 31.8201 88.7192 29.4299 82.3738 27.8902L82.363 27.8855ZM105.013 22.7601C102.386 22.7601 100.232 23.7923 98.4516 25.9076V23.5267C98.4516 23.3388 98.3003 23.1856 98.1129 23.1856H93.4467C93.2593 23.1856 93.108 23.3388 93.108 23.5267V49.9808C93.108 50.1677 93.2593 50.3223 93.4467 50.3223H98.1129C98.3003 50.3223 98.4516 50.1677 98.4516 49.9808V41.6314C100.232 43.619 102.386 44.593 105.013 44.593C109.896 44.593 114.839 40.8442 114.839 33.6776C114.846 26.5096 109.903 22.7597 105.017 22.7597L105.013 22.7601ZM109.413 33.6776C109.413 37.3254 107.161 39.8738 103.932 39.8738C100.743 39.8738 98.3363 37.2104 98.3363 33.6776C98.3363 30.1445 100.743 27.4819 103.932 27.4819C107.107 27.4815 109.413 30.0866 109.413 33.6773V33.6776ZM127.505 22.7601C121.217 22.7601 116.291 27.5893 116.291 33.7556C116.291 39.8558 121.185 44.6326 127.429 44.6326C133.738 44.6326 138.678 39.8199 138.678 33.6776C138.678 27.5563 133.771 22.7608 127.505 22.7608V22.7601ZM127.505 39.9097C124.161 39.9097 121.639 37.2284 121.639 33.6758C121.639 30.1071 124.074 27.5174 127.429 27.5174C130.794 27.5174 133.331 30.1977 133.331 33.7538C133.331 37.3218 130.881 39.9097 127.505 39.9097ZM152.104 23.1856H146.97V17.9502C146.97 17.7626 146.818 17.6095 146.631 17.6095H141.965C141.777 17.6095 141.622 17.7626 141.622 17.9502V23.1856H139.381C139.194 23.1856 139.042 23.3388 139.042 23.5267V27.5261C139.042 27.7137 139.194 27.8672 139.381 27.8672H141.622V38.2168C141.622 42.3969 143.709 44.5175 147.827 44.5175C149.499 44.5175 150.886 44.1725 152.194 43.4321C152.302 43.3746 152.367 43.2596 152.367 43.1374V39.3274C152.367 39.2124 152.306 39.101 152.205 39.0399C152.104 38.9752 151.978 38.9716 151.874 39.0255C150.976 39.4748 150.108 39.6833 149.135 39.6833C147.64 39.6833 146.97 39.004 146.97 37.4872V27.869H152.104C152.292 27.869 152.443 27.7158 152.443 27.5279V23.5289C152.45 23.3409 152.299 23.1878 152.108 23.1878L152.104 23.1856ZM169.991 23.2061V22.5631C169.991 20.6715 170.719 19.8279 172.347 19.8279C173.32 19.8279 174.102 20.0205 174.978 20.3117C175.086 20.3455 175.198 20.3286 175.284 20.2642C175.374 20.1999 175.425 20.0967 175.425 19.9875V16.0661C175.425 15.9163 175.331 15.7836 175.183 15.7394C174.261 15.4652 173.079 15.1837 171.306 15.1837C167 15.1837 164.719 17.6041 164.719 22.1807V23.1655H162.478C162.291 23.1655 162.136 23.3186 162.136 23.5062V27.5261C162.136 27.7137 162.291 27.8672 162.478 27.8672H164.719V43.8274C164.719 44.0179 164.874 44.1689 165.062 44.1689H169.724C169.915 44.1689 170.066 44.0179 170.066 43.8274V27.8682H174.423L181.096 43.8274C180.339 45.5024 179.594 45.8366 178.577 45.8366C177.756 45.8366 176.887 45.5922 176.005 45.107C175.922 45.0639 175.821 45.0567 175.734 45.0818C175.644 45.1142 175.569 45.1789 175.533 45.2652L173.951 48.7264C173.875 48.8918 173.94 49.0823 174.099 49.1685C175.749 50.0599 177.237 50.4409 179.078 50.4409C182.523 50.4409 184.429 48.8378 186.105 44.5319L194.198 23.6719C194.241 23.567 194.226 23.4484 194.161 23.3553C194.1 23.2629 193.996 23.2072 193.884 23.2072H189.027C188.879 23.2072 188.749 23.2996 188.703 23.4358L183.726 37.6094L178.278 23.4265C178.228 23.2945 178.102 23.2072 177.961 23.2072H169.991V23.2061ZM159.621 23.1856H154.954C154.767 23.1856 154.612 23.3388 154.612 23.5267V43.8274C154.612 44.0179 154.767 44.1689 154.954 44.1689H159.621C159.808 44.1689 159.963 44.0179 159.963 43.8274V23.5282C159.963 23.3402 159.812 23.1871 159.621 23.1871V23.1856ZM157.315 13.9416C155.466 13.9416 153.967 15.4339 153.967 17.2774C153.967 19.122 155.466 20.6161 157.315 20.6161C159.163 20.6161 160.658 19.122 160.658 17.2774C160.658 15.4343 159.159 13.9416 157.315 13.9416ZM198.183 29.7132C196.338 29.7132 194.9 28.2341 194.9 26.4381C194.9 24.642 196.356 23.1461 198.201 23.1461C200.046 23.1461 201.483 24.6248 201.483 26.4194C201.483 28.2154 200.028 29.7132 198.183 29.7132ZM198.201 23.4717C196.518 23.4717 195.246 24.8052 195.246 26.4381C195.246 28.0702 196.511 29.3857 198.183 29.3857C199.865 29.3857 201.137 28.0533 201.137 26.4194C201.137 24.7872 199.873 23.4717 198.201 23.4717ZM198.929 26.7562L199.858 28.053H199.073L198.237 26.8633H197.52V28.053H196.864V24.6154H198.399C199.202 24.6154 199.729 25.0241 199.729 25.712C199.732 26.2756 199.404 26.6199 198.932 26.7562H198.929ZM198.374 25.2052H197.52V26.2925H198.374C198.799 26.2925 199.055 26.0844 199.055 25.7483C199.055 25.3947 198.799 25.2052 198.374 25.2052Z" fill="#1D1D1D"/>
</g>
<defs>
<clipPath id="clip0_9_385">
<rect width="201.422" height="60.3835" fill="white" transform="translate(0.176758)"/>
</clipPath>
</defs>
</svg>
