<svg width="416" height="56" viewBox="0 0 416 56" fill="none" xmlns="http://www.w3.org/2000/svg">
<path d="M18.576 55.936C14.256 55.936 11.112 54.88 9.144 52.768C7.224 50.656 6.264 47.344 6.264 42.832V24.544H0.648V15.688H6.264V0.423999H16.056V15.688H27.648V24.544H16.056V41.176C16.056 43.432 16.416 45.04 17.136 46C17.904 46.96 19.272 47.44 21.24 47.44C23.496 47.44 25.608 47.008 27.576 46.144V54.856C25.176 55.576 22.176 55.936 18.576 55.936ZM35.3014 55V15.688H44.8774V20.8C47.9014 16.816 51.9814 14.824 57.1174 14.824C58.3174 14.824 59.2294 14.944 59.8534 15.184V25.912C58.0294 25.432 56.4454 25.192 55.1014 25.192C52.1734 25.192 49.7974 26.152 47.9734 28.072C46.1494 29.992 45.2374 32.776 45.2374 36.424V55H35.3014ZM82.1728 55.864C76.4128 55.864 71.8048 54.016 68.3488 50.32C64.8928 46.576 63.1648 41.56 63.1648 35.272C63.1648 29.032 64.8688 24.064 68.2768 20.368C71.6848 16.624 76.1728 14.752 81.7408 14.752C86.8768 14.752 90.9088 16.192 93.8368 19.072V15.688H103.629V55H93.9808V51.184C91.3888 54.304 87.4528 55.864 82.1728 55.864ZM84.3328 46.936C88.8448 46.936 92.0608 45.208 93.9808 41.752V28.72C93.0208 27.136 91.6288 25.912 89.8048 25.048C87.9808 24.136 86.0848 23.68 84.1168 23.68C80.9008 23.68 78.3088 24.712 76.3408 26.776C74.3728 28.792 73.3888 31.624 73.3888 35.272C73.3888 38.872 74.3728 41.728 76.3408 43.84C78.3088 45.904 80.9728 46.936 84.3328 46.936ZM129.704 55.864C123.944 55.864 119.336 54.016 115.88 50.32C112.424 46.576 110.696 41.56 110.696 35.272C110.696 29.032 112.4 24.064 115.808 20.368C119.216 16.624 123.704 14.752 129.272 14.752C134.408 14.752 138.44 16.192 141.368 19.072V0.423999H151.16V55H141.512V51.184C138.92 54.304 134.984 55.864 129.704 55.864ZM131.864 46.936C136.376 46.936 139.592 45.208 141.512 41.752V28.72C140.552 27.136 139.16 25.912 137.336 25.048C135.512 24.136 133.616 23.68 131.648 23.68C128.432 23.68 125.84 24.712 123.872 26.776C121.904 28.792 120.92 31.624 120.92 35.272C120.92 38.872 121.904 41.728 123.872 43.84C125.84 45.904 128.504 46.936 131.864 46.936ZM198.907 35.344C198.907 36.784 198.883 37.768 198.835 38.296H168.307C168.835 41.224 170.083 43.48 172.051 45.064C174.067 46.648 176.683 47.44 179.899 47.44C184.795 47.44 188.587 45.76 191.275 42.4L197.539 47.728C193.651 53.104 187.531 55.792 179.179 55.792C172.651 55.792 167.515 53.944 163.771 50.248C160.075 46.552 158.227 41.536 158.227 35.2C158.227 29.008 160.123 24.04 163.915 20.296C167.707 16.504 172.627 14.608 178.675 14.608C185.251 14.608 190.267 16.504 193.723 20.296C197.179 24.04 198.907 29.056 198.907 35.344ZM178.675 22.888C176.035 22.888 173.803 23.584 171.979 24.976C170.155 26.32 168.955 28.36 168.379 31.096H189.187C188.851 28.744 187.819 26.8 186.091 25.264C184.363 23.68 181.891 22.888 178.675 22.888ZM247.075 53.416L244.555 55.936L237.427 49.096C232.963 53.464 227.539 55.648 221.155 55.648C215.827 55.648 211.723 54.424 208.843 51.976C206.011 49.48 204.595 46.24 204.595 42.256C204.595 35.92 208.435 31.336 216.115 28.504C213.379 25.864 211.459 23.68 210.355 21.952C209.299 20.224 208.771 18.184 208.771 15.832C208.771 12.184 209.995 9.304 212.443 7.192C214.891 5.032 218.011 3.952 221.803 3.952C225.787 3.952 228.955 5.104 231.307 7.408C233.659 9.664 234.835 12.568 234.835 16.12C234.835 22.12 230.707 26.68 222.451 29.8L237.139 43.912C239.683 40.984 241.123 37.168 241.459 32.464H244.915C245.011 37.696 243.307 42.352 239.803 46.432L247.075 53.416ZM212.803 16.192C212.803 18.064 213.283 19.72 214.243 21.16C215.203 22.552 217.051 24.544 219.787 27.136C223.723 25.744 226.555 24.184 228.283 22.456C230.059 20.68 230.947 18.664 230.947 16.408C230.947 13.864 230.131 11.752 228.499 10.072C226.915 8.392 224.659 7.552 221.731 7.552C218.995 7.552 216.811 8.344 215.179 9.928C213.595 11.512 212.803 13.6 212.803 16.192ZM221.155 51.904C226.435 51.904 230.971 50.104 234.763 46.504L218.779 31.096C215.659 32.104 213.187 33.544 211.363 35.416C209.587 37.288 208.699 39.496 208.699 42.04C208.699 45.064 209.779 47.464 211.939 49.24C214.147 51.016 217.219 51.904 221.155 51.904ZM267.656 55.648C261.752 55.648 256.496 54.4 251.888 51.904L253.472 48.232C257.696 50.632 262.448 51.832 267.728 51.832C274.928 51.832 278.528 49.36 278.528 44.416C278.528 42.4 277.616 40.888 275.792 39.88C273.968 38.824 270.92 37.84 266.648 36.928C261.656 35.872 258.056 34.552 255.848 32.968C253.688 31.384 252.608 29.056 252.608 25.984C252.608 22.768 253.904 20.248 256.496 18.424C259.136 16.552 262.544 15.616 266.72 15.616C271.184 15.616 275.816 16.6 280.616 18.568L279.248 22.168C275.6 20.344 271.376 19.432 266.576 19.432C263.648 19.432 261.272 19.984 259.448 21.088C257.624 22.192 256.712 23.776 256.712 25.84C256.712 27.808 257.552 29.296 259.232 30.304C260.96 31.312 263.912 32.272 268.088 33.184C273.32 34.336 277.064 35.704 279.32 37.288C281.576 38.824 282.704 41.152 282.704 44.272C282.704 51.856 277.688 55.648 267.656 55.648ZM309.519 55.576C303.615 55.576 298.887 53.752 295.335 50.104C291.831 46.456 290.079 41.56 290.079 35.416C290.079 29.32 291.855 24.496 295.407 20.944C299.007 17.392 303.663 15.616 309.375 15.616C315.519 15.616 320.271 17.512 323.631 21.304V16.264H327.519V55H323.631V49.744C320.271 53.632 315.567 55.576 309.519 55.576ZM309.879 51.76C312.615 51.76 315.207 51.184 317.655 50.032C320.151 48.88 322.143 47.152 323.631 44.848V26.272C322.047 24.016 320.007 22.312 317.511 21.16C315.015 20.008 312.423 19.432 309.735 19.432C305.175 19.432 301.431 20.872 298.503 23.752C295.623 26.584 294.183 30.472 294.183 35.416C294.183 40.408 295.599 44.392 298.431 47.368C301.311 50.296 305.127 51.76 309.879 51.76ZM368.951 16.264H373.343L355.127 55.288H352.751L334.607 16.264H339.071L349.439 38.944L353.903 49.096L368.951 16.264ZM415.762 35.704V36.856H380.842C381.178 41.464 382.858 45.112 385.882 47.8C388.906 50.488 392.65 51.832 397.114 51.832C403.21 51.832 407.938 49.768 411.298 45.64L414.25 48.016C410.362 53.056 404.578 55.576 396.898 55.576C390.898 55.576 386.026 53.728 382.282 50.032C378.586 46.336 376.738 41.488 376.738 35.488C376.738 29.632 378.562 24.856 382.21 21.16C385.906 17.464 390.586 15.616 396.25 15.616C402.298 15.616 407.05 17.464 410.506 21.16C414.01 24.856 415.762 29.704 415.762 35.704ZM396.322 19.36C392.242 19.36 388.762 20.656 385.882 23.248C383.002 25.792 381.346 29.152 380.914 33.328H411.586C411.298 29.152 409.786 25.792 407.05 23.248C404.362 20.656 400.786 19.36 396.322 19.36Z" fill="white"/>
</svg>
